M48
;GenerationSoftware,Autodesk,EAGLE,9.6.2*%
;CreationDate,2022-03-09T08:45:04Z*%
FMAT,2
ICI,OFF
METRIC,TZ,000.000
T17C0.350
T16C0.650
T15C0.813
T14C0.889
T13C0.914
T12C1.000
T11C1.016
T10C1.118
T9C1.300
T8C1.400
T7C1.500
T6C1.626
T5C2.286
T4C2.413
T3C2.438
T2C2.800
T1C3.302
%
G90
M71
T1
X216789Y154330
X216789Y107290
X216789Y92989
X216789Y54305
T2
X222631Y5715
X222631Y217170
X210820Y65278
X210820Y118745
X210820Y147955
X210820Y174752
X208280Y195580
X210820Y28575
T3
X24130Y12065
T4
X93955Y121285
X83795Y121285
X73635Y121285
X63475Y121285
X53315Y121285
X43155Y121285
X32995Y121285
X22835Y121285
T5
X221120Y164694
X221120Y178206
X221932Y171450
X221120Y183744
X221120Y44221
X221120Y30709
X221932Y37465
X221932Y190500
X221120Y197256
X221120Y25171
X221120Y11659
X221932Y18415
T6
X33020Y213995
X22860Y213995
X24130Y113665
X24130Y62865
X93980Y213995
X43180Y213995
X53340Y213995
X63500Y213995
X83820Y213995
X73660Y213995
T7
X193040Y210820
X203200Y210820
X189865Y210820
X179705Y210820
T8
X153460Y114300
X158960Y126900
X158960Y122700
X158960Y118500
X158960Y114300
X158960Y110100
X158960Y105900
X158960Y101700
X153460Y110100
X153460Y105900
X153460Y101700
X153460Y122700
X153460Y118500
X153460Y126900
T9
X44069Y59497
X44069Y39497
X195632Y214630
X182297Y214630
X187273Y214630
X200608Y214630
T10
X147320Y170180
X147320Y200660
T11
X114300Y11430
X66040Y13970
X96520Y11430
X73660Y151130
X73660Y148590
X73660Y146050
X93980Y204470
X93980Y201930
X154940Y81280
X154940Y58420
X93980Y199390
X93980Y196850
X73660Y143510
X73660Y140970
X93980Y194310
X93980Y191770
X218059Y62560
X218059Y65329
X218059Y68097
X218059Y70866
X218059Y73609
X218059Y76378
X218059Y79121
X218059Y81915
X218059Y84658
X215519Y61189
X215519Y63957
X215519Y66700
X215519Y69469
X215519Y72238
X215519Y74981
X215519Y77749
X215519Y80518
X215519Y83261
X215519Y86030
X93980Y189230
X93980Y186690
X218059Y115621
X218059Y118389
X218059Y121158
X218059Y123901
X218059Y126670
X218059Y129438
X218059Y132182
X218059Y134950
X218059Y137719
X218059Y140462
X218059Y143231
X218059Y145999
X215519Y114249
X215519Y117018
X215519Y119761
X215519Y122530
X215519Y125298
X215519Y128041
X215519Y130810
X215519Y133579
X215519Y136322
X215519Y139090
X215519Y141859
X215519Y144602
X215519Y147371
X93980Y184150
X93980Y181610
X93980Y179070
X93980Y176530
X93980Y173990
X93980Y171450
X93980Y168910
X93980Y166370
X93980Y163830
X93980Y161290
X93980Y158750
X93980Y156210
X93980Y153670
X93980Y151130
X93980Y148590
X93980Y146050
X93980Y143510
X93980Y140970
X93980Y138430
X93980Y135890
X93980Y133350
X93980Y130810
X83820Y204470
X83820Y201930
X83820Y199390
X83820Y196850
X73660Y138430
X83820Y194310
X83820Y191770
X83820Y189230
X83820Y186690
X83820Y184150
X83820Y181610
X83820Y179070
X83820Y176530
X83820Y173990
X83820Y171450
X83820Y168910
X83820Y166370
X83820Y163830
X83820Y161290
X83820Y158750
X83820Y156210
X83820Y153670
X83820Y151130
X83820Y148590
X83820Y146050
X83820Y143510
X83820Y140970
X83820Y138430
X83820Y135890
X83820Y133350
X83820Y130810
X73660Y204470
X73660Y201930
X73660Y199390
X73660Y196850
X73660Y194310
X73660Y191770
X73660Y189230
X73660Y186690
X73660Y184150
X73660Y181610
X73660Y179070
X73660Y176530
X73660Y173990
X73660Y171450
X73660Y168910
X73660Y166370
X73660Y163830
X73660Y161290
X73660Y158750
X22860Y20320
X25400Y21590
X22860Y22860
X25400Y24130
X22860Y25400
X25400Y26670
X22860Y27940
X25400Y29210
X22860Y30480
X25400Y31750
X22860Y33020
X25400Y34290
X22860Y35560
X25400Y36830
X22860Y38100
X25400Y39370
X22860Y40640
X25400Y41910
X22860Y43180
X25400Y44450
X22860Y45720
X25400Y46990
X22860Y48260
X25400Y49530
X22860Y50800
X25400Y52070
X22860Y53340
X25400Y54610
X22860Y55880
X25400Y57150
X22860Y58420
X25400Y59690
X22860Y66040
X25400Y67310
X22860Y68580
X25400Y69850
X22860Y71120
X25400Y72390
X22860Y73660
X25400Y74930
X22860Y76200
X25400Y77470
X22860Y78740
X25400Y80010
X22860Y81280
X25400Y82550
X22860Y83820
X25400Y85090
X22860Y86360
X25400Y87630
X22860Y88900
X25400Y90170
X22860Y91440
X25400Y92710
X22860Y93980
X25400Y95250
X22860Y96520
X25400Y97790
X22860Y99060
X25400Y100330
X22860Y101600
X25400Y102870
X22860Y104140
X25400Y105410
X139700Y16510
X137160Y16510
X134620Y16510
X132080Y16510
X139700Y13970
X137160Y13970
X134620Y13970
X132080Y13970
X139700Y11430
X137160Y11430
X134620Y11430
X132080Y11430
X129540Y16510
X127000Y16510
X124460Y16510
X121920Y16510
X129540Y13970
X127000Y13970
X124460Y13970
X121920Y13970
X129540Y11430
X127000Y11430
X124460Y11430
X121920Y11430
X119380Y16510
X116840Y16510
X114300Y16510
X111760Y16510
X109220Y16510
X106680Y16510
X104140Y16510
X101600Y16510
X99060Y16510
X96520Y16510
X93980Y16510
X91440Y16510
X88900Y16510
X86360Y16510
X83820Y16510
X81280Y16510
X119380Y13970
X116840Y13970
X114300Y13970
X111760Y13970
X109220Y13970
X106680Y13970
X104140Y13970
X101600Y13970
X99060Y13970
X96520Y13970
X93980Y13970
X91440Y13970
X88900Y13970
X86360Y13970
X83820Y13970
X81280Y13970
X119380Y11430
X116840Y11430
X73660Y135890
X111760Y11430
X109220Y11430
X106680Y11430
X104140Y11430
X101600Y11430
X99060Y11430
X73660Y156210
X93980Y11430
X91440Y11430
X88900Y11430
X86360Y11430
X83820Y11430
X81280Y11430
X78740Y16510
X76200Y16510
X73660Y16510
X71120Y16510
X68580Y16510
X66040Y16510
X63500Y16510
X60960Y16510
X58420Y16510
X55880Y16510
X53340Y16510
X50800Y16510
X48260Y16510
X45720Y16510
X43180Y16510
X40640Y16510
X78740Y13970
X76200Y13970
X73660Y13970
X71120Y13970
X68580Y13970
X73660Y153670
X63500Y13970
X60960Y13970
X58420Y13970
X55880Y13970
X53340Y13970
X50800Y13970
X48260Y13970
X45720Y13970
X43180Y13970
X40640Y13970
X78740Y11430
X76200Y11430
X73660Y11430
X71120Y11430
X68580Y11430
X66040Y11430
X63500Y11430
X60960Y11430
X58420Y11430
X55880Y11430
X53340Y11430
X50800Y11430
X48260Y11430
X45720Y11430
X43180Y11430
X40640Y11430
X22860Y130810
X22860Y133350
X22860Y135890
X22860Y138430
X22860Y140970
X22860Y143510
X22860Y146050
X22860Y148590
X22860Y151130
X22860Y153670
X22860Y156210
X22860Y158750
X22860Y161290
X22860Y163830
X22860Y166370
X22860Y168910
X22860Y171450
X22860Y173990
X22860Y176530
X22860Y179070
X22860Y181610
X22860Y184150
X22860Y186690
X22860Y189230
X22860Y191770
X22860Y194310
X22860Y196850
X22860Y199390
X22860Y201930
X22860Y204470
X33020Y130810
X33020Y133350
X33020Y135890
X33020Y138430
X33020Y140970
X33020Y143510
X33020Y146050
X33020Y148590
X33020Y151130
X33020Y153670
X33020Y156210
X33020Y158750
X33020Y161290
X33020Y163830
X33020Y166370
X33020Y168910
X33020Y171450
X33020Y173990
X33020Y176530
X33020Y179070
X33020Y181610
X33020Y184150
X33020Y186690
X33020Y189230
X33020Y191770
X33020Y194310
X33020Y196850
X33020Y199390
X33020Y201930
X33020Y204470
X43180Y130810
X43180Y133350
X43180Y135890
X43180Y138430
X43180Y140970
X43180Y143510
X43180Y146050
X43180Y148590
X43180Y151130
X43180Y153670
X43180Y156210
X43180Y158750
X43180Y161290
X43180Y163830
X43180Y166370
X43180Y168910
X43180Y171450
X43180Y173990
X43180Y176530
X43180Y179070
X43180Y181610
X43180Y184150
X43180Y186690
X43180Y189230
X43180Y191770
X43180Y194310
X43180Y196850
X43180Y199390
X43180Y201930
X43180Y204470
X53340Y130810
X53340Y133350
X53340Y135890
X53340Y138430
X53340Y140970
X53340Y143510
X53340Y146050
X53340Y148590
X53340Y151130
X53340Y153670
X53340Y156210
X53340Y158750
X53340Y161290
X53340Y163830
X53340Y166370
X53340Y168910
X53340Y171450
X53340Y173990
X53340Y176530
X53340Y179070
X53340Y181610
X53340Y184150
X53340Y186690
X53340Y189230
X53340Y191770
X53340Y194310
X53340Y196850
X53340Y199390
X53340Y201930
X53340Y204470
X63500Y130810
X63500Y133350
X63500Y135890
X63500Y138430
X63500Y140970
X63500Y143510
X63500Y146050
X63500Y148590
X63500Y151130
X63500Y153670
X63500Y156210
X63500Y158750
X63500Y161290
X63500Y163830
X63500Y166370
X63500Y168910
X63500Y171450
X63500Y173990
X63500Y176530
X63500Y179070
X63500Y181610
X63500Y184150
X63500Y186690
X63500Y189230
X63500Y191770
X63500Y194310
X63500Y196850
X63500Y199390
X63500Y201930
X63500Y204470
X73660Y130810
X73660Y133350
T12
X223647Y208280
X221247Y206280
X196850Y122435
X196850Y113785
X217547Y208280
X215747Y206280
X212047Y208280
T13
X204470Y205740
X201930Y205740
X189230Y85090
X191770Y85090
X189230Y82550
X191770Y82550
X189230Y80010
X191770Y80010
X189230Y77470
X191770Y77470
X189230Y74930
X191770Y74930
X189230Y72390
X191770Y72390
X189230Y69850
X191770Y69850
X189230Y67310
X191770Y67310
X189230Y64770
X191770Y64770
X189230Y62230
X191770Y62230
X205740Y96520
X203200Y96520
X205740Y99060
X203200Y99060
X205740Y101600
X203200Y101600
X205740Y104140
X203200Y104140
X205740Y106680
X203200Y106680
X205740Y109220
X203200Y109220
X205740Y111760
X203200Y111760
X205740Y114300
X203200Y114300
X205740Y116840
X203200Y116840
X205740Y119380
X203200Y119380
X205740Y121920
X203200Y121920
X205740Y124460
X203200Y124460
X205740Y127000
X203200Y127000
X205740Y129540
X203200Y129540
X203200Y132080
X205740Y132080
X205740Y134620
X203200Y134620
X203200Y137160
X205740Y137160
X205740Y139700
X203200Y139700
X203200Y142240
X205740Y142240
X205740Y144780
X203200Y144780
X205740Y147320
X203200Y147320
X205740Y149860
X203200Y149860
X205740Y152400
X203200Y152400
X205740Y154940
X203200Y154940
X205740Y157480
X203200Y157480
X201930Y203200
X184150Y5080
X186690Y5080
X204470Y203200
X201930Y200660
X204470Y200660
X163830Y139700
X166370Y139700
T14
X215633Y174803
X218122Y168097
X215633Y170637
X215633Y168097
X215633Y172745
X218122Y174803
X218122Y170155
X218122Y21768
X218122Y15062
X215633Y21768
X215633Y15062
X218122Y40818
X218122Y34112
X215633Y40818
X215633Y34112
X218122Y191795
X218122Y189205
X218122Y193853
X215633Y191795
X218122Y187147
X215633Y193853
X215633Y189687
X218122Y172745
X215633Y187147
T15
X124460Y128270
X190500Y199390
X3810Y95250
X6350Y97790
X3810Y97790
X6350Y100330
X8890Y97790
X8890Y100330
X11430Y97790
X11430Y100330
X13970Y97790
X13970Y100330
X16510Y97790
X16510Y100330
X19050Y97790
X16510Y95250
X19050Y95250
X16510Y92710
X19050Y92710
X16510Y90170
X19050Y90170
X16510Y87630
X13970Y90170
X13970Y87630
X11430Y90170
X11430Y87630
X8890Y90170
X8890Y87630
X6350Y90170
X6350Y87630
X3810Y90170
X6350Y92710
X3810Y92710
X6350Y95250
X3810Y52070
X6350Y54610
X3810Y54610
X6350Y57150
X8890Y54610
X8890Y57150
X11430Y54610
X11430Y57150
X13970Y54610
X13970Y57150
X16510Y54610
X16510Y57150
X19050Y54610
X16510Y52070
X19050Y52070
X16510Y49530
X19050Y49530
X16510Y46990
X19050Y46990
X16510Y44450
X13970Y46990
X13970Y44450
X11430Y46990
X11430Y44450
X8890Y46990
X8890Y44450
X6350Y46990
X6350Y44450
X3810Y46990
X6350Y49530
X3810Y49530
X6350Y52070
X3810Y74930
X6350Y77470
X3810Y77470
X6350Y80010
X8890Y77470
X8890Y80010
X11430Y77470
X11430Y80010
X13970Y77470
X13970Y80010
X16510Y77470
X16510Y80010
X19050Y77470
X16510Y74930
X19050Y74930
X109220Y100330
X109220Y102870
X109220Y115570
X16510Y72390
X19050Y72390
X16510Y69850
X19050Y69850
X16510Y67310
X13970Y69850
X13970Y67310
X11430Y69850
X11430Y67310
X8890Y69850
X8890Y67310
X6350Y69850
X6350Y67310
X3810Y69850
X6350Y72390
X3810Y72390
X6350Y74930
X3810Y31750
X6350Y34290
X3810Y34290
X6350Y36830
X8890Y34290
X8890Y36830
X11430Y34290
X11430Y36830
X13970Y34290
X13970Y36830
X16510Y34290
X16510Y36830
X19050Y34290
X16510Y31750
X19050Y31750
X16510Y29210
X19050Y29210
X16510Y26670
X19050Y26670
X16510Y24130
X13970Y26670
X13970Y24130
X11430Y26670
X11430Y24130
X8890Y26670
X8890Y24130
X6350Y26670
X6350Y24130
X3810Y26670
X6350Y29210
X3810Y29210
X6350Y31750
X198120Y57785
X205740Y57785
X205740Y80645
X198120Y80645
X190500Y151130
X198120Y151130
X190500Y173990
X198120Y173990
X190500Y179070
X198120Y179070
X190500Y201930
X198120Y201930
X144526Y143510
X141986Y143510
X196850Y138430
X196850Y125730
X196850Y92710
X196850Y105410
X198120Y8890
X185420Y8890
X116840Y184150
X116840Y186690
X116840Y189230
X116840Y191770
X116840Y194310
X116840Y196850
X116840Y199390
X116840Y201930
X116840Y204470
X116840Y207010
X116840Y209550
X116840Y212090
X127000Y212090
X127000Y209550
X127000Y207010
X127000Y204470
X127000Y201930
X127000Y199390
X127000Y196850
X127000Y194310
X127000Y191770
X127000Y189230
X127000Y186690
X127000Y184150
X101600Y184150
X101600Y186690
X101600Y189230
X101600Y191770
X101600Y194310
X101600Y196850
X101600Y199390
X101600Y201930
X101600Y204470
X101600Y207010
X101600Y209550
X101600Y212090
X111760Y212090
X111760Y209550
X111760Y207010
X111760Y204470
X111760Y201930
X111760Y199390
X111760Y196850
X111760Y194310
X111760Y191770
X111760Y189230
X111760Y186690
X111760Y184150
X200660Y16510
X200660Y19050
X193040Y16510
X193040Y19050
X200660Y24130
X200660Y21590
X193040Y21590
X193040Y24130
X190500Y153670
X190500Y156210
X190500Y158750
X190500Y161290
X190500Y163830
X190500Y166370
X190500Y168910
X190500Y171450
X198120Y163830
X198120Y166370
X198120Y161290
X198120Y158750
X198120Y171450
X198120Y168910
X198120Y156210
X198120Y153670
X190500Y181610
X190500Y184150
X190500Y186690
X190500Y189230
X190500Y191770
X190500Y194310
X190500Y196850
X198120Y191770
X198120Y194310
X198120Y189230
X198120Y186690
X198120Y199390
X198120Y196850
X198120Y184150
X198120Y181610
X154940Y191135
X154940Y193675
X154940Y196215
X154940Y198755
X154940Y201295
X154940Y203835
X154940Y206375
X154940Y208915
X162560Y201295
X162560Y203835
X162560Y198755
X162560Y196215
X162560Y208915
X162560Y206375
X162560Y193675
X162560Y191135
X167640Y191262
X167640Y193802
X167640Y196342
X167640Y198882
X167640Y201422
X167640Y203962
X167640Y206502
X167640Y209042
X175260Y201422
X175260Y203962
X175260Y198882
X175260Y196342
X175260Y209042
X175260Y206502
X175260Y193802
X175260Y191262
X198120Y60325
X198120Y62865
X198120Y65405
X198120Y67945
X198120Y70485
X198120Y73025
X198120Y75565
X198120Y78105
X205740Y70485
X205740Y73025
X205740Y67945
X205740Y65405
X205740Y78105
X205740Y75565
X205740Y62865
X205740Y60325
X88900Y31750
X88900Y34290
X88900Y36830
X88900Y39370
X88900Y41910
X88900Y44450
X88900Y46990
X88900Y49530
X88900Y52070
X88900Y54610
X88900Y57150
X88900Y59690
X88900Y62230
X88900Y64770
X104140Y64770
X104140Y62230
X104140Y59690
X104140Y57150
X104140Y54610
X104140Y52070
X104140Y49530
X104140Y46990
X104140Y44450
X104140Y41910
X104140Y39370
X104140Y36830
X104140Y34290
X104140Y31750
X101600Y156210
X101600Y158750
X101600Y161290
X101600Y163830
X101600Y166370
X101600Y168910
X101600Y171450
X101600Y173990
X101600Y176530
X101600Y179070
X109220Y179070
X109220Y176530
X109220Y166370
X109220Y168910
X109220Y163830
X109220Y161290
X109220Y173990
X109220Y171450
X109220Y158750
X109220Y156210
X116840Y156210
X116840Y158750
X116840Y161290
X116840Y163830
X116840Y166370
X116840Y168910
X116840Y171450
X116840Y173990
X116840Y176530
X116840Y179070
X124460Y179070
X124460Y176530
X124460Y166370
X124460Y168910
X124460Y163830
X124460Y161290
X124460Y173990
X124460Y171450
X124460Y158750
X124460Y156210
X101600Y128270
X101600Y130810
X101600Y133350
X101600Y135890
X101600Y138430
X101600Y140970
X101600Y143510
X101600Y146050
X101600Y148590
X101600Y151130
X109220Y151130
X109220Y148590
X109220Y138430
X109220Y140970
X109220Y135890
X109220Y133350
X109220Y146050
X109220Y143510
X109220Y130810
X109220Y128270
X116840Y128270
X116840Y130810
X116840Y133350
X116840Y135890
X116840Y138430
X116840Y140970
X116840Y143510
X116840Y146050
X116840Y148590
X116840Y151130
X124460Y151130
X124460Y148590
X124460Y138430
X124460Y140970
X124460Y135890
X124460Y133350
X124460Y146050
X124460Y143510
X124460Y130810
X53340Y27940
X53340Y30480
X53340Y33020
X53340Y35560
X60960Y35560
X60960Y33020
X60960Y30480
X60960Y27940
X67310Y31750
X67310Y34290
X132080Y109220
X132080Y124460
X139700Y124460
X139700Y109220
X137160Y44450
X134620Y54610
X121920Y44450
X134620Y39370
X137160Y39370
X137160Y54610
X121920Y54610
X121920Y39370
X119380Y39370
X119380Y41910
X119380Y44450
X119380Y49530
X119380Y52070
X119380Y54610
X119380Y46990
X137160Y57150
X134620Y57150
X132080Y57150
X129540Y57150
X127000Y57150
X124460Y57150
X121920Y57150
X119380Y57150
X119380Y59690
X121920Y59690
X124460Y59690
X127000Y59690
X129540Y59690
X132080Y59690
X134620Y59690
X137160Y59690
X116840Y39370
X116840Y41910
X116840Y44450
X116840Y46990
X116840Y49530
X116840Y52070
X116840Y54610
X116840Y57150
X116840Y59690
X139700Y39370
X139700Y41910
X139700Y44450
X139700Y46990
X139700Y49530
X139700Y52070
X139700Y54610
X139700Y57150
X139700Y59690
X144780Y62230
X142240Y36830
X139700Y36830
X137160Y36830
X134620Y36830
X132080Y36830
X129540Y36830
X127000Y36830
X124460Y36830
X121920Y36830
X119380Y36830
X116840Y36830
X144780Y36830
X114300Y36830
X139700Y62230
X137160Y62230
X134620Y62230
X132080Y62230
X129540Y62230
X127000Y62230
X124460Y62230
X121920Y62230
X119380Y62230
X116840Y62230
X114300Y62230
X142240Y62230
X142240Y39370
X142240Y41910
X142240Y44450
X142240Y46990
X142240Y49530
X142240Y52070
X142240Y54610
X142240Y57150
X142240Y59690
X114300Y59690
X114300Y57150
X114300Y54610
X114300Y52070
X114300Y49530
X114300Y46990
X114300Y44450
X114300Y41910
X114300Y39370
X116840Y34290
X119380Y34290
X121920Y34290
X124460Y34290
X127000Y34290
X129540Y34290
X132080Y34290
X134620Y34290
X137160Y34290
X139700Y34290
X142240Y34290
X144780Y34290
X144780Y39370
X144780Y41910
X144780Y44450
X144780Y46990
X144780Y49530
X144780Y52070
X144780Y54610
X144780Y57150
X144780Y59690
X114300Y34290
X114300Y31750
X116840Y31750
X119380Y31750
X121920Y31750
X124460Y31750
X127000Y31750
X129540Y31750
X132080Y31750
X134620Y31750
X137160Y31750
X139700Y31750
X142240Y31750
X144780Y31750
X101600Y100330
X101600Y102870
X101600Y105410
X101600Y107950
X101600Y110490
X101600Y113030
X101600Y115570
X101600Y118110
X101600Y120650
X101600Y123190
X109220Y123190
X109220Y120650
X109220Y110490
X109220Y113030
X109220Y107950
X109220Y105410
X109220Y118110
T16
X151892Y17907
X184658Y67310
X181356Y94742
T17
X132080Y38735
X125730Y74930
X129921Y197485
X42291Y55880
X42291Y90805
X42291Y94615
X186055Y36830
X184150Y190500
X182499Y68580
X41529Y56642
X41656Y92075
X41656Y95885
X95024Y37973
X112799Y35814
X165608Y36830
X168179Y68072
X157232Y151130
X53086Y60198
X53086Y93345
X53086Y89535
X156210Y179070
X164465Y36223
X167513Y67437
X156323Y151130
X52451Y62230
X97155Y31750
X52451Y90805
X52451Y94615
X155567Y178427
X6350Y64008
X96520Y39370
X30480Y60960
X163195Y27940
X163195Y30988
X166878Y66675
X155414Y151130
X30480Y63500
X32893Y94615
X32893Y90805
X96520Y41910
X154686Y173863
X162814Y64389
X154505Y151130
X86360Y33020
X34798Y69469
X85979Y68072
X32893Y95885
X34036Y92075
X154051Y172720
X86786Y83820
X158496Y97790
X87088Y101981
X147447Y196644
X97767Y36830
X39243Y93345
X39243Y89535
X151384Y152400
X159540Y43815
X148209Y197299
X163378Y111252
X40640Y57277
X40005Y94615
X40640Y90805
X151765Y153670
X106609Y38410
X160147Y42545
X148913Y195961
X163985Y112141
X33782Y60960
X32512Y82550
X32893Y73025
X32893Y76835
X152019Y154940
X10287Y99060
X107800Y36830
X87630Y105410
X149565Y195247
X164592Y113030
X87630Y81915
X31750Y83820
X97282Y44450
X29591Y78105
X29591Y74295
X87630Y88265
X152273Y156210
X12395Y82550
X12700Y102235
X106703Y40386
X165303Y106957
X88392Y104775
X150238Y180340
X88900Y83185
X35560Y81280
X35560Y75565
X35560Y71755
X95913Y46990
X88900Y88265
X152400Y157480
X13970Y102362
X13970Y83312
X107800Y39728
X151384Y179677
X87678Y139700
X161475Y135186
X89535Y80645
X39624Y81915
X39624Y73025
X39624Y76835
X95885Y49530
X90170Y88265
X152400Y158750
X160020Y38100
X127914Y40253
X108105Y35207
X160220Y96193
X151257Y175260
X163047Y134472
X95913Y51712
X91440Y88265
X152400Y160020
X161129Y96393
X152146Y174625
X161925Y30480
X99667Y19304
X152654Y161290
X173327Y143586
X176530Y109220
X171755Y60963
X172974Y51816
X172915Y77442
X176530Y125730
X92710Y99060
X99783Y22479
X99695Y67864
X100965Y54610
X173327Y144780
X177165Y107950
X172466Y54153
X177800Y48260
X173823Y77442
X177278Y134620
X92710Y100330
X98874Y22479
X100330Y48260
X100330Y57503
X173609Y57277
X174236Y144780
X177800Y106680
X178435Y46990
X174732Y77442
X177885Y127000
X97965Y22479
X98425Y194973
X92710Y101600
X98425Y66540
X99695Y60043
X173327Y146547
X178435Y104140
X179070Y45720
X174520Y60325
X175641Y77442
X178491Y133350
X97790Y191262
X97056Y22479
X92710Y102870
X97790Y68058
X99060Y62583
X176530Y56642
X174590Y146142
X178181Y102870
X179705Y44450
X179098Y128270
X96139Y22479
X96901Y193040
X92710Y104140
X97155Y66235
X98171Y64412
X176530Y78740
X173686Y147905
X177800Y101600
X97815Y61872
X179705Y41910
X177292Y59690
X179705Y132080
X95123Y22479
X92710Y105410
X96520Y67818
X96520Y196850
X177800Y78740
X174813Y147635
X177673Y100584
X179705Y40640
X178435Y59055
X180340Y129540
X93980Y22479
X97155Y59436
X92710Y106680
X95885Y66929
X179070Y77470
X90005Y187960
X176258Y147048
X178689Y100711
X179705Y39370
X179070Y56007
X180975Y130810
X92710Y107950
X92837Y22479
X96520Y56896
X95250Y65682
X179070Y76200
X80645Y105156
X91440Y22479
X84455Y66393
X80010Y105918
X90348Y22479
X83820Y64135
X79375Y106807
X89507Y23114
X83185Y65151
X78740Y107569
X88900Y24130
X82550Y62230
X78105Y108331
X87808Y24130
X81915Y63500
X77470Y109093
X87003Y24884
X81280Y62230
X76835Y109855
X86360Y25527
X80645Y60960
X76200Y110617
X85567Y26258
X80010Y59690
X73726Y116555
X79375Y57785
X72817Y116250
X78740Y59055
X78105Y64643
X71654Y115977
X78105Y57150
X77470Y65405
X70355Y116245
X77470Y54610
X76835Y66167
X70358Y115336
X76835Y56515
X76200Y66929
X69898Y114475
X76200Y51435
X75565Y67691
X69850Y113538
X75565Y53947
X74930Y68580
X68834Y110490
X74930Y55880
X30520Y104267
X68938Y107950
X74295Y50800
X68580Y106680
X73660Y53340
X30353Y102870
X68329Y105410
X74501Y48133
X30353Y101473
X68024Y104140
X72390Y50165
X29605Y100838
X67691Y102870
X71755Y52070
X28998Y100076
X67414Y101600
X71882Y48895
X28392Y99314
X67110Y100330
X71120Y46482
X27785Y98552
X66805Y99060
X69977Y45720
X27178Y97790
X116967Y71783
X126393Y44890
X146050Y11811
X142621Y78740
X97790Y96139
X97889Y91079
X139700Y90805
X146713Y13363
X97790Y90170
X96012Y96520
X142240Y88900
X144780Y81280
X11430Y19050
X141608Y9285
X136525Y77470
X163830Y54760
X137541Y112395
X136525Y88265
X138049Y153670
X105410Y157480
X163830Y51689
X59690Y73660
X84201Y91948
X82677Y85471
X138430Y74930
X138430Y83185
X207010Y90170
X145563Y9631
X59436Y95250
X135890Y95250
X140970Y99060
X147320Y10293
X66040Y78105
X147320Y46990
X149225Y12065
X147320Y52070
X66675Y76835
X149860Y13970
X149860Y54610
X144913Y8122
X144780Y66139
X119380Y99060
X57785Y53848
X119380Y96520
X58553Y52776
X119380Y95250
X59159Y55029
X144780Y13335
X68453Y79375
X142821Y11357
X133350Y92710
X137160Y49530
X137160Y22860
X125730Y43485
X171831Y160655
X180340Y27940
X170538Y69850
X170180Y38735
X173990Y117170
X180340Y38100
X120650Y85725
X69370Y41247
X112395Y92710
X87678Y124460
X83693Y71783
X66040Y118491
X68453Y75565
X130302Y42037
X125730Y120650
X124460Y78740
X123952Y86995
X114653Y88900
X130203Y40874
X111760Y88900
X123190Y82550
X115824Y82550
X131115Y42771
X125095Y86360
X110490Y86360
X110490Y91440
X197231Y56007
X161290Y58420
X163807Y107668
X198529Y49530
X144018Y107315
X105410Y110490
X144018Y114300
X85570Y103505
X85570Y91948
X83058Y69012
X142240Y67310
X68453Y71755
X112268Y93980
X151257Y20320
X104013Y84582
X151257Y41910
X146050Y163195
X147320Y144780
X151257Y68580
X146050Y128270
X159402Y28566
X158750Y92710
X123190Y121920
X124460Y100457
X148285Y13970
X147320Y49530
X103711Y92075
X140970Y91440
X121313Y159357
X113030Y105156
X116840Y124460
X150241Y126746
X137160Y84455
X137160Y71374
X138430Y67310
X103759Y86360
X32258Y38481
X4572Y19050
X181864Y179705
X182118Y192405
X83820Y18824
X130429Y22733
X119888Y20247
X110236Y20247
X145923Y102108
X133350Y100330
X130810Y74930
X167640Y52070
X193040Y51816
X179959Y19050
X196215Y17272
X127635Y77343
X117221Y29896
X47625Y76835
X48387Y73025
X50800Y54610
X116220Y70470
X132334Y204724
X134620Y74930
X2898Y58420
X51689Y75565
X51689Y71755
X116375Y29162
X51689Y53340
X115570Y71176
X133350Y74930
X129921Y210185
X45593Y78105
X45593Y74295
X46990Y52070
X61849Y43942
X114935Y28555
X115824Y74930
X115824Y72390
X103632Y75311
X46355Y76835
X46355Y73025
X48260Y50800
X114173Y27949
X115824Y80010
X1933Y30480
X1628Y50800
X1628Y73660
X1933Y91440
X64516Y73025
X64516Y76835
X113411Y26453
X12319Y104140
X147320Y203835
X163195Y187960
X164973Y200025
X144780Y202946
X145415Y188214
X151130Y187198
X147320Y187198
X143510Y187198
X145796Y210693
X142621Y201930
X157099Y174117
X167005Y173990
X200660Y198247
X147320Y181229
X151130Y181229
X151765Y205613
X176149Y188087
X160528Y181483
X158750Y177038
X153670Y184404
X168910Y177038
X165735Y184404
X171450Y212090
X171450Y205232
X158750Y205486
X151130Y194564
X143510Y194564
X147320Y194564
X147320Y188722
X143510Y188722
X145161Y153670
X143510Y154940
X158750Y165989
X160020Y165989
X161290Y165989
X154940Y176276
X168910Y161925
X191897Y176022
X178816Y187325
X174117Y154305
X193040Y187706
X193040Y186563
X194310Y152400
X194973Y165100
X194310Y162560
X187706Y184785
X190119Y141351
X187297Y172359
X191389Y138938
X187297Y171450
X189230Y134620
X183569Y135255
X182880Y159385
X173990Y183515
X173990Y142065
X187353Y183896
X187960Y140716
X184150Y182245
X184150Y125123
X183515Y126365
X182880Y163195
X184785Y127635
X184785Y165100
X182880Y128270
X182880Y146050
X194310Y195580
X189230Y129540
X187833Y198120
X189230Y128270
X187071Y194945
X187071Y105283
X187063Y103259
X200307Y152400
X187051Y106375
X198986Y113538
X197866Y147320
X187031Y107341
X199263Y111887
X194310Y140970
X187044Y104267
X200660Y116586
X200533Y117729
X192659Y118364
X187071Y102235
X186944Y110617
X193040Y115189
X187960Y117348
X65278Y75565
X184404Y90170
X201930Y56388
X193040Y59690
X185420Y63500
X194310Y60325
X184630Y62893
X173990Y82296
X167640Y62611
X166266Y73660
X182499Y71120
X176403Y67945
X104140Y199390
X119738Y200660
X121920Y182880
X88900Y190500
X83693Y76835
X112522Y168303
X111633Y167640
X98552Y168910
X126111Y181610
X127381Y158115
X121920Y186690
X128016Y161290
X121920Y189230
X128651Y160020
X128651Y158750
X128905Y157480
X129540Y214630
X122428Y191056
X121539Y190322
X118745Y181003
X114300Y179070
X130175Y154305
X128699Y166765
X103505Y81921
X94643Y81286
X94643Y74323
X9652Y189230
X105410Y166370
X133223Y183515
X129921Y208915
X129921Y196215
X129921Y170815
X101600Y52324
X139954Y175260
X139319Y194945
X139954Y182245
X139954Y169545
X139319Y207645
X99060Y158750
X100838Y79756
X88900Y180340
X90932Y79375
X154432Y136398
X135509Y200025
X133350Y149860
X104140Y147320
X112522Y160020
X111760Y152400
X114300Y210919
X114300Y198120
X112423Y151130
X129921Y187325
X128016Y137033
X128016Y148082
X89398Y152400
X90932Y78105
X112367Y147447
X139319Y186055
X134620Y144780
X134620Y149860
X113030Y152527
X114300Y175260
X139319Y147320
X142240Y173355
X141224Y130810
X139319Y146050
X140335Y213360
X140462Y130175
X119380Y156210
X139446Y212725
X139319Y143510
X129921Y130147
X129921Y134620
X134620Y142240
X133350Y138430
X135890Y142240
X133350Y137160
X140970Y138430
X142621Y132715
X140970Y135890
X141859Y131600
X139700Y134620
X139700Y129540
X89398Y149733
X90932Y70485
X46990Y36068
X40386Y31496
X172085Y15875
X169672Y19685
X208026Y69215
X203073Y31242
X200152Y13970
X201295Y7112
X203200Y40640
X207645Y64135
X198501Y107823
X182880Y111760
X194437Y107950
X189230Y101600
X179070Y99060
X199136Y100330
X185420Y95631
X197993Y142748
X152273Y206883
X147320Y210058
X142240Y210058
X172720Y26289
X173990Y19050
X170180Y26289
X184785Y53086
X186690Y100330
X170180Y48260
X158750Y149987
X185420Y26670
X190500Y42545
X186690Y26670
X191770Y41910
X184150Y15240
X189230Y40640
X200406Y43180
X196850Y41910
X200660Y39370
X185420Y38100
X186055Y135890
X186055Y125730
X193040Y200660
X200660Y36830
X200660Y35560
X183515Y14351
X187960Y42418
X182880Y13335
X187325Y40513
X187960Y31750
X175260Y49530
X179070Y30480
X183134Y196822
X183134Y184785
X178458Y90170
X185420Y115570
X186690Y129540
X98961Y94615
X181229Y53848
X48260Y207010
X112077Y132017
X40640Y132080
X113792Y151737
X12192Y180975
X8255Y163195
X8255Y158115
X15367Y179705
X12192Y178435
X8255Y160655
X8255Y155575
X15367Y177165
X134620Y125730
X134620Y100330
X135227Y124206
X135890Y100330
X135834Y122301
X137160Y100330
X187960Y48260
X179699Y91948
X161736Y91440
X162560Y51689
X169916Y90434
X173101Y111760
X171450Y36830
X170815Y88542
X168656Y88265
X172466Y110490
X167894Y86995
X172466Y114173
X171450Y38100
X170152Y86002
X171803Y86360
X173101Y137160
X171811Y85344
X173101Y135890
X171831Y84308
X173990Y139700
X125730Y79248
X109220Y81280
X140970Y105797
X162052Y66929
X162560Y32131
X142240Y74930
X158090Y157480
X143510Y156210
X126408Y78641
X109220Y80371
X81280Y73660
X147978Y70612
X148486Y66139
X149197Y26571
X128778Y145415
X121920Y74930
X129540Y105918
X129540Y86360
X182245Y197485
X184150Y121031
X136525Y123190
X134620Y87630
X181610Y25273
X177467Y87122
X185420Y130810
X185420Y137160
X178737Y196850
X194310Y86868
X173482Y88900
X195580Y35560
X180306Y90805
X190500Y48260
X111760Y51105
X115824Y100330
X154940Y25146
X174625Y74803
X191135Y90853
X102207Y85725
X102870Y71120
X67841Y70485
X52197Y51435
X32385Y22606
X44450Y31750
X93980Y90043
X6223Y151765
X139700Y112395
X128397Y133223
X82550Y91567
X81280Y91567
X72390Y88138
X68072Y111760
X94615Y113792
X81280Y111760
X82550Y111760
X32893Y70485
X58420Y70485
X45593Y70485
X58166Y88265
X45466Y88265
X31242Y85598
X180340Y125095
X181610Y148082
X181610Y163195
X149352Y148971
X163830Y160020
X156210Y165989
X171450Y191389
X123952Y185547
X133096Y132080
X129921Y143510
X133096Y155575
X133096Y168275
X135255Y179451
X133096Y193675
X133096Y206375
X119380Y108585
X143002Y168148
X10160Y199390
X149860Y137033
X36830Y33020
X65151Y36040
X183569Y133350
X181864Y188595
X181864Y182245
X182118Y194945
X186944Y192405
X182880Y198755
X187452Y201295
X178816Y201295
X83820Y27051
X132080Y27305
X92710Y36703
X119888Y27178
X110236Y27178
X133350Y93980
X132080Y104140
X130810Y81788
X132080Y71120
X148590Y74930
X165684Y91567
X172720Y62611
X173990Y68580
X179070Y72390
X173609Y84201
X114831Y90170
X99949Y126057
X102870Y96520
X102088Y90805
X66040Y96520
X68453Y73025
X84836Y100965
X90170Y207010
X167640Y72390
X165100Y31750
X81534Y70485
X157305Y31956
X157480Y90447
X158629Y29972
X158087Y93980
X158022Y30808
X157480Y95250
X113030Y118110
X114935Y115570
X142939Y115633
X199898Y54102
X147320Y57150
X132080Y121158
X128270Y113792
X136144Y116840
X138430Y100330
X136751Y113030
X13970Y159385
X13970Y161925
X13970Y133350
X139700Y100330
X141986Y111760
X140335Y84455
X138402Y111153
X13970Y132080
X13335Y154305
X13335Y156845
X140970Y100330
X142748Y109093
X143510Y100330
X60960Y113665
X52832Y114907
X53467Y112395
X59944Y111125
X54229Y109855
X59055Y108585
X54483Y107315
X57785Y106045
X41783Y114935
X58999Y114300
X41783Y112395
X58392Y111760
X57785Y109220
X41783Y109855
X41783Y107315
X56744Y105029
X33274Y114935
X32718Y112824
X175260Y48260
X175260Y44450
X166878Y45113
X143510Y136779
X122809Y125222
X193040Y45339
X190500Y31750
X165354Y20320
X163576Y17780
X154940Y15240
X180340Y118722
X158369Y134493
X127175Y156210
X200010Y85329
X199898Y89154
X199898Y86614
X101600Y80391
X72390Y109220
X83820Y88392
X108839Y78740
X50673Y46327
X32385Y25908
X46990Y29972
X151940Y21082
X65532Y27023
X8255Y154305
X18088Y164465
X14732Y153035
X139700Y121158
X74930Y91440
X95786Y95250
X81915Y97790
X72613Y92710
X72613Y93980
X72613Y95250
X72613Y96520
X72613Y97790
X92710Y109220
X82550Y104394
X83820Y114935
X83693Y70485
X29591Y71755
X54991Y71755
X42291Y71755
X61214Y79375
X48387Y79375
X38989Y79375
X64417Y97155
X57436Y118999
X56830Y117475
X32639Y109855
X55753Y104445
X48387Y97155
X54991Y89535
X32258Y107315
X54864Y103838
X46990Y93345
X41684Y89535
X33020Y89535
X35814Y97155
X48260Y195580
X48260Y187960
X48260Y177800
X48260Y170180
X48260Y162560
X48260Y152400
X48260Y145443
X49784Y140970
X29591Y140843
X27940Y145443
X112268Y119380
X115062Y111760
X27940Y152400
X27940Y162560
X27940Y170180
X27940Y177800
X27940Y187960
X27940Y195580
X182198Y152400
X182198Y154940
X182578Y167640
X182499Y170180
X153038Y166624
X162179Y155448
X156083Y160020
X167259Y161290
X158369Y191262
X167259Y168783
X59690Y97155
X61722Y114935
X60325Y93345
X64897Y113665
X61087Y95885
X64897Y112395
X60960Y92075
X64897Y111125
X59309Y79375
X64897Y109855
X60071Y75565
X64897Y108585
X160528Y168783
X151130Y188976
X167640Y122174
X167640Y110617
X107823Y207518
X123317Y207617
X139319Y139700
X134620Y137160
X129032Y146812
X151130Y151130
X143510Y152527
X136017Y151130
X136144Y164465
X134620Y173355
X134620Y160655
X61087Y78105
X64897Y107315
X61087Y74295
X64897Y106045
X45720Y114935
X42291Y79375
X46990Y113665
X42291Y75565
X47625Y109855
X45720Y97155
X48260Y108585
X45720Y93345
X34270Y109550
X33020Y97155
X34798Y93345
X35179Y109601
X34163Y79375
X36322Y109855
X34417Y75565
X36322Y108585
X52197Y112395
X51689Y78105
X49022Y111125
X48387Y74295
X52197Y107315
X51689Y95885
X52197Y106045
X51689Y92075
X36322Y112395
X39116Y95885
X40640Y105410
X40640Y92075
X36322Y107315
X38989Y78105
X36322Y106045
X38989Y74295
X65278Y82550
X111125Y81915
X65659Y70485
X65278Y88265
X15339Y91487
X16510Y85113
X17780Y65377
X177800Y10160
X175260Y46990
X46990Y74930
X119380Y71374
X171450Y8283
X171450Y43180
X142240Y203962
X156591Y14351
X183007Y117983
X149860Y115570
X167640Y112847
X181610Y174625
X181610Y159385
X135763Y49530
X149233Y50800
X149225Y97790
X163864Y96393
X166370Y8890
X166370Y32103
X164471Y95419
X167640Y32103
X167640Y8890
X176530Y9525
X175260Y45720
X157988Y13335
X167640Y101219
X160528Y213233
X151130Y214503
X151765Y208153
X165078Y94615
X168910Y32103
X168910Y8890
X175260Y8890
X175260Y41910
X102497Y93980
X104648Y75565
X100711Y20701
X110264Y75184
X108839Y71120
X101600Y18387
X109474Y72390
X102441Y19939
X110236Y73660
X110871Y76835
X103350Y19304
X104140Y21463
X111760Y78105
X104981Y20673
X112395Y80645
X56515Y43307
X105588Y22733
X113030Y79375
X54229Y90805
X54229Y94615
X114046Y81915
X54991Y95885
X106680Y22070
X54991Y92047
X59230Y41450
X107315Y23340
X64389Y93345
X64389Y89535
X60198Y41656
X123190Y80766
X108204Y23947
X65151Y94615
X65151Y90805
X55372Y45720
X107696Y25400
X54356Y73025
X54356Y76835
X2540Y93980
X2235Y43180
X1933Y76200
X1933Y33020
X1933Y53467
X122555Y85090
X111887Y25239
X56007Y46990
X54991Y74295
X54991Y78105
X61684Y42888
X4722Y45212
X112649Y25846
X64516Y71755
X136017Y177165
X136017Y174625
X139319Y168275
X129921Y169545
X129921Y175895
X129921Y182245
X129921Y188595
X139319Y180975
X136017Y187325
X136017Y189865
X139319Y193675
X139319Y200025
X139319Y202565
X129921Y201295
X134366Y195834
X134620Y211455
X129921Y207645
X139319Y206375
X139319Y215265
X104940Y84544
X107823Y127000
X105156Y124079
X119253Y105791
X120650Y111760
X123190Y114300
X121920Y119888
X120523Y119888
X145367Y128953
X147295Y145771
X146202Y144932
X152017Y67897
X150447Y69342
X150574Y40894
X151940Y42799
X143510Y158750
X164465Y27178
M30