G04 EAGLE Gerber RS-274X export*
G75*
%MOMM*%
%FSLAX34Y34*%
%LPD*%
%INSolderpaste Top*%
%IPPOS*%
%AMOC8*
5,1,8,0,0,1.08239X$1,22.5*%
G01*
%ADD10R,2.032000X0.660400*%
%ADD11R,1.910000X0.640000*%
%ADD12R,1.800000X0.760000*%
%ADD13R,0.760000X1.800000*%
%ADD14R,0.600000X2.200000*%
%ADD15R,2.200000X0.600000*%
%ADD16R,1.000000X1.400000*%
%ADD17R,1.524000X0.635000*%
%ADD18R,1.800000X2.750000*%
%ADD19R,5.334000X1.930400*%
%ADD20R,2.750000X1.800000*%
%ADD21R,3.048000X2.184400*%


D10*
X164592Y1530350D03*
X164592Y1543050D03*
X164592Y1555750D03*
X164592Y1568450D03*
X164592Y1581150D03*
X164592Y1593850D03*
X164592Y1606550D03*
X164592Y1619250D03*
X64008Y1619250D03*
X64008Y1606550D03*
X64008Y1593850D03*
X64008Y1581150D03*
X64008Y1568450D03*
X64008Y1555750D03*
X64008Y1543050D03*
X64008Y1530350D03*
X164592Y1631950D03*
X164592Y1644650D03*
X64008Y1631950D03*
X64008Y1644650D03*
D11*
X137800Y1720850D03*
X137800Y1733550D03*
X137800Y1746250D03*
X137800Y1758950D03*
X137800Y1771650D03*
X137800Y1784350D03*
X137800Y1797050D03*
X137800Y1809750D03*
X65400Y1809750D03*
X65400Y1797050D03*
X65400Y1784350D03*
X65400Y1771650D03*
X65400Y1758950D03*
X65400Y1746250D03*
X65400Y1733550D03*
X65400Y1720850D03*
X379100Y1060450D03*
X379100Y1073150D03*
X379100Y1085850D03*
X379100Y1098550D03*
X379100Y1111250D03*
X379100Y1123950D03*
X379100Y1136650D03*
X379100Y1149350D03*
X306700Y1149350D03*
X306700Y1136650D03*
X306700Y1123950D03*
X306700Y1111250D03*
X306700Y1098550D03*
X306700Y1085850D03*
X306700Y1073150D03*
X306700Y1060450D03*
X506100Y1060450D03*
X506100Y1073150D03*
X506100Y1085850D03*
X506100Y1098550D03*
X506100Y1111250D03*
X506100Y1123950D03*
X506100Y1136650D03*
X506100Y1149350D03*
X433700Y1149350D03*
X433700Y1136650D03*
X433700Y1123950D03*
X433700Y1111250D03*
X433700Y1098550D03*
X433700Y1085850D03*
X433700Y1073150D03*
X433700Y1060450D03*
X633100Y1060450D03*
X633100Y1073150D03*
X633100Y1085850D03*
X633100Y1098550D03*
X633100Y1111250D03*
X633100Y1123950D03*
X633100Y1136650D03*
X633100Y1149350D03*
X560700Y1149350D03*
X560700Y1136650D03*
X560700Y1123950D03*
X560700Y1111250D03*
X560700Y1098550D03*
X560700Y1085850D03*
X560700Y1073150D03*
X560700Y1060450D03*
D12*
X1247000Y1117600D03*
X1247000Y1130300D03*
X1247000Y1143000D03*
X1247000Y1155700D03*
X1247000Y1168400D03*
X1166000Y1117600D03*
X1166000Y1130300D03*
X1166000Y1143000D03*
X1166000Y1155700D03*
X1166000Y1168400D03*
D13*
X1181100Y1183500D03*
X1193800Y1183500D03*
X1206500Y1183500D03*
X1219200Y1183500D03*
X1231900Y1183500D03*
X1231900Y1102500D03*
X1219200Y1102500D03*
X1206500Y1102500D03*
X1193800Y1102500D03*
X1181100Y1102500D03*
D10*
X373634Y882650D03*
X312166Y882650D03*
X373634Y895350D03*
X373634Y908050D03*
X312166Y895350D03*
X312166Y908050D03*
X373634Y920750D03*
X312166Y920750D03*
X373634Y933450D03*
X312166Y933450D03*
X373634Y946150D03*
X373634Y958850D03*
X312166Y946150D03*
X312166Y958850D03*
X373634Y971550D03*
X312166Y971550D03*
X500634Y882650D03*
X439166Y882650D03*
X500634Y895350D03*
X500634Y908050D03*
X439166Y895350D03*
X439166Y908050D03*
X500634Y920750D03*
X439166Y920750D03*
X500634Y933450D03*
X439166Y933450D03*
X500634Y946150D03*
X500634Y958850D03*
X439166Y946150D03*
X439166Y958850D03*
X500634Y971550D03*
X439166Y971550D03*
X627634Y882650D03*
X566166Y882650D03*
X627634Y895350D03*
X627634Y908050D03*
X566166Y895350D03*
X566166Y908050D03*
X627634Y920750D03*
X566166Y920750D03*
X627634Y933450D03*
X566166Y933450D03*
X627634Y946150D03*
X627634Y958850D03*
X566166Y946150D03*
X566166Y958850D03*
X627634Y971550D03*
X566166Y971550D03*
D13*
X774700Y899300D03*
X787400Y899300D03*
X800100Y899300D03*
X812800Y899300D03*
X825500Y899300D03*
X838200Y899300D03*
X850900Y899300D03*
X800100Y1132700D03*
X812800Y1132700D03*
X825500Y1132700D03*
X838200Y1132700D03*
X850900Y1132700D03*
X863600Y1132700D03*
X876300Y1132700D03*
D12*
X708800Y914400D03*
X708800Y990600D03*
X708800Y1003300D03*
X708800Y1016000D03*
X708800Y1028700D03*
X708800Y1041400D03*
X708800Y1054100D03*
X942200Y914400D03*
X942200Y990600D03*
X942200Y1003300D03*
X942200Y1016000D03*
X942200Y1028700D03*
X942200Y1041400D03*
X942200Y1054100D03*
D13*
X863600Y899300D03*
X876300Y899300D03*
X787400Y1132700D03*
X774700Y1132700D03*
X889000Y1132700D03*
D12*
X942200Y1066800D03*
X942200Y1079500D03*
X942200Y977900D03*
X942200Y965200D03*
D13*
X889000Y899300D03*
D12*
X708800Y977900D03*
X708800Y965200D03*
X708800Y1066800D03*
X708800Y1079500D03*
D13*
X762000Y1132700D03*
X762000Y899300D03*
D12*
X942200Y952500D03*
X942200Y939800D03*
X942200Y927100D03*
D13*
X901700Y899300D03*
X914400Y899300D03*
X927100Y899300D03*
X749300Y899300D03*
X736600Y899300D03*
X723900Y899300D03*
D12*
X708800Y952500D03*
X708800Y939800D03*
X708800Y927100D03*
D13*
X749300Y1132700D03*
X736600Y1132700D03*
X723900Y1132700D03*
D12*
X708800Y1092200D03*
X708800Y1104900D03*
X708800Y1117600D03*
D13*
X901700Y1132700D03*
X914400Y1132700D03*
X927100Y1132700D03*
D12*
X942200Y1092200D03*
X942200Y1104900D03*
X942200Y1117600D03*
D10*
X373634Y704850D03*
X312166Y704850D03*
X373634Y717550D03*
X373634Y730250D03*
X312166Y717550D03*
X312166Y730250D03*
X373634Y742950D03*
X312166Y742950D03*
X373634Y755650D03*
X312166Y755650D03*
X373634Y768350D03*
X373634Y781050D03*
X312166Y768350D03*
X312166Y781050D03*
X373634Y793750D03*
X312166Y793750D03*
X500634Y704850D03*
X439166Y704850D03*
X500634Y717550D03*
X500634Y730250D03*
X439166Y717550D03*
X439166Y730250D03*
X500634Y742950D03*
X439166Y742950D03*
X500634Y755650D03*
X439166Y755650D03*
X500634Y768350D03*
X500634Y781050D03*
X439166Y768350D03*
X439166Y781050D03*
X500634Y793750D03*
X439166Y793750D03*
X627634Y704850D03*
X566166Y704850D03*
X627634Y717550D03*
X627634Y730250D03*
X566166Y717550D03*
X566166Y730250D03*
X627634Y742950D03*
X566166Y742950D03*
X627634Y755650D03*
X566166Y755650D03*
X627634Y768350D03*
X627634Y781050D03*
X566166Y768350D03*
X566166Y781050D03*
X627634Y793750D03*
X566166Y793750D03*
D14*
X1320800Y1021300D03*
X1308100Y1021300D03*
X1295400Y1021300D03*
X1282700Y1021300D03*
X1270000Y1021300D03*
X1257300Y1021300D03*
X1244600Y1021300D03*
X1231900Y1021300D03*
X1219200Y1021300D03*
X1206500Y1021300D03*
X1193800Y1021300D03*
D15*
X1175800Y1003300D03*
X1175800Y990600D03*
X1175800Y977900D03*
X1175800Y965200D03*
X1175800Y952500D03*
X1175800Y939800D03*
X1175800Y927100D03*
X1175800Y914400D03*
X1175800Y901700D03*
X1175800Y889000D03*
X1175800Y876300D03*
X1175800Y863600D03*
X1175800Y850900D03*
X1175800Y838200D03*
X1175800Y825500D03*
X1175800Y812800D03*
X1175800Y800100D03*
X1175800Y787400D03*
X1175800Y774700D03*
X1175800Y762000D03*
X1175800Y749300D03*
D14*
X1193800Y731300D03*
X1206500Y731300D03*
X1219200Y731300D03*
X1231900Y731300D03*
X1244600Y731300D03*
X1257300Y731300D03*
X1270000Y731300D03*
X1282700Y731300D03*
X1295400Y731300D03*
X1308100Y731300D03*
X1320800Y731300D03*
X1333500Y731300D03*
X1346200Y731300D03*
X1358900Y731300D03*
X1371600Y731300D03*
X1384300Y731300D03*
X1397000Y731300D03*
X1409700Y731300D03*
X1422400Y731300D03*
X1435100Y731300D03*
X1447800Y731300D03*
D15*
X1465800Y749300D03*
X1465800Y762000D03*
X1465800Y774700D03*
X1465800Y787400D03*
X1465800Y800100D03*
X1465800Y812800D03*
X1465800Y825500D03*
X1465800Y838200D03*
X1465800Y850900D03*
X1465800Y863600D03*
X1465800Y876300D03*
X1465800Y889000D03*
X1465800Y901700D03*
X1465800Y914400D03*
X1465800Y927100D03*
X1465800Y939800D03*
X1465800Y952500D03*
X1465800Y965200D03*
X1465800Y977900D03*
X1465800Y990600D03*
X1465800Y1003300D03*
D14*
X1447800Y1021300D03*
X1435100Y1021300D03*
X1422400Y1021300D03*
X1409700Y1021300D03*
X1397000Y1021300D03*
X1384300Y1021300D03*
X1371600Y1021300D03*
X1358900Y1021300D03*
X1346200Y1021300D03*
X1333500Y1021300D03*
X1727200Y246500D03*
X1714500Y246500D03*
X1701800Y246500D03*
X1689100Y246500D03*
D15*
X1671200Y228600D03*
X1671200Y215900D03*
X1671200Y203200D03*
X1671200Y190500D03*
X1671200Y177800D03*
X1671200Y165100D03*
X1671200Y152400D03*
D14*
X1689100Y134500D03*
X1701800Y134500D03*
X1714500Y134500D03*
X1727200Y134500D03*
X1739900Y134500D03*
X1752600Y134500D03*
X1765300Y134500D03*
D15*
X1783200Y152400D03*
X1783200Y165100D03*
X1783200Y177800D03*
X1783200Y190500D03*
X1783200Y203200D03*
X1783200Y215900D03*
X1783200Y228600D03*
D14*
X1765300Y246500D03*
X1752600Y246500D03*
X1739900Y246500D03*
D10*
X1072134Y711200D03*
X1010666Y711200D03*
X1072134Y723900D03*
X1072134Y736600D03*
X1010666Y723900D03*
X1010666Y736600D03*
X1072134Y749300D03*
X1010666Y749300D03*
X1072134Y762000D03*
X1072134Y774700D03*
X1010666Y762000D03*
X1010666Y774700D03*
X1072134Y787400D03*
X1010666Y787400D03*
X1376934Y1682750D03*
X1315466Y1682750D03*
X1376934Y1695450D03*
X1376934Y1708150D03*
X1315466Y1695450D03*
X1315466Y1708150D03*
X1376934Y1720850D03*
X1315466Y1720850D03*
X1376934Y1733550D03*
X1315466Y1733550D03*
X1376934Y1746250D03*
X1376934Y1758950D03*
X1315466Y1746250D03*
X1315466Y1758950D03*
X1376934Y1771650D03*
X1315466Y1771650D03*
X1376934Y1809750D03*
X1315466Y1809750D03*
X1376934Y1822450D03*
X1376934Y1835150D03*
X1315466Y1822450D03*
X1315466Y1835150D03*
X1376934Y1847850D03*
X1315466Y1847850D03*
X1376934Y1860550D03*
X1315466Y1860550D03*
X1376934Y1873250D03*
X1376934Y1885950D03*
X1315466Y1873250D03*
X1315466Y1885950D03*
X1376934Y1898650D03*
X1315466Y1898650D03*
X1376934Y1936750D03*
X1315466Y1936750D03*
X1376934Y1949450D03*
X1376934Y1962150D03*
X1315466Y1949450D03*
X1315466Y1962150D03*
X1376934Y1974850D03*
X1315466Y1974850D03*
X1376934Y1987550D03*
X1315466Y1987550D03*
X1376934Y2000250D03*
X1376934Y2012950D03*
X1315466Y2000250D03*
X1315466Y2012950D03*
X1376934Y2025650D03*
X1315466Y2025650D03*
X1376934Y2063750D03*
X1315466Y2063750D03*
X1376934Y2076450D03*
X1376934Y2089150D03*
X1315466Y2076450D03*
X1315466Y2089150D03*
X1376934Y2101850D03*
X1315466Y2101850D03*
X1376934Y2114550D03*
X1315466Y2114550D03*
X1376934Y2127250D03*
X1376934Y2139950D03*
X1315466Y2127250D03*
X1315466Y2139950D03*
X1376934Y2152650D03*
X1315466Y2152650D03*
X1376934Y1320800D03*
X1315466Y1320800D03*
X1376934Y1333500D03*
X1376934Y1346200D03*
X1315466Y1333500D03*
X1315466Y1346200D03*
X1376934Y1358900D03*
X1315466Y1358900D03*
X1376934Y1371600D03*
X1376934Y1384300D03*
X1315466Y1371600D03*
X1315466Y1384300D03*
X1376934Y1397000D03*
X1315466Y1397000D03*
X1376934Y1435100D03*
X1315466Y1435100D03*
X1376934Y1447800D03*
X1376934Y1460500D03*
X1315466Y1447800D03*
X1315466Y1460500D03*
X1376934Y1473200D03*
X1315466Y1473200D03*
X1376934Y1485900D03*
X1376934Y1498600D03*
X1315466Y1485900D03*
X1315466Y1498600D03*
X1376934Y1511300D03*
X1315466Y1511300D03*
X1376934Y1555750D03*
X1315466Y1555750D03*
X1376934Y1568450D03*
X1376934Y1581150D03*
X1315466Y1568450D03*
X1315466Y1581150D03*
X1376934Y1593850D03*
X1315466Y1593850D03*
X1376934Y1606550D03*
X1315466Y1606550D03*
X1376934Y1619250D03*
X1376934Y1631950D03*
X1315466Y1619250D03*
X1315466Y1631950D03*
X1376934Y1644650D03*
X1315466Y1644650D03*
D15*
X1909800Y1054100D03*
X1909800Y1066800D03*
X1909800Y1079500D03*
X1909800Y1092200D03*
X1909800Y1104900D03*
X1909800Y1117600D03*
D14*
X1892300Y1135100D03*
X1879600Y1135100D03*
X1866900Y1135100D03*
X1854200Y1135100D03*
X1841500Y1135100D03*
X1828800Y1135100D03*
X1816100Y1135100D03*
X1803400Y1135100D03*
X1790700Y1135100D03*
X1778000Y1135100D03*
X1765300Y1135100D03*
D15*
X1747800Y1117600D03*
X1747800Y1104900D03*
X1747800Y1092200D03*
X1747800Y1079500D03*
X1747800Y1066800D03*
X1747800Y1054100D03*
X1747800Y1041400D03*
X1747800Y1028700D03*
X1747800Y1016000D03*
X1747800Y1003300D03*
X1747800Y990600D03*
D14*
X1765300Y973100D03*
X1778000Y973100D03*
X1790700Y973100D03*
X1803400Y973100D03*
X1816100Y973100D03*
X1828800Y973100D03*
X1841500Y973100D03*
X1854200Y973100D03*
X1866900Y973100D03*
X1879600Y973100D03*
X1892300Y973100D03*
D15*
X1909800Y990600D03*
X1909800Y1003300D03*
X1909800Y1016000D03*
X1909800Y1028700D03*
X1909800Y1041400D03*
X1808200Y723900D03*
X1808200Y736600D03*
X1808200Y749300D03*
X1808200Y762000D03*
X1808200Y774700D03*
X1808200Y787400D03*
D14*
X1790700Y804900D03*
X1778000Y804900D03*
X1765300Y804900D03*
X1752600Y804900D03*
X1739900Y804900D03*
X1727200Y804900D03*
X1714500Y804900D03*
X1701800Y804900D03*
X1689100Y804900D03*
X1676400Y804900D03*
X1663700Y804900D03*
D15*
X1646200Y787400D03*
X1646200Y774700D03*
X1646200Y762000D03*
X1646200Y749300D03*
X1646200Y736600D03*
X1646200Y723900D03*
X1646200Y711200D03*
X1646200Y698500D03*
X1646200Y685800D03*
X1646200Y673100D03*
X1646200Y660400D03*
D14*
X1663700Y642900D03*
X1676400Y642900D03*
X1689100Y642900D03*
X1701800Y642900D03*
X1714500Y642900D03*
X1727200Y642900D03*
X1739900Y642900D03*
X1752600Y642900D03*
X1765300Y642900D03*
X1778000Y642900D03*
X1790700Y642900D03*
D15*
X1808200Y660400D03*
X1808200Y673100D03*
X1808200Y685800D03*
X1808200Y698500D03*
X1808200Y711200D03*
X1747800Y1308100D03*
X1747800Y1295400D03*
X1747800Y1282700D03*
X1747800Y1270000D03*
X1747800Y1257300D03*
X1747800Y1244600D03*
D14*
X1765300Y1227100D03*
X1778000Y1227100D03*
X1790700Y1227100D03*
X1803400Y1227100D03*
X1816100Y1227100D03*
X1828800Y1227100D03*
X1841500Y1227100D03*
X1854200Y1227100D03*
X1866900Y1227100D03*
X1879600Y1227100D03*
X1892300Y1227100D03*
D15*
X1909800Y1244600D03*
X1909800Y1257300D03*
X1909800Y1270000D03*
X1909800Y1282700D03*
X1909800Y1295400D03*
X1909800Y1308100D03*
X1909800Y1320800D03*
X1909800Y1333500D03*
X1909800Y1346200D03*
X1909800Y1358900D03*
X1909800Y1371600D03*
D14*
X1892300Y1389100D03*
X1879600Y1389100D03*
X1866900Y1389100D03*
X1854200Y1389100D03*
X1841500Y1389100D03*
X1828800Y1389100D03*
X1816100Y1389100D03*
X1803400Y1389100D03*
X1790700Y1389100D03*
X1778000Y1389100D03*
X1765300Y1389100D03*
D15*
X1747800Y1371600D03*
X1747800Y1358900D03*
X1747800Y1346200D03*
X1747800Y1333500D03*
X1747800Y1320800D03*
X1493800Y1562100D03*
X1493800Y1549400D03*
X1493800Y1536700D03*
X1493800Y1524000D03*
X1493800Y1511300D03*
X1493800Y1498600D03*
D14*
X1511300Y1481100D03*
X1524000Y1481100D03*
X1536700Y1481100D03*
X1549400Y1481100D03*
X1562100Y1481100D03*
X1574800Y1481100D03*
X1587500Y1481100D03*
X1600200Y1481100D03*
X1612900Y1481100D03*
X1625600Y1481100D03*
X1638300Y1481100D03*
D15*
X1655800Y1498600D03*
X1655800Y1511300D03*
X1655800Y1524000D03*
X1655800Y1536700D03*
X1655800Y1549400D03*
X1655800Y1562100D03*
X1655800Y1574800D03*
X1655800Y1587500D03*
X1655800Y1600200D03*
X1655800Y1612900D03*
X1655800Y1625600D03*
D14*
X1638300Y1643100D03*
X1625600Y1643100D03*
X1612900Y1643100D03*
X1600200Y1643100D03*
X1587500Y1643100D03*
X1574800Y1643100D03*
X1562100Y1643100D03*
X1549400Y1643100D03*
X1536700Y1643100D03*
X1524000Y1643100D03*
X1511300Y1643100D03*
D15*
X1493800Y1625600D03*
X1493800Y1612900D03*
X1493800Y1600200D03*
X1493800Y1587500D03*
X1493800Y1574800D03*
D12*
X1843900Y1511300D03*
X1843900Y1524000D03*
X1843900Y1536700D03*
X1843900Y1549400D03*
X1843900Y1562100D03*
X1762900Y1511300D03*
X1762900Y1524000D03*
X1762900Y1536700D03*
X1762900Y1549400D03*
X1762900Y1562100D03*
D13*
X1778000Y1577200D03*
X1790700Y1577200D03*
X1803400Y1577200D03*
X1816100Y1577200D03*
X1828800Y1577200D03*
X1828800Y1496200D03*
X1816100Y1496200D03*
X1803400Y1496200D03*
X1790700Y1496200D03*
X1778000Y1496200D03*
D12*
X1843900Y1663700D03*
X1843900Y1676400D03*
X1843900Y1689100D03*
X1843900Y1701800D03*
X1843900Y1714500D03*
X1762900Y1663700D03*
X1762900Y1676400D03*
X1762900Y1689100D03*
X1762900Y1701800D03*
X1762900Y1714500D03*
D13*
X1778000Y1729600D03*
X1790700Y1729600D03*
X1803400Y1729600D03*
X1816100Y1729600D03*
X1828800Y1729600D03*
X1828800Y1648600D03*
X1816100Y1648600D03*
X1803400Y1648600D03*
X1790700Y1648600D03*
X1778000Y1648600D03*
D14*
X1651000Y338100D03*
X1663700Y338100D03*
X1676400Y338100D03*
X1689100Y338100D03*
X1701800Y338100D03*
X1714500Y338100D03*
D15*
X1732000Y355600D03*
X1732000Y368300D03*
X1732000Y381000D03*
X1732000Y393700D03*
X1732000Y406400D03*
X1732000Y419100D03*
X1732000Y431800D03*
X1732000Y444500D03*
X1732000Y457200D03*
X1732000Y469900D03*
X1732000Y482600D03*
D14*
X1714500Y500100D03*
X1701800Y500100D03*
X1689100Y500100D03*
X1676400Y500100D03*
X1663700Y500100D03*
X1651000Y500100D03*
X1638300Y500100D03*
X1625600Y500100D03*
X1612900Y500100D03*
X1600200Y500100D03*
X1587500Y500100D03*
D15*
X1570000Y482600D03*
X1570000Y469900D03*
X1570000Y457200D03*
X1570000Y444500D03*
X1570000Y431800D03*
X1570000Y419100D03*
X1570000Y406400D03*
X1570000Y393700D03*
X1570000Y381000D03*
X1570000Y368300D03*
X1570000Y355600D03*
D14*
X1587500Y338100D03*
X1600200Y338100D03*
X1612900Y338100D03*
X1625600Y338100D03*
X1638300Y338100D03*
X1905000Y338100D03*
X1917700Y338100D03*
X1930400Y338100D03*
X1943100Y338100D03*
X1955800Y338100D03*
X1968500Y338100D03*
D15*
X1986000Y355600D03*
X1986000Y368300D03*
X1986000Y381000D03*
X1986000Y393700D03*
X1986000Y406400D03*
X1986000Y419100D03*
X1986000Y431800D03*
X1986000Y444500D03*
X1986000Y457200D03*
X1986000Y469900D03*
X1986000Y482600D03*
D14*
X1968500Y500100D03*
X1955800Y500100D03*
X1943100Y500100D03*
X1930400Y500100D03*
X1917700Y500100D03*
X1905000Y500100D03*
X1892300Y500100D03*
X1879600Y500100D03*
X1866900Y500100D03*
X1854200Y500100D03*
X1841500Y500100D03*
D15*
X1824000Y482600D03*
X1824000Y469900D03*
X1824000Y457200D03*
X1824000Y444500D03*
X1824000Y431800D03*
X1824000Y419100D03*
X1824000Y406400D03*
X1824000Y393700D03*
X1824000Y381000D03*
X1824000Y368300D03*
X1824000Y355600D03*
D14*
X1841500Y338100D03*
X1854200Y338100D03*
X1866900Y338100D03*
X1879600Y338100D03*
X1892300Y338100D03*
D16*
X1612900Y201500D03*
X1622400Y179500D03*
X1603400Y179500D03*
X428600Y341200D03*
X409600Y341200D03*
X419100Y319200D03*
X460400Y319200D03*
X479400Y319200D03*
X469900Y341200D03*
D17*
X1855750Y1936750D03*
X1801850Y1962150D03*
X1855750Y1924050D03*
X1855750Y1949450D03*
X1855750Y1962150D03*
X1801850Y1949450D03*
X1801850Y1974850D03*
X1801850Y1987550D03*
X1855750Y1987550D03*
X1801850Y2012950D03*
X1855750Y1974850D03*
X1855750Y2000250D03*
X1801850Y2000250D03*
X1855750Y2012950D03*
X1801850Y1936750D03*
X1801850Y1924050D03*
X1855750Y1809750D03*
X1801850Y1835150D03*
X1855750Y1797050D03*
X1855750Y1822450D03*
X1855750Y1835150D03*
X1801850Y1822450D03*
X1801850Y1847850D03*
X1801850Y1860550D03*
X1855750Y1860550D03*
X1801850Y1885950D03*
X1855750Y1847850D03*
X1855750Y1873250D03*
X1801850Y1873250D03*
X1855750Y1885950D03*
X1801850Y1809750D03*
X1801850Y1797050D03*
D18*
X1689100Y1842350D03*
X1689100Y1789850D03*
X1587500Y1842350D03*
X1587500Y1789850D03*
X1587500Y1740750D03*
X1587500Y1688250D03*
X1689100Y1740750D03*
X1689100Y1688250D03*
D15*
X1499200Y2056130D03*
X1447200Y2056130D03*
X1499200Y2043430D03*
X1499200Y2068830D03*
X1499200Y2081530D03*
X1447200Y2043430D03*
X1447200Y2068830D03*
X1447200Y2081530D03*
D16*
X1447800Y2144600D03*
X1457300Y2122600D03*
X1438300Y2122600D03*
X1489100Y2122600D03*
X1508100Y2122600D03*
X1498600Y2144600D03*
D11*
X925200Y704850D03*
X925200Y717550D03*
X925200Y730250D03*
X925200Y742950D03*
X925200Y755650D03*
X925200Y768350D03*
X925200Y781050D03*
X925200Y793750D03*
X852800Y793750D03*
X852800Y781050D03*
X852800Y768350D03*
X852800Y755650D03*
X852800Y742950D03*
X852800Y730250D03*
X852800Y717550D03*
X852800Y704850D03*
X1077600Y857250D03*
X1077600Y869950D03*
X1077600Y882650D03*
X1077600Y895350D03*
X1077600Y908050D03*
X1077600Y920750D03*
X1077600Y933450D03*
X1077600Y946150D03*
X1005200Y946150D03*
X1005200Y933450D03*
X1005200Y920750D03*
X1005200Y908050D03*
X1005200Y895350D03*
X1005200Y882650D03*
X1005200Y869950D03*
X1005200Y857250D03*
X772800Y704850D03*
X772800Y717550D03*
X772800Y730250D03*
X772800Y742950D03*
X772800Y755650D03*
X772800Y768350D03*
X772800Y781050D03*
X772800Y793750D03*
X700400Y793750D03*
X700400Y781050D03*
X700400Y768350D03*
X700400Y755650D03*
X700400Y742950D03*
X700400Y730250D03*
X700400Y717550D03*
X700400Y704850D03*
D18*
X1676400Y1201000D03*
X1676400Y1148500D03*
X1676400Y1086700D03*
X1676400Y1034200D03*
X1676400Y972400D03*
X1676400Y919900D03*
X101600Y1969350D03*
X101600Y1916850D03*
X342900Y383120D03*
X342900Y330620D03*
X1435100Y1662010D03*
X1435100Y1609510D03*
X1549400Y229450D03*
X1549400Y176950D03*
D19*
X1584960Y1394460D03*
X1488440Y1394460D03*
X791210Y285750D03*
X694690Y285750D03*
D20*
X1891450Y88900D03*
X1943950Y88900D03*
D18*
X1968500Y1016850D03*
X1968500Y964350D03*
X1968500Y1207350D03*
X1968500Y1154850D03*
X1968500Y1347050D03*
X1968500Y1294550D03*
D21*
X1400810Y1143000D03*
X1400810Y1193800D03*
X1316990Y1193800D03*
X1316990Y1143000D03*
M02*
