G75*
%MOIN*%
%OFA0B0*%
%FSLAX25Y25*%
%IPPOS*%
%LPD*%
%AMOC8*
5,1,8,0,0,1.08239X$1,22.5*
%
%ADD10C,0.00600*%
%ADD11C,0.00000*%
%ADD12C,0.06706*%
%ADD13OC8,0.06800*%
%ADD14C,0.10300*%
%ADD15C,0.07100*%
%ADD16R,0.04737X0.06312*%
%ADD17R,0.07898X0.07099*%
%ADD18C,0.06800*%
%ADD19C,0.10400*%
%ADD20C,0.07200*%
%ADD21C,0.06000*%
%ADD22OC8,0.06000*%
%ADD23C,0.06000*%
%ADD24R,0.07887X0.07099*%
%ADD25OC8,0.06400*%
%ADD26R,0.07099X0.04737*%
%ADD27OC8,0.06343*%
%ADD28C,0.05556*%
%ADD29C,0.08477*%
%ADD30R,0.08477X0.08477*%
%ADD31C,0.20800*%
%ADD32R,0.06737X0.06737*%
%ADD33C,0.06737*%
%ADD34R,0.09068X0.09068*%
%ADD35C,0.13200*%
%ADD36OC8,0.13200*%
%ADD37C,0.10800*%
%ADD38C,0.06400*%
%ADD39C,0.21800*%
%ADD40R,0.07100X0.05400*%
%ADD41R,0.07200X0.00600*%
%ADD42C,0.06737*%
%ADD43R,0.05400X0.07100*%
%ADD44C,0.03778*%
%ADD45C,0.04959*%
D10*
X0004700Y0005800D02*
X0010200Y0001300D01*
X0890200Y0001300D01*
X0894700Y0005800D01*
X0894700Y0872800D01*
X0889700Y0877800D01*
X0549700Y0877800D01*
X0549700Y0864300D01*
X0459700Y0864300D01*
X0459700Y0877800D01*
X0379700Y0877800D01*
X0379700Y0864300D01*
X0299700Y0864300D01*
X0299700Y0877800D01*
X0219700Y0877800D01*
X0219700Y0864300D01*
X0129700Y0864300D01*
X0129700Y0877800D01*
X0017200Y0877800D01*
X0004700Y0864300D01*
X0004700Y0454300D01*
X0024700Y0439300D01*
X0051700Y0439300D01*
X0051856Y0439286D01*
X0052012Y0439267D01*
X0052168Y0439245D01*
X0052323Y0439219D01*
X0052477Y0439189D01*
X0052631Y0439155D01*
X0052783Y0439117D01*
X0052935Y0439075D01*
X0053085Y0439030D01*
X0053234Y0438981D01*
X0053382Y0438928D01*
X0053529Y0438871D01*
X0053674Y0438811D01*
X0053817Y0438748D01*
X0053959Y0438680D01*
X0054100Y0438609D01*
X0054238Y0438535D01*
X0054374Y0438457D01*
X0054509Y0438376D01*
X0054641Y0438291D01*
X0054772Y0438203D01*
X0054900Y0438112D01*
X0055025Y0438018D01*
X0055149Y0437921D01*
X0055269Y0437820D01*
X0055388Y0437717D01*
X0055503Y0437610D01*
X0055616Y0437501D01*
X0055726Y0437389D01*
X0055834Y0437274D01*
X0055938Y0437157D01*
X0056039Y0437037D01*
X0056138Y0436914D01*
X0056233Y0436789D01*
X0056325Y0436662D01*
X0056414Y0436532D01*
X0056500Y0436401D01*
X0056582Y0436267D01*
X0056661Y0436131D01*
X0056736Y0435993D01*
X0056808Y0435854D01*
X0056877Y0435712D01*
X0056942Y0435569D01*
X0057003Y0435425D01*
X0057061Y0435278D01*
X0057115Y0435131D01*
X0057165Y0434982D01*
X0057211Y0434832D01*
X0057254Y0434681D01*
X0057293Y0434529D01*
X0057328Y0434375D01*
X0057360Y0434221D01*
X0057387Y0434067D01*
X0057411Y0433911D01*
X0057430Y0433756D01*
X0057446Y0433599D01*
X0057458Y0433443D01*
X0057466Y0433286D01*
X0057470Y0433129D01*
X0057470Y0432971D01*
X0057466Y0432814D01*
X0057458Y0432657D01*
X0057446Y0432501D01*
X0057430Y0432344D01*
X0057411Y0432189D01*
X0057387Y0432033D01*
X0057360Y0431879D01*
X0057328Y0431725D01*
X0057293Y0431571D01*
X0057254Y0431419D01*
X0057211Y0431268D01*
X0057165Y0431118D01*
X0057115Y0430969D01*
X0057061Y0430822D01*
X0057003Y0430675D01*
X0056942Y0430531D01*
X0056877Y0430388D01*
X0056808Y0430246D01*
X0056736Y0430107D01*
X0056661Y0429969D01*
X0056582Y0429833D01*
X0056500Y0429699D01*
X0056414Y0429568D01*
X0056325Y0429438D01*
X0056233Y0429311D01*
X0056138Y0429186D01*
X0056039Y0429063D01*
X0055938Y0428943D01*
X0055834Y0428826D01*
X0055726Y0428711D01*
X0055616Y0428599D01*
X0055503Y0428490D01*
X0055388Y0428383D01*
X0055269Y0428280D01*
X0055149Y0428179D01*
X0055025Y0428082D01*
X0054900Y0427988D01*
X0054772Y0427897D01*
X0054641Y0427809D01*
X0054509Y0427724D01*
X0054374Y0427643D01*
X0054238Y0427565D01*
X0054100Y0427491D01*
X0053959Y0427420D01*
X0053817Y0427352D01*
X0053674Y0427289D01*
X0053529Y0427229D01*
X0053382Y0427172D01*
X0053234Y0427119D01*
X0053085Y0427070D01*
X0052935Y0427025D01*
X0052783Y0426983D01*
X0052631Y0426945D01*
X0052477Y0426911D01*
X0052323Y0426881D01*
X0052168Y0426855D01*
X0052012Y0426833D01*
X0051856Y0426814D01*
X0051700Y0426800D01*
X0024700Y0426800D01*
X0004700Y0411800D01*
X0004700Y0005800D01*
X0829700Y0193800D02*
X0829700Y0218800D01*
X0839700Y0218800D01*
X0839700Y0193800D01*
X0829700Y0193800D01*
X0829700Y0351800D02*
X0829700Y0376800D01*
X0839700Y0376800D01*
X0839700Y0351800D01*
X0829700Y0351800D01*
X0829700Y0629300D02*
X0829700Y0654800D01*
X0839700Y0654800D01*
X0839700Y0629300D01*
X0829700Y0629300D01*
D11*
X0801747Y0831800D02*
X0801749Y0831908D01*
X0801755Y0832017D01*
X0801765Y0832125D01*
X0801779Y0832232D01*
X0801797Y0832339D01*
X0801818Y0832446D01*
X0801844Y0832551D01*
X0801874Y0832656D01*
X0801907Y0832759D01*
X0801944Y0832861D01*
X0801985Y0832961D01*
X0802029Y0833060D01*
X0802078Y0833158D01*
X0802129Y0833253D01*
X0802184Y0833346D01*
X0802243Y0833438D01*
X0802305Y0833527D01*
X0802370Y0833614D01*
X0802438Y0833698D01*
X0802509Y0833780D01*
X0802583Y0833859D01*
X0802660Y0833935D01*
X0802740Y0834009D01*
X0802823Y0834079D01*
X0802908Y0834147D01*
X0802995Y0834211D01*
X0803085Y0834272D01*
X0803177Y0834330D01*
X0803271Y0834384D01*
X0803367Y0834435D01*
X0803464Y0834482D01*
X0803564Y0834526D01*
X0803665Y0834566D01*
X0803767Y0834602D01*
X0803870Y0834634D01*
X0803975Y0834663D01*
X0804081Y0834687D01*
X0804187Y0834708D01*
X0804294Y0834725D01*
X0804402Y0834738D01*
X0804510Y0834747D01*
X0804619Y0834752D01*
X0804727Y0834753D01*
X0804836Y0834750D01*
X0804944Y0834743D01*
X0805052Y0834732D01*
X0805159Y0834717D01*
X0805266Y0834698D01*
X0805372Y0834675D01*
X0805477Y0834649D01*
X0805582Y0834618D01*
X0805684Y0834584D01*
X0805786Y0834546D01*
X0805886Y0834504D01*
X0805985Y0834459D01*
X0806082Y0834410D01*
X0806176Y0834357D01*
X0806269Y0834301D01*
X0806360Y0834242D01*
X0806449Y0834179D01*
X0806535Y0834114D01*
X0806619Y0834045D01*
X0806700Y0833973D01*
X0806778Y0833898D01*
X0806854Y0833820D01*
X0806927Y0833739D01*
X0806997Y0833656D01*
X0807063Y0833571D01*
X0807127Y0833483D01*
X0807187Y0833392D01*
X0807244Y0833300D01*
X0807297Y0833205D01*
X0807347Y0833109D01*
X0807393Y0833011D01*
X0807436Y0832911D01*
X0807475Y0832810D01*
X0807510Y0832707D01*
X0807542Y0832604D01*
X0807569Y0832499D01*
X0807593Y0832393D01*
X0807613Y0832286D01*
X0807629Y0832179D01*
X0807641Y0832071D01*
X0807649Y0831963D01*
X0807653Y0831854D01*
X0807653Y0831746D01*
X0807649Y0831637D01*
X0807641Y0831529D01*
X0807629Y0831421D01*
X0807613Y0831314D01*
X0807593Y0831207D01*
X0807569Y0831101D01*
X0807542Y0830996D01*
X0807510Y0830893D01*
X0807475Y0830790D01*
X0807436Y0830689D01*
X0807393Y0830589D01*
X0807347Y0830491D01*
X0807297Y0830395D01*
X0807244Y0830300D01*
X0807187Y0830208D01*
X0807127Y0830117D01*
X0807063Y0830029D01*
X0806997Y0829944D01*
X0806927Y0829861D01*
X0806854Y0829780D01*
X0806778Y0829702D01*
X0806700Y0829627D01*
X0806619Y0829555D01*
X0806535Y0829486D01*
X0806449Y0829421D01*
X0806360Y0829358D01*
X0806269Y0829299D01*
X0806177Y0829243D01*
X0806082Y0829190D01*
X0805985Y0829141D01*
X0805886Y0829096D01*
X0805786Y0829054D01*
X0805684Y0829016D01*
X0805582Y0828982D01*
X0805477Y0828951D01*
X0805372Y0828925D01*
X0805266Y0828902D01*
X0805159Y0828883D01*
X0805052Y0828868D01*
X0804944Y0828857D01*
X0804836Y0828850D01*
X0804727Y0828847D01*
X0804619Y0828848D01*
X0804510Y0828853D01*
X0804402Y0828862D01*
X0804294Y0828875D01*
X0804187Y0828892D01*
X0804081Y0828913D01*
X0803975Y0828937D01*
X0803870Y0828966D01*
X0803767Y0828998D01*
X0803665Y0829034D01*
X0803564Y0829074D01*
X0803464Y0829118D01*
X0803367Y0829165D01*
X0803271Y0829216D01*
X0803177Y0829270D01*
X0803085Y0829328D01*
X0802995Y0829389D01*
X0802908Y0829453D01*
X0802823Y0829521D01*
X0802740Y0829591D01*
X0802660Y0829665D01*
X0802583Y0829741D01*
X0802509Y0829820D01*
X0802438Y0829902D01*
X0802370Y0829986D01*
X0802305Y0830073D01*
X0802243Y0830162D01*
X0802184Y0830254D01*
X0802129Y0830347D01*
X0802078Y0830442D01*
X0802029Y0830540D01*
X0801985Y0830639D01*
X0801944Y0830739D01*
X0801907Y0830841D01*
X0801874Y0830944D01*
X0801844Y0831049D01*
X0801818Y0831154D01*
X0801797Y0831261D01*
X0801779Y0831368D01*
X0801765Y0831475D01*
X0801755Y0831583D01*
X0801749Y0831692D01*
X0801747Y0831800D01*
X0761747Y0831800D02*
X0761749Y0831908D01*
X0761755Y0832017D01*
X0761765Y0832125D01*
X0761779Y0832232D01*
X0761797Y0832339D01*
X0761818Y0832446D01*
X0761844Y0832551D01*
X0761874Y0832656D01*
X0761907Y0832759D01*
X0761944Y0832861D01*
X0761985Y0832961D01*
X0762029Y0833060D01*
X0762078Y0833158D01*
X0762129Y0833253D01*
X0762184Y0833346D01*
X0762243Y0833438D01*
X0762305Y0833527D01*
X0762370Y0833614D01*
X0762438Y0833698D01*
X0762509Y0833780D01*
X0762583Y0833859D01*
X0762660Y0833935D01*
X0762740Y0834009D01*
X0762823Y0834079D01*
X0762908Y0834147D01*
X0762995Y0834211D01*
X0763085Y0834272D01*
X0763177Y0834330D01*
X0763271Y0834384D01*
X0763367Y0834435D01*
X0763464Y0834482D01*
X0763564Y0834526D01*
X0763665Y0834566D01*
X0763767Y0834602D01*
X0763870Y0834634D01*
X0763975Y0834663D01*
X0764081Y0834687D01*
X0764187Y0834708D01*
X0764294Y0834725D01*
X0764402Y0834738D01*
X0764510Y0834747D01*
X0764619Y0834752D01*
X0764727Y0834753D01*
X0764836Y0834750D01*
X0764944Y0834743D01*
X0765052Y0834732D01*
X0765159Y0834717D01*
X0765266Y0834698D01*
X0765372Y0834675D01*
X0765477Y0834649D01*
X0765582Y0834618D01*
X0765684Y0834584D01*
X0765786Y0834546D01*
X0765886Y0834504D01*
X0765985Y0834459D01*
X0766082Y0834410D01*
X0766176Y0834357D01*
X0766269Y0834301D01*
X0766360Y0834242D01*
X0766449Y0834179D01*
X0766535Y0834114D01*
X0766619Y0834045D01*
X0766700Y0833973D01*
X0766778Y0833898D01*
X0766854Y0833820D01*
X0766927Y0833739D01*
X0766997Y0833656D01*
X0767063Y0833571D01*
X0767127Y0833483D01*
X0767187Y0833392D01*
X0767244Y0833300D01*
X0767297Y0833205D01*
X0767347Y0833109D01*
X0767393Y0833011D01*
X0767436Y0832911D01*
X0767475Y0832810D01*
X0767510Y0832707D01*
X0767542Y0832604D01*
X0767569Y0832499D01*
X0767593Y0832393D01*
X0767613Y0832286D01*
X0767629Y0832179D01*
X0767641Y0832071D01*
X0767649Y0831963D01*
X0767653Y0831854D01*
X0767653Y0831746D01*
X0767649Y0831637D01*
X0767641Y0831529D01*
X0767629Y0831421D01*
X0767613Y0831314D01*
X0767593Y0831207D01*
X0767569Y0831101D01*
X0767542Y0830996D01*
X0767510Y0830893D01*
X0767475Y0830790D01*
X0767436Y0830689D01*
X0767393Y0830589D01*
X0767347Y0830491D01*
X0767297Y0830395D01*
X0767244Y0830300D01*
X0767187Y0830208D01*
X0767127Y0830117D01*
X0767063Y0830029D01*
X0766997Y0829944D01*
X0766927Y0829861D01*
X0766854Y0829780D01*
X0766778Y0829702D01*
X0766700Y0829627D01*
X0766619Y0829555D01*
X0766535Y0829486D01*
X0766449Y0829421D01*
X0766360Y0829358D01*
X0766269Y0829299D01*
X0766177Y0829243D01*
X0766082Y0829190D01*
X0765985Y0829141D01*
X0765886Y0829096D01*
X0765786Y0829054D01*
X0765684Y0829016D01*
X0765582Y0828982D01*
X0765477Y0828951D01*
X0765372Y0828925D01*
X0765266Y0828902D01*
X0765159Y0828883D01*
X0765052Y0828868D01*
X0764944Y0828857D01*
X0764836Y0828850D01*
X0764727Y0828847D01*
X0764619Y0828848D01*
X0764510Y0828853D01*
X0764402Y0828862D01*
X0764294Y0828875D01*
X0764187Y0828892D01*
X0764081Y0828913D01*
X0763975Y0828937D01*
X0763870Y0828966D01*
X0763767Y0828998D01*
X0763665Y0829034D01*
X0763564Y0829074D01*
X0763464Y0829118D01*
X0763367Y0829165D01*
X0763271Y0829216D01*
X0763177Y0829270D01*
X0763085Y0829328D01*
X0762995Y0829389D01*
X0762908Y0829453D01*
X0762823Y0829521D01*
X0762740Y0829591D01*
X0762660Y0829665D01*
X0762583Y0829741D01*
X0762509Y0829820D01*
X0762438Y0829902D01*
X0762370Y0829986D01*
X0762305Y0830073D01*
X0762243Y0830162D01*
X0762184Y0830254D01*
X0762129Y0830347D01*
X0762078Y0830442D01*
X0762029Y0830540D01*
X0761985Y0830639D01*
X0761944Y0830739D01*
X0761907Y0830841D01*
X0761874Y0830944D01*
X0761844Y0831049D01*
X0761818Y0831154D01*
X0761797Y0831261D01*
X0761779Y0831368D01*
X0761765Y0831475D01*
X0761755Y0831583D01*
X0761749Y0831692D01*
X0761747Y0831800D01*
X0749247Y0831800D02*
X0749249Y0831908D01*
X0749255Y0832017D01*
X0749265Y0832125D01*
X0749279Y0832232D01*
X0749297Y0832339D01*
X0749318Y0832446D01*
X0749344Y0832551D01*
X0749374Y0832656D01*
X0749407Y0832759D01*
X0749444Y0832861D01*
X0749485Y0832961D01*
X0749529Y0833060D01*
X0749578Y0833158D01*
X0749629Y0833253D01*
X0749684Y0833346D01*
X0749743Y0833438D01*
X0749805Y0833527D01*
X0749870Y0833614D01*
X0749938Y0833698D01*
X0750009Y0833780D01*
X0750083Y0833859D01*
X0750160Y0833935D01*
X0750240Y0834009D01*
X0750323Y0834079D01*
X0750408Y0834147D01*
X0750495Y0834211D01*
X0750585Y0834272D01*
X0750677Y0834330D01*
X0750771Y0834384D01*
X0750867Y0834435D01*
X0750964Y0834482D01*
X0751064Y0834526D01*
X0751165Y0834566D01*
X0751267Y0834602D01*
X0751370Y0834634D01*
X0751475Y0834663D01*
X0751581Y0834687D01*
X0751687Y0834708D01*
X0751794Y0834725D01*
X0751902Y0834738D01*
X0752010Y0834747D01*
X0752119Y0834752D01*
X0752227Y0834753D01*
X0752336Y0834750D01*
X0752444Y0834743D01*
X0752552Y0834732D01*
X0752659Y0834717D01*
X0752766Y0834698D01*
X0752872Y0834675D01*
X0752977Y0834649D01*
X0753082Y0834618D01*
X0753184Y0834584D01*
X0753286Y0834546D01*
X0753386Y0834504D01*
X0753485Y0834459D01*
X0753582Y0834410D01*
X0753676Y0834357D01*
X0753769Y0834301D01*
X0753860Y0834242D01*
X0753949Y0834179D01*
X0754035Y0834114D01*
X0754119Y0834045D01*
X0754200Y0833973D01*
X0754278Y0833898D01*
X0754354Y0833820D01*
X0754427Y0833739D01*
X0754497Y0833656D01*
X0754563Y0833571D01*
X0754627Y0833483D01*
X0754687Y0833392D01*
X0754744Y0833300D01*
X0754797Y0833205D01*
X0754847Y0833109D01*
X0754893Y0833011D01*
X0754936Y0832911D01*
X0754975Y0832810D01*
X0755010Y0832707D01*
X0755042Y0832604D01*
X0755069Y0832499D01*
X0755093Y0832393D01*
X0755113Y0832286D01*
X0755129Y0832179D01*
X0755141Y0832071D01*
X0755149Y0831963D01*
X0755153Y0831854D01*
X0755153Y0831746D01*
X0755149Y0831637D01*
X0755141Y0831529D01*
X0755129Y0831421D01*
X0755113Y0831314D01*
X0755093Y0831207D01*
X0755069Y0831101D01*
X0755042Y0830996D01*
X0755010Y0830893D01*
X0754975Y0830790D01*
X0754936Y0830689D01*
X0754893Y0830589D01*
X0754847Y0830491D01*
X0754797Y0830395D01*
X0754744Y0830300D01*
X0754687Y0830208D01*
X0754627Y0830117D01*
X0754563Y0830029D01*
X0754497Y0829944D01*
X0754427Y0829861D01*
X0754354Y0829780D01*
X0754278Y0829702D01*
X0754200Y0829627D01*
X0754119Y0829555D01*
X0754035Y0829486D01*
X0753949Y0829421D01*
X0753860Y0829358D01*
X0753769Y0829299D01*
X0753677Y0829243D01*
X0753582Y0829190D01*
X0753485Y0829141D01*
X0753386Y0829096D01*
X0753286Y0829054D01*
X0753184Y0829016D01*
X0753082Y0828982D01*
X0752977Y0828951D01*
X0752872Y0828925D01*
X0752766Y0828902D01*
X0752659Y0828883D01*
X0752552Y0828868D01*
X0752444Y0828857D01*
X0752336Y0828850D01*
X0752227Y0828847D01*
X0752119Y0828848D01*
X0752010Y0828853D01*
X0751902Y0828862D01*
X0751794Y0828875D01*
X0751687Y0828892D01*
X0751581Y0828913D01*
X0751475Y0828937D01*
X0751370Y0828966D01*
X0751267Y0828998D01*
X0751165Y0829034D01*
X0751064Y0829074D01*
X0750964Y0829118D01*
X0750867Y0829165D01*
X0750771Y0829216D01*
X0750677Y0829270D01*
X0750585Y0829328D01*
X0750495Y0829389D01*
X0750408Y0829453D01*
X0750323Y0829521D01*
X0750240Y0829591D01*
X0750160Y0829665D01*
X0750083Y0829741D01*
X0750009Y0829820D01*
X0749938Y0829902D01*
X0749870Y0829986D01*
X0749805Y0830073D01*
X0749743Y0830162D01*
X0749684Y0830254D01*
X0749629Y0830347D01*
X0749578Y0830442D01*
X0749529Y0830540D01*
X0749485Y0830639D01*
X0749444Y0830739D01*
X0749407Y0830841D01*
X0749374Y0830944D01*
X0749344Y0831049D01*
X0749318Y0831154D01*
X0749297Y0831261D01*
X0749279Y0831368D01*
X0749265Y0831475D01*
X0749255Y0831583D01*
X0749249Y0831692D01*
X0749247Y0831800D01*
X0709247Y0831800D02*
X0709249Y0831908D01*
X0709255Y0832017D01*
X0709265Y0832125D01*
X0709279Y0832232D01*
X0709297Y0832339D01*
X0709318Y0832446D01*
X0709344Y0832551D01*
X0709374Y0832656D01*
X0709407Y0832759D01*
X0709444Y0832861D01*
X0709485Y0832961D01*
X0709529Y0833060D01*
X0709578Y0833158D01*
X0709629Y0833253D01*
X0709684Y0833346D01*
X0709743Y0833438D01*
X0709805Y0833527D01*
X0709870Y0833614D01*
X0709938Y0833698D01*
X0710009Y0833780D01*
X0710083Y0833859D01*
X0710160Y0833935D01*
X0710240Y0834009D01*
X0710323Y0834079D01*
X0710408Y0834147D01*
X0710495Y0834211D01*
X0710585Y0834272D01*
X0710677Y0834330D01*
X0710771Y0834384D01*
X0710867Y0834435D01*
X0710964Y0834482D01*
X0711064Y0834526D01*
X0711165Y0834566D01*
X0711267Y0834602D01*
X0711370Y0834634D01*
X0711475Y0834663D01*
X0711581Y0834687D01*
X0711687Y0834708D01*
X0711794Y0834725D01*
X0711902Y0834738D01*
X0712010Y0834747D01*
X0712119Y0834752D01*
X0712227Y0834753D01*
X0712336Y0834750D01*
X0712444Y0834743D01*
X0712552Y0834732D01*
X0712659Y0834717D01*
X0712766Y0834698D01*
X0712872Y0834675D01*
X0712977Y0834649D01*
X0713082Y0834618D01*
X0713184Y0834584D01*
X0713286Y0834546D01*
X0713386Y0834504D01*
X0713485Y0834459D01*
X0713582Y0834410D01*
X0713676Y0834357D01*
X0713769Y0834301D01*
X0713860Y0834242D01*
X0713949Y0834179D01*
X0714035Y0834114D01*
X0714119Y0834045D01*
X0714200Y0833973D01*
X0714278Y0833898D01*
X0714354Y0833820D01*
X0714427Y0833739D01*
X0714497Y0833656D01*
X0714563Y0833571D01*
X0714627Y0833483D01*
X0714687Y0833392D01*
X0714744Y0833300D01*
X0714797Y0833205D01*
X0714847Y0833109D01*
X0714893Y0833011D01*
X0714936Y0832911D01*
X0714975Y0832810D01*
X0715010Y0832707D01*
X0715042Y0832604D01*
X0715069Y0832499D01*
X0715093Y0832393D01*
X0715113Y0832286D01*
X0715129Y0832179D01*
X0715141Y0832071D01*
X0715149Y0831963D01*
X0715153Y0831854D01*
X0715153Y0831746D01*
X0715149Y0831637D01*
X0715141Y0831529D01*
X0715129Y0831421D01*
X0715113Y0831314D01*
X0715093Y0831207D01*
X0715069Y0831101D01*
X0715042Y0830996D01*
X0715010Y0830893D01*
X0714975Y0830790D01*
X0714936Y0830689D01*
X0714893Y0830589D01*
X0714847Y0830491D01*
X0714797Y0830395D01*
X0714744Y0830300D01*
X0714687Y0830208D01*
X0714627Y0830117D01*
X0714563Y0830029D01*
X0714497Y0829944D01*
X0714427Y0829861D01*
X0714354Y0829780D01*
X0714278Y0829702D01*
X0714200Y0829627D01*
X0714119Y0829555D01*
X0714035Y0829486D01*
X0713949Y0829421D01*
X0713860Y0829358D01*
X0713769Y0829299D01*
X0713677Y0829243D01*
X0713582Y0829190D01*
X0713485Y0829141D01*
X0713386Y0829096D01*
X0713286Y0829054D01*
X0713184Y0829016D01*
X0713082Y0828982D01*
X0712977Y0828951D01*
X0712872Y0828925D01*
X0712766Y0828902D01*
X0712659Y0828883D01*
X0712552Y0828868D01*
X0712444Y0828857D01*
X0712336Y0828850D01*
X0712227Y0828847D01*
X0712119Y0828848D01*
X0712010Y0828853D01*
X0711902Y0828862D01*
X0711794Y0828875D01*
X0711687Y0828892D01*
X0711581Y0828913D01*
X0711475Y0828937D01*
X0711370Y0828966D01*
X0711267Y0828998D01*
X0711165Y0829034D01*
X0711064Y0829074D01*
X0710964Y0829118D01*
X0710867Y0829165D01*
X0710771Y0829216D01*
X0710677Y0829270D01*
X0710585Y0829328D01*
X0710495Y0829389D01*
X0710408Y0829453D01*
X0710323Y0829521D01*
X0710240Y0829591D01*
X0710160Y0829665D01*
X0710083Y0829741D01*
X0710009Y0829820D01*
X0709938Y0829902D01*
X0709870Y0829986D01*
X0709805Y0830073D01*
X0709743Y0830162D01*
X0709684Y0830254D01*
X0709629Y0830347D01*
X0709578Y0830442D01*
X0709529Y0830540D01*
X0709485Y0830639D01*
X0709444Y0830739D01*
X0709407Y0830841D01*
X0709374Y0830944D01*
X0709344Y0831049D01*
X0709318Y0831154D01*
X0709297Y0831261D01*
X0709279Y0831368D01*
X0709265Y0831475D01*
X0709255Y0831583D01*
X0709249Y0831692D01*
X0709247Y0831800D01*
X0371550Y0839300D02*
X0371552Y0839412D01*
X0371558Y0839523D01*
X0371568Y0839635D01*
X0371582Y0839746D01*
X0371599Y0839856D01*
X0371621Y0839966D01*
X0371647Y0840075D01*
X0371676Y0840183D01*
X0371709Y0840289D01*
X0371746Y0840395D01*
X0371787Y0840499D01*
X0371832Y0840602D01*
X0371880Y0840703D01*
X0371931Y0840802D01*
X0371986Y0840899D01*
X0372045Y0840994D01*
X0372106Y0841088D01*
X0372171Y0841179D01*
X0372240Y0841267D01*
X0372311Y0841353D01*
X0372385Y0841437D01*
X0372463Y0841517D01*
X0372543Y0841595D01*
X0372626Y0841671D01*
X0372711Y0841743D01*
X0372799Y0841812D01*
X0372889Y0841878D01*
X0372982Y0841940D01*
X0373077Y0842000D01*
X0373174Y0842056D01*
X0373272Y0842108D01*
X0373373Y0842157D01*
X0373475Y0842202D01*
X0373579Y0842244D01*
X0373684Y0842282D01*
X0373791Y0842316D01*
X0373898Y0842346D01*
X0374007Y0842373D01*
X0374116Y0842395D01*
X0374227Y0842414D01*
X0374337Y0842429D01*
X0374449Y0842440D01*
X0374560Y0842447D01*
X0374672Y0842450D01*
X0374784Y0842449D01*
X0374896Y0842444D01*
X0375007Y0842435D01*
X0375118Y0842422D01*
X0375229Y0842405D01*
X0375339Y0842385D01*
X0375448Y0842360D01*
X0375556Y0842332D01*
X0375663Y0842299D01*
X0375769Y0842263D01*
X0375873Y0842223D01*
X0375976Y0842180D01*
X0376078Y0842133D01*
X0376177Y0842082D01*
X0376275Y0842028D01*
X0376371Y0841970D01*
X0376465Y0841909D01*
X0376556Y0841845D01*
X0376645Y0841778D01*
X0376732Y0841707D01*
X0376816Y0841633D01*
X0376898Y0841557D01*
X0376976Y0841477D01*
X0377052Y0841395D01*
X0377125Y0841310D01*
X0377195Y0841223D01*
X0377261Y0841133D01*
X0377325Y0841041D01*
X0377385Y0840947D01*
X0377442Y0840851D01*
X0377495Y0840752D01*
X0377545Y0840652D01*
X0377591Y0840551D01*
X0377634Y0840447D01*
X0377673Y0840342D01*
X0377708Y0840236D01*
X0377739Y0840129D01*
X0377767Y0840020D01*
X0377790Y0839911D01*
X0377810Y0839801D01*
X0377826Y0839690D01*
X0377838Y0839579D01*
X0377846Y0839468D01*
X0377850Y0839356D01*
X0377850Y0839244D01*
X0377846Y0839132D01*
X0377838Y0839021D01*
X0377826Y0838910D01*
X0377810Y0838799D01*
X0377790Y0838689D01*
X0377767Y0838580D01*
X0377739Y0838471D01*
X0377708Y0838364D01*
X0377673Y0838258D01*
X0377634Y0838153D01*
X0377591Y0838049D01*
X0377545Y0837948D01*
X0377495Y0837848D01*
X0377442Y0837749D01*
X0377385Y0837653D01*
X0377325Y0837559D01*
X0377261Y0837467D01*
X0377195Y0837377D01*
X0377125Y0837290D01*
X0377052Y0837205D01*
X0376976Y0837123D01*
X0376898Y0837043D01*
X0376816Y0836967D01*
X0376732Y0836893D01*
X0376645Y0836822D01*
X0376556Y0836755D01*
X0376465Y0836691D01*
X0376371Y0836630D01*
X0376275Y0836572D01*
X0376177Y0836518D01*
X0376078Y0836467D01*
X0375976Y0836420D01*
X0375873Y0836377D01*
X0375769Y0836337D01*
X0375663Y0836301D01*
X0375556Y0836268D01*
X0375448Y0836240D01*
X0375339Y0836215D01*
X0375229Y0836195D01*
X0375118Y0836178D01*
X0375007Y0836165D01*
X0374896Y0836156D01*
X0374784Y0836151D01*
X0374672Y0836150D01*
X0374560Y0836153D01*
X0374449Y0836160D01*
X0374337Y0836171D01*
X0374227Y0836186D01*
X0374116Y0836205D01*
X0374007Y0836227D01*
X0373898Y0836254D01*
X0373791Y0836284D01*
X0373684Y0836318D01*
X0373579Y0836356D01*
X0373475Y0836398D01*
X0373373Y0836443D01*
X0373272Y0836492D01*
X0373174Y0836544D01*
X0373077Y0836600D01*
X0372982Y0836660D01*
X0372889Y0836722D01*
X0372799Y0836788D01*
X0372711Y0836857D01*
X0372626Y0836929D01*
X0372543Y0837005D01*
X0372463Y0837083D01*
X0372385Y0837163D01*
X0372311Y0837247D01*
X0372240Y0837333D01*
X0372171Y0837421D01*
X0372106Y0837512D01*
X0372045Y0837606D01*
X0371986Y0837701D01*
X0371931Y0837798D01*
X0371880Y0837897D01*
X0371832Y0837998D01*
X0371787Y0838101D01*
X0371746Y0838205D01*
X0371709Y0838311D01*
X0371676Y0838417D01*
X0371647Y0838525D01*
X0371621Y0838634D01*
X0371599Y0838744D01*
X0371582Y0838854D01*
X0371568Y0838965D01*
X0371558Y0839077D01*
X0371552Y0839188D01*
X0371550Y0839300D01*
X0331550Y0839300D02*
X0331552Y0839412D01*
X0331558Y0839523D01*
X0331568Y0839635D01*
X0331582Y0839746D01*
X0331599Y0839856D01*
X0331621Y0839966D01*
X0331647Y0840075D01*
X0331676Y0840183D01*
X0331709Y0840289D01*
X0331746Y0840395D01*
X0331787Y0840499D01*
X0331832Y0840602D01*
X0331880Y0840703D01*
X0331931Y0840802D01*
X0331986Y0840899D01*
X0332045Y0840994D01*
X0332106Y0841088D01*
X0332171Y0841179D01*
X0332240Y0841267D01*
X0332311Y0841353D01*
X0332385Y0841437D01*
X0332463Y0841517D01*
X0332543Y0841595D01*
X0332626Y0841671D01*
X0332711Y0841743D01*
X0332799Y0841812D01*
X0332889Y0841878D01*
X0332982Y0841940D01*
X0333077Y0842000D01*
X0333174Y0842056D01*
X0333272Y0842108D01*
X0333373Y0842157D01*
X0333475Y0842202D01*
X0333579Y0842244D01*
X0333684Y0842282D01*
X0333791Y0842316D01*
X0333898Y0842346D01*
X0334007Y0842373D01*
X0334116Y0842395D01*
X0334227Y0842414D01*
X0334337Y0842429D01*
X0334449Y0842440D01*
X0334560Y0842447D01*
X0334672Y0842450D01*
X0334784Y0842449D01*
X0334896Y0842444D01*
X0335007Y0842435D01*
X0335118Y0842422D01*
X0335229Y0842405D01*
X0335339Y0842385D01*
X0335448Y0842360D01*
X0335556Y0842332D01*
X0335663Y0842299D01*
X0335769Y0842263D01*
X0335873Y0842223D01*
X0335976Y0842180D01*
X0336078Y0842133D01*
X0336177Y0842082D01*
X0336275Y0842028D01*
X0336371Y0841970D01*
X0336465Y0841909D01*
X0336556Y0841845D01*
X0336645Y0841778D01*
X0336732Y0841707D01*
X0336816Y0841633D01*
X0336898Y0841557D01*
X0336976Y0841477D01*
X0337052Y0841395D01*
X0337125Y0841310D01*
X0337195Y0841223D01*
X0337261Y0841133D01*
X0337325Y0841041D01*
X0337385Y0840947D01*
X0337442Y0840851D01*
X0337495Y0840752D01*
X0337545Y0840652D01*
X0337591Y0840551D01*
X0337634Y0840447D01*
X0337673Y0840342D01*
X0337708Y0840236D01*
X0337739Y0840129D01*
X0337767Y0840020D01*
X0337790Y0839911D01*
X0337810Y0839801D01*
X0337826Y0839690D01*
X0337838Y0839579D01*
X0337846Y0839468D01*
X0337850Y0839356D01*
X0337850Y0839244D01*
X0337846Y0839132D01*
X0337838Y0839021D01*
X0337826Y0838910D01*
X0337810Y0838799D01*
X0337790Y0838689D01*
X0337767Y0838580D01*
X0337739Y0838471D01*
X0337708Y0838364D01*
X0337673Y0838258D01*
X0337634Y0838153D01*
X0337591Y0838049D01*
X0337545Y0837948D01*
X0337495Y0837848D01*
X0337442Y0837749D01*
X0337385Y0837653D01*
X0337325Y0837559D01*
X0337261Y0837467D01*
X0337195Y0837377D01*
X0337125Y0837290D01*
X0337052Y0837205D01*
X0336976Y0837123D01*
X0336898Y0837043D01*
X0336816Y0836967D01*
X0336732Y0836893D01*
X0336645Y0836822D01*
X0336556Y0836755D01*
X0336465Y0836691D01*
X0336371Y0836630D01*
X0336275Y0836572D01*
X0336177Y0836518D01*
X0336078Y0836467D01*
X0335976Y0836420D01*
X0335873Y0836377D01*
X0335769Y0836337D01*
X0335663Y0836301D01*
X0335556Y0836268D01*
X0335448Y0836240D01*
X0335339Y0836215D01*
X0335229Y0836195D01*
X0335118Y0836178D01*
X0335007Y0836165D01*
X0334896Y0836156D01*
X0334784Y0836151D01*
X0334672Y0836150D01*
X0334560Y0836153D01*
X0334449Y0836160D01*
X0334337Y0836171D01*
X0334227Y0836186D01*
X0334116Y0836205D01*
X0334007Y0836227D01*
X0333898Y0836254D01*
X0333791Y0836284D01*
X0333684Y0836318D01*
X0333579Y0836356D01*
X0333475Y0836398D01*
X0333373Y0836443D01*
X0333272Y0836492D01*
X0333174Y0836544D01*
X0333077Y0836600D01*
X0332982Y0836660D01*
X0332889Y0836722D01*
X0332799Y0836788D01*
X0332711Y0836857D01*
X0332626Y0836929D01*
X0332543Y0837005D01*
X0332463Y0837083D01*
X0332385Y0837163D01*
X0332311Y0837247D01*
X0332240Y0837333D01*
X0332171Y0837421D01*
X0332106Y0837512D01*
X0332045Y0837606D01*
X0331986Y0837701D01*
X0331931Y0837798D01*
X0331880Y0837897D01*
X0331832Y0837998D01*
X0331787Y0838101D01*
X0331746Y0838205D01*
X0331709Y0838311D01*
X0331676Y0838417D01*
X0331647Y0838525D01*
X0331621Y0838634D01*
X0331599Y0838744D01*
X0331582Y0838854D01*
X0331568Y0838965D01*
X0331558Y0839077D01*
X0331552Y0839188D01*
X0331550Y0839300D01*
X0291550Y0839300D02*
X0291552Y0839412D01*
X0291558Y0839523D01*
X0291568Y0839635D01*
X0291582Y0839746D01*
X0291599Y0839856D01*
X0291621Y0839966D01*
X0291647Y0840075D01*
X0291676Y0840183D01*
X0291709Y0840289D01*
X0291746Y0840395D01*
X0291787Y0840499D01*
X0291832Y0840602D01*
X0291880Y0840703D01*
X0291931Y0840802D01*
X0291986Y0840899D01*
X0292045Y0840994D01*
X0292106Y0841088D01*
X0292171Y0841179D01*
X0292240Y0841267D01*
X0292311Y0841353D01*
X0292385Y0841437D01*
X0292463Y0841517D01*
X0292543Y0841595D01*
X0292626Y0841671D01*
X0292711Y0841743D01*
X0292799Y0841812D01*
X0292889Y0841878D01*
X0292982Y0841940D01*
X0293077Y0842000D01*
X0293174Y0842056D01*
X0293272Y0842108D01*
X0293373Y0842157D01*
X0293475Y0842202D01*
X0293579Y0842244D01*
X0293684Y0842282D01*
X0293791Y0842316D01*
X0293898Y0842346D01*
X0294007Y0842373D01*
X0294116Y0842395D01*
X0294227Y0842414D01*
X0294337Y0842429D01*
X0294449Y0842440D01*
X0294560Y0842447D01*
X0294672Y0842450D01*
X0294784Y0842449D01*
X0294896Y0842444D01*
X0295007Y0842435D01*
X0295118Y0842422D01*
X0295229Y0842405D01*
X0295339Y0842385D01*
X0295448Y0842360D01*
X0295556Y0842332D01*
X0295663Y0842299D01*
X0295769Y0842263D01*
X0295873Y0842223D01*
X0295976Y0842180D01*
X0296078Y0842133D01*
X0296177Y0842082D01*
X0296275Y0842028D01*
X0296371Y0841970D01*
X0296465Y0841909D01*
X0296556Y0841845D01*
X0296645Y0841778D01*
X0296732Y0841707D01*
X0296816Y0841633D01*
X0296898Y0841557D01*
X0296976Y0841477D01*
X0297052Y0841395D01*
X0297125Y0841310D01*
X0297195Y0841223D01*
X0297261Y0841133D01*
X0297325Y0841041D01*
X0297385Y0840947D01*
X0297442Y0840851D01*
X0297495Y0840752D01*
X0297545Y0840652D01*
X0297591Y0840551D01*
X0297634Y0840447D01*
X0297673Y0840342D01*
X0297708Y0840236D01*
X0297739Y0840129D01*
X0297767Y0840020D01*
X0297790Y0839911D01*
X0297810Y0839801D01*
X0297826Y0839690D01*
X0297838Y0839579D01*
X0297846Y0839468D01*
X0297850Y0839356D01*
X0297850Y0839244D01*
X0297846Y0839132D01*
X0297838Y0839021D01*
X0297826Y0838910D01*
X0297810Y0838799D01*
X0297790Y0838689D01*
X0297767Y0838580D01*
X0297739Y0838471D01*
X0297708Y0838364D01*
X0297673Y0838258D01*
X0297634Y0838153D01*
X0297591Y0838049D01*
X0297545Y0837948D01*
X0297495Y0837848D01*
X0297442Y0837749D01*
X0297385Y0837653D01*
X0297325Y0837559D01*
X0297261Y0837467D01*
X0297195Y0837377D01*
X0297125Y0837290D01*
X0297052Y0837205D01*
X0296976Y0837123D01*
X0296898Y0837043D01*
X0296816Y0836967D01*
X0296732Y0836893D01*
X0296645Y0836822D01*
X0296556Y0836755D01*
X0296465Y0836691D01*
X0296371Y0836630D01*
X0296275Y0836572D01*
X0296177Y0836518D01*
X0296078Y0836467D01*
X0295976Y0836420D01*
X0295873Y0836377D01*
X0295769Y0836337D01*
X0295663Y0836301D01*
X0295556Y0836268D01*
X0295448Y0836240D01*
X0295339Y0836215D01*
X0295229Y0836195D01*
X0295118Y0836178D01*
X0295007Y0836165D01*
X0294896Y0836156D01*
X0294784Y0836151D01*
X0294672Y0836150D01*
X0294560Y0836153D01*
X0294449Y0836160D01*
X0294337Y0836171D01*
X0294227Y0836186D01*
X0294116Y0836205D01*
X0294007Y0836227D01*
X0293898Y0836254D01*
X0293791Y0836284D01*
X0293684Y0836318D01*
X0293579Y0836356D01*
X0293475Y0836398D01*
X0293373Y0836443D01*
X0293272Y0836492D01*
X0293174Y0836544D01*
X0293077Y0836600D01*
X0292982Y0836660D01*
X0292889Y0836722D01*
X0292799Y0836788D01*
X0292711Y0836857D01*
X0292626Y0836929D01*
X0292543Y0837005D01*
X0292463Y0837083D01*
X0292385Y0837163D01*
X0292311Y0837247D01*
X0292240Y0837333D01*
X0292171Y0837421D01*
X0292106Y0837512D01*
X0292045Y0837606D01*
X0291986Y0837701D01*
X0291931Y0837798D01*
X0291880Y0837897D01*
X0291832Y0837998D01*
X0291787Y0838101D01*
X0291746Y0838205D01*
X0291709Y0838311D01*
X0291676Y0838417D01*
X0291647Y0838525D01*
X0291621Y0838634D01*
X0291599Y0838744D01*
X0291582Y0838854D01*
X0291568Y0838965D01*
X0291558Y0839077D01*
X0291552Y0839188D01*
X0291550Y0839300D01*
X0251550Y0839300D02*
X0251552Y0839412D01*
X0251558Y0839523D01*
X0251568Y0839635D01*
X0251582Y0839746D01*
X0251599Y0839856D01*
X0251621Y0839966D01*
X0251647Y0840075D01*
X0251676Y0840183D01*
X0251709Y0840289D01*
X0251746Y0840395D01*
X0251787Y0840499D01*
X0251832Y0840602D01*
X0251880Y0840703D01*
X0251931Y0840802D01*
X0251986Y0840899D01*
X0252045Y0840994D01*
X0252106Y0841088D01*
X0252171Y0841179D01*
X0252240Y0841267D01*
X0252311Y0841353D01*
X0252385Y0841437D01*
X0252463Y0841517D01*
X0252543Y0841595D01*
X0252626Y0841671D01*
X0252711Y0841743D01*
X0252799Y0841812D01*
X0252889Y0841878D01*
X0252982Y0841940D01*
X0253077Y0842000D01*
X0253174Y0842056D01*
X0253272Y0842108D01*
X0253373Y0842157D01*
X0253475Y0842202D01*
X0253579Y0842244D01*
X0253684Y0842282D01*
X0253791Y0842316D01*
X0253898Y0842346D01*
X0254007Y0842373D01*
X0254116Y0842395D01*
X0254227Y0842414D01*
X0254337Y0842429D01*
X0254449Y0842440D01*
X0254560Y0842447D01*
X0254672Y0842450D01*
X0254784Y0842449D01*
X0254896Y0842444D01*
X0255007Y0842435D01*
X0255118Y0842422D01*
X0255229Y0842405D01*
X0255339Y0842385D01*
X0255448Y0842360D01*
X0255556Y0842332D01*
X0255663Y0842299D01*
X0255769Y0842263D01*
X0255873Y0842223D01*
X0255976Y0842180D01*
X0256078Y0842133D01*
X0256177Y0842082D01*
X0256275Y0842028D01*
X0256371Y0841970D01*
X0256465Y0841909D01*
X0256556Y0841845D01*
X0256645Y0841778D01*
X0256732Y0841707D01*
X0256816Y0841633D01*
X0256898Y0841557D01*
X0256976Y0841477D01*
X0257052Y0841395D01*
X0257125Y0841310D01*
X0257195Y0841223D01*
X0257261Y0841133D01*
X0257325Y0841041D01*
X0257385Y0840947D01*
X0257442Y0840851D01*
X0257495Y0840752D01*
X0257545Y0840652D01*
X0257591Y0840551D01*
X0257634Y0840447D01*
X0257673Y0840342D01*
X0257708Y0840236D01*
X0257739Y0840129D01*
X0257767Y0840020D01*
X0257790Y0839911D01*
X0257810Y0839801D01*
X0257826Y0839690D01*
X0257838Y0839579D01*
X0257846Y0839468D01*
X0257850Y0839356D01*
X0257850Y0839244D01*
X0257846Y0839132D01*
X0257838Y0839021D01*
X0257826Y0838910D01*
X0257810Y0838799D01*
X0257790Y0838689D01*
X0257767Y0838580D01*
X0257739Y0838471D01*
X0257708Y0838364D01*
X0257673Y0838258D01*
X0257634Y0838153D01*
X0257591Y0838049D01*
X0257545Y0837948D01*
X0257495Y0837848D01*
X0257442Y0837749D01*
X0257385Y0837653D01*
X0257325Y0837559D01*
X0257261Y0837467D01*
X0257195Y0837377D01*
X0257125Y0837290D01*
X0257052Y0837205D01*
X0256976Y0837123D01*
X0256898Y0837043D01*
X0256816Y0836967D01*
X0256732Y0836893D01*
X0256645Y0836822D01*
X0256556Y0836755D01*
X0256465Y0836691D01*
X0256371Y0836630D01*
X0256275Y0836572D01*
X0256177Y0836518D01*
X0256078Y0836467D01*
X0255976Y0836420D01*
X0255873Y0836377D01*
X0255769Y0836337D01*
X0255663Y0836301D01*
X0255556Y0836268D01*
X0255448Y0836240D01*
X0255339Y0836215D01*
X0255229Y0836195D01*
X0255118Y0836178D01*
X0255007Y0836165D01*
X0254896Y0836156D01*
X0254784Y0836151D01*
X0254672Y0836150D01*
X0254560Y0836153D01*
X0254449Y0836160D01*
X0254337Y0836171D01*
X0254227Y0836186D01*
X0254116Y0836205D01*
X0254007Y0836227D01*
X0253898Y0836254D01*
X0253791Y0836284D01*
X0253684Y0836318D01*
X0253579Y0836356D01*
X0253475Y0836398D01*
X0253373Y0836443D01*
X0253272Y0836492D01*
X0253174Y0836544D01*
X0253077Y0836600D01*
X0252982Y0836660D01*
X0252889Y0836722D01*
X0252799Y0836788D01*
X0252711Y0836857D01*
X0252626Y0836929D01*
X0252543Y0837005D01*
X0252463Y0837083D01*
X0252385Y0837163D01*
X0252311Y0837247D01*
X0252240Y0837333D01*
X0252171Y0837421D01*
X0252106Y0837512D01*
X0252045Y0837606D01*
X0251986Y0837701D01*
X0251931Y0837798D01*
X0251880Y0837897D01*
X0251832Y0837998D01*
X0251787Y0838101D01*
X0251746Y0838205D01*
X0251709Y0838311D01*
X0251676Y0838417D01*
X0251647Y0838525D01*
X0251621Y0838634D01*
X0251599Y0838744D01*
X0251582Y0838854D01*
X0251568Y0838965D01*
X0251558Y0839077D01*
X0251552Y0839188D01*
X0251550Y0839300D01*
X0211550Y0839300D02*
X0211552Y0839412D01*
X0211558Y0839523D01*
X0211568Y0839635D01*
X0211582Y0839746D01*
X0211599Y0839856D01*
X0211621Y0839966D01*
X0211647Y0840075D01*
X0211676Y0840183D01*
X0211709Y0840289D01*
X0211746Y0840395D01*
X0211787Y0840499D01*
X0211832Y0840602D01*
X0211880Y0840703D01*
X0211931Y0840802D01*
X0211986Y0840899D01*
X0212045Y0840994D01*
X0212106Y0841088D01*
X0212171Y0841179D01*
X0212240Y0841267D01*
X0212311Y0841353D01*
X0212385Y0841437D01*
X0212463Y0841517D01*
X0212543Y0841595D01*
X0212626Y0841671D01*
X0212711Y0841743D01*
X0212799Y0841812D01*
X0212889Y0841878D01*
X0212982Y0841940D01*
X0213077Y0842000D01*
X0213174Y0842056D01*
X0213272Y0842108D01*
X0213373Y0842157D01*
X0213475Y0842202D01*
X0213579Y0842244D01*
X0213684Y0842282D01*
X0213791Y0842316D01*
X0213898Y0842346D01*
X0214007Y0842373D01*
X0214116Y0842395D01*
X0214227Y0842414D01*
X0214337Y0842429D01*
X0214449Y0842440D01*
X0214560Y0842447D01*
X0214672Y0842450D01*
X0214784Y0842449D01*
X0214896Y0842444D01*
X0215007Y0842435D01*
X0215118Y0842422D01*
X0215229Y0842405D01*
X0215339Y0842385D01*
X0215448Y0842360D01*
X0215556Y0842332D01*
X0215663Y0842299D01*
X0215769Y0842263D01*
X0215873Y0842223D01*
X0215976Y0842180D01*
X0216078Y0842133D01*
X0216177Y0842082D01*
X0216275Y0842028D01*
X0216371Y0841970D01*
X0216465Y0841909D01*
X0216556Y0841845D01*
X0216645Y0841778D01*
X0216732Y0841707D01*
X0216816Y0841633D01*
X0216898Y0841557D01*
X0216976Y0841477D01*
X0217052Y0841395D01*
X0217125Y0841310D01*
X0217195Y0841223D01*
X0217261Y0841133D01*
X0217325Y0841041D01*
X0217385Y0840947D01*
X0217442Y0840851D01*
X0217495Y0840752D01*
X0217545Y0840652D01*
X0217591Y0840551D01*
X0217634Y0840447D01*
X0217673Y0840342D01*
X0217708Y0840236D01*
X0217739Y0840129D01*
X0217767Y0840020D01*
X0217790Y0839911D01*
X0217810Y0839801D01*
X0217826Y0839690D01*
X0217838Y0839579D01*
X0217846Y0839468D01*
X0217850Y0839356D01*
X0217850Y0839244D01*
X0217846Y0839132D01*
X0217838Y0839021D01*
X0217826Y0838910D01*
X0217810Y0838799D01*
X0217790Y0838689D01*
X0217767Y0838580D01*
X0217739Y0838471D01*
X0217708Y0838364D01*
X0217673Y0838258D01*
X0217634Y0838153D01*
X0217591Y0838049D01*
X0217545Y0837948D01*
X0217495Y0837848D01*
X0217442Y0837749D01*
X0217385Y0837653D01*
X0217325Y0837559D01*
X0217261Y0837467D01*
X0217195Y0837377D01*
X0217125Y0837290D01*
X0217052Y0837205D01*
X0216976Y0837123D01*
X0216898Y0837043D01*
X0216816Y0836967D01*
X0216732Y0836893D01*
X0216645Y0836822D01*
X0216556Y0836755D01*
X0216465Y0836691D01*
X0216371Y0836630D01*
X0216275Y0836572D01*
X0216177Y0836518D01*
X0216078Y0836467D01*
X0215976Y0836420D01*
X0215873Y0836377D01*
X0215769Y0836337D01*
X0215663Y0836301D01*
X0215556Y0836268D01*
X0215448Y0836240D01*
X0215339Y0836215D01*
X0215229Y0836195D01*
X0215118Y0836178D01*
X0215007Y0836165D01*
X0214896Y0836156D01*
X0214784Y0836151D01*
X0214672Y0836150D01*
X0214560Y0836153D01*
X0214449Y0836160D01*
X0214337Y0836171D01*
X0214227Y0836186D01*
X0214116Y0836205D01*
X0214007Y0836227D01*
X0213898Y0836254D01*
X0213791Y0836284D01*
X0213684Y0836318D01*
X0213579Y0836356D01*
X0213475Y0836398D01*
X0213373Y0836443D01*
X0213272Y0836492D01*
X0213174Y0836544D01*
X0213077Y0836600D01*
X0212982Y0836660D01*
X0212889Y0836722D01*
X0212799Y0836788D01*
X0212711Y0836857D01*
X0212626Y0836929D01*
X0212543Y0837005D01*
X0212463Y0837083D01*
X0212385Y0837163D01*
X0212311Y0837247D01*
X0212240Y0837333D01*
X0212171Y0837421D01*
X0212106Y0837512D01*
X0212045Y0837606D01*
X0211986Y0837701D01*
X0211931Y0837798D01*
X0211880Y0837897D01*
X0211832Y0837998D01*
X0211787Y0838101D01*
X0211746Y0838205D01*
X0211709Y0838311D01*
X0211676Y0838417D01*
X0211647Y0838525D01*
X0211621Y0838634D01*
X0211599Y0838744D01*
X0211582Y0838854D01*
X0211568Y0838965D01*
X0211558Y0839077D01*
X0211552Y0839188D01*
X0211550Y0839300D01*
X0171550Y0839300D02*
X0171552Y0839412D01*
X0171558Y0839523D01*
X0171568Y0839635D01*
X0171582Y0839746D01*
X0171599Y0839856D01*
X0171621Y0839966D01*
X0171647Y0840075D01*
X0171676Y0840183D01*
X0171709Y0840289D01*
X0171746Y0840395D01*
X0171787Y0840499D01*
X0171832Y0840602D01*
X0171880Y0840703D01*
X0171931Y0840802D01*
X0171986Y0840899D01*
X0172045Y0840994D01*
X0172106Y0841088D01*
X0172171Y0841179D01*
X0172240Y0841267D01*
X0172311Y0841353D01*
X0172385Y0841437D01*
X0172463Y0841517D01*
X0172543Y0841595D01*
X0172626Y0841671D01*
X0172711Y0841743D01*
X0172799Y0841812D01*
X0172889Y0841878D01*
X0172982Y0841940D01*
X0173077Y0842000D01*
X0173174Y0842056D01*
X0173272Y0842108D01*
X0173373Y0842157D01*
X0173475Y0842202D01*
X0173579Y0842244D01*
X0173684Y0842282D01*
X0173791Y0842316D01*
X0173898Y0842346D01*
X0174007Y0842373D01*
X0174116Y0842395D01*
X0174227Y0842414D01*
X0174337Y0842429D01*
X0174449Y0842440D01*
X0174560Y0842447D01*
X0174672Y0842450D01*
X0174784Y0842449D01*
X0174896Y0842444D01*
X0175007Y0842435D01*
X0175118Y0842422D01*
X0175229Y0842405D01*
X0175339Y0842385D01*
X0175448Y0842360D01*
X0175556Y0842332D01*
X0175663Y0842299D01*
X0175769Y0842263D01*
X0175873Y0842223D01*
X0175976Y0842180D01*
X0176078Y0842133D01*
X0176177Y0842082D01*
X0176275Y0842028D01*
X0176371Y0841970D01*
X0176465Y0841909D01*
X0176556Y0841845D01*
X0176645Y0841778D01*
X0176732Y0841707D01*
X0176816Y0841633D01*
X0176898Y0841557D01*
X0176976Y0841477D01*
X0177052Y0841395D01*
X0177125Y0841310D01*
X0177195Y0841223D01*
X0177261Y0841133D01*
X0177325Y0841041D01*
X0177385Y0840947D01*
X0177442Y0840851D01*
X0177495Y0840752D01*
X0177545Y0840652D01*
X0177591Y0840551D01*
X0177634Y0840447D01*
X0177673Y0840342D01*
X0177708Y0840236D01*
X0177739Y0840129D01*
X0177767Y0840020D01*
X0177790Y0839911D01*
X0177810Y0839801D01*
X0177826Y0839690D01*
X0177838Y0839579D01*
X0177846Y0839468D01*
X0177850Y0839356D01*
X0177850Y0839244D01*
X0177846Y0839132D01*
X0177838Y0839021D01*
X0177826Y0838910D01*
X0177810Y0838799D01*
X0177790Y0838689D01*
X0177767Y0838580D01*
X0177739Y0838471D01*
X0177708Y0838364D01*
X0177673Y0838258D01*
X0177634Y0838153D01*
X0177591Y0838049D01*
X0177545Y0837948D01*
X0177495Y0837848D01*
X0177442Y0837749D01*
X0177385Y0837653D01*
X0177325Y0837559D01*
X0177261Y0837467D01*
X0177195Y0837377D01*
X0177125Y0837290D01*
X0177052Y0837205D01*
X0176976Y0837123D01*
X0176898Y0837043D01*
X0176816Y0836967D01*
X0176732Y0836893D01*
X0176645Y0836822D01*
X0176556Y0836755D01*
X0176465Y0836691D01*
X0176371Y0836630D01*
X0176275Y0836572D01*
X0176177Y0836518D01*
X0176078Y0836467D01*
X0175976Y0836420D01*
X0175873Y0836377D01*
X0175769Y0836337D01*
X0175663Y0836301D01*
X0175556Y0836268D01*
X0175448Y0836240D01*
X0175339Y0836215D01*
X0175229Y0836195D01*
X0175118Y0836178D01*
X0175007Y0836165D01*
X0174896Y0836156D01*
X0174784Y0836151D01*
X0174672Y0836150D01*
X0174560Y0836153D01*
X0174449Y0836160D01*
X0174337Y0836171D01*
X0174227Y0836186D01*
X0174116Y0836205D01*
X0174007Y0836227D01*
X0173898Y0836254D01*
X0173791Y0836284D01*
X0173684Y0836318D01*
X0173579Y0836356D01*
X0173475Y0836398D01*
X0173373Y0836443D01*
X0173272Y0836492D01*
X0173174Y0836544D01*
X0173077Y0836600D01*
X0172982Y0836660D01*
X0172889Y0836722D01*
X0172799Y0836788D01*
X0172711Y0836857D01*
X0172626Y0836929D01*
X0172543Y0837005D01*
X0172463Y0837083D01*
X0172385Y0837163D01*
X0172311Y0837247D01*
X0172240Y0837333D01*
X0172171Y0837421D01*
X0172106Y0837512D01*
X0172045Y0837606D01*
X0171986Y0837701D01*
X0171931Y0837798D01*
X0171880Y0837897D01*
X0171832Y0837998D01*
X0171787Y0838101D01*
X0171746Y0838205D01*
X0171709Y0838311D01*
X0171676Y0838417D01*
X0171647Y0838525D01*
X0171621Y0838634D01*
X0171599Y0838744D01*
X0171582Y0838854D01*
X0171568Y0838965D01*
X0171558Y0839077D01*
X0171552Y0839188D01*
X0171550Y0839300D01*
X0131550Y0839300D02*
X0131552Y0839412D01*
X0131558Y0839523D01*
X0131568Y0839635D01*
X0131582Y0839746D01*
X0131599Y0839856D01*
X0131621Y0839966D01*
X0131647Y0840075D01*
X0131676Y0840183D01*
X0131709Y0840289D01*
X0131746Y0840395D01*
X0131787Y0840499D01*
X0131832Y0840602D01*
X0131880Y0840703D01*
X0131931Y0840802D01*
X0131986Y0840899D01*
X0132045Y0840994D01*
X0132106Y0841088D01*
X0132171Y0841179D01*
X0132240Y0841267D01*
X0132311Y0841353D01*
X0132385Y0841437D01*
X0132463Y0841517D01*
X0132543Y0841595D01*
X0132626Y0841671D01*
X0132711Y0841743D01*
X0132799Y0841812D01*
X0132889Y0841878D01*
X0132982Y0841940D01*
X0133077Y0842000D01*
X0133174Y0842056D01*
X0133272Y0842108D01*
X0133373Y0842157D01*
X0133475Y0842202D01*
X0133579Y0842244D01*
X0133684Y0842282D01*
X0133791Y0842316D01*
X0133898Y0842346D01*
X0134007Y0842373D01*
X0134116Y0842395D01*
X0134227Y0842414D01*
X0134337Y0842429D01*
X0134449Y0842440D01*
X0134560Y0842447D01*
X0134672Y0842450D01*
X0134784Y0842449D01*
X0134896Y0842444D01*
X0135007Y0842435D01*
X0135118Y0842422D01*
X0135229Y0842405D01*
X0135339Y0842385D01*
X0135448Y0842360D01*
X0135556Y0842332D01*
X0135663Y0842299D01*
X0135769Y0842263D01*
X0135873Y0842223D01*
X0135976Y0842180D01*
X0136078Y0842133D01*
X0136177Y0842082D01*
X0136275Y0842028D01*
X0136371Y0841970D01*
X0136465Y0841909D01*
X0136556Y0841845D01*
X0136645Y0841778D01*
X0136732Y0841707D01*
X0136816Y0841633D01*
X0136898Y0841557D01*
X0136976Y0841477D01*
X0137052Y0841395D01*
X0137125Y0841310D01*
X0137195Y0841223D01*
X0137261Y0841133D01*
X0137325Y0841041D01*
X0137385Y0840947D01*
X0137442Y0840851D01*
X0137495Y0840752D01*
X0137545Y0840652D01*
X0137591Y0840551D01*
X0137634Y0840447D01*
X0137673Y0840342D01*
X0137708Y0840236D01*
X0137739Y0840129D01*
X0137767Y0840020D01*
X0137790Y0839911D01*
X0137810Y0839801D01*
X0137826Y0839690D01*
X0137838Y0839579D01*
X0137846Y0839468D01*
X0137850Y0839356D01*
X0137850Y0839244D01*
X0137846Y0839132D01*
X0137838Y0839021D01*
X0137826Y0838910D01*
X0137810Y0838799D01*
X0137790Y0838689D01*
X0137767Y0838580D01*
X0137739Y0838471D01*
X0137708Y0838364D01*
X0137673Y0838258D01*
X0137634Y0838153D01*
X0137591Y0838049D01*
X0137545Y0837948D01*
X0137495Y0837848D01*
X0137442Y0837749D01*
X0137385Y0837653D01*
X0137325Y0837559D01*
X0137261Y0837467D01*
X0137195Y0837377D01*
X0137125Y0837290D01*
X0137052Y0837205D01*
X0136976Y0837123D01*
X0136898Y0837043D01*
X0136816Y0836967D01*
X0136732Y0836893D01*
X0136645Y0836822D01*
X0136556Y0836755D01*
X0136465Y0836691D01*
X0136371Y0836630D01*
X0136275Y0836572D01*
X0136177Y0836518D01*
X0136078Y0836467D01*
X0135976Y0836420D01*
X0135873Y0836377D01*
X0135769Y0836337D01*
X0135663Y0836301D01*
X0135556Y0836268D01*
X0135448Y0836240D01*
X0135339Y0836215D01*
X0135229Y0836195D01*
X0135118Y0836178D01*
X0135007Y0836165D01*
X0134896Y0836156D01*
X0134784Y0836151D01*
X0134672Y0836150D01*
X0134560Y0836153D01*
X0134449Y0836160D01*
X0134337Y0836171D01*
X0134227Y0836186D01*
X0134116Y0836205D01*
X0134007Y0836227D01*
X0133898Y0836254D01*
X0133791Y0836284D01*
X0133684Y0836318D01*
X0133579Y0836356D01*
X0133475Y0836398D01*
X0133373Y0836443D01*
X0133272Y0836492D01*
X0133174Y0836544D01*
X0133077Y0836600D01*
X0132982Y0836660D01*
X0132889Y0836722D01*
X0132799Y0836788D01*
X0132711Y0836857D01*
X0132626Y0836929D01*
X0132543Y0837005D01*
X0132463Y0837083D01*
X0132385Y0837163D01*
X0132311Y0837247D01*
X0132240Y0837333D01*
X0132171Y0837421D01*
X0132106Y0837512D01*
X0132045Y0837606D01*
X0131986Y0837701D01*
X0131931Y0837798D01*
X0131880Y0837897D01*
X0131832Y0837998D01*
X0131787Y0838101D01*
X0131746Y0838205D01*
X0131709Y0838311D01*
X0131676Y0838417D01*
X0131647Y0838525D01*
X0131621Y0838634D01*
X0131599Y0838744D01*
X0131582Y0838854D01*
X0131568Y0838965D01*
X0131558Y0839077D01*
X0131552Y0839188D01*
X0131550Y0839300D01*
X0091550Y0839300D02*
X0091552Y0839412D01*
X0091558Y0839523D01*
X0091568Y0839635D01*
X0091582Y0839746D01*
X0091599Y0839856D01*
X0091621Y0839966D01*
X0091647Y0840075D01*
X0091676Y0840183D01*
X0091709Y0840289D01*
X0091746Y0840395D01*
X0091787Y0840499D01*
X0091832Y0840602D01*
X0091880Y0840703D01*
X0091931Y0840802D01*
X0091986Y0840899D01*
X0092045Y0840994D01*
X0092106Y0841088D01*
X0092171Y0841179D01*
X0092240Y0841267D01*
X0092311Y0841353D01*
X0092385Y0841437D01*
X0092463Y0841517D01*
X0092543Y0841595D01*
X0092626Y0841671D01*
X0092711Y0841743D01*
X0092799Y0841812D01*
X0092889Y0841878D01*
X0092982Y0841940D01*
X0093077Y0842000D01*
X0093174Y0842056D01*
X0093272Y0842108D01*
X0093373Y0842157D01*
X0093475Y0842202D01*
X0093579Y0842244D01*
X0093684Y0842282D01*
X0093791Y0842316D01*
X0093898Y0842346D01*
X0094007Y0842373D01*
X0094116Y0842395D01*
X0094227Y0842414D01*
X0094337Y0842429D01*
X0094449Y0842440D01*
X0094560Y0842447D01*
X0094672Y0842450D01*
X0094784Y0842449D01*
X0094896Y0842444D01*
X0095007Y0842435D01*
X0095118Y0842422D01*
X0095229Y0842405D01*
X0095339Y0842385D01*
X0095448Y0842360D01*
X0095556Y0842332D01*
X0095663Y0842299D01*
X0095769Y0842263D01*
X0095873Y0842223D01*
X0095976Y0842180D01*
X0096078Y0842133D01*
X0096177Y0842082D01*
X0096275Y0842028D01*
X0096371Y0841970D01*
X0096465Y0841909D01*
X0096556Y0841845D01*
X0096645Y0841778D01*
X0096732Y0841707D01*
X0096816Y0841633D01*
X0096898Y0841557D01*
X0096976Y0841477D01*
X0097052Y0841395D01*
X0097125Y0841310D01*
X0097195Y0841223D01*
X0097261Y0841133D01*
X0097325Y0841041D01*
X0097385Y0840947D01*
X0097442Y0840851D01*
X0097495Y0840752D01*
X0097545Y0840652D01*
X0097591Y0840551D01*
X0097634Y0840447D01*
X0097673Y0840342D01*
X0097708Y0840236D01*
X0097739Y0840129D01*
X0097767Y0840020D01*
X0097790Y0839911D01*
X0097810Y0839801D01*
X0097826Y0839690D01*
X0097838Y0839579D01*
X0097846Y0839468D01*
X0097850Y0839356D01*
X0097850Y0839244D01*
X0097846Y0839132D01*
X0097838Y0839021D01*
X0097826Y0838910D01*
X0097810Y0838799D01*
X0097790Y0838689D01*
X0097767Y0838580D01*
X0097739Y0838471D01*
X0097708Y0838364D01*
X0097673Y0838258D01*
X0097634Y0838153D01*
X0097591Y0838049D01*
X0097545Y0837948D01*
X0097495Y0837848D01*
X0097442Y0837749D01*
X0097385Y0837653D01*
X0097325Y0837559D01*
X0097261Y0837467D01*
X0097195Y0837377D01*
X0097125Y0837290D01*
X0097052Y0837205D01*
X0096976Y0837123D01*
X0096898Y0837043D01*
X0096816Y0836967D01*
X0096732Y0836893D01*
X0096645Y0836822D01*
X0096556Y0836755D01*
X0096465Y0836691D01*
X0096371Y0836630D01*
X0096275Y0836572D01*
X0096177Y0836518D01*
X0096078Y0836467D01*
X0095976Y0836420D01*
X0095873Y0836377D01*
X0095769Y0836337D01*
X0095663Y0836301D01*
X0095556Y0836268D01*
X0095448Y0836240D01*
X0095339Y0836215D01*
X0095229Y0836195D01*
X0095118Y0836178D01*
X0095007Y0836165D01*
X0094896Y0836156D01*
X0094784Y0836151D01*
X0094672Y0836150D01*
X0094560Y0836153D01*
X0094449Y0836160D01*
X0094337Y0836171D01*
X0094227Y0836186D01*
X0094116Y0836205D01*
X0094007Y0836227D01*
X0093898Y0836254D01*
X0093791Y0836284D01*
X0093684Y0836318D01*
X0093579Y0836356D01*
X0093475Y0836398D01*
X0093373Y0836443D01*
X0093272Y0836492D01*
X0093174Y0836544D01*
X0093077Y0836600D01*
X0092982Y0836660D01*
X0092889Y0836722D01*
X0092799Y0836788D01*
X0092711Y0836857D01*
X0092626Y0836929D01*
X0092543Y0837005D01*
X0092463Y0837083D01*
X0092385Y0837163D01*
X0092311Y0837247D01*
X0092240Y0837333D01*
X0092171Y0837421D01*
X0092106Y0837512D01*
X0092045Y0837606D01*
X0091986Y0837701D01*
X0091931Y0837798D01*
X0091880Y0837897D01*
X0091832Y0837998D01*
X0091787Y0838101D01*
X0091746Y0838205D01*
X0091709Y0838311D01*
X0091676Y0838417D01*
X0091647Y0838525D01*
X0091621Y0838634D01*
X0091599Y0838744D01*
X0091582Y0838854D01*
X0091568Y0838965D01*
X0091558Y0839077D01*
X0091552Y0839188D01*
X0091550Y0839300D01*
X0089850Y0474200D02*
X0089852Y0474338D01*
X0089858Y0474475D01*
X0089868Y0474612D01*
X0089882Y0474749D01*
X0089900Y0474885D01*
X0089922Y0475021D01*
X0089947Y0475156D01*
X0089977Y0475290D01*
X0090010Y0475424D01*
X0090048Y0475556D01*
X0090089Y0475687D01*
X0090134Y0475817D01*
X0090183Y0475946D01*
X0090235Y0476073D01*
X0090291Y0476199D01*
X0090351Y0476323D01*
X0090414Y0476445D01*
X0090481Y0476565D01*
X0090551Y0476683D01*
X0090624Y0476800D01*
X0090701Y0476914D01*
X0090782Y0477025D01*
X0090865Y0477135D01*
X0090951Y0477242D01*
X0091041Y0477346D01*
X0091134Y0477448D01*
X0091229Y0477547D01*
X0091327Y0477643D01*
X0091428Y0477736D01*
X0091532Y0477826D01*
X0091638Y0477914D01*
X0091747Y0477998D01*
X0091858Y0478079D01*
X0091972Y0478157D01*
X0092087Y0478231D01*
X0092205Y0478302D01*
X0092325Y0478370D01*
X0092447Y0478434D01*
X0092570Y0478494D01*
X0092695Y0478551D01*
X0092822Y0478605D01*
X0092950Y0478654D01*
X0093080Y0478700D01*
X0093211Y0478742D01*
X0093343Y0478781D01*
X0093476Y0478815D01*
X0093610Y0478846D01*
X0093745Y0478872D01*
X0093881Y0478895D01*
X0094017Y0478914D01*
X0094154Y0478929D01*
X0094291Y0478940D01*
X0094428Y0478947D01*
X0094566Y0478950D01*
X0094703Y0478949D01*
X0094841Y0478944D01*
X0094978Y0478935D01*
X0095115Y0478922D01*
X0095251Y0478905D01*
X0095387Y0478884D01*
X0095522Y0478860D01*
X0095657Y0478831D01*
X0095791Y0478798D01*
X0095923Y0478762D01*
X0096055Y0478722D01*
X0096185Y0478678D01*
X0096314Y0478630D01*
X0096442Y0478578D01*
X0096568Y0478523D01*
X0096692Y0478465D01*
X0096814Y0478402D01*
X0096935Y0478336D01*
X0097054Y0478267D01*
X0097171Y0478194D01*
X0097285Y0478118D01*
X0097398Y0478039D01*
X0097508Y0477956D01*
X0097615Y0477870D01*
X0097720Y0477782D01*
X0097822Y0477690D01*
X0097922Y0477595D01*
X0098019Y0477497D01*
X0098113Y0477397D01*
X0098204Y0477294D01*
X0098292Y0477188D01*
X0098377Y0477080D01*
X0098459Y0476970D01*
X0098538Y0476857D01*
X0098613Y0476742D01*
X0098685Y0476624D01*
X0098753Y0476505D01*
X0098818Y0476384D01*
X0098880Y0476261D01*
X0098937Y0476136D01*
X0098992Y0476010D01*
X0099042Y0475882D01*
X0099089Y0475753D01*
X0099132Y0475622D01*
X0099171Y0475490D01*
X0099207Y0475357D01*
X0099238Y0475223D01*
X0099266Y0475089D01*
X0099290Y0474953D01*
X0099310Y0474817D01*
X0099326Y0474681D01*
X0099338Y0474544D01*
X0099346Y0474406D01*
X0099350Y0474269D01*
X0099350Y0474131D01*
X0099346Y0473994D01*
X0099338Y0473856D01*
X0099326Y0473719D01*
X0099310Y0473583D01*
X0099290Y0473447D01*
X0099266Y0473311D01*
X0099238Y0473177D01*
X0099207Y0473043D01*
X0099171Y0472910D01*
X0099132Y0472778D01*
X0099089Y0472647D01*
X0099042Y0472518D01*
X0098992Y0472390D01*
X0098937Y0472264D01*
X0098880Y0472139D01*
X0098818Y0472016D01*
X0098753Y0471895D01*
X0098685Y0471776D01*
X0098613Y0471658D01*
X0098538Y0471543D01*
X0098459Y0471430D01*
X0098377Y0471320D01*
X0098292Y0471212D01*
X0098204Y0471106D01*
X0098113Y0471003D01*
X0098019Y0470903D01*
X0097922Y0470805D01*
X0097822Y0470710D01*
X0097720Y0470618D01*
X0097615Y0470530D01*
X0097508Y0470444D01*
X0097398Y0470361D01*
X0097285Y0470282D01*
X0097171Y0470206D01*
X0097054Y0470133D01*
X0096935Y0470064D01*
X0096814Y0469998D01*
X0096692Y0469935D01*
X0096568Y0469877D01*
X0096442Y0469822D01*
X0096314Y0469770D01*
X0096185Y0469722D01*
X0096055Y0469678D01*
X0095923Y0469638D01*
X0095791Y0469602D01*
X0095657Y0469569D01*
X0095522Y0469540D01*
X0095387Y0469516D01*
X0095251Y0469495D01*
X0095115Y0469478D01*
X0094978Y0469465D01*
X0094841Y0469456D01*
X0094703Y0469451D01*
X0094566Y0469450D01*
X0094428Y0469453D01*
X0094291Y0469460D01*
X0094154Y0469471D01*
X0094017Y0469486D01*
X0093881Y0469505D01*
X0093745Y0469528D01*
X0093610Y0469554D01*
X0093476Y0469585D01*
X0093343Y0469619D01*
X0093211Y0469658D01*
X0093080Y0469700D01*
X0092950Y0469746D01*
X0092822Y0469795D01*
X0092695Y0469849D01*
X0092570Y0469906D01*
X0092447Y0469966D01*
X0092325Y0470030D01*
X0092205Y0470098D01*
X0092087Y0470169D01*
X0091972Y0470243D01*
X0091858Y0470321D01*
X0091747Y0470402D01*
X0091638Y0470486D01*
X0091532Y0470574D01*
X0091428Y0470664D01*
X0091327Y0470757D01*
X0091229Y0470853D01*
X0091134Y0470952D01*
X0091041Y0471054D01*
X0090951Y0471158D01*
X0090865Y0471265D01*
X0090782Y0471375D01*
X0090701Y0471486D01*
X0090624Y0471600D01*
X0090551Y0471717D01*
X0090481Y0471835D01*
X0090414Y0471955D01*
X0090351Y0472077D01*
X0090291Y0472201D01*
X0090235Y0472327D01*
X0090183Y0472454D01*
X0090134Y0472583D01*
X0090089Y0472713D01*
X0090048Y0472844D01*
X0090010Y0472976D01*
X0089977Y0473110D01*
X0089947Y0473244D01*
X0089922Y0473379D01*
X0089900Y0473515D01*
X0089882Y0473651D01*
X0089868Y0473788D01*
X0089858Y0473925D01*
X0089852Y0474062D01*
X0089850Y0474200D01*
X0096500Y0449300D02*
X0096502Y0449413D01*
X0096508Y0449526D01*
X0096518Y0449638D01*
X0096532Y0449750D01*
X0096550Y0449862D01*
X0096572Y0449973D01*
X0096597Y0450083D01*
X0096627Y0450192D01*
X0096660Y0450300D01*
X0096697Y0450406D01*
X0096738Y0450512D01*
X0096783Y0450615D01*
X0096831Y0450717D01*
X0096883Y0450818D01*
X0096938Y0450916D01*
X0096997Y0451013D01*
X0097059Y0451107D01*
X0097124Y0451199D01*
X0097193Y0451289D01*
X0097265Y0451376D01*
X0097340Y0451461D01*
X0097417Y0451543D01*
X0097498Y0451622D01*
X0097581Y0451698D01*
X0097667Y0451771D01*
X0097756Y0451842D01*
X0097847Y0451909D01*
X0097940Y0451972D01*
X0098035Y0452033D01*
X0098133Y0452090D01*
X0098232Y0452143D01*
X0098333Y0452194D01*
X0098436Y0452240D01*
X0098541Y0452283D01*
X0098647Y0452322D01*
X0098754Y0452357D01*
X0098863Y0452389D01*
X0098972Y0452416D01*
X0099083Y0452440D01*
X0099194Y0452460D01*
X0099306Y0452476D01*
X0099418Y0452488D01*
X0099531Y0452496D01*
X0099644Y0452500D01*
X0099756Y0452500D01*
X0099869Y0452496D01*
X0099982Y0452488D01*
X0100094Y0452476D01*
X0100206Y0452460D01*
X0100317Y0452440D01*
X0100428Y0452416D01*
X0100537Y0452389D01*
X0100646Y0452357D01*
X0100753Y0452322D01*
X0100859Y0452283D01*
X0100964Y0452240D01*
X0101067Y0452194D01*
X0101168Y0452143D01*
X0101267Y0452090D01*
X0101365Y0452033D01*
X0101460Y0451972D01*
X0101553Y0451909D01*
X0101644Y0451842D01*
X0101733Y0451771D01*
X0101819Y0451698D01*
X0101902Y0451622D01*
X0101983Y0451543D01*
X0102060Y0451461D01*
X0102135Y0451376D01*
X0102207Y0451289D01*
X0102276Y0451199D01*
X0102341Y0451107D01*
X0102403Y0451013D01*
X0102462Y0450916D01*
X0102517Y0450818D01*
X0102569Y0450717D01*
X0102617Y0450615D01*
X0102662Y0450512D01*
X0102703Y0450406D01*
X0102740Y0450300D01*
X0102773Y0450192D01*
X0102803Y0450083D01*
X0102828Y0449973D01*
X0102850Y0449862D01*
X0102868Y0449750D01*
X0102882Y0449638D01*
X0102892Y0449526D01*
X0102898Y0449413D01*
X0102900Y0449300D01*
X0102898Y0449187D01*
X0102892Y0449074D01*
X0102882Y0448962D01*
X0102868Y0448850D01*
X0102850Y0448738D01*
X0102828Y0448627D01*
X0102803Y0448517D01*
X0102773Y0448408D01*
X0102740Y0448300D01*
X0102703Y0448194D01*
X0102662Y0448088D01*
X0102617Y0447985D01*
X0102569Y0447883D01*
X0102517Y0447782D01*
X0102462Y0447684D01*
X0102403Y0447587D01*
X0102341Y0447493D01*
X0102276Y0447401D01*
X0102207Y0447311D01*
X0102135Y0447224D01*
X0102060Y0447139D01*
X0101983Y0447057D01*
X0101902Y0446978D01*
X0101819Y0446902D01*
X0101733Y0446829D01*
X0101644Y0446758D01*
X0101553Y0446691D01*
X0101460Y0446628D01*
X0101365Y0446567D01*
X0101267Y0446510D01*
X0101168Y0446457D01*
X0101067Y0446406D01*
X0100964Y0446360D01*
X0100859Y0446317D01*
X0100753Y0446278D01*
X0100646Y0446243D01*
X0100537Y0446211D01*
X0100428Y0446184D01*
X0100317Y0446160D01*
X0100206Y0446140D01*
X0100094Y0446124D01*
X0099982Y0446112D01*
X0099869Y0446104D01*
X0099756Y0446100D01*
X0099644Y0446100D01*
X0099531Y0446104D01*
X0099418Y0446112D01*
X0099306Y0446124D01*
X0099194Y0446140D01*
X0099083Y0446160D01*
X0098972Y0446184D01*
X0098863Y0446211D01*
X0098754Y0446243D01*
X0098647Y0446278D01*
X0098541Y0446317D01*
X0098436Y0446360D01*
X0098333Y0446406D01*
X0098232Y0446457D01*
X0098133Y0446510D01*
X0098035Y0446567D01*
X0097940Y0446628D01*
X0097847Y0446691D01*
X0097756Y0446758D01*
X0097667Y0446829D01*
X0097581Y0446902D01*
X0097498Y0446978D01*
X0097417Y0447057D01*
X0097340Y0447139D01*
X0097265Y0447224D01*
X0097193Y0447311D01*
X0097124Y0447401D01*
X0097059Y0447493D01*
X0096997Y0447587D01*
X0096938Y0447684D01*
X0096883Y0447782D01*
X0096831Y0447883D01*
X0096783Y0447985D01*
X0096738Y0448088D01*
X0096697Y0448194D01*
X0096660Y0448300D01*
X0096627Y0448408D01*
X0096597Y0448517D01*
X0096572Y0448627D01*
X0096550Y0448738D01*
X0096532Y0448850D01*
X0096518Y0448962D01*
X0096508Y0449074D01*
X0096502Y0449187D01*
X0096500Y0449300D01*
X0129850Y0474200D02*
X0129852Y0474338D01*
X0129858Y0474475D01*
X0129868Y0474612D01*
X0129882Y0474749D01*
X0129900Y0474885D01*
X0129922Y0475021D01*
X0129947Y0475156D01*
X0129977Y0475290D01*
X0130010Y0475424D01*
X0130048Y0475556D01*
X0130089Y0475687D01*
X0130134Y0475817D01*
X0130183Y0475946D01*
X0130235Y0476073D01*
X0130291Y0476199D01*
X0130351Y0476323D01*
X0130414Y0476445D01*
X0130481Y0476565D01*
X0130551Y0476683D01*
X0130624Y0476800D01*
X0130701Y0476914D01*
X0130782Y0477025D01*
X0130865Y0477135D01*
X0130951Y0477242D01*
X0131041Y0477346D01*
X0131134Y0477448D01*
X0131229Y0477547D01*
X0131327Y0477643D01*
X0131428Y0477736D01*
X0131532Y0477826D01*
X0131638Y0477914D01*
X0131747Y0477998D01*
X0131858Y0478079D01*
X0131972Y0478157D01*
X0132087Y0478231D01*
X0132205Y0478302D01*
X0132325Y0478370D01*
X0132447Y0478434D01*
X0132570Y0478494D01*
X0132695Y0478551D01*
X0132822Y0478605D01*
X0132950Y0478654D01*
X0133080Y0478700D01*
X0133211Y0478742D01*
X0133343Y0478781D01*
X0133476Y0478815D01*
X0133610Y0478846D01*
X0133745Y0478872D01*
X0133881Y0478895D01*
X0134017Y0478914D01*
X0134154Y0478929D01*
X0134291Y0478940D01*
X0134428Y0478947D01*
X0134566Y0478950D01*
X0134703Y0478949D01*
X0134841Y0478944D01*
X0134978Y0478935D01*
X0135115Y0478922D01*
X0135251Y0478905D01*
X0135387Y0478884D01*
X0135522Y0478860D01*
X0135657Y0478831D01*
X0135791Y0478798D01*
X0135923Y0478762D01*
X0136055Y0478722D01*
X0136185Y0478678D01*
X0136314Y0478630D01*
X0136442Y0478578D01*
X0136568Y0478523D01*
X0136692Y0478465D01*
X0136814Y0478402D01*
X0136935Y0478336D01*
X0137054Y0478267D01*
X0137171Y0478194D01*
X0137285Y0478118D01*
X0137398Y0478039D01*
X0137508Y0477956D01*
X0137615Y0477870D01*
X0137720Y0477782D01*
X0137822Y0477690D01*
X0137922Y0477595D01*
X0138019Y0477497D01*
X0138113Y0477397D01*
X0138204Y0477294D01*
X0138292Y0477188D01*
X0138377Y0477080D01*
X0138459Y0476970D01*
X0138538Y0476857D01*
X0138613Y0476742D01*
X0138685Y0476624D01*
X0138753Y0476505D01*
X0138818Y0476384D01*
X0138880Y0476261D01*
X0138937Y0476136D01*
X0138992Y0476010D01*
X0139042Y0475882D01*
X0139089Y0475753D01*
X0139132Y0475622D01*
X0139171Y0475490D01*
X0139207Y0475357D01*
X0139238Y0475223D01*
X0139266Y0475089D01*
X0139290Y0474953D01*
X0139310Y0474817D01*
X0139326Y0474681D01*
X0139338Y0474544D01*
X0139346Y0474406D01*
X0139350Y0474269D01*
X0139350Y0474131D01*
X0139346Y0473994D01*
X0139338Y0473856D01*
X0139326Y0473719D01*
X0139310Y0473583D01*
X0139290Y0473447D01*
X0139266Y0473311D01*
X0139238Y0473177D01*
X0139207Y0473043D01*
X0139171Y0472910D01*
X0139132Y0472778D01*
X0139089Y0472647D01*
X0139042Y0472518D01*
X0138992Y0472390D01*
X0138937Y0472264D01*
X0138880Y0472139D01*
X0138818Y0472016D01*
X0138753Y0471895D01*
X0138685Y0471776D01*
X0138613Y0471658D01*
X0138538Y0471543D01*
X0138459Y0471430D01*
X0138377Y0471320D01*
X0138292Y0471212D01*
X0138204Y0471106D01*
X0138113Y0471003D01*
X0138019Y0470903D01*
X0137922Y0470805D01*
X0137822Y0470710D01*
X0137720Y0470618D01*
X0137615Y0470530D01*
X0137508Y0470444D01*
X0137398Y0470361D01*
X0137285Y0470282D01*
X0137171Y0470206D01*
X0137054Y0470133D01*
X0136935Y0470064D01*
X0136814Y0469998D01*
X0136692Y0469935D01*
X0136568Y0469877D01*
X0136442Y0469822D01*
X0136314Y0469770D01*
X0136185Y0469722D01*
X0136055Y0469678D01*
X0135923Y0469638D01*
X0135791Y0469602D01*
X0135657Y0469569D01*
X0135522Y0469540D01*
X0135387Y0469516D01*
X0135251Y0469495D01*
X0135115Y0469478D01*
X0134978Y0469465D01*
X0134841Y0469456D01*
X0134703Y0469451D01*
X0134566Y0469450D01*
X0134428Y0469453D01*
X0134291Y0469460D01*
X0134154Y0469471D01*
X0134017Y0469486D01*
X0133881Y0469505D01*
X0133745Y0469528D01*
X0133610Y0469554D01*
X0133476Y0469585D01*
X0133343Y0469619D01*
X0133211Y0469658D01*
X0133080Y0469700D01*
X0132950Y0469746D01*
X0132822Y0469795D01*
X0132695Y0469849D01*
X0132570Y0469906D01*
X0132447Y0469966D01*
X0132325Y0470030D01*
X0132205Y0470098D01*
X0132087Y0470169D01*
X0131972Y0470243D01*
X0131858Y0470321D01*
X0131747Y0470402D01*
X0131638Y0470486D01*
X0131532Y0470574D01*
X0131428Y0470664D01*
X0131327Y0470757D01*
X0131229Y0470853D01*
X0131134Y0470952D01*
X0131041Y0471054D01*
X0130951Y0471158D01*
X0130865Y0471265D01*
X0130782Y0471375D01*
X0130701Y0471486D01*
X0130624Y0471600D01*
X0130551Y0471717D01*
X0130481Y0471835D01*
X0130414Y0471955D01*
X0130351Y0472077D01*
X0130291Y0472201D01*
X0130235Y0472327D01*
X0130183Y0472454D01*
X0130134Y0472583D01*
X0130089Y0472713D01*
X0130048Y0472844D01*
X0130010Y0472976D01*
X0129977Y0473110D01*
X0129947Y0473244D01*
X0129922Y0473379D01*
X0129900Y0473515D01*
X0129882Y0473651D01*
X0129868Y0473788D01*
X0129858Y0473925D01*
X0129852Y0474062D01*
X0129850Y0474200D01*
X0169850Y0474200D02*
X0169852Y0474338D01*
X0169858Y0474475D01*
X0169868Y0474612D01*
X0169882Y0474749D01*
X0169900Y0474885D01*
X0169922Y0475021D01*
X0169947Y0475156D01*
X0169977Y0475290D01*
X0170010Y0475424D01*
X0170048Y0475556D01*
X0170089Y0475687D01*
X0170134Y0475817D01*
X0170183Y0475946D01*
X0170235Y0476073D01*
X0170291Y0476199D01*
X0170351Y0476323D01*
X0170414Y0476445D01*
X0170481Y0476565D01*
X0170551Y0476683D01*
X0170624Y0476800D01*
X0170701Y0476914D01*
X0170782Y0477025D01*
X0170865Y0477135D01*
X0170951Y0477242D01*
X0171041Y0477346D01*
X0171134Y0477448D01*
X0171229Y0477547D01*
X0171327Y0477643D01*
X0171428Y0477736D01*
X0171532Y0477826D01*
X0171638Y0477914D01*
X0171747Y0477998D01*
X0171858Y0478079D01*
X0171972Y0478157D01*
X0172087Y0478231D01*
X0172205Y0478302D01*
X0172325Y0478370D01*
X0172447Y0478434D01*
X0172570Y0478494D01*
X0172695Y0478551D01*
X0172822Y0478605D01*
X0172950Y0478654D01*
X0173080Y0478700D01*
X0173211Y0478742D01*
X0173343Y0478781D01*
X0173476Y0478815D01*
X0173610Y0478846D01*
X0173745Y0478872D01*
X0173881Y0478895D01*
X0174017Y0478914D01*
X0174154Y0478929D01*
X0174291Y0478940D01*
X0174428Y0478947D01*
X0174566Y0478950D01*
X0174703Y0478949D01*
X0174841Y0478944D01*
X0174978Y0478935D01*
X0175115Y0478922D01*
X0175251Y0478905D01*
X0175387Y0478884D01*
X0175522Y0478860D01*
X0175657Y0478831D01*
X0175791Y0478798D01*
X0175923Y0478762D01*
X0176055Y0478722D01*
X0176185Y0478678D01*
X0176314Y0478630D01*
X0176442Y0478578D01*
X0176568Y0478523D01*
X0176692Y0478465D01*
X0176814Y0478402D01*
X0176935Y0478336D01*
X0177054Y0478267D01*
X0177171Y0478194D01*
X0177285Y0478118D01*
X0177398Y0478039D01*
X0177508Y0477956D01*
X0177615Y0477870D01*
X0177720Y0477782D01*
X0177822Y0477690D01*
X0177922Y0477595D01*
X0178019Y0477497D01*
X0178113Y0477397D01*
X0178204Y0477294D01*
X0178292Y0477188D01*
X0178377Y0477080D01*
X0178459Y0476970D01*
X0178538Y0476857D01*
X0178613Y0476742D01*
X0178685Y0476624D01*
X0178753Y0476505D01*
X0178818Y0476384D01*
X0178880Y0476261D01*
X0178937Y0476136D01*
X0178992Y0476010D01*
X0179042Y0475882D01*
X0179089Y0475753D01*
X0179132Y0475622D01*
X0179171Y0475490D01*
X0179207Y0475357D01*
X0179238Y0475223D01*
X0179266Y0475089D01*
X0179290Y0474953D01*
X0179310Y0474817D01*
X0179326Y0474681D01*
X0179338Y0474544D01*
X0179346Y0474406D01*
X0179350Y0474269D01*
X0179350Y0474131D01*
X0179346Y0473994D01*
X0179338Y0473856D01*
X0179326Y0473719D01*
X0179310Y0473583D01*
X0179290Y0473447D01*
X0179266Y0473311D01*
X0179238Y0473177D01*
X0179207Y0473043D01*
X0179171Y0472910D01*
X0179132Y0472778D01*
X0179089Y0472647D01*
X0179042Y0472518D01*
X0178992Y0472390D01*
X0178937Y0472264D01*
X0178880Y0472139D01*
X0178818Y0472016D01*
X0178753Y0471895D01*
X0178685Y0471776D01*
X0178613Y0471658D01*
X0178538Y0471543D01*
X0178459Y0471430D01*
X0178377Y0471320D01*
X0178292Y0471212D01*
X0178204Y0471106D01*
X0178113Y0471003D01*
X0178019Y0470903D01*
X0177922Y0470805D01*
X0177822Y0470710D01*
X0177720Y0470618D01*
X0177615Y0470530D01*
X0177508Y0470444D01*
X0177398Y0470361D01*
X0177285Y0470282D01*
X0177171Y0470206D01*
X0177054Y0470133D01*
X0176935Y0470064D01*
X0176814Y0469998D01*
X0176692Y0469935D01*
X0176568Y0469877D01*
X0176442Y0469822D01*
X0176314Y0469770D01*
X0176185Y0469722D01*
X0176055Y0469678D01*
X0175923Y0469638D01*
X0175791Y0469602D01*
X0175657Y0469569D01*
X0175522Y0469540D01*
X0175387Y0469516D01*
X0175251Y0469495D01*
X0175115Y0469478D01*
X0174978Y0469465D01*
X0174841Y0469456D01*
X0174703Y0469451D01*
X0174566Y0469450D01*
X0174428Y0469453D01*
X0174291Y0469460D01*
X0174154Y0469471D01*
X0174017Y0469486D01*
X0173881Y0469505D01*
X0173745Y0469528D01*
X0173610Y0469554D01*
X0173476Y0469585D01*
X0173343Y0469619D01*
X0173211Y0469658D01*
X0173080Y0469700D01*
X0172950Y0469746D01*
X0172822Y0469795D01*
X0172695Y0469849D01*
X0172570Y0469906D01*
X0172447Y0469966D01*
X0172325Y0470030D01*
X0172205Y0470098D01*
X0172087Y0470169D01*
X0171972Y0470243D01*
X0171858Y0470321D01*
X0171747Y0470402D01*
X0171638Y0470486D01*
X0171532Y0470574D01*
X0171428Y0470664D01*
X0171327Y0470757D01*
X0171229Y0470853D01*
X0171134Y0470952D01*
X0171041Y0471054D01*
X0170951Y0471158D01*
X0170865Y0471265D01*
X0170782Y0471375D01*
X0170701Y0471486D01*
X0170624Y0471600D01*
X0170551Y0471717D01*
X0170481Y0471835D01*
X0170414Y0471955D01*
X0170351Y0472077D01*
X0170291Y0472201D01*
X0170235Y0472327D01*
X0170183Y0472454D01*
X0170134Y0472583D01*
X0170089Y0472713D01*
X0170048Y0472844D01*
X0170010Y0472976D01*
X0169977Y0473110D01*
X0169947Y0473244D01*
X0169922Y0473379D01*
X0169900Y0473515D01*
X0169882Y0473651D01*
X0169868Y0473788D01*
X0169858Y0473925D01*
X0169852Y0474062D01*
X0169850Y0474200D01*
X0209850Y0474200D02*
X0209852Y0474338D01*
X0209858Y0474475D01*
X0209868Y0474612D01*
X0209882Y0474749D01*
X0209900Y0474885D01*
X0209922Y0475021D01*
X0209947Y0475156D01*
X0209977Y0475290D01*
X0210010Y0475424D01*
X0210048Y0475556D01*
X0210089Y0475687D01*
X0210134Y0475817D01*
X0210183Y0475946D01*
X0210235Y0476073D01*
X0210291Y0476199D01*
X0210351Y0476323D01*
X0210414Y0476445D01*
X0210481Y0476565D01*
X0210551Y0476683D01*
X0210624Y0476800D01*
X0210701Y0476914D01*
X0210782Y0477025D01*
X0210865Y0477135D01*
X0210951Y0477242D01*
X0211041Y0477346D01*
X0211134Y0477448D01*
X0211229Y0477547D01*
X0211327Y0477643D01*
X0211428Y0477736D01*
X0211532Y0477826D01*
X0211638Y0477914D01*
X0211747Y0477998D01*
X0211858Y0478079D01*
X0211972Y0478157D01*
X0212087Y0478231D01*
X0212205Y0478302D01*
X0212325Y0478370D01*
X0212447Y0478434D01*
X0212570Y0478494D01*
X0212695Y0478551D01*
X0212822Y0478605D01*
X0212950Y0478654D01*
X0213080Y0478700D01*
X0213211Y0478742D01*
X0213343Y0478781D01*
X0213476Y0478815D01*
X0213610Y0478846D01*
X0213745Y0478872D01*
X0213881Y0478895D01*
X0214017Y0478914D01*
X0214154Y0478929D01*
X0214291Y0478940D01*
X0214428Y0478947D01*
X0214566Y0478950D01*
X0214703Y0478949D01*
X0214841Y0478944D01*
X0214978Y0478935D01*
X0215115Y0478922D01*
X0215251Y0478905D01*
X0215387Y0478884D01*
X0215522Y0478860D01*
X0215657Y0478831D01*
X0215791Y0478798D01*
X0215923Y0478762D01*
X0216055Y0478722D01*
X0216185Y0478678D01*
X0216314Y0478630D01*
X0216442Y0478578D01*
X0216568Y0478523D01*
X0216692Y0478465D01*
X0216814Y0478402D01*
X0216935Y0478336D01*
X0217054Y0478267D01*
X0217171Y0478194D01*
X0217285Y0478118D01*
X0217398Y0478039D01*
X0217508Y0477956D01*
X0217615Y0477870D01*
X0217720Y0477782D01*
X0217822Y0477690D01*
X0217922Y0477595D01*
X0218019Y0477497D01*
X0218113Y0477397D01*
X0218204Y0477294D01*
X0218292Y0477188D01*
X0218377Y0477080D01*
X0218459Y0476970D01*
X0218538Y0476857D01*
X0218613Y0476742D01*
X0218685Y0476624D01*
X0218753Y0476505D01*
X0218818Y0476384D01*
X0218880Y0476261D01*
X0218937Y0476136D01*
X0218992Y0476010D01*
X0219042Y0475882D01*
X0219089Y0475753D01*
X0219132Y0475622D01*
X0219171Y0475490D01*
X0219207Y0475357D01*
X0219238Y0475223D01*
X0219266Y0475089D01*
X0219290Y0474953D01*
X0219310Y0474817D01*
X0219326Y0474681D01*
X0219338Y0474544D01*
X0219346Y0474406D01*
X0219350Y0474269D01*
X0219350Y0474131D01*
X0219346Y0473994D01*
X0219338Y0473856D01*
X0219326Y0473719D01*
X0219310Y0473583D01*
X0219290Y0473447D01*
X0219266Y0473311D01*
X0219238Y0473177D01*
X0219207Y0473043D01*
X0219171Y0472910D01*
X0219132Y0472778D01*
X0219089Y0472647D01*
X0219042Y0472518D01*
X0218992Y0472390D01*
X0218937Y0472264D01*
X0218880Y0472139D01*
X0218818Y0472016D01*
X0218753Y0471895D01*
X0218685Y0471776D01*
X0218613Y0471658D01*
X0218538Y0471543D01*
X0218459Y0471430D01*
X0218377Y0471320D01*
X0218292Y0471212D01*
X0218204Y0471106D01*
X0218113Y0471003D01*
X0218019Y0470903D01*
X0217922Y0470805D01*
X0217822Y0470710D01*
X0217720Y0470618D01*
X0217615Y0470530D01*
X0217508Y0470444D01*
X0217398Y0470361D01*
X0217285Y0470282D01*
X0217171Y0470206D01*
X0217054Y0470133D01*
X0216935Y0470064D01*
X0216814Y0469998D01*
X0216692Y0469935D01*
X0216568Y0469877D01*
X0216442Y0469822D01*
X0216314Y0469770D01*
X0216185Y0469722D01*
X0216055Y0469678D01*
X0215923Y0469638D01*
X0215791Y0469602D01*
X0215657Y0469569D01*
X0215522Y0469540D01*
X0215387Y0469516D01*
X0215251Y0469495D01*
X0215115Y0469478D01*
X0214978Y0469465D01*
X0214841Y0469456D01*
X0214703Y0469451D01*
X0214566Y0469450D01*
X0214428Y0469453D01*
X0214291Y0469460D01*
X0214154Y0469471D01*
X0214017Y0469486D01*
X0213881Y0469505D01*
X0213745Y0469528D01*
X0213610Y0469554D01*
X0213476Y0469585D01*
X0213343Y0469619D01*
X0213211Y0469658D01*
X0213080Y0469700D01*
X0212950Y0469746D01*
X0212822Y0469795D01*
X0212695Y0469849D01*
X0212570Y0469906D01*
X0212447Y0469966D01*
X0212325Y0470030D01*
X0212205Y0470098D01*
X0212087Y0470169D01*
X0211972Y0470243D01*
X0211858Y0470321D01*
X0211747Y0470402D01*
X0211638Y0470486D01*
X0211532Y0470574D01*
X0211428Y0470664D01*
X0211327Y0470757D01*
X0211229Y0470853D01*
X0211134Y0470952D01*
X0211041Y0471054D01*
X0210951Y0471158D01*
X0210865Y0471265D01*
X0210782Y0471375D01*
X0210701Y0471486D01*
X0210624Y0471600D01*
X0210551Y0471717D01*
X0210481Y0471835D01*
X0210414Y0471955D01*
X0210351Y0472077D01*
X0210291Y0472201D01*
X0210235Y0472327D01*
X0210183Y0472454D01*
X0210134Y0472583D01*
X0210089Y0472713D01*
X0210048Y0472844D01*
X0210010Y0472976D01*
X0209977Y0473110D01*
X0209947Y0473244D01*
X0209922Y0473379D01*
X0209900Y0473515D01*
X0209882Y0473651D01*
X0209868Y0473788D01*
X0209858Y0473925D01*
X0209852Y0474062D01*
X0209850Y0474200D01*
X0249850Y0474200D02*
X0249852Y0474338D01*
X0249858Y0474475D01*
X0249868Y0474612D01*
X0249882Y0474749D01*
X0249900Y0474885D01*
X0249922Y0475021D01*
X0249947Y0475156D01*
X0249977Y0475290D01*
X0250010Y0475424D01*
X0250048Y0475556D01*
X0250089Y0475687D01*
X0250134Y0475817D01*
X0250183Y0475946D01*
X0250235Y0476073D01*
X0250291Y0476199D01*
X0250351Y0476323D01*
X0250414Y0476445D01*
X0250481Y0476565D01*
X0250551Y0476683D01*
X0250624Y0476800D01*
X0250701Y0476914D01*
X0250782Y0477025D01*
X0250865Y0477135D01*
X0250951Y0477242D01*
X0251041Y0477346D01*
X0251134Y0477448D01*
X0251229Y0477547D01*
X0251327Y0477643D01*
X0251428Y0477736D01*
X0251532Y0477826D01*
X0251638Y0477914D01*
X0251747Y0477998D01*
X0251858Y0478079D01*
X0251972Y0478157D01*
X0252087Y0478231D01*
X0252205Y0478302D01*
X0252325Y0478370D01*
X0252447Y0478434D01*
X0252570Y0478494D01*
X0252695Y0478551D01*
X0252822Y0478605D01*
X0252950Y0478654D01*
X0253080Y0478700D01*
X0253211Y0478742D01*
X0253343Y0478781D01*
X0253476Y0478815D01*
X0253610Y0478846D01*
X0253745Y0478872D01*
X0253881Y0478895D01*
X0254017Y0478914D01*
X0254154Y0478929D01*
X0254291Y0478940D01*
X0254428Y0478947D01*
X0254566Y0478950D01*
X0254703Y0478949D01*
X0254841Y0478944D01*
X0254978Y0478935D01*
X0255115Y0478922D01*
X0255251Y0478905D01*
X0255387Y0478884D01*
X0255522Y0478860D01*
X0255657Y0478831D01*
X0255791Y0478798D01*
X0255923Y0478762D01*
X0256055Y0478722D01*
X0256185Y0478678D01*
X0256314Y0478630D01*
X0256442Y0478578D01*
X0256568Y0478523D01*
X0256692Y0478465D01*
X0256814Y0478402D01*
X0256935Y0478336D01*
X0257054Y0478267D01*
X0257171Y0478194D01*
X0257285Y0478118D01*
X0257398Y0478039D01*
X0257508Y0477956D01*
X0257615Y0477870D01*
X0257720Y0477782D01*
X0257822Y0477690D01*
X0257922Y0477595D01*
X0258019Y0477497D01*
X0258113Y0477397D01*
X0258204Y0477294D01*
X0258292Y0477188D01*
X0258377Y0477080D01*
X0258459Y0476970D01*
X0258538Y0476857D01*
X0258613Y0476742D01*
X0258685Y0476624D01*
X0258753Y0476505D01*
X0258818Y0476384D01*
X0258880Y0476261D01*
X0258937Y0476136D01*
X0258992Y0476010D01*
X0259042Y0475882D01*
X0259089Y0475753D01*
X0259132Y0475622D01*
X0259171Y0475490D01*
X0259207Y0475357D01*
X0259238Y0475223D01*
X0259266Y0475089D01*
X0259290Y0474953D01*
X0259310Y0474817D01*
X0259326Y0474681D01*
X0259338Y0474544D01*
X0259346Y0474406D01*
X0259350Y0474269D01*
X0259350Y0474131D01*
X0259346Y0473994D01*
X0259338Y0473856D01*
X0259326Y0473719D01*
X0259310Y0473583D01*
X0259290Y0473447D01*
X0259266Y0473311D01*
X0259238Y0473177D01*
X0259207Y0473043D01*
X0259171Y0472910D01*
X0259132Y0472778D01*
X0259089Y0472647D01*
X0259042Y0472518D01*
X0258992Y0472390D01*
X0258937Y0472264D01*
X0258880Y0472139D01*
X0258818Y0472016D01*
X0258753Y0471895D01*
X0258685Y0471776D01*
X0258613Y0471658D01*
X0258538Y0471543D01*
X0258459Y0471430D01*
X0258377Y0471320D01*
X0258292Y0471212D01*
X0258204Y0471106D01*
X0258113Y0471003D01*
X0258019Y0470903D01*
X0257922Y0470805D01*
X0257822Y0470710D01*
X0257720Y0470618D01*
X0257615Y0470530D01*
X0257508Y0470444D01*
X0257398Y0470361D01*
X0257285Y0470282D01*
X0257171Y0470206D01*
X0257054Y0470133D01*
X0256935Y0470064D01*
X0256814Y0469998D01*
X0256692Y0469935D01*
X0256568Y0469877D01*
X0256442Y0469822D01*
X0256314Y0469770D01*
X0256185Y0469722D01*
X0256055Y0469678D01*
X0255923Y0469638D01*
X0255791Y0469602D01*
X0255657Y0469569D01*
X0255522Y0469540D01*
X0255387Y0469516D01*
X0255251Y0469495D01*
X0255115Y0469478D01*
X0254978Y0469465D01*
X0254841Y0469456D01*
X0254703Y0469451D01*
X0254566Y0469450D01*
X0254428Y0469453D01*
X0254291Y0469460D01*
X0254154Y0469471D01*
X0254017Y0469486D01*
X0253881Y0469505D01*
X0253745Y0469528D01*
X0253610Y0469554D01*
X0253476Y0469585D01*
X0253343Y0469619D01*
X0253211Y0469658D01*
X0253080Y0469700D01*
X0252950Y0469746D01*
X0252822Y0469795D01*
X0252695Y0469849D01*
X0252570Y0469906D01*
X0252447Y0469966D01*
X0252325Y0470030D01*
X0252205Y0470098D01*
X0252087Y0470169D01*
X0251972Y0470243D01*
X0251858Y0470321D01*
X0251747Y0470402D01*
X0251638Y0470486D01*
X0251532Y0470574D01*
X0251428Y0470664D01*
X0251327Y0470757D01*
X0251229Y0470853D01*
X0251134Y0470952D01*
X0251041Y0471054D01*
X0250951Y0471158D01*
X0250865Y0471265D01*
X0250782Y0471375D01*
X0250701Y0471486D01*
X0250624Y0471600D01*
X0250551Y0471717D01*
X0250481Y0471835D01*
X0250414Y0471955D01*
X0250351Y0472077D01*
X0250291Y0472201D01*
X0250235Y0472327D01*
X0250183Y0472454D01*
X0250134Y0472583D01*
X0250089Y0472713D01*
X0250048Y0472844D01*
X0250010Y0472976D01*
X0249977Y0473110D01*
X0249947Y0473244D01*
X0249922Y0473379D01*
X0249900Y0473515D01*
X0249882Y0473651D01*
X0249868Y0473788D01*
X0249858Y0473925D01*
X0249852Y0474062D01*
X0249850Y0474200D01*
X0289850Y0474200D02*
X0289852Y0474338D01*
X0289858Y0474475D01*
X0289868Y0474612D01*
X0289882Y0474749D01*
X0289900Y0474885D01*
X0289922Y0475021D01*
X0289947Y0475156D01*
X0289977Y0475290D01*
X0290010Y0475424D01*
X0290048Y0475556D01*
X0290089Y0475687D01*
X0290134Y0475817D01*
X0290183Y0475946D01*
X0290235Y0476073D01*
X0290291Y0476199D01*
X0290351Y0476323D01*
X0290414Y0476445D01*
X0290481Y0476565D01*
X0290551Y0476683D01*
X0290624Y0476800D01*
X0290701Y0476914D01*
X0290782Y0477025D01*
X0290865Y0477135D01*
X0290951Y0477242D01*
X0291041Y0477346D01*
X0291134Y0477448D01*
X0291229Y0477547D01*
X0291327Y0477643D01*
X0291428Y0477736D01*
X0291532Y0477826D01*
X0291638Y0477914D01*
X0291747Y0477998D01*
X0291858Y0478079D01*
X0291972Y0478157D01*
X0292087Y0478231D01*
X0292205Y0478302D01*
X0292325Y0478370D01*
X0292447Y0478434D01*
X0292570Y0478494D01*
X0292695Y0478551D01*
X0292822Y0478605D01*
X0292950Y0478654D01*
X0293080Y0478700D01*
X0293211Y0478742D01*
X0293343Y0478781D01*
X0293476Y0478815D01*
X0293610Y0478846D01*
X0293745Y0478872D01*
X0293881Y0478895D01*
X0294017Y0478914D01*
X0294154Y0478929D01*
X0294291Y0478940D01*
X0294428Y0478947D01*
X0294566Y0478950D01*
X0294703Y0478949D01*
X0294841Y0478944D01*
X0294978Y0478935D01*
X0295115Y0478922D01*
X0295251Y0478905D01*
X0295387Y0478884D01*
X0295522Y0478860D01*
X0295657Y0478831D01*
X0295791Y0478798D01*
X0295923Y0478762D01*
X0296055Y0478722D01*
X0296185Y0478678D01*
X0296314Y0478630D01*
X0296442Y0478578D01*
X0296568Y0478523D01*
X0296692Y0478465D01*
X0296814Y0478402D01*
X0296935Y0478336D01*
X0297054Y0478267D01*
X0297171Y0478194D01*
X0297285Y0478118D01*
X0297398Y0478039D01*
X0297508Y0477956D01*
X0297615Y0477870D01*
X0297720Y0477782D01*
X0297822Y0477690D01*
X0297922Y0477595D01*
X0298019Y0477497D01*
X0298113Y0477397D01*
X0298204Y0477294D01*
X0298292Y0477188D01*
X0298377Y0477080D01*
X0298459Y0476970D01*
X0298538Y0476857D01*
X0298613Y0476742D01*
X0298685Y0476624D01*
X0298753Y0476505D01*
X0298818Y0476384D01*
X0298880Y0476261D01*
X0298937Y0476136D01*
X0298992Y0476010D01*
X0299042Y0475882D01*
X0299089Y0475753D01*
X0299132Y0475622D01*
X0299171Y0475490D01*
X0299207Y0475357D01*
X0299238Y0475223D01*
X0299266Y0475089D01*
X0299290Y0474953D01*
X0299310Y0474817D01*
X0299326Y0474681D01*
X0299338Y0474544D01*
X0299346Y0474406D01*
X0299350Y0474269D01*
X0299350Y0474131D01*
X0299346Y0473994D01*
X0299338Y0473856D01*
X0299326Y0473719D01*
X0299310Y0473583D01*
X0299290Y0473447D01*
X0299266Y0473311D01*
X0299238Y0473177D01*
X0299207Y0473043D01*
X0299171Y0472910D01*
X0299132Y0472778D01*
X0299089Y0472647D01*
X0299042Y0472518D01*
X0298992Y0472390D01*
X0298937Y0472264D01*
X0298880Y0472139D01*
X0298818Y0472016D01*
X0298753Y0471895D01*
X0298685Y0471776D01*
X0298613Y0471658D01*
X0298538Y0471543D01*
X0298459Y0471430D01*
X0298377Y0471320D01*
X0298292Y0471212D01*
X0298204Y0471106D01*
X0298113Y0471003D01*
X0298019Y0470903D01*
X0297922Y0470805D01*
X0297822Y0470710D01*
X0297720Y0470618D01*
X0297615Y0470530D01*
X0297508Y0470444D01*
X0297398Y0470361D01*
X0297285Y0470282D01*
X0297171Y0470206D01*
X0297054Y0470133D01*
X0296935Y0470064D01*
X0296814Y0469998D01*
X0296692Y0469935D01*
X0296568Y0469877D01*
X0296442Y0469822D01*
X0296314Y0469770D01*
X0296185Y0469722D01*
X0296055Y0469678D01*
X0295923Y0469638D01*
X0295791Y0469602D01*
X0295657Y0469569D01*
X0295522Y0469540D01*
X0295387Y0469516D01*
X0295251Y0469495D01*
X0295115Y0469478D01*
X0294978Y0469465D01*
X0294841Y0469456D01*
X0294703Y0469451D01*
X0294566Y0469450D01*
X0294428Y0469453D01*
X0294291Y0469460D01*
X0294154Y0469471D01*
X0294017Y0469486D01*
X0293881Y0469505D01*
X0293745Y0469528D01*
X0293610Y0469554D01*
X0293476Y0469585D01*
X0293343Y0469619D01*
X0293211Y0469658D01*
X0293080Y0469700D01*
X0292950Y0469746D01*
X0292822Y0469795D01*
X0292695Y0469849D01*
X0292570Y0469906D01*
X0292447Y0469966D01*
X0292325Y0470030D01*
X0292205Y0470098D01*
X0292087Y0470169D01*
X0291972Y0470243D01*
X0291858Y0470321D01*
X0291747Y0470402D01*
X0291638Y0470486D01*
X0291532Y0470574D01*
X0291428Y0470664D01*
X0291327Y0470757D01*
X0291229Y0470853D01*
X0291134Y0470952D01*
X0291041Y0471054D01*
X0290951Y0471158D01*
X0290865Y0471265D01*
X0290782Y0471375D01*
X0290701Y0471486D01*
X0290624Y0471600D01*
X0290551Y0471717D01*
X0290481Y0471835D01*
X0290414Y0471955D01*
X0290351Y0472077D01*
X0290291Y0472201D01*
X0290235Y0472327D01*
X0290183Y0472454D01*
X0290134Y0472583D01*
X0290089Y0472713D01*
X0290048Y0472844D01*
X0290010Y0472976D01*
X0289977Y0473110D01*
X0289947Y0473244D01*
X0289922Y0473379D01*
X0289900Y0473515D01*
X0289882Y0473651D01*
X0289868Y0473788D01*
X0289858Y0473925D01*
X0289852Y0474062D01*
X0289850Y0474200D01*
X0329850Y0474200D02*
X0329852Y0474338D01*
X0329858Y0474475D01*
X0329868Y0474612D01*
X0329882Y0474749D01*
X0329900Y0474885D01*
X0329922Y0475021D01*
X0329947Y0475156D01*
X0329977Y0475290D01*
X0330010Y0475424D01*
X0330048Y0475556D01*
X0330089Y0475687D01*
X0330134Y0475817D01*
X0330183Y0475946D01*
X0330235Y0476073D01*
X0330291Y0476199D01*
X0330351Y0476323D01*
X0330414Y0476445D01*
X0330481Y0476565D01*
X0330551Y0476683D01*
X0330624Y0476800D01*
X0330701Y0476914D01*
X0330782Y0477025D01*
X0330865Y0477135D01*
X0330951Y0477242D01*
X0331041Y0477346D01*
X0331134Y0477448D01*
X0331229Y0477547D01*
X0331327Y0477643D01*
X0331428Y0477736D01*
X0331532Y0477826D01*
X0331638Y0477914D01*
X0331747Y0477998D01*
X0331858Y0478079D01*
X0331972Y0478157D01*
X0332087Y0478231D01*
X0332205Y0478302D01*
X0332325Y0478370D01*
X0332447Y0478434D01*
X0332570Y0478494D01*
X0332695Y0478551D01*
X0332822Y0478605D01*
X0332950Y0478654D01*
X0333080Y0478700D01*
X0333211Y0478742D01*
X0333343Y0478781D01*
X0333476Y0478815D01*
X0333610Y0478846D01*
X0333745Y0478872D01*
X0333881Y0478895D01*
X0334017Y0478914D01*
X0334154Y0478929D01*
X0334291Y0478940D01*
X0334428Y0478947D01*
X0334566Y0478950D01*
X0334703Y0478949D01*
X0334841Y0478944D01*
X0334978Y0478935D01*
X0335115Y0478922D01*
X0335251Y0478905D01*
X0335387Y0478884D01*
X0335522Y0478860D01*
X0335657Y0478831D01*
X0335791Y0478798D01*
X0335923Y0478762D01*
X0336055Y0478722D01*
X0336185Y0478678D01*
X0336314Y0478630D01*
X0336442Y0478578D01*
X0336568Y0478523D01*
X0336692Y0478465D01*
X0336814Y0478402D01*
X0336935Y0478336D01*
X0337054Y0478267D01*
X0337171Y0478194D01*
X0337285Y0478118D01*
X0337398Y0478039D01*
X0337508Y0477956D01*
X0337615Y0477870D01*
X0337720Y0477782D01*
X0337822Y0477690D01*
X0337922Y0477595D01*
X0338019Y0477497D01*
X0338113Y0477397D01*
X0338204Y0477294D01*
X0338292Y0477188D01*
X0338377Y0477080D01*
X0338459Y0476970D01*
X0338538Y0476857D01*
X0338613Y0476742D01*
X0338685Y0476624D01*
X0338753Y0476505D01*
X0338818Y0476384D01*
X0338880Y0476261D01*
X0338937Y0476136D01*
X0338992Y0476010D01*
X0339042Y0475882D01*
X0339089Y0475753D01*
X0339132Y0475622D01*
X0339171Y0475490D01*
X0339207Y0475357D01*
X0339238Y0475223D01*
X0339266Y0475089D01*
X0339290Y0474953D01*
X0339310Y0474817D01*
X0339326Y0474681D01*
X0339338Y0474544D01*
X0339346Y0474406D01*
X0339350Y0474269D01*
X0339350Y0474131D01*
X0339346Y0473994D01*
X0339338Y0473856D01*
X0339326Y0473719D01*
X0339310Y0473583D01*
X0339290Y0473447D01*
X0339266Y0473311D01*
X0339238Y0473177D01*
X0339207Y0473043D01*
X0339171Y0472910D01*
X0339132Y0472778D01*
X0339089Y0472647D01*
X0339042Y0472518D01*
X0338992Y0472390D01*
X0338937Y0472264D01*
X0338880Y0472139D01*
X0338818Y0472016D01*
X0338753Y0471895D01*
X0338685Y0471776D01*
X0338613Y0471658D01*
X0338538Y0471543D01*
X0338459Y0471430D01*
X0338377Y0471320D01*
X0338292Y0471212D01*
X0338204Y0471106D01*
X0338113Y0471003D01*
X0338019Y0470903D01*
X0337922Y0470805D01*
X0337822Y0470710D01*
X0337720Y0470618D01*
X0337615Y0470530D01*
X0337508Y0470444D01*
X0337398Y0470361D01*
X0337285Y0470282D01*
X0337171Y0470206D01*
X0337054Y0470133D01*
X0336935Y0470064D01*
X0336814Y0469998D01*
X0336692Y0469935D01*
X0336568Y0469877D01*
X0336442Y0469822D01*
X0336314Y0469770D01*
X0336185Y0469722D01*
X0336055Y0469678D01*
X0335923Y0469638D01*
X0335791Y0469602D01*
X0335657Y0469569D01*
X0335522Y0469540D01*
X0335387Y0469516D01*
X0335251Y0469495D01*
X0335115Y0469478D01*
X0334978Y0469465D01*
X0334841Y0469456D01*
X0334703Y0469451D01*
X0334566Y0469450D01*
X0334428Y0469453D01*
X0334291Y0469460D01*
X0334154Y0469471D01*
X0334017Y0469486D01*
X0333881Y0469505D01*
X0333745Y0469528D01*
X0333610Y0469554D01*
X0333476Y0469585D01*
X0333343Y0469619D01*
X0333211Y0469658D01*
X0333080Y0469700D01*
X0332950Y0469746D01*
X0332822Y0469795D01*
X0332695Y0469849D01*
X0332570Y0469906D01*
X0332447Y0469966D01*
X0332325Y0470030D01*
X0332205Y0470098D01*
X0332087Y0470169D01*
X0331972Y0470243D01*
X0331858Y0470321D01*
X0331747Y0470402D01*
X0331638Y0470486D01*
X0331532Y0470574D01*
X0331428Y0470664D01*
X0331327Y0470757D01*
X0331229Y0470853D01*
X0331134Y0470952D01*
X0331041Y0471054D01*
X0330951Y0471158D01*
X0330865Y0471265D01*
X0330782Y0471375D01*
X0330701Y0471486D01*
X0330624Y0471600D01*
X0330551Y0471717D01*
X0330481Y0471835D01*
X0330414Y0471955D01*
X0330351Y0472077D01*
X0330291Y0472201D01*
X0330235Y0472327D01*
X0330183Y0472454D01*
X0330134Y0472583D01*
X0330089Y0472713D01*
X0330048Y0472844D01*
X0330010Y0472976D01*
X0329977Y0473110D01*
X0329947Y0473244D01*
X0329922Y0473379D01*
X0329900Y0473515D01*
X0329882Y0473651D01*
X0329868Y0473788D01*
X0329858Y0473925D01*
X0329852Y0474062D01*
X0329850Y0474200D01*
X0369850Y0474200D02*
X0369852Y0474338D01*
X0369858Y0474475D01*
X0369868Y0474612D01*
X0369882Y0474749D01*
X0369900Y0474885D01*
X0369922Y0475021D01*
X0369947Y0475156D01*
X0369977Y0475290D01*
X0370010Y0475424D01*
X0370048Y0475556D01*
X0370089Y0475687D01*
X0370134Y0475817D01*
X0370183Y0475946D01*
X0370235Y0476073D01*
X0370291Y0476199D01*
X0370351Y0476323D01*
X0370414Y0476445D01*
X0370481Y0476565D01*
X0370551Y0476683D01*
X0370624Y0476800D01*
X0370701Y0476914D01*
X0370782Y0477025D01*
X0370865Y0477135D01*
X0370951Y0477242D01*
X0371041Y0477346D01*
X0371134Y0477448D01*
X0371229Y0477547D01*
X0371327Y0477643D01*
X0371428Y0477736D01*
X0371532Y0477826D01*
X0371638Y0477914D01*
X0371747Y0477998D01*
X0371858Y0478079D01*
X0371972Y0478157D01*
X0372087Y0478231D01*
X0372205Y0478302D01*
X0372325Y0478370D01*
X0372447Y0478434D01*
X0372570Y0478494D01*
X0372695Y0478551D01*
X0372822Y0478605D01*
X0372950Y0478654D01*
X0373080Y0478700D01*
X0373211Y0478742D01*
X0373343Y0478781D01*
X0373476Y0478815D01*
X0373610Y0478846D01*
X0373745Y0478872D01*
X0373881Y0478895D01*
X0374017Y0478914D01*
X0374154Y0478929D01*
X0374291Y0478940D01*
X0374428Y0478947D01*
X0374566Y0478950D01*
X0374703Y0478949D01*
X0374841Y0478944D01*
X0374978Y0478935D01*
X0375115Y0478922D01*
X0375251Y0478905D01*
X0375387Y0478884D01*
X0375522Y0478860D01*
X0375657Y0478831D01*
X0375791Y0478798D01*
X0375923Y0478762D01*
X0376055Y0478722D01*
X0376185Y0478678D01*
X0376314Y0478630D01*
X0376442Y0478578D01*
X0376568Y0478523D01*
X0376692Y0478465D01*
X0376814Y0478402D01*
X0376935Y0478336D01*
X0377054Y0478267D01*
X0377171Y0478194D01*
X0377285Y0478118D01*
X0377398Y0478039D01*
X0377508Y0477956D01*
X0377615Y0477870D01*
X0377720Y0477782D01*
X0377822Y0477690D01*
X0377922Y0477595D01*
X0378019Y0477497D01*
X0378113Y0477397D01*
X0378204Y0477294D01*
X0378292Y0477188D01*
X0378377Y0477080D01*
X0378459Y0476970D01*
X0378538Y0476857D01*
X0378613Y0476742D01*
X0378685Y0476624D01*
X0378753Y0476505D01*
X0378818Y0476384D01*
X0378880Y0476261D01*
X0378937Y0476136D01*
X0378992Y0476010D01*
X0379042Y0475882D01*
X0379089Y0475753D01*
X0379132Y0475622D01*
X0379171Y0475490D01*
X0379207Y0475357D01*
X0379238Y0475223D01*
X0379266Y0475089D01*
X0379290Y0474953D01*
X0379310Y0474817D01*
X0379326Y0474681D01*
X0379338Y0474544D01*
X0379346Y0474406D01*
X0379350Y0474269D01*
X0379350Y0474131D01*
X0379346Y0473994D01*
X0379338Y0473856D01*
X0379326Y0473719D01*
X0379310Y0473583D01*
X0379290Y0473447D01*
X0379266Y0473311D01*
X0379238Y0473177D01*
X0379207Y0473043D01*
X0379171Y0472910D01*
X0379132Y0472778D01*
X0379089Y0472647D01*
X0379042Y0472518D01*
X0378992Y0472390D01*
X0378937Y0472264D01*
X0378880Y0472139D01*
X0378818Y0472016D01*
X0378753Y0471895D01*
X0378685Y0471776D01*
X0378613Y0471658D01*
X0378538Y0471543D01*
X0378459Y0471430D01*
X0378377Y0471320D01*
X0378292Y0471212D01*
X0378204Y0471106D01*
X0378113Y0471003D01*
X0378019Y0470903D01*
X0377922Y0470805D01*
X0377822Y0470710D01*
X0377720Y0470618D01*
X0377615Y0470530D01*
X0377508Y0470444D01*
X0377398Y0470361D01*
X0377285Y0470282D01*
X0377171Y0470206D01*
X0377054Y0470133D01*
X0376935Y0470064D01*
X0376814Y0469998D01*
X0376692Y0469935D01*
X0376568Y0469877D01*
X0376442Y0469822D01*
X0376314Y0469770D01*
X0376185Y0469722D01*
X0376055Y0469678D01*
X0375923Y0469638D01*
X0375791Y0469602D01*
X0375657Y0469569D01*
X0375522Y0469540D01*
X0375387Y0469516D01*
X0375251Y0469495D01*
X0375115Y0469478D01*
X0374978Y0469465D01*
X0374841Y0469456D01*
X0374703Y0469451D01*
X0374566Y0469450D01*
X0374428Y0469453D01*
X0374291Y0469460D01*
X0374154Y0469471D01*
X0374017Y0469486D01*
X0373881Y0469505D01*
X0373745Y0469528D01*
X0373610Y0469554D01*
X0373476Y0469585D01*
X0373343Y0469619D01*
X0373211Y0469658D01*
X0373080Y0469700D01*
X0372950Y0469746D01*
X0372822Y0469795D01*
X0372695Y0469849D01*
X0372570Y0469906D01*
X0372447Y0469966D01*
X0372325Y0470030D01*
X0372205Y0470098D01*
X0372087Y0470169D01*
X0371972Y0470243D01*
X0371858Y0470321D01*
X0371747Y0470402D01*
X0371638Y0470486D01*
X0371532Y0470574D01*
X0371428Y0470664D01*
X0371327Y0470757D01*
X0371229Y0470853D01*
X0371134Y0470952D01*
X0371041Y0471054D01*
X0370951Y0471158D01*
X0370865Y0471265D01*
X0370782Y0471375D01*
X0370701Y0471486D01*
X0370624Y0471600D01*
X0370551Y0471717D01*
X0370481Y0471835D01*
X0370414Y0471955D01*
X0370351Y0472077D01*
X0370291Y0472201D01*
X0370235Y0472327D01*
X0370183Y0472454D01*
X0370134Y0472583D01*
X0370089Y0472713D01*
X0370048Y0472844D01*
X0370010Y0472976D01*
X0369977Y0473110D01*
X0369947Y0473244D01*
X0369922Y0473379D01*
X0369900Y0473515D01*
X0369882Y0473651D01*
X0369868Y0473788D01*
X0369858Y0473925D01*
X0369852Y0474062D01*
X0369850Y0474200D01*
X0096500Y0249300D02*
X0096502Y0249413D01*
X0096508Y0249526D01*
X0096518Y0249638D01*
X0096532Y0249750D01*
X0096550Y0249862D01*
X0096572Y0249973D01*
X0096597Y0250083D01*
X0096627Y0250192D01*
X0096660Y0250300D01*
X0096697Y0250406D01*
X0096738Y0250512D01*
X0096783Y0250615D01*
X0096831Y0250717D01*
X0096883Y0250818D01*
X0096938Y0250916D01*
X0096997Y0251013D01*
X0097059Y0251107D01*
X0097124Y0251199D01*
X0097193Y0251289D01*
X0097265Y0251376D01*
X0097340Y0251461D01*
X0097417Y0251543D01*
X0097498Y0251622D01*
X0097581Y0251698D01*
X0097667Y0251771D01*
X0097756Y0251842D01*
X0097847Y0251909D01*
X0097940Y0251972D01*
X0098035Y0252033D01*
X0098133Y0252090D01*
X0098232Y0252143D01*
X0098333Y0252194D01*
X0098436Y0252240D01*
X0098541Y0252283D01*
X0098647Y0252322D01*
X0098754Y0252357D01*
X0098863Y0252389D01*
X0098972Y0252416D01*
X0099083Y0252440D01*
X0099194Y0252460D01*
X0099306Y0252476D01*
X0099418Y0252488D01*
X0099531Y0252496D01*
X0099644Y0252500D01*
X0099756Y0252500D01*
X0099869Y0252496D01*
X0099982Y0252488D01*
X0100094Y0252476D01*
X0100206Y0252460D01*
X0100317Y0252440D01*
X0100428Y0252416D01*
X0100537Y0252389D01*
X0100646Y0252357D01*
X0100753Y0252322D01*
X0100859Y0252283D01*
X0100964Y0252240D01*
X0101067Y0252194D01*
X0101168Y0252143D01*
X0101267Y0252090D01*
X0101365Y0252033D01*
X0101460Y0251972D01*
X0101553Y0251909D01*
X0101644Y0251842D01*
X0101733Y0251771D01*
X0101819Y0251698D01*
X0101902Y0251622D01*
X0101983Y0251543D01*
X0102060Y0251461D01*
X0102135Y0251376D01*
X0102207Y0251289D01*
X0102276Y0251199D01*
X0102341Y0251107D01*
X0102403Y0251013D01*
X0102462Y0250916D01*
X0102517Y0250818D01*
X0102569Y0250717D01*
X0102617Y0250615D01*
X0102662Y0250512D01*
X0102703Y0250406D01*
X0102740Y0250300D01*
X0102773Y0250192D01*
X0102803Y0250083D01*
X0102828Y0249973D01*
X0102850Y0249862D01*
X0102868Y0249750D01*
X0102882Y0249638D01*
X0102892Y0249526D01*
X0102898Y0249413D01*
X0102900Y0249300D01*
X0102898Y0249187D01*
X0102892Y0249074D01*
X0102882Y0248962D01*
X0102868Y0248850D01*
X0102850Y0248738D01*
X0102828Y0248627D01*
X0102803Y0248517D01*
X0102773Y0248408D01*
X0102740Y0248300D01*
X0102703Y0248194D01*
X0102662Y0248088D01*
X0102617Y0247985D01*
X0102569Y0247883D01*
X0102517Y0247782D01*
X0102462Y0247684D01*
X0102403Y0247587D01*
X0102341Y0247493D01*
X0102276Y0247401D01*
X0102207Y0247311D01*
X0102135Y0247224D01*
X0102060Y0247139D01*
X0101983Y0247057D01*
X0101902Y0246978D01*
X0101819Y0246902D01*
X0101733Y0246829D01*
X0101644Y0246758D01*
X0101553Y0246691D01*
X0101460Y0246628D01*
X0101365Y0246567D01*
X0101267Y0246510D01*
X0101168Y0246457D01*
X0101067Y0246406D01*
X0100964Y0246360D01*
X0100859Y0246317D01*
X0100753Y0246278D01*
X0100646Y0246243D01*
X0100537Y0246211D01*
X0100428Y0246184D01*
X0100317Y0246160D01*
X0100206Y0246140D01*
X0100094Y0246124D01*
X0099982Y0246112D01*
X0099869Y0246104D01*
X0099756Y0246100D01*
X0099644Y0246100D01*
X0099531Y0246104D01*
X0099418Y0246112D01*
X0099306Y0246124D01*
X0099194Y0246140D01*
X0099083Y0246160D01*
X0098972Y0246184D01*
X0098863Y0246211D01*
X0098754Y0246243D01*
X0098647Y0246278D01*
X0098541Y0246317D01*
X0098436Y0246360D01*
X0098333Y0246406D01*
X0098232Y0246457D01*
X0098133Y0246510D01*
X0098035Y0246567D01*
X0097940Y0246628D01*
X0097847Y0246691D01*
X0097756Y0246758D01*
X0097667Y0246829D01*
X0097581Y0246902D01*
X0097498Y0246978D01*
X0097417Y0247057D01*
X0097340Y0247139D01*
X0097265Y0247224D01*
X0097193Y0247311D01*
X0097124Y0247401D01*
X0097059Y0247493D01*
X0096997Y0247587D01*
X0096938Y0247684D01*
X0096883Y0247782D01*
X0096831Y0247883D01*
X0096783Y0247985D01*
X0096738Y0248088D01*
X0096697Y0248194D01*
X0096660Y0248300D01*
X0096627Y0248408D01*
X0096597Y0248517D01*
X0096572Y0248627D01*
X0096550Y0248738D01*
X0096532Y0248850D01*
X0096518Y0248962D01*
X0096508Y0249074D01*
X0096502Y0249187D01*
X0096500Y0249300D01*
X0094900Y0049300D02*
X0094902Y0049438D01*
X0094908Y0049577D01*
X0094918Y0049715D01*
X0094932Y0049852D01*
X0094950Y0049989D01*
X0094972Y0050126D01*
X0094997Y0050262D01*
X0095027Y0050397D01*
X0095061Y0050531D01*
X0095098Y0050664D01*
X0095139Y0050796D01*
X0095184Y0050927D01*
X0095233Y0051057D01*
X0095285Y0051185D01*
X0095342Y0051311D01*
X0095401Y0051436D01*
X0095465Y0051559D01*
X0095532Y0051680D01*
X0095602Y0051799D01*
X0095676Y0051916D01*
X0095753Y0052031D01*
X0095833Y0052144D01*
X0095917Y0052254D01*
X0096003Y0052362D01*
X0096093Y0052467D01*
X0096186Y0052570D01*
X0096282Y0052670D01*
X0096380Y0052767D01*
X0096481Y0052861D01*
X0096585Y0052952D01*
X0096692Y0053040D01*
X0096801Y0053126D01*
X0096912Y0053208D01*
X0097026Y0053286D01*
X0097142Y0053362D01*
X0097260Y0053434D01*
X0097380Y0053502D01*
X0097502Y0053567D01*
X0097626Y0053629D01*
X0097752Y0053687D01*
X0097879Y0053741D01*
X0098008Y0053792D01*
X0098138Y0053839D01*
X0098269Y0053882D01*
X0098402Y0053921D01*
X0098536Y0053957D01*
X0098670Y0053988D01*
X0098806Y0054016D01*
X0098942Y0054040D01*
X0099079Y0054060D01*
X0099217Y0054076D01*
X0099354Y0054088D01*
X0099493Y0054096D01*
X0099631Y0054100D01*
X0099769Y0054100D01*
X0099907Y0054096D01*
X0100046Y0054088D01*
X0100183Y0054076D01*
X0100321Y0054060D01*
X0100458Y0054040D01*
X0100594Y0054016D01*
X0100730Y0053988D01*
X0100864Y0053957D01*
X0100998Y0053921D01*
X0101131Y0053882D01*
X0101262Y0053839D01*
X0101392Y0053792D01*
X0101521Y0053741D01*
X0101648Y0053687D01*
X0101774Y0053629D01*
X0101898Y0053567D01*
X0102020Y0053502D01*
X0102140Y0053434D01*
X0102258Y0053362D01*
X0102374Y0053286D01*
X0102488Y0053208D01*
X0102599Y0053126D01*
X0102708Y0053040D01*
X0102815Y0052952D01*
X0102919Y0052861D01*
X0103020Y0052767D01*
X0103118Y0052670D01*
X0103214Y0052570D01*
X0103307Y0052467D01*
X0103397Y0052362D01*
X0103483Y0052254D01*
X0103567Y0052144D01*
X0103647Y0052031D01*
X0103724Y0051916D01*
X0103798Y0051799D01*
X0103868Y0051680D01*
X0103935Y0051559D01*
X0103999Y0051436D01*
X0104058Y0051311D01*
X0104115Y0051185D01*
X0104167Y0051057D01*
X0104216Y0050927D01*
X0104261Y0050796D01*
X0104302Y0050664D01*
X0104339Y0050531D01*
X0104373Y0050397D01*
X0104403Y0050262D01*
X0104428Y0050126D01*
X0104450Y0049989D01*
X0104468Y0049852D01*
X0104482Y0049715D01*
X0104492Y0049577D01*
X0104498Y0049438D01*
X0104500Y0049300D01*
X0104498Y0049162D01*
X0104492Y0049023D01*
X0104482Y0048885D01*
X0104468Y0048748D01*
X0104450Y0048611D01*
X0104428Y0048474D01*
X0104403Y0048338D01*
X0104373Y0048203D01*
X0104339Y0048069D01*
X0104302Y0047936D01*
X0104261Y0047804D01*
X0104216Y0047673D01*
X0104167Y0047543D01*
X0104115Y0047415D01*
X0104058Y0047289D01*
X0103999Y0047164D01*
X0103935Y0047041D01*
X0103868Y0046920D01*
X0103798Y0046801D01*
X0103724Y0046684D01*
X0103647Y0046569D01*
X0103567Y0046456D01*
X0103483Y0046346D01*
X0103397Y0046238D01*
X0103307Y0046133D01*
X0103214Y0046030D01*
X0103118Y0045930D01*
X0103020Y0045833D01*
X0102919Y0045739D01*
X0102815Y0045648D01*
X0102708Y0045560D01*
X0102599Y0045474D01*
X0102488Y0045392D01*
X0102374Y0045314D01*
X0102258Y0045238D01*
X0102140Y0045166D01*
X0102020Y0045098D01*
X0101898Y0045033D01*
X0101774Y0044971D01*
X0101648Y0044913D01*
X0101521Y0044859D01*
X0101392Y0044808D01*
X0101262Y0044761D01*
X0101131Y0044718D01*
X0100998Y0044679D01*
X0100864Y0044643D01*
X0100730Y0044612D01*
X0100594Y0044584D01*
X0100458Y0044560D01*
X0100321Y0044540D01*
X0100183Y0044524D01*
X0100046Y0044512D01*
X0099907Y0044504D01*
X0099769Y0044500D01*
X0099631Y0044500D01*
X0099493Y0044504D01*
X0099354Y0044512D01*
X0099217Y0044524D01*
X0099079Y0044540D01*
X0098942Y0044560D01*
X0098806Y0044584D01*
X0098670Y0044612D01*
X0098536Y0044643D01*
X0098402Y0044679D01*
X0098269Y0044718D01*
X0098138Y0044761D01*
X0098008Y0044808D01*
X0097879Y0044859D01*
X0097752Y0044913D01*
X0097626Y0044971D01*
X0097502Y0045033D01*
X0097380Y0045098D01*
X0097260Y0045166D01*
X0097142Y0045238D01*
X0097026Y0045314D01*
X0096912Y0045392D01*
X0096801Y0045474D01*
X0096692Y0045560D01*
X0096585Y0045648D01*
X0096481Y0045739D01*
X0096380Y0045833D01*
X0096282Y0045930D01*
X0096186Y0046030D01*
X0096093Y0046133D01*
X0096003Y0046238D01*
X0095917Y0046346D01*
X0095833Y0046456D01*
X0095753Y0046569D01*
X0095676Y0046684D01*
X0095602Y0046801D01*
X0095532Y0046920D01*
X0095465Y0047041D01*
X0095401Y0047164D01*
X0095342Y0047289D01*
X0095285Y0047415D01*
X0095233Y0047543D01*
X0095184Y0047673D01*
X0095139Y0047804D01*
X0095098Y0047936D01*
X0095061Y0048069D01*
X0095027Y0048203D01*
X0094997Y0048338D01*
X0094972Y0048474D01*
X0094950Y0048611D01*
X0094932Y0048748D01*
X0094918Y0048885D01*
X0094908Y0049023D01*
X0094902Y0049162D01*
X0094900Y0049300D01*
D12*
X0712200Y0831800D03*
X0752200Y0831800D03*
X0764700Y0831800D03*
X0804700Y0831800D03*
D13*
X0853200Y0582000D03*
X0863200Y0576600D03*
X0863200Y0565700D03*
X0863200Y0554800D03*
X0853200Y0549400D03*
X0853200Y0538500D03*
X0853200Y0527700D03*
X0863200Y0533100D03*
X0863200Y0522200D03*
X0863200Y0511400D03*
X0853200Y0516800D03*
X0853200Y0505900D03*
X0853200Y0495100D03*
X0853200Y0484200D03*
X0863200Y0478800D03*
X0863200Y0489600D03*
X0863200Y0500500D03*
X0853200Y0473300D03*
X0853200Y0462500D03*
X0853200Y0451600D03*
X0863200Y0457000D03*
X0863200Y0467900D03*
X0863200Y0544000D03*
X0853200Y0560300D03*
X0853200Y0571100D03*
X0853200Y0340500D03*
X0853200Y0329600D03*
X0853200Y0318800D03*
X0853200Y0307900D03*
X0863200Y0302500D03*
X0863200Y0313300D03*
X0863200Y0324300D03*
X0863200Y0335100D03*
X0853200Y0297000D03*
X0853200Y0286200D03*
X0853200Y0275300D03*
X0853200Y0264400D03*
X0863200Y0259000D03*
X0863200Y0248100D03*
X0853200Y0242700D03*
X0853200Y0253600D03*
X0863200Y0269900D03*
X0863200Y0280800D03*
X0863200Y0291600D03*
X0554700Y0066800D03*
X0554700Y0056800D03*
X0554700Y0046800D03*
X0544700Y0046800D03*
X0544700Y0056800D03*
X0544700Y0066800D03*
X0534700Y0066800D03*
X0534700Y0056800D03*
X0534700Y0046800D03*
X0524700Y0046800D03*
X0524700Y0056800D03*
X0524700Y0066800D03*
X0514700Y0066800D03*
X0514700Y0056800D03*
X0514700Y0046800D03*
X0504700Y0046800D03*
X0504700Y0056800D03*
X0504700Y0066800D03*
X0494700Y0066800D03*
X0494700Y0056800D03*
X0494700Y0046800D03*
X0484700Y0046800D03*
X0484700Y0056800D03*
X0484700Y0066800D03*
X0474700Y0066800D03*
X0474700Y0056800D03*
X0474700Y0046800D03*
X0464700Y0046800D03*
X0464700Y0056800D03*
X0464700Y0066800D03*
X0454700Y0066800D03*
X0454700Y0056800D03*
X0454700Y0046800D03*
X0444700Y0046800D03*
X0444700Y0056800D03*
X0444700Y0066800D03*
X0434700Y0066800D03*
X0434700Y0056800D03*
X0434700Y0046800D03*
X0424700Y0046800D03*
X0424700Y0056800D03*
X0424700Y0066800D03*
X0414700Y0066800D03*
X0414700Y0056800D03*
X0414700Y0046800D03*
X0404700Y0046800D03*
X0404700Y0056800D03*
X0404700Y0066800D03*
X0394700Y0066800D03*
X0394700Y0056800D03*
X0394700Y0046800D03*
X0384700Y0046800D03*
X0384700Y0056800D03*
X0384700Y0066800D03*
X0374700Y0066800D03*
X0374700Y0056800D03*
X0374700Y0046800D03*
X0364700Y0046800D03*
X0364700Y0056800D03*
X0364700Y0066800D03*
X0354700Y0066800D03*
X0354700Y0056800D03*
X0354700Y0046800D03*
X0344700Y0046800D03*
X0344700Y0056800D03*
X0344700Y0066800D03*
X0334700Y0066800D03*
X0334700Y0056800D03*
X0334700Y0046800D03*
X0324700Y0046800D03*
X0324700Y0056800D03*
X0324700Y0066800D03*
X0314700Y0066800D03*
X0314700Y0056800D03*
X0314700Y0046800D03*
X0304700Y0046800D03*
X0304700Y0056800D03*
X0304700Y0066800D03*
X0294700Y0066800D03*
X0294700Y0056800D03*
X0294700Y0046800D03*
X0284700Y0046800D03*
X0284700Y0056800D03*
X0284700Y0066800D03*
X0274700Y0066800D03*
X0274700Y0056800D03*
X0274700Y0046800D03*
X0264700Y0046800D03*
X0264700Y0056800D03*
X0264700Y0066800D03*
X0254700Y0066800D03*
X0254700Y0056800D03*
X0254700Y0046800D03*
X0244700Y0046800D03*
X0244700Y0056800D03*
X0244700Y0066800D03*
X0234700Y0066800D03*
X0234700Y0056800D03*
X0234700Y0046800D03*
X0224700Y0046800D03*
X0224700Y0056800D03*
X0224700Y0066800D03*
X0214700Y0066800D03*
X0214700Y0056800D03*
X0214700Y0046800D03*
X0204700Y0046800D03*
X0204700Y0056800D03*
X0204700Y0066800D03*
X0194700Y0066800D03*
X0194700Y0056800D03*
X0194700Y0046800D03*
X0184700Y0046800D03*
X0184700Y0056800D03*
X0184700Y0066800D03*
X0174700Y0066800D03*
X0174700Y0056800D03*
X0174700Y0046800D03*
X0164700Y0046800D03*
X0164700Y0056800D03*
X0164700Y0066800D03*
X0104700Y0086800D03*
X0094700Y0091800D03*
X0094700Y0081800D03*
X0104700Y0096800D03*
X0104700Y0106800D03*
X0104700Y0116800D03*
X0104700Y0126800D03*
X0104700Y0136800D03*
X0104700Y0146800D03*
X0104700Y0156800D03*
X0104700Y0166800D03*
X0094700Y0171800D03*
X0094700Y0161800D03*
X0094700Y0151800D03*
X0094700Y0141800D03*
X0094700Y0131800D03*
X0094700Y0121800D03*
X0094700Y0111800D03*
X0094700Y0101800D03*
X0104700Y0176800D03*
X0104700Y0186800D03*
X0104700Y0196800D03*
X0104700Y0206800D03*
X0104700Y0216800D03*
X0104700Y0226800D03*
X0104700Y0236800D03*
X0094700Y0231800D03*
X0094700Y0221800D03*
X0094700Y0211800D03*
X0094700Y0201800D03*
X0094700Y0191800D03*
X0094700Y0181800D03*
X0094700Y0261800D03*
X0094700Y0271800D03*
X0104700Y0276800D03*
X0104700Y0266800D03*
X0094700Y0281800D03*
X0094700Y0291800D03*
X0094700Y0301800D03*
X0094700Y0311800D03*
X0094700Y0321800D03*
X0094700Y0331800D03*
X0094700Y0341800D03*
X0104700Y0346800D03*
X0104700Y0336800D03*
X0104700Y0326800D03*
X0104700Y0316800D03*
X0104700Y0306800D03*
X0104700Y0296800D03*
X0104700Y0286800D03*
X0094700Y0351800D03*
X0094700Y0361800D03*
X0094700Y0371800D03*
X0094700Y0381800D03*
X0094700Y0391800D03*
X0094700Y0401800D03*
X0094700Y0411800D03*
X0104700Y0406800D03*
X0104700Y0396800D03*
X0104700Y0386800D03*
X0104700Y0376800D03*
X0104700Y0366800D03*
X0104700Y0356800D03*
X0094700Y0516800D03*
X0094700Y0526800D03*
X0094700Y0536800D03*
X0094700Y0546800D03*
X0094700Y0556800D03*
X0094700Y0566800D03*
X0094700Y0576800D03*
X0094700Y0586800D03*
X0094700Y0596800D03*
X0094700Y0606800D03*
X0094700Y0616800D03*
X0094700Y0626800D03*
X0094700Y0636800D03*
X0094700Y0646800D03*
X0094700Y0656800D03*
X0094700Y0666800D03*
X0094700Y0676800D03*
X0094700Y0686800D03*
X0094700Y0696800D03*
X0094700Y0706800D03*
X0094700Y0716800D03*
X0094700Y0726800D03*
X0094700Y0736800D03*
X0094700Y0746800D03*
X0094700Y0756800D03*
X0094700Y0766800D03*
X0094700Y0776800D03*
X0094700Y0786800D03*
X0094700Y0796800D03*
X0094700Y0806800D03*
X0134700Y0806800D03*
X0134700Y0796800D03*
X0134700Y0786800D03*
X0134700Y0776800D03*
X0134700Y0766800D03*
X0134700Y0756800D03*
X0134700Y0746800D03*
X0134700Y0736800D03*
X0134700Y0726800D03*
X0134700Y0716800D03*
X0134700Y0706800D03*
X0134700Y0696800D03*
X0134700Y0686800D03*
X0134700Y0676800D03*
X0134700Y0666800D03*
X0134700Y0656800D03*
X0134700Y0646800D03*
X0134700Y0636800D03*
X0134700Y0626800D03*
X0134700Y0616800D03*
X0134700Y0606800D03*
X0134700Y0596800D03*
X0134700Y0586800D03*
X0134700Y0576800D03*
X0134700Y0566800D03*
X0134700Y0556800D03*
X0134700Y0546800D03*
X0134700Y0536800D03*
X0134700Y0526800D03*
X0134700Y0516800D03*
X0174700Y0516800D03*
X0174700Y0526800D03*
X0174700Y0536800D03*
X0174700Y0546800D03*
X0174700Y0556800D03*
X0174700Y0566800D03*
X0174700Y0576800D03*
X0174700Y0586800D03*
X0174700Y0596800D03*
X0174700Y0606800D03*
X0174700Y0616800D03*
X0174700Y0626800D03*
X0174700Y0636800D03*
X0174700Y0646800D03*
X0174700Y0656800D03*
X0174700Y0666800D03*
X0174700Y0676800D03*
X0174700Y0686800D03*
X0174700Y0696800D03*
X0174700Y0706800D03*
X0174700Y0716800D03*
X0174700Y0726800D03*
X0174700Y0736800D03*
X0174700Y0746800D03*
X0174700Y0756800D03*
X0174700Y0766800D03*
X0174700Y0776800D03*
X0174700Y0786800D03*
X0174700Y0796800D03*
X0174700Y0806800D03*
X0214700Y0806800D03*
X0214700Y0796800D03*
X0214700Y0786800D03*
X0214700Y0776800D03*
X0214700Y0766800D03*
X0214700Y0756800D03*
X0214700Y0746800D03*
X0214700Y0736800D03*
X0214700Y0726800D03*
X0214700Y0716800D03*
X0214700Y0706800D03*
X0214700Y0696800D03*
X0214700Y0686800D03*
X0214700Y0676800D03*
X0214700Y0666800D03*
X0214700Y0656800D03*
X0214700Y0646800D03*
X0214700Y0636800D03*
X0214700Y0626800D03*
X0214700Y0616800D03*
X0214700Y0606800D03*
X0214700Y0596800D03*
X0214700Y0586800D03*
X0214700Y0576800D03*
X0214700Y0566800D03*
X0214700Y0556800D03*
X0214700Y0546800D03*
X0214700Y0536800D03*
X0214700Y0526800D03*
X0214700Y0516800D03*
X0254700Y0516800D03*
X0254700Y0526800D03*
X0254700Y0536800D03*
X0254700Y0546800D03*
X0254700Y0556800D03*
X0254700Y0566800D03*
X0254700Y0576800D03*
X0254700Y0586800D03*
X0254700Y0596800D03*
X0254700Y0606800D03*
X0254700Y0616800D03*
X0254700Y0626800D03*
X0254700Y0636800D03*
X0254700Y0646800D03*
X0254700Y0656800D03*
X0254700Y0666800D03*
X0254700Y0676800D03*
X0254700Y0686800D03*
X0254700Y0696800D03*
X0254700Y0706800D03*
X0254700Y0716800D03*
X0254700Y0726800D03*
X0254700Y0736800D03*
X0254700Y0746800D03*
X0254700Y0756800D03*
X0254700Y0766800D03*
X0254700Y0776800D03*
X0254700Y0786800D03*
X0254700Y0796800D03*
X0254700Y0806800D03*
X0294700Y0806800D03*
X0294700Y0796800D03*
X0294700Y0786800D03*
X0294700Y0776800D03*
X0294700Y0766800D03*
X0294700Y0756800D03*
X0294700Y0746800D03*
X0294700Y0736800D03*
X0294700Y0726800D03*
X0294700Y0716800D03*
X0294700Y0706800D03*
X0294700Y0696800D03*
X0294700Y0686800D03*
X0294700Y0676800D03*
X0294700Y0666800D03*
X0294700Y0656800D03*
X0294700Y0646800D03*
X0294700Y0636800D03*
X0294700Y0626800D03*
X0294700Y0616800D03*
X0294700Y0606800D03*
X0294700Y0596800D03*
X0294700Y0586800D03*
X0294700Y0576800D03*
X0294700Y0566800D03*
X0294700Y0556800D03*
X0294700Y0546800D03*
X0294700Y0536800D03*
X0294700Y0526800D03*
X0294700Y0516800D03*
X0334700Y0516800D03*
X0334700Y0526800D03*
X0334700Y0536800D03*
X0334700Y0546800D03*
X0334700Y0556800D03*
X0334700Y0566800D03*
X0334700Y0576800D03*
X0334700Y0586800D03*
X0334700Y0596800D03*
X0334700Y0606800D03*
X0334700Y0616800D03*
X0334700Y0626800D03*
X0334700Y0636800D03*
X0334700Y0646800D03*
X0334700Y0656800D03*
X0334700Y0666800D03*
X0334700Y0676800D03*
X0334700Y0686800D03*
X0334700Y0696800D03*
X0334700Y0706800D03*
X0334700Y0716800D03*
X0334700Y0726800D03*
X0334700Y0736800D03*
X0334700Y0746800D03*
X0334700Y0756800D03*
X0334700Y0766800D03*
X0334700Y0776800D03*
X0334700Y0786800D03*
X0334700Y0796800D03*
X0334700Y0806800D03*
X0374700Y0806800D03*
X0374700Y0796800D03*
X0374700Y0786800D03*
X0374700Y0776800D03*
X0374700Y0766800D03*
X0374700Y0756800D03*
X0374700Y0746800D03*
X0374700Y0736800D03*
X0374700Y0726800D03*
X0374700Y0716800D03*
X0374700Y0706800D03*
X0374700Y0696800D03*
X0374700Y0686800D03*
X0374700Y0676800D03*
X0374700Y0666800D03*
X0374700Y0656800D03*
X0374700Y0646800D03*
X0374700Y0636800D03*
X0374700Y0626800D03*
X0374700Y0616800D03*
X0374700Y0606800D03*
X0374700Y0596800D03*
X0374700Y0586800D03*
X0374700Y0576800D03*
X0374700Y0566800D03*
X0374700Y0556800D03*
X0374700Y0546800D03*
X0374700Y0536800D03*
X0374700Y0526800D03*
X0374700Y0516800D03*
D14*
X0374600Y0474200D03*
X0334600Y0474200D03*
X0294600Y0474200D03*
X0254600Y0474200D03*
X0214600Y0474200D03*
X0174600Y0474200D03*
X0134600Y0474200D03*
X0094600Y0474200D03*
D15*
X0094700Y0839300D03*
X0134700Y0839300D03*
X0174700Y0839300D03*
X0214700Y0839300D03*
X0254700Y0839300D03*
X0294700Y0839300D03*
X0334700Y0839300D03*
X0374700Y0839300D03*
D16*
X0198440Y0786131D03*
X0190960Y0786131D03*
X0194700Y0777469D03*
X0190960Y0756131D03*
X0198440Y0756131D03*
X0194700Y0747469D03*
X0190960Y0716131D03*
X0198440Y0716131D03*
X0194700Y0707469D03*
X0190960Y0686131D03*
X0198440Y0686131D03*
X0194700Y0677469D03*
X0190960Y0656131D03*
X0198440Y0656131D03*
X0194700Y0647469D03*
X0190960Y0616131D03*
X0198440Y0616131D03*
X0194700Y0607469D03*
X0190960Y0591131D03*
X0198440Y0591131D03*
X0194700Y0582469D03*
X0190960Y0566131D03*
X0198440Y0566131D03*
X0194700Y0557469D03*
X0118440Y0566131D03*
X0110960Y0566131D03*
X0114700Y0557469D03*
X0114700Y0582469D03*
X0110960Y0591131D03*
X0118440Y0591131D03*
X0114700Y0607469D03*
X0110960Y0616131D03*
X0118440Y0616131D03*
X0114700Y0647469D03*
X0110960Y0656131D03*
X0118440Y0656131D03*
X0114700Y0677469D03*
X0110960Y0686131D03*
X0118440Y0686131D03*
X0114700Y0707469D03*
X0110960Y0716131D03*
X0118440Y0716131D03*
X0114700Y0747469D03*
X0110960Y0756131D03*
X0118440Y0756131D03*
X0114700Y0777469D03*
X0110960Y0786131D03*
X0118440Y0786131D03*
D17*
X0392700Y0646898D03*
X0392700Y0635702D03*
X0419700Y0666202D03*
X0419700Y0677398D03*
X0419700Y0696202D03*
X0419700Y0707398D03*
X0476200Y0647398D03*
X0476200Y0636202D03*
X0481200Y0572398D03*
X0481200Y0561202D03*
X0447700Y0507398D03*
X0447700Y0496202D03*
X0459700Y0477398D03*
X0459700Y0466202D03*
X0418700Y0427398D03*
X0418700Y0416202D03*
X0446700Y0407398D03*
X0446700Y0396202D03*
X0594700Y0521202D03*
X0603700Y0521202D03*
X0612700Y0521202D03*
X0612700Y0532398D03*
X0603700Y0532398D03*
X0594700Y0532398D03*
X0596200Y0479398D03*
X0596200Y0468202D03*
X0799700Y0242398D03*
X0799700Y0231202D03*
X0777200Y0086898D03*
X0777200Y0075702D03*
X0689700Y0069398D03*
X0689700Y0058202D03*
X0674700Y0058202D03*
X0674700Y0069398D03*
X0169700Y0126202D03*
X0169700Y0137398D03*
X0629700Y0705202D03*
X0629700Y0716398D03*
X0670200Y0715898D03*
X0670200Y0704702D03*
X0679700Y0761202D03*
X0679700Y0772398D03*
X0675700Y0789202D03*
X0675700Y0800398D03*
X0679700Y0816202D03*
X0679700Y0827398D03*
X0729700Y0817398D03*
X0729700Y0806202D03*
X0749700Y0806202D03*
X0749700Y0817398D03*
X0840700Y0797898D03*
X0850700Y0797898D03*
X0850700Y0786702D03*
X0840700Y0786702D03*
X0626700Y0791202D03*
X0626700Y0802398D03*
X0584700Y0811202D03*
X0574700Y0811202D03*
X0574700Y0822398D03*
X0584700Y0822398D03*
X0584700Y0762398D03*
X0584700Y0751202D03*
X0569700Y0751202D03*
X0569700Y0762398D03*
X0569700Y0732398D03*
X0569700Y0721202D03*
X0584700Y0721202D03*
X0584700Y0732398D03*
D18*
X0104700Y0416800D03*
D19*
X0099700Y0049300D03*
D20*
X0099700Y0249300D03*
X0099700Y0449300D03*
D21*
X0352100Y0256800D02*
X0357300Y0256800D01*
X0357300Y0246800D02*
X0352100Y0246800D01*
X0352100Y0236800D02*
X0357300Y0236800D01*
X0357300Y0226800D02*
X0352100Y0226800D01*
X0352100Y0216800D02*
X0357300Y0216800D01*
X0357300Y0206800D02*
X0352100Y0206800D01*
X0352100Y0196800D02*
X0357300Y0196800D01*
X0357300Y0186800D02*
X0352100Y0186800D01*
X0352100Y0176800D02*
X0357300Y0176800D01*
X0357300Y0166800D02*
X0352100Y0166800D01*
X0352100Y0156800D02*
X0357300Y0156800D01*
X0357300Y0146800D02*
X0352100Y0146800D01*
X0352100Y0136800D02*
X0357300Y0136800D01*
X0357300Y0126800D02*
X0352100Y0126800D01*
X0412100Y0126800D02*
X0417300Y0126800D01*
X0417300Y0136800D02*
X0412100Y0136800D01*
X0412100Y0146800D02*
X0417300Y0146800D01*
X0417300Y0156800D02*
X0412100Y0156800D01*
X0412100Y0166800D02*
X0417300Y0166800D01*
X0417300Y0176800D02*
X0412100Y0176800D01*
X0412100Y0186800D02*
X0417300Y0186800D01*
X0417300Y0196800D02*
X0412100Y0196800D01*
X0412100Y0206800D02*
X0417300Y0206800D01*
X0417300Y0216800D02*
X0412100Y0216800D01*
X0412100Y0226800D02*
X0417300Y0226800D01*
X0417300Y0236800D02*
X0412100Y0236800D01*
X0412100Y0246800D02*
X0417300Y0246800D01*
X0417300Y0256800D02*
X0412100Y0256800D01*
X0407300Y0396800D02*
X0402100Y0396800D01*
X0402100Y0406800D02*
X0407300Y0406800D01*
X0407300Y0416800D02*
X0402100Y0416800D01*
X0402100Y0426800D02*
X0407300Y0426800D01*
X0407300Y0436800D02*
X0402100Y0436800D01*
X0402100Y0446800D02*
X0407300Y0446800D01*
X0407300Y0456800D02*
X0402100Y0456800D01*
X0402100Y0466800D02*
X0407300Y0466800D01*
X0407300Y0476800D02*
X0402100Y0476800D01*
X0402100Y0486800D02*
X0407300Y0486800D01*
X0407300Y0506800D02*
X0402100Y0506800D01*
X0402100Y0516800D02*
X0407300Y0516800D01*
X0407300Y0526800D02*
X0402100Y0526800D01*
X0402100Y0536800D02*
X0407300Y0536800D01*
X0407300Y0546800D02*
X0402100Y0546800D01*
X0402100Y0556800D02*
X0407300Y0556800D01*
X0407300Y0566800D02*
X0402100Y0566800D01*
X0402100Y0576800D02*
X0407300Y0576800D01*
X0407300Y0586800D02*
X0402100Y0586800D01*
X0402100Y0596800D02*
X0407300Y0596800D01*
X0407300Y0616800D02*
X0402100Y0616800D01*
X0402100Y0626800D02*
X0407300Y0626800D01*
X0407300Y0636800D02*
X0402100Y0636800D01*
X0402100Y0646800D02*
X0407300Y0646800D01*
X0407300Y0656800D02*
X0402100Y0656800D01*
X0402100Y0666800D02*
X0407300Y0666800D01*
X0407300Y0676800D02*
X0402100Y0676800D01*
X0402100Y0686800D02*
X0407300Y0686800D01*
X0407300Y0696800D02*
X0402100Y0696800D01*
X0402100Y0706800D02*
X0407300Y0706800D01*
X0407300Y0726800D02*
X0402100Y0726800D01*
X0402100Y0736800D02*
X0407300Y0736800D01*
X0407300Y0746800D02*
X0402100Y0746800D01*
X0402100Y0756800D02*
X0407300Y0756800D01*
X0407300Y0766800D02*
X0402100Y0766800D01*
X0402100Y0776800D02*
X0407300Y0776800D01*
X0407300Y0786800D02*
X0402100Y0786800D01*
X0402100Y0796800D02*
X0407300Y0796800D01*
X0407300Y0806800D02*
X0402100Y0806800D01*
X0402100Y0816800D02*
X0407300Y0816800D01*
X0407300Y0826800D02*
X0402100Y0826800D01*
X0402100Y0836800D02*
X0407300Y0836800D01*
X0442100Y0836800D02*
X0447300Y0836800D01*
X0447300Y0826800D02*
X0442100Y0826800D01*
X0442100Y0816800D02*
X0447300Y0816800D01*
X0447300Y0806800D02*
X0442100Y0806800D01*
X0442100Y0796800D02*
X0447300Y0796800D01*
X0447300Y0786800D02*
X0442100Y0786800D01*
X0442100Y0776800D02*
X0447300Y0776800D01*
X0447300Y0766800D02*
X0442100Y0766800D01*
X0442100Y0756800D02*
X0447300Y0756800D01*
X0462100Y0756800D02*
X0467300Y0756800D01*
X0467300Y0766800D02*
X0462100Y0766800D01*
X0462100Y0776800D02*
X0467300Y0776800D01*
X0467300Y0786800D02*
X0462100Y0786800D01*
X0462100Y0796800D02*
X0467300Y0796800D01*
X0467300Y0806800D02*
X0462100Y0806800D01*
X0462100Y0816800D02*
X0467300Y0816800D01*
X0467300Y0826800D02*
X0462100Y0826800D01*
X0462100Y0836800D02*
X0467300Y0836800D01*
X0502100Y0836800D02*
X0507300Y0836800D01*
X0507300Y0826800D02*
X0502100Y0826800D01*
X0502100Y0816800D02*
X0507300Y0816800D01*
X0507300Y0806800D02*
X0502100Y0806800D01*
X0502100Y0796800D02*
X0507300Y0796800D01*
X0507300Y0786800D02*
X0502100Y0786800D01*
X0502100Y0776800D02*
X0507300Y0776800D01*
X0507300Y0766800D02*
X0502100Y0766800D01*
X0502100Y0756800D02*
X0507300Y0756800D01*
X0507300Y0746800D02*
X0502100Y0746800D01*
X0502100Y0736800D02*
X0507300Y0736800D01*
X0507300Y0726800D02*
X0502100Y0726800D01*
X0497300Y0706800D02*
X0492100Y0706800D01*
X0492100Y0696800D02*
X0497300Y0696800D01*
X0497300Y0686800D02*
X0492100Y0686800D01*
X0492100Y0676800D02*
X0497300Y0676800D01*
X0497300Y0666800D02*
X0492100Y0666800D01*
X0492100Y0656800D02*
X0497300Y0656800D01*
X0497300Y0646800D02*
X0492100Y0646800D01*
X0492100Y0636800D02*
X0497300Y0636800D01*
X0497300Y0626800D02*
X0492100Y0626800D01*
X0492100Y0616800D02*
X0497300Y0616800D01*
X0497300Y0596800D02*
X0492100Y0596800D01*
X0492100Y0586800D02*
X0497300Y0586800D01*
X0497300Y0576800D02*
X0492100Y0576800D01*
X0492100Y0566800D02*
X0497300Y0566800D01*
X0497300Y0556800D02*
X0492100Y0556800D01*
X0492100Y0546800D02*
X0497300Y0546800D01*
X0497300Y0536800D02*
X0492100Y0536800D01*
X0492100Y0526800D02*
X0497300Y0526800D01*
X0497300Y0516800D02*
X0492100Y0516800D01*
X0492100Y0506800D02*
X0497300Y0506800D01*
X0467300Y0506800D02*
X0462100Y0506800D01*
X0462100Y0516800D02*
X0467300Y0516800D01*
X0467300Y0526800D02*
X0462100Y0526800D01*
X0462100Y0536800D02*
X0467300Y0536800D01*
X0467300Y0546800D02*
X0462100Y0546800D01*
X0462100Y0556800D02*
X0467300Y0556800D01*
X0467300Y0566800D02*
X0462100Y0566800D01*
X0462100Y0576800D02*
X0467300Y0576800D01*
X0467300Y0586800D02*
X0462100Y0586800D01*
X0462100Y0596800D02*
X0467300Y0596800D01*
X0467300Y0616800D02*
X0462100Y0616800D01*
X0462100Y0626800D02*
X0467300Y0626800D01*
X0467300Y0636800D02*
X0462100Y0636800D01*
X0462100Y0646800D02*
X0467300Y0646800D01*
X0467300Y0656800D02*
X0462100Y0656800D01*
X0462100Y0666800D02*
X0467300Y0666800D01*
X0467300Y0676800D02*
X0462100Y0676800D01*
X0462100Y0686800D02*
X0467300Y0686800D01*
X0467300Y0696800D02*
X0462100Y0696800D01*
X0462100Y0706800D02*
X0467300Y0706800D01*
X0467300Y0726800D02*
X0462100Y0726800D01*
X0462100Y0736800D02*
X0467300Y0736800D01*
X0467300Y0746800D02*
X0462100Y0746800D01*
X0447300Y0746800D02*
X0442100Y0746800D01*
X0442100Y0736800D02*
X0447300Y0736800D01*
X0447300Y0726800D02*
X0442100Y0726800D01*
X0437300Y0706800D02*
X0432100Y0706800D01*
X0432100Y0696800D02*
X0437300Y0696800D01*
X0437300Y0686800D02*
X0432100Y0686800D01*
X0432100Y0676800D02*
X0437300Y0676800D01*
X0437300Y0666800D02*
X0432100Y0666800D01*
X0432100Y0656800D02*
X0437300Y0656800D01*
X0437300Y0646800D02*
X0432100Y0646800D01*
X0432100Y0636800D02*
X0437300Y0636800D01*
X0437300Y0626800D02*
X0432100Y0626800D01*
X0432100Y0616800D02*
X0437300Y0616800D01*
X0437300Y0596800D02*
X0432100Y0596800D01*
X0432100Y0586800D02*
X0437300Y0586800D01*
X0437300Y0576800D02*
X0432100Y0576800D01*
X0432100Y0566800D02*
X0437300Y0566800D01*
X0437300Y0556800D02*
X0432100Y0556800D01*
X0432100Y0546800D02*
X0437300Y0546800D01*
X0437300Y0536800D02*
X0432100Y0536800D01*
X0432100Y0526800D02*
X0437300Y0526800D01*
X0437300Y0516800D02*
X0432100Y0516800D01*
X0432100Y0506800D02*
X0437300Y0506800D01*
X0437300Y0486800D02*
X0432100Y0486800D01*
X0432100Y0476800D02*
X0437300Y0476800D01*
X0437300Y0466800D02*
X0432100Y0466800D01*
X0432100Y0456800D02*
X0437300Y0456800D01*
X0437300Y0446800D02*
X0432100Y0446800D01*
X0432100Y0436800D02*
X0437300Y0436800D01*
X0437300Y0426800D02*
X0432100Y0426800D01*
X0432100Y0416800D02*
X0437300Y0416800D01*
X0437300Y0406800D02*
X0432100Y0406800D01*
X0432100Y0396800D02*
X0437300Y0396800D01*
X0247300Y0141800D02*
X0242100Y0141800D01*
X0242100Y0131800D02*
X0247300Y0131800D01*
X0247300Y0121800D02*
X0242100Y0121800D01*
X0242100Y0111800D02*
X0247300Y0111800D01*
X0217300Y0111800D02*
X0212100Y0111800D01*
X0212100Y0121800D02*
X0217300Y0121800D01*
X0217300Y0131800D02*
X0212100Y0131800D01*
X0212100Y0141800D02*
X0217300Y0141800D01*
X0752100Y0596800D02*
X0757300Y0596800D01*
X0757300Y0606800D02*
X0752100Y0606800D01*
X0752100Y0616800D02*
X0757300Y0616800D01*
X0757300Y0626800D02*
X0752100Y0626800D01*
X0752100Y0636800D02*
X0757300Y0636800D01*
X0757300Y0646800D02*
X0752100Y0646800D01*
X0752100Y0656800D02*
X0757300Y0656800D01*
X0757300Y0666800D02*
X0752100Y0666800D01*
X0752100Y0676800D02*
X0757300Y0676800D01*
X0757300Y0686800D02*
X0752100Y0686800D01*
X0752100Y0706800D02*
X0757300Y0706800D01*
X0757300Y0716800D02*
X0752100Y0716800D01*
X0752100Y0726800D02*
X0757300Y0726800D01*
X0757300Y0736800D02*
X0752100Y0736800D01*
X0752100Y0746800D02*
X0757300Y0746800D01*
X0757300Y0756800D02*
X0752100Y0756800D01*
X0752100Y0766800D02*
X0757300Y0766800D01*
X0757300Y0776800D02*
X0752100Y0776800D01*
X0752100Y0786800D02*
X0757300Y0786800D01*
X0757300Y0796800D02*
X0752100Y0796800D01*
X0782100Y0796800D02*
X0787300Y0796800D01*
X0787300Y0786800D02*
X0782100Y0786800D01*
X0782100Y0776800D02*
X0787300Y0776800D01*
X0787300Y0766800D02*
X0782100Y0766800D01*
X0782100Y0756800D02*
X0787300Y0756800D01*
X0787300Y0746800D02*
X0782100Y0746800D01*
X0782100Y0736800D02*
X0787300Y0736800D01*
X0787300Y0726800D02*
X0782100Y0726800D01*
X0782100Y0716800D02*
X0787300Y0716800D01*
X0787300Y0706800D02*
X0782100Y0706800D01*
X0782100Y0686800D02*
X0787300Y0686800D01*
X0787300Y0676800D02*
X0782100Y0676800D01*
X0782100Y0666800D02*
X0787300Y0666800D01*
X0787300Y0656800D02*
X0782100Y0656800D01*
X0782100Y0646800D02*
X0787300Y0646800D01*
X0787300Y0636800D02*
X0782100Y0636800D01*
X0782100Y0626800D02*
X0787300Y0626800D01*
X0787300Y0616800D02*
X0782100Y0616800D01*
X0782100Y0606800D02*
X0787300Y0606800D01*
X0787300Y0596800D02*
X0782100Y0596800D01*
X0873100Y0650300D02*
X0878300Y0650300D01*
X0878300Y0703300D02*
X0873100Y0703300D01*
X0873100Y0725300D02*
X0878300Y0725300D01*
X0878300Y0778300D02*
X0873100Y0778300D01*
X0697300Y0774800D02*
X0692100Y0774800D01*
X0692100Y0784800D02*
X0697300Y0784800D01*
X0697300Y0794800D02*
X0692100Y0794800D01*
X0692100Y0804800D02*
X0697300Y0804800D01*
X0697300Y0814800D02*
X0692100Y0814800D01*
X0692100Y0824800D02*
X0697300Y0824800D01*
X0667300Y0824800D02*
X0662100Y0824800D01*
X0662100Y0814800D02*
X0667300Y0814800D01*
X0667300Y0804800D02*
X0662100Y0804800D01*
X0662100Y0794800D02*
X0667300Y0794800D01*
X0667300Y0784800D02*
X0662100Y0784800D01*
X0662100Y0774800D02*
X0667300Y0774800D01*
X0667300Y0764800D02*
X0662100Y0764800D01*
X0662100Y0754800D02*
X0667300Y0754800D01*
X0647300Y0754300D02*
X0642100Y0754300D01*
X0642100Y0764300D02*
X0647300Y0764300D01*
X0647300Y0774300D02*
X0642100Y0774300D01*
X0642100Y0784300D02*
X0647300Y0784300D01*
X0647300Y0794300D02*
X0642100Y0794300D01*
X0642100Y0804300D02*
X0647300Y0804300D01*
X0647300Y0814300D02*
X0642100Y0814300D01*
X0642100Y0824300D02*
X0647300Y0824300D01*
X0617300Y0824300D02*
X0612100Y0824300D01*
X0612100Y0814300D02*
X0617300Y0814300D01*
X0617300Y0804300D02*
X0612100Y0804300D01*
X0612100Y0794300D02*
X0617300Y0794300D01*
X0617300Y0784300D02*
X0612100Y0784300D01*
X0612100Y0774300D02*
X0617300Y0774300D01*
X0617300Y0764300D02*
X0612100Y0764300D01*
X0612100Y0754300D02*
X0617300Y0754300D01*
X0692100Y0754800D02*
X0697300Y0754800D01*
X0697300Y0764800D02*
X0692100Y0764800D01*
X0782100Y0319300D02*
X0787300Y0319300D01*
X0787300Y0309300D02*
X0782100Y0309300D01*
X0782100Y0299300D02*
X0787300Y0299300D01*
X0787300Y0289300D02*
X0782100Y0289300D01*
X0782100Y0279300D02*
X0787300Y0279300D01*
X0787300Y0269300D02*
X0782100Y0269300D01*
X0782100Y0259300D02*
X0787300Y0259300D01*
X0787300Y0249300D02*
X0782100Y0249300D01*
X0782100Y0239300D02*
X0787300Y0239300D01*
X0787300Y0229300D02*
X0782100Y0229300D01*
X0812100Y0229300D02*
X0817300Y0229300D01*
X0817300Y0239300D02*
X0812100Y0239300D01*
X0812100Y0249300D02*
X0817300Y0249300D01*
X0817300Y0259300D02*
X0812100Y0259300D01*
X0812100Y0269300D02*
X0817300Y0269300D01*
X0817300Y0279300D02*
X0812100Y0279300D01*
X0812100Y0289300D02*
X0817300Y0289300D01*
X0817300Y0299300D02*
X0812100Y0299300D01*
X0812100Y0309300D02*
X0817300Y0309300D01*
X0817300Y0319300D02*
X0812100Y0319300D01*
X0873100Y0175800D02*
X0878300Y0175800D01*
X0878300Y0122800D02*
X0873100Y0122800D01*
X0873100Y0100800D02*
X0878300Y0100800D01*
X0878300Y0047800D02*
X0873100Y0047800D01*
X0797300Y0066800D02*
X0792100Y0066800D01*
X0792100Y0076800D02*
X0797300Y0076800D01*
X0797300Y0086800D02*
X0792100Y0086800D01*
X0792100Y0096800D02*
X0797300Y0096800D01*
X0767300Y0096800D02*
X0762100Y0096800D01*
X0762100Y0086800D02*
X0767300Y0086800D01*
X0767300Y0076800D02*
X0762100Y0076800D01*
X0762100Y0066800D02*
X0767300Y0066800D01*
D22*
X0784700Y0036800D03*
X0734700Y0036800D03*
X0574700Y0126800D03*
X0574700Y0136800D03*
X0574700Y0146800D03*
X0574700Y0156800D03*
X0574700Y0166800D03*
X0564700Y0166800D03*
X0564700Y0156800D03*
X0564700Y0146800D03*
X0564700Y0136800D03*
X0564700Y0126800D03*
X0554700Y0126800D03*
X0554700Y0136800D03*
X0554700Y0146800D03*
X0554700Y0156800D03*
X0554700Y0166800D03*
X0544700Y0156800D03*
X0544700Y0146800D03*
X0544700Y0136800D03*
X0544700Y0126800D03*
X0534700Y0126800D03*
X0534700Y0136800D03*
X0534700Y0146800D03*
X0534700Y0156800D03*
X0524700Y0146800D03*
X0524700Y0136800D03*
X0524700Y0126800D03*
X0514700Y0126800D03*
X0514700Y0136800D03*
X0514700Y0146800D03*
X0504700Y0146800D03*
X0504700Y0136800D03*
X0504700Y0126800D03*
X0494700Y0126800D03*
X0494700Y0136800D03*
X0494700Y0146800D03*
X0484700Y0146800D03*
X0484700Y0136800D03*
X0484700Y0126800D03*
X0474700Y0126800D03*
X0474700Y0136800D03*
X0474700Y0146800D03*
X0474700Y0156800D03*
X0474700Y0166800D03*
X0484700Y0156800D03*
X0484700Y0176800D03*
X0474700Y0176800D03*
X0474700Y0186800D03*
X0474700Y0196800D03*
X0474700Y0206800D03*
X0474700Y0216800D03*
X0474700Y0226800D03*
X0474700Y0236800D03*
X0484700Y0236800D03*
X0484700Y0226800D03*
X0484700Y0216800D03*
X0494700Y0226800D03*
X0494700Y0236800D03*
X0504700Y0236800D03*
X0504700Y0226800D03*
X0514700Y0226800D03*
X0514700Y0236800D03*
X0524700Y0236800D03*
X0524700Y0226800D03*
X0534700Y0226800D03*
X0534700Y0216800D03*
X0544700Y0216800D03*
X0544700Y0226800D03*
X0544700Y0236800D03*
X0534700Y0236800D03*
X0534700Y0246800D03*
X0524700Y0246800D03*
X0514700Y0246800D03*
X0504700Y0246800D03*
X0494700Y0246800D03*
X0484700Y0246800D03*
X0474700Y0246800D03*
X0464700Y0246800D03*
X0454700Y0246800D03*
X0454700Y0236800D03*
X0454700Y0226800D03*
X0454700Y0216800D03*
X0454700Y0206800D03*
X0454700Y0196800D03*
X0454700Y0186800D03*
X0454700Y0176800D03*
X0464700Y0176800D03*
X0464700Y0186800D03*
X0464700Y0196800D03*
X0464700Y0206800D03*
X0464700Y0216800D03*
X0464700Y0226800D03*
X0464700Y0236800D03*
X0464700Y0166800D03*
X0464700Y0156800D03*
X0464700Y0146800D03*
X0464700Y0136800D03*
X0464700Y0126800D03*
X0454700Y0126800D03*
X0454700Y0136800D03*
X0454700Y0146800D03*
X0454700Y0156800D03*
X0454700Y0166800D03*
X0544700Y0176800D03*
X0554700Y0176800D03*
X0554700Y0186800D03*
X0554700Y0196800D03*
X0554700Y0206800D03*
X0554700Y0216800D03*
X0554700Y0226800D03*
X0554700Y0236800D03*
X0564700Y0236800D03*
X0564700Y0226800D03*
X0564700Y0216800D03*
X0564700Y0206800D03*
X0564700Y0196800D03*
X0564700Y0186800D03*
X0564700Y0176800D03*
X0574700Y0176800D03*
X0574700Y0186800D03*
X0574700Y0196800D03*
X0574700Y0206800D03*
X0574700Y0216800D03*
X0574700Y0226800D03*
X0574700Y0236800D03*
X0574700Y0246800D03*
X0564700Y0246800D03*
X0554700Y0246800D03*
X0544700Y0246800D03*
X0779700Y0366800D03*
X0779700Y0416800D03*
X0779700Y0496800D03*
X0779700Y0546800D03*
X0079700Y0386800D03*
X0079700Y0376800D03*
X0079700Y0366800D03*
X0079700Y0356800D03*
X0069700Y0356800D03*
X0069700Y0346800D03*
X0059700Y0346800D03*
X0059700Y0356800D03*
X0049700Y0356800D03*
X0049700Y0346800D03*
X0039700Y0346800D03*
X0039700Y0356800D03*
X0029700Y0356800D03*
X0029700Y0346800D03*
X0019700Y0356800D03*
X0019700Y0366800D03*
X0019700Y0376800D03*
X0019700Y0386800D03*
X0029700Y0386800D03*
X0039700Y0386800D03*
X0049700Y0386800D03*
X0059700Y0386800D03*
X0069700Y0386800D03*
X0069700Y0376800D03*
X0069700Y0366800D03*
X0069700Y0396800D03*
X0059700Y0396800D03*
X0049700Y0396800D03*
X0039700Y0396800D03*
X0029700Y0396800D03*
X0029700Y0366800D03*
X0029700Y0316800D03*
X0039700Y0316800D03*
X0049700Y0316800D03*
X0059700Y0316800D03*
X0069700Y0316800D03*
X0069700Y0306800D03*
X0069700Y0296800D03*
X0069700Y0286800D03*
X0069700Y0276800D03*
X0069700Y0266800D03*
X0059700Y0266800D03*
X0059700Y0276800D03*
X0049700Y0276800D03*
X0049700Y0266800D03*
X0039700Y0266800D03*
X0039700Y0276800D03*
X0029700Y0276800D03*
X0029700Y0266800D03*
X0019700Y0276800D03*
X0019700Y0286800D03*
X0019700Y0296800D03*
X0019700Y0306800D03*
X0029700Y0306800D03*
X0039700Y0306800D03*
X0049700Y0306800D03*
X0059700Y0306800D03*
X0079700Y0306800D03*
X0079700Y0296800D03*
X0079700Y0286800D03*
X0079700Y0276800D03*
X0029700Y0286800D03*
X0029700Y0226800D03*
X0029700Y0216800D03*
X0019700Y0216800D03*
X0019700Y0206800D03*
X0019700Y0196800D03*
X0019700Y0186800D03*
X0029700Y0186800D03*
X0029700Y0176800D03*
X0039700Y0176800D03*
X0039700Y0186800D03*
X0049700Y0186800D03*
X0049700Y0176800D03*
X0059700Y0176800D03*
X0059700Y0186800D03*
X0069700Y0186800D03*
X0069700Y0176800D03*
X0079700Y0186800D03*
X0079700Y0196800D03*
X0079700Y0206800D03*
X0079700Y0216800D03*
X0069700Y0216800D03*
X0069700Y0206800D03*
X0069700Y0196800D03*
X0059700Y0216800D03*
X0059700Y0226800D03*
X0049700Y0226800D03*
X0049700Y0216800D03*
X0039700Y0216800D03*
X0039700Y0226800D03*
X0069700Y0226800D03*
X0029700Y0196800D03*
X0029700Y0146800D03*
X0029700Y0136800D03*
X0019700Y0136800D03*
X0019700Y0126800D03*
X0019700Y0116800D03*
X0019700Y0106800D03*
X0029700Y0106800D03*
X0029700Y0096800D03*
X0039700Y0096800D03*
X0039700Y0106800D03*
X0049700Y0106800D03*
X0049700Y0096800D03*
X0059700Y0096800D03*
X0059700Y0106800D03*
X0069700Y0106800D03*
X0069700Y0096800D03*
X0079700Y0106800D03*
X0079700Y0116800D03*
X0079700Y0126800D03*
X0079700Y0136800D03*
X0069700Y0136800D03*
X0069700Y0126800D03*
X0069700Y0116800D03*
X0059700Y0136800D03*
X0059700Y0146800D03*
X0049700Y0146800D03*
X0049700Y0136800D03*
X0039700Y0136800D03*
X0039700Y0146800D03*
X0069700Y0146800D03*
X0029700Y0116800D03*
D23*
X0029700Y0126800D03*
X0029700Y0206800D03*
X0029700Y0296800D03*
X0029700Y0376800D03*
X0269700Y0136800D03*
X0269700Y0126800D03*
X0524700Y0431800D03*
X0554700Y0431800D03*
X0554700Y0491800D03*
X0524700Y0491800D03*
X0563700Y0566800D03*
X0573700Y0566800D03*
D24*
X0569700Y0557312D03*
X0569700Y0546288D03*
X0569700Y0581288D03*
X0569700Y0592312D03*
X0534700Y0616288D03*
X0534700Y0627312D03*
X0534700Y0666288D03*
X0534700Y0677312D03*
X0542700Y0716288D03*
X0542700Y0727312D03*
X0539700Y0761788D03*
X0539700Y0772812D03*
X0534700Y0816288D03*
X0534700Y0827312D03*
X0564700Y0822312D03*
X0564700Y0811288D03*
X0594700Y0811288D03*
X0594700Y0822312D03*
X0629700Y0827312D03*
X0629700Y0816288D03*
X0628200Y0772312D03*
X0628200Y0761288D03*
X0599700Y0762312D03*
X0599700Y0751288D03*
X0599700Y0732312D03*
X0599700Y0721288D03*
X0619200Y0649312D03*
X0619200Y0638288D03*
X0643200Y0631312D03*
X0643200Y0620288D03*
X0713700Y0622312D03*
X0713700Y0611288D03*
X0717200Y0650788D03*
X0717200Y0661812D03*
X0717200Y0671288D03*
X0717200Y0682312D03*
X0714700Y0710288D03*
X0714700Y0721312D03*
X0715200Y0759288D03*
X0715200Y0770312D03*
X0522200Y0579812D03*
X0522200Y0568788D03*
X0534700Y0534812D03*
X0534700Y0523788D03*
X0479200Y0507312D03*
X0479200Y0496288D03*
X0418700Y0496288D03*
X0418700Y0507312D03*
X0481200Y0427312D03*
X0490200Y0427312D03*
X0490200Y0416288D03*
X0481200Y0416288D03*
X0529700Y0390312D03*
X0529700Y0379288D03*
X0519700Y0317312D03*
X0519700Y0306288D03*
X0402700Y0292812D03*
X0402700Y0281788D03*
X0327200Y0369288D03*
X0327200Y0380312D03*
X0329700Y0421788D03*
X0329700Y0432812D03*
X0227700Y0356812D03*
X0227700Y0345788D03*
X0189700Y0349288D03*
X0189700Y0360312D03*
X0127700Y0356312D03*
X0127700Y0345288D03*
X0127700Y0286812D03*
X0127700Y0275788D03*
X0177700Y0275788D03*
X0177700Y0286812D03*
X0227700Y0286812D03*
X0227700Y0275788D03*
X0210200Y0194812D03*
X0210200Y0183788D03*
X0189700Y0137312D03*
X0189700Y0126288D03*
X0139700Y0102312D03*
X0139700Y0091288D03*
X0269700Y0106288D03*
X0269700Y0117312D03*
X0269700Y0146288D03*
X0269700Y0157312D03*
X0334700Y0097312D03*
X0334700Y0086288D03*
X0369700Y0126288D03*
X0369700Y0137312D03*
X0438700Y0102312D03*
X0438700Y0091288D03*
X0476700Y0091288D03*
X0476700Y0102312D03*
X0524700Y0102312D03*
X0524700Y0091288D03*
X0614700Y0087312D03*
X0614700Y0076288D03*
X0661700Y0186288D03*
X0661700Y0197312D03*
X0689700Y0278288D03*
X0689700Y0289312D03*
X0737200Y0358788D03*
X0737200Y0369812D03*
X0779700Y0397288D03*
X0779700Y0408312D03*
X0779700Y0426288D03*
X0779700Y0437312D03*
X0714700Y0476788D03*
X0714700Y0487812D03*
X0664700Y0464312D03*
X0664700Y0453288D03*
X0621700Y0521288D03*
X0621700Y0532312D03*
X0554700Y0463812D03*
X0554700Y0452788D03*
X0764700Y0199312D03*
X0764700Y0188288D03*
X0804700Y0182312D03*
X0804700Y0171288D03*
X0796200Y0124812D03*
X0796200Y0113788D03*
X0796700Y0048312D03*
X0796700Y0037288D03*
X0492700Y0714788D03*
X0492700Y0725812D03*
X0490200Y0825288D03*
X0490200Y0836312D03*
X0429200Y0835812D03*
X0429200Y0824788D03*
X0038700Y0603312D03*
X0038700Y0592288D03*
D25*
X0749700Y0336800D03*
X0749700Y0326800D03*
X0749700Y0316800D03*
X0759700Y0316800D03*
X0759700Y0326800D03*
X0759700Y0336800D03*
X0759700Y0306800D03*
X0759700Y0296800D03*
X0759700Y0286800D03*
X0759700Y0276800D03*
X0759700Y0266800D03*
X0759700Y0256800D03*
X0759700Y0246800D03*
X0749700Y0246800D03*
X0749700Y0256800D03*
X0749700Y0266800D03*
X0749700Y0276800D03*
X0749700Y0286800D03*
X0749700Y0296800D03*
X0749700Y0306800D03*
X0804700Y0381800D03*
X0804700Y0391800D03*
X0804700Y0401800D03*
X0804700Y0411800D03*
X0804700Y0421800D03*
X0814700Y0421800D03*
X0814700Y0411800D03*
X0814700Y0401800D03*
X0814700Y0391800D03*
X0814700Y0381800D03*
X0814700Y0431800D03*
X0814700Y0441800D03*
X0814700Y0451800D03*
X0814700Y0461800D03*
X0814700Y0471800D03*
X0814700Y0481800D03*
X0814700Y0491800D03*
X0804700Y0491800D03*
X0804700Y0481800D03*
X0804700Y0471800D03*
X0804700Y0461800D03*
X0804700Y0451800D03*
X0804700Y0441800D03*
X0804700Y0431800D03*
X0804700Y0501800D03*
X0804700Y0511800D03*
X0804700Y0521800D03*
X0804700Y0531800D03*
X0804700Y0541800D03*
X0804700Y0551800D03*
X0804700Y0561800D03*
X0814700Y0561800D03*
X0814700Y0551800D03*
X0814700Y0541800D03*
X0814700Y0531800D03*
X0814700Y0521800D03*
X0814700Y0511800D03*
X0814700Y0501800D03*
X0814700Y0571800D03*
X0814700Y0581800D03*
X0814700Y0591800D03*
X0814700Y0601800D03*
X0814700Y0611800D03*
X0814700Y0621800D03*
X0804700Y0621800D03*
X0804700Y0611800D03*
X0804700Y0601800D03*
X0804700Y0591800D03*
X0804700Y0581800D03*
X0804700Y0571800D03*
X0799700Y0791800D03*
X0799700Y0801800D03*
X0799700Y0811800D03*
X0809700Y0811800D03*
X0809700Y0801800D03*
X0809700Y0791800D03*
D26*
X0510200Y0521568D03*
X0510200Y0505032D03*
X0509700Y0495068D03*
X0509700Y0478532D03*
X0509700Y0460068D03*
X0509700Y0443532D03*
X0457700Y0435568D03*
X0457700Y0419032D03*
X0592200Y0418532D03*
X0592200Y0435068D03*
X0724700Y0374568D03*
X0724700Y0358032D03*
X0764700Y0368532D03*
X0764700Y0385068D03*
X0764700Y0393532D03*
X0764700Y0410068D03*
X0764700Y0418532D03*
X0764700Y0435068D03*
X0764700Y0443532D03*
X0764700Y0460068D03*
X0799700Y0342568D03*
X0799700Y0326032D03*
X0799700Y0315068D03*
X0799700Y0298532D03*
X0799700Y0287068D03*
X0799700Y0270532D03*
X0799700Y0215068D03*
X0799700Y0198532D03*
X0699200Y0273532D03*
X0699200Y0290068D03*
D27*
X0853893Y0162686D03*
X0863735Y0162686D03*
X0863735Y0135914D03*
X0853893Y0135914D03*
X0853893Y0087686D03*
X0863735Y0087686D03*
X0863735Y0060914D03*
X0853893Y0060914D03*
X0853893Y0663414D03*
X0863735Y0663414D03*
X0863735Y0671682D03*
X0853893Y0674044D03*
X0853893Y0681918D03*
X0853893Y0690186D03*
X0863735Y0690186D03*
X0863735Y0681918D03*
X0863735Y0738414D03*
X0863735Y0746682D03*
X0853893Y0749044D03*
X0853893Y0756918D03*
X0853893Y0765186D03*
X0863735Y0765186D03*
X0863735Y0756918D03*
X0853893Y0738414D03*
D28*
X0878696Y0749422D02*
X0878696Y0754178D01*
X0878696Y0679178D02*
X0878696Y0674422D01*
X0878696Y0151678D02*
X0878696Y0146922D01*
X0878696Y0076678D02*
X0878696Y0071922D01*
D29*
X0178200Y0236040D03*
D30*
X0178200Y0157300D03*
D31*
X0858200Y0215600D03*
X0858200Y0367900D03*
X0858200Y0424200D03*
X0858200Y0609400D03*
D32*
X0779700Y0483828D03*
D33*
X0779700Y0449772D03*
D34*
X0630527Y0451800D03*
X0630527Y0435265D03*
X0630527Y0418729D03*
X0630527Y0402194D03*
X0608873Y0402194D03*
X0608873Y0418729D03*
X0608873Y0435265D03*
X0608873Y0451800D03*
X0608873Y0468335D03*
X0608873Y0484871D03*
X0608873Y0501406D03*
X0630527Y0501406D03*
X0630527Y0484871D03*
X0630527Y0468335D03*
D35*
X0614700Y0321800D03*
X0584700Y0791800D03*
D36*
X0584700Y0671800D03*
X0614700Y0231800D03*
D37*
X0722405Y0846800D03*
X0741995Y0846800D03*
X0774905Y0846800D03*
X0794495Y0846800D03*
D38*
X0659700Y0554600D02*
X0659700Y0549000D01*
X0649700Y0549000D02*
X0649700Y0554600D01*
X0729700Y0024600D02*
X0729700Y0019000D01*
X0739700Y0019000D02*
X0739700Y0024600D01*
D39*
X0834700Y0114300D03*
X0881200Y0024300D03*
X0834700Y0258800D03*
X0834700Y0469300D03*
X0834700Y0584300D03*
X0834700Y0689800D03*
X0824700Y0771800D03*
X0881200Y0856800D03*
D40*
X0845700Y0812300D03*
X0845700Y0806300D03*
X0829700Y0800300D03*
X0829700Y0794300D03*
D41*
X0829700Y0797300D03*
X0845700Y0809300D03*
D42*
X0854098Y0810957D02*
X0854098Y0816894D01*
X0861184Y0818831D02*
X0861184Y0824769D01*
X0875751Y0816894D02*
X0875751Y0810957D01*
X0885200Y0818831D02*
X0885200Y0824769D01*
X0839531Y0824769D02*
X0839531Y0818831D01*
D43*
X0070700Y0411800D03*
X0064700Y0411800D03*
X0058700Y0411800D03*
X0040700Y0076800D03*
X0034700Y0076800D03*
X0028700Y0076800D03*
D44*
X0022700Y0076800D03*
X0049700Y0076800D03*
X0012311Y0121800D03*
X0012311Y0131800D03*
X0013500Y0171800D03*
X0023289Y0179800D03*
X0011111Y0201800D03*
X0012311Y0212300D03*
X0016111Y0231800D03*
X0029700Y0253800D03*
X0011111Y0291800D03*
X0012311Y0301800D03*
X0053500Y0326800D03*
X0059700Y0329800D03*
X0069700Y0336889D03*
X0065089Y0361987D03*
X0045200Y0391800D03*
X0054700Y0404300D03*
X0059700Y0404800D03*
X0053200Y0411800D03*
X0014700Y0371800D03*
X0012311Y0361800D03*
X0111700Y0386800D03*
X0114089Y0389800D03*
X0116478Y0392800D03*
X0118867Y0395800D03*
X0121256Y0398800D03*
X0124200Y0401300D03*
X0124200Y0406800D03*
X0124856Y0412300D03*
X0131700Y0424300D03*
X0133200Y0434300D03*
X0139622Y0433101D03*
X0143200Y0433300D03*
X0147700Y0434300D03*
X0147700Y0429300D03*
X0147700Y0424300D03*
X0147700Y0419300D03*
X0161611Y0439300D03*
X0169200Y0444300D03*
X0169200Y0434300D03*
X0169200Y0424300D03*
X0192200Y0434300D03*
X0194700Y0429300D03*
X0197700Y0439300D03*
X0210200Y0444300D03*
X0215200Y0444300D03*
X0212700Y0454189D03*
X0228439Y0464300D03*
X0230828Y0470300D03*
X0236978Y0451800D03*
X0244700Y0449300D03*
X0247700Y0454300D03*
X0260200Y0449300D03*
X0260200Y0444300D03*
X0260200Y0439300D03*
X0260200Y0434300D03*
X0260200Y0429300D03*
X0260200Y0424300D03*
X0260200Y0419300D03*
X0273711Y0416800D03*
X0274700Y0421800D03*
X0276111Y0426800D03*
X0275700Y0436800D03*
X0272700Y0441800D03*
X0279700Y0448800D03*
X0279889Y0452489D03*
X0281700Y0455878D03*
X0281689Y0459456D03*
X0286803Y0458403D03*
X0291381Y0459478D03*
X0294958Y0460678D03*
X0304700Y0437300D03*
X0307200Y0434300D03*
X0309700Y0431300D03*
X0312200Y0428300D03*
X0314700Y0425300D03*
X0317200Y0422300D03*
X0319700Y0418800D03*
X0322200Y0415800D03*
X0329700Y0412800D03*
X0341589Y0409300D03*
X0347567Y0403300D03*
X0338700Y0399300D03*
X0327200Y0386800D03*
X0324700Y0362300D03*
X0329700Y0362300D03*
X0336200Y0363800D03*
X0341589Y0363800D03*
X0334700Y0349800D03*
X0330200Y0338300D03*
X0346378Y0331800D03*
X0349700Y0324300D03*
X0354700Y0329300D03*
X0357200Y0319300D03*
X0362700Y0314300D03*
X0362700Y0309300D03*
X0377311Y0321822D03*
X0401700Y0315800D03*
X0404700Y0318300D03*
X0412200Y0324322D03*
X0414200Y0334800D03*
X0417851Y0334649D03*
X0413200Y0341800D03*
X0407089Y0339300D03*
X0406622Y0359300D03*
X0413011Y0364300D03*
X0408233Y0371800D03*
X0409700Y0381800D03*
X0394311Y0374300D03*
X0389700Y0380300D03*
X0382700Y0381800D03*
X0381811Y0376800D03*
X0390089Y0360378D03*
X0389700Y0356800D03*
X0374700Y0356300D03*
X0364700Y0349300D03*
X0359700Y0349300D03*
X0354700Y0349300D03*
X0349700Y0349300D03*
X0369700Y0391800D03*
X0369700Y0396800D03*
X0369700Y0401800D03*
X0369700Y0406800D03*
X0369700Y0411800D03*
X0369700Y0416800D03*
X0369700Y0421800D03*
X0369700Y0426800D03*
X0369700Y0431800D03*
X0377200Y0449800D03*
X0349700Y0416800D03*
X0352700Y0414300D03*
X0329700Y0441800D03*
X0324700Y0441800D03*
X0334700Y0454300D03*
X0349889Y0490911D03*
X0398200Y0498089D03*
X0418700Y0490300D03*
X0429200Y0501800D03*
X0445950Y0521550D03*
X0464700Y0491800D03*
X0479200Y0473800D03*
X0484700Y0473800D03*
X0489700Y0481800D03*
X0499700Y0476800D03*
X0488200Y0494800D03*
X0516200Y0514189D03*
X0510200Y0526300D03*
X0516200Y0531800D03*
X0508700Y0541300D03*
X0529700Y0541800D03*
X0529700Y0546800D03*
X0534700Y0541800D03*
X0534700Y0561800D03*
X0539700Y0561800D03*
X0553200Y0566800D03*
X0553200Y0576800D03*
X0553200Y0581800D03*
X0540200Y0596800D03*
X0534700Y0591800D03*
X0529700Y0591800D03*
X0534700Y0571800D03*
X0516200Y0566800D03*
X0511700Y0574300D03*
X0512700Y0579800D03*
X0508700Y0584800D03*
X0517200Y0609300D03*
X0528700Y0614300D03*
X0512200Y0621800D03*
X0511200Y0626800D03*
X0511200Y0631800D03*
X0508700Y0636800D03*
X0506200Y0624300D03*
X0505389Y0616800D03*
X0482311Y0629189D03*
X0474700Y0616800D03*
X0452700Y0599189D03*
X0449700Y0602300D03*
X0444700Y0601800D03*
X0447311Y0596800D03*
X0447089Y0582300D03*
X0414700Y0581800D03*
X0419700Y0621800D03*
X0394700Y0626800D03*
X0419700Y0656800D03*
X0444200Y0661800D03*
X0447700Y0664411D03*
X0454700Y0691800D03*
X0454700Y0706800D03*
X0472200Y0714411D03*
X0484700Y0721800D03*
X0492700Y0732300D03*
X0484700Y0736800D03*
X0484700Y0746800D03*
X0483200Y0751100D03*
X0486700Y0753989D03*
X0516200Y0744300D03*
X0516200Y0739300D03*
X0529200Y0724300D03*
X0516200Y0719300D03*
X0501200Y0716800D03*
X0516200Y0694300D03*
X0516200Y0674300D03*
X0516200Y0669300D03*
X0528700Y0664300D03*
X0511389Y0658356D03*
X0534700Y0634300D03*
X0540700Y0649300D03*
X0553200Y0664300D03*
X0555700Y0669300D03*
X0564700Y0684300D03*
X0555700Y0691800D03*
X0540200Y0689300D03*
X0534700Y0684300D03*
X0540200Y0699300D03*
X0537200Y0708300D03*
X0553200Y0714300D03*
X0555700Y0719300D03*
X0553200Y0734300D03*
X0540200Y0739300D03*
X0540200Y0749300D03*
X0553200Y0764300D03*
X0553200Y0769300D03*
X0569700Y0767800D03*
X0584700Y0767800D03*
X0585200Y0775989D03*
X0588200Y0778567D03*
X0590972Y0773300D03*
X0593538Y0770489D03*
X0599700Y0767800D03*
X0599700Y0745800D03*
X0599700Y0738800D03*
X0609700Y0727800D03*
X0599700Y0715300D03*
X0596189Y0711800D03*
X0600700Y0709189D03*
X0584700Y0715300D03*
X0584700Y0738800D03*
X0584700Y0744800D03*
X0577200Y0742800D03*
X0569700Y0744800D03*
X0569700Y0738800D03*
X0533700Y0772800D03*
X0528700Y0764300D03*
X0516200Y0774300D03*
X0516200Y0779300D03*
X0516200Y0794300D03*
X0525700Y0807800D03*
X0528700Y0814300D03*
X0516200Y0819300D03*
X0516200Y0824300D03*
X0516200Y0829300D03*
X0514700Y0846800D03*
X0534700Y0834300D03*
X0553700Y0839300D03*
X0557200Y0841800D03*
X0553200Y0849300D03*
X0564700Y0828800D03*
X0553200Y0819300D03*
X0553200Y0814300D03*
X0564700Y0804800D03*
X0566200Y0796800D03*
X0574700Y0800800D03*
X0584700Y0804300D03*
X0602200Y0811300D03*
X0604200Y0816300D03*
X0602200Y0821300D03*
X0584700Y0828800D03*
X0578700Y0831300D03*
X0599700Y0846300D03*
X0636700Y0841300D03*
X0629700Y0810800D03*
X0654200Y0789300D03*
X0679700Y0809800D03*
X0679700Y0836800D03*
X0708700Y0794300D03*
X0724700Y0784300D03*
X0722200Y0779300D03*
X0725700Y0776689D03*
X0721700Y0769300D03*
X0721700Y0759300D03*
X0729700Y0751800D03*
X0720700Y0744300D03*
X0708700Y0739300D03*
X0698200Y0742300D03*
X0689700Y0724300D03*
X0720700Y0719300D03*
X0729700Y0719300D03*
X0725700Y0729300D03*
X0742311Y0725800D03*
X0743700Y0729300D03*
X0720700Y0709300D03*
X0719700Y0689300D03*
X0723200Y0671800D03*
X0723511Y0661800D03*
X0732200Y0651800D03*
X0724700Y0644300D03*
X0719700Y0644300D03*
X0719700Y0629300D03*
X0724700Y0629300D03*
X0722017Y0611800D03*
X0722017Y0601800D03*
X0719700Y0584800D03*
X0724700Y0576800D03*
X0698630Y0580730D03*
X0692941Y0583041D03*
X0688501Y0584101D03*
X0687089Y0578756D03*
X0692062Y0577162D03*
X0690667Y0571800D03*
X0687089Y0571800D03*
X0687089Y0567101D03*
X0689700Y0561111D03*
X0689700Y0551800D03*
X0686200Y0541800D03*
X0686200Y0536800D03*
X0702644Y0531800D03*
X0707422Y0526800D03*
X0712200Y0521800D03*
X0717200Y0516800D03*
X0714700Y0511800D03*
X0709811Y0506800D03*
X0705033Y0501800D03*
X0699700Y0496800D03*
X0714700Y0494300D03*
X0724700Y0506800D03*
X0727200Y0499300D03*
X0729700Y0494411D03*
X0737200Y0496800D03*
X0732200Y0504300D03*
X0739700Y0511800D03*
X0734700Y0516800D03*
X0727411Y0526800D03*
X0727411Y0534300D03*
X0737200Y0536800D03*
X0734700Y0541800D03*
X0749700Y0531800D03*
X0758200Y0548800D03*
X0753200Y0558300D03*
X0744700Y0555800D03*
X0769700Y0556800D03*
X0784200Y0563800D03*
X0783700Y0581800D03*
X0793311Y0601800D03*
X0769700Y0601800D03*
X0769700Y0641800D03*
X0772311Y0651800D03*
X0742089Y0676800D03*
X0742089Y0680378D03*
X0760200Y0694800D03*
X0764700Y0736300D03*
X0764700Y0740800D03*
X0740700Y0759300D03*
X0741200Y0769300D03*
X0744200Y0781800D03*
X0742700Y0794300D03*
X0764700Y0791800D03*
X0769700Y0771800D03*
X0794700Y0782300D03*
X0708389Y0776800D03*
X0679700Y0755300D03*
X0657200Y0727800D03*
X0647200Y0741800D03*
X0628200Y0754800D03*
X0636700Y0716300D03*
X0629700Y0698800D03*
X0619700Y0706800D03*
X0617170Y0704270D03*
X0614700Y0695800D03*
X0613700Y0686300D03*
X0611200Y0681800D03*
X0603700Y0689300D03*
X0600200Y0691800D03*
X0623200Y0687300D03*
X0636700Y0666300D03*
X0634700Y0655300D03*
X0639700Y0655300D03*
X0629700Y0655300D03*
X0619700Y0655300D03*
X0607211Y0657800D03*
X0605700Y0636800D03*
X0604700Y0631800D03*
X0604700Y0626800D03*
X0604700Y0621800D03*
X0604200Y0616800D03*
X0603200Y0611800D03*
X0602200Y0606800D03*
X0600700Y0601800D03*
X0599700Y0596800D03*
X0592700Y0588300D03*
X0584601Y0575701D03*
X0584700Y0571800D03*
X0580299Y0572399D03*
X0569700Y0602300D03*
X0576200Y0606800D03*
X0569700Y0611800D03*
X0569700Y0616800D03*
X0569700Y0626800D03*
X0579700Y0644300D03*
X0567700Y0663800D03*
X0619200Y0631800D03*
X0627100Y0621800D03*
X0643200Y0613800D03*
X0649700Y0631800D03*
X0663200Y0636800D03*
X0669700Y0639300D03*
X0681200Y0634300D03*
X0690200Y0609300D03*
X0663200Y0666300D03*
X0662200Y0686800D03*
X0669700Y0698800D03*
X0623723Y0596800D03*
X0620145Y0596800D03*
X0616567Y0596800D03*
X0612989Y0596800D03*
X0629700Y0592300D03*
X0612700Y0538800D03*
X0628200Y0531300D03*
X0640427Y0534027D03*
X0646617Y0531217D03*
X0596200Y0500800D03*
X0579700Y0506800D03*
X0577011Y0509489D03*
X0563200Y0519911D03*
X0560700Y0516800D03*
X0557700Y0514300D03*
X0554700Y0511800D03*
X0566200Y0524300D03*
X0554700Y0531800D03*
X0559700Y0536800D03*
X0559700Y0546800D03*
X0553200Y0551800D03*
X0569700Y0540300D03*
X0594700Y0541300D03*
X0534700Y0496800D03*
X0537089Y0490800D03*
X0542200Y0486800D03*
X0539478Y0483300D03*
X0554700Y0478800D03*
X0540700Y0461800D03*
X0543089Y0446800D03*
X0546200Y0444300D03*
X0549589Y0439411D03*
X0554700Y0444300D03*
X0563700Y0441800D03*
X0566700Y0431300D03*
X0571700Y0424300D03*
X0559700Y0418322D03*
X0559700Y0396800D03*
X0559700Y0391800D03*
X0554700Y0396800D03*
X0549700Y0396800D03*
X0544700Y0396800D03*
X0539700Y0396800D03*
X0534700Y0396800D03*
X0529700Y0396800D03*
X0524700Y0411800D03*
X0514700Y0418800D03*
X0494700Y0397300D03*
X0474700Y0391800D03*
X0474700Y0381800D03*
X0474700Y0376800D03*
X0456789Y0356800D03*
X0456089Y0351800D03*
X0447200Y0366800D03*
X0446700Y0371800D03*
X0439700Y0361800D03*
X0444700Y0351800D03*
X0439700Y0341800D03*
X0442200Y0324300D03*
X0447200Y0319300D03*
X0449700Y0314300D03*
X0444700Y0309300D03*
X0441200Y0304300D03*
X0438811Y0297800D03*
X0438700Y0291800D03*
X0435700Y0286800D03*
X0433200Y0281800D03*
X0409700Y0281800D03*
X0412700Y0298300D03*
X0416700Y0299300D03*
X0433200Y0311800D03*
X0434700Y0318222D03*
X0434700Y0321800D03*
X0453700Y0324300D03*
X0460700Y0326800D03*
X0460700Y0316800D03*
X0479700Y0339300D03*
X0487200Y0336800D03*
X0492700Y0344300D03*
X0497200Y0341800D03*
X0489700Y0326800D03*
X0489700Y0319778D03*
X0494700Y0311800D03*
X0499700Y0313800D03*
X0502371Y0311411D03*
X0507200Y0306300D03*
X0499700Y0296800D03*
X0484700Y0296800D03*
X0474700Y0282800D03*
X0465200Y0284411D03*
X0460700Y0286800D03*
X0459700Y0282022D03*
X0462261Y0279239D03*
X0460700Y0296800D03*
X0519700Y0296800D03*
X0529700Y0296800D03*
X0534700Y0296800D03*
X0542200Y0306800D03*
X0549700Y0296800D03*
X0544700Y0282800D03*
X0549700Y0266800D03*
X0564700Y0266800D03*
X0574700Y0262189D03*
X0589289Y0262189D03*
X0600200Y0271800D03*
X0603192Y0269111D03*
X0597011Y0274800D03*
X0587289Y0279800D03*
X0589700Y0296800D03*
X0564700Y0296800D03*
X0566200Y0311800D03*
X0574700Y0321800D03*
X0557200Y0334300D03*
X0549700Y0329300D03*
X0544700Y0334300D03*
X0542200Y0349300D03*
X0534700Y0346800D03*
X0529700Y0366800D03*
X0529700Y0371800D03*
X0539700Y0376800D03*
X0554700Y0359300D03*
X0559700Y0361800D03*
X0564700Y0351800D03*
X0592200Y0386800D03*
X0579200Y0403800D03*
X0569700Y0396800D03*
X0571700Y0451800D03*
X0567450Y0457050D03*
X0594700Y0456800D03*
X0647922Y0439800D03*
X0650311Y0443300D03*
X0652700Y0446800D03*
X0664700Y0446078D03*
X0664700Y0437300D03*
X0655500Y0422889D03*
X0649611Y0425689D03*
X0664700Y0400300D03*
X0649834Y0381300D03*
X0652223Y0377464D03*
X0654612Y0374300D03*
X0657001Y0362300D03*
X0641456Y0361800D03*
X0629700Y0366800D03*
X0627089Y0371800D03*
X0624700Y0376800D03*
X0628700Y0386800D03*
X0635489Y0380513D03*
X0639067Y0381300D03*
X0624700Y0357889D03*
X0665700Y0344300D03*
X0668700Y0349300D03*
X0677200Y0350389D03*
X0673661Y0357839D03*
X0687700Y0351800D03*
X0681089Y0341800D03*
X0681122Y0337800D03*
X0681200Y0333722D03*
X0688200Y0333300D03*
X0689700Y0325800D03*
X0699700Y0311800D03*
X0704700Y0311800D03*
X0709700Y0306800D03*
X0709700Y0301800D03*
X0696200Y0306689D03*
X0692622Y0306689D03*
X0689044Y0306689D03*
X0685466Y0306689D03*
X0692200Y0296300D03*
X0709700Y0286800D03*
X0723200Y0281800D03*
X0723200Y0271800D03*
X0734700Y0251800D03*
X0731589Y0249411D03*
X0707200Y0234300D03*
X0702700Y0236800D03*
X0691786Y0239300D03*
X0680900Y0241811D03*
X0684700Y0248300D03*
X0664700Y0248300D03*
X0661700Y0264300D03*
X0664200Y0267300D03*
X0666822Y0269800D03*
X0676111Y0276800D03*
X0664700Y0286800D03*
X0659289Y0291800D03*
X0642700Y0265300D03*
X0645700Y0255300D03*
X0639700Y0231800D03*
X0649700Y0217389D03*
X0649700Y0205300D03*
X0644700Y0205300D03*
X0664700Y0206800D03*
X0674700Y0191800D03*
X0661700Y0179411D03*
X0679700Y0171800D03*
X0694700Y0166800D03*
X0679700Y0151800D03*
X0679700Y0146800D03*
X0674700Y0154300D03*
X0656700Y0146800D03*
X0652200Y0144411D03*
X0644700Y0128300D03*
X0647200Y0123800D03*
X0642200Y0121800D03*
X0647200Y0111800D03*
X0652200Y0108800D03*
X0654700Y0126800D03*
X0659700Y0128189D03*
X0664700Y0128189D03*
X0669700Y0128189D03*
X0674700Y0105300D03*
X0684700Y0105300D03*
X0672700Y0079300D03*
X0689700Y0076800D03*
X0682200Y0064300D03*
X0669700Y0036800D03*
X0664700Y0036800D03*
X0659700Y0036800D03*
X0679700Y0034411D03*
X0694700Y0036800D03*
X0699700Y0039300D03*
X0704700Y0041800D03*
X0724700Y0054300D03*
X0727200Y0058300D03*
X0729700Y0061800D03*
X0713200Y0076800D03*
X0719700Y0101300D03*
X0714700Y0111800D03*
X0709700Y0121800D03*
X0734700Y0106800D03*
X0739700Y0106800D03*
X0744700Y0126800D03*
X0754700Y0126800D03*
X0774700Y0141800D03*
X0794700Y0141800D03*
X0794700Y0146800D03*
X0794700Y0156800D03*
X0804700Y0161800D03*
X0793700Y0171800D03*
X0779700Y0166800D03*
X0759700Y0166800D03*
X0754700Y0169300D03*
X0749700Y0161800D03*
X0742200Y0161300D03*
X0744700Y0168800D03*
X0734700Y0151800D03*
X0737200Y0146800D03*
X0714700Y0151800D03*
X0712200Y0156800D03*
X0712200Y0161800D03*
X0712200Y0166800D03*
X0712200Y0176800D03*
X0709700Y0181800D03*
X0707200Y0186800D03*
X0704700Y0191800D03*
X0694700Y0191800D03*
X0694700Y0186800D03*
X0694700Y0181800D03*
X0694700Y0176800D03*
X0694700Y0196800D03*
X0685700Y0205800D03*
X0683700Y0215000D03*
X0688200Y0227300D03*
X0699700Y0224800D03*
X0709700Y0222300D03*
X0718200Y0213800D03*
X0732200Y0210800D03*
X0744700Y0191800D03*
X0754700Y0191800D03*
X0764700Y0180300D03*
X0786311Y0196800D03*
X0791700Y0214800D03*
X0799700Y0223800D03*
X0781200Y0222300D03*
X0769700Y0239300D03*
X0764700Y0236800D03*
X0764700Y0205800D03*
X0822200Y0254300D03*
X0823700Y0274300D03*
X0792139Y0337739D03*
X0791700Y0342800D03*
X0791700Y0352800D03*
X0769700Y0343800D03*
X0757200Y0359489D03*
X0730700Y0356800D03*
X0714567Y0359300D03*
X0712178Y0363800D03*
X0707289Y0356800D03*
X0703389Y0344800D03*
X0674589Y0340389D03*
X0709700Y0391800D03*
X0708200Y0398300D03*
X0704200Y0397800D03*
X0704700Y0401800D03*
X0706200Y0406800D03*
X0707200Y0411800D03*
X0704700Y0421800D03*
X0702200Y0426800D03*
X0699700Y0431800D03*
X0683700Y0436800D03*
X0686200Y0441800D03*
X0683700Y0451300D03*
X0689700Y0463100D03*
X0714700Y0469211D03*
X0725200Y0466300D03*
X0729700Y0478300D03*
X0744700Y0463800D03*
X0734700Y0456800D03*
X0724700Y0441800D03*
X0740700Y0437300D03*
X0741044Y0424401D03*
X0741122Y0420601D03*
X0741200Y0416300D03*
X0741092Y0412300D03*
X0741170Y0408330D03*
X0741200Y0404300D03*
X0739700Y0396800D03*
X0749700Y0401800D03*
X0734700Y0378300D03*
X0788700Y0396800D03*
X0786200Y0426300D03*
X0770200Y0426800D03*
X0789200Y0442300D03*
X0788111Y0448800D03*
X0794700Y0460800D03*
X0794200Y0465300D03*
X0763200Y0467800D03*
X0764700Y0455300D03*
X0749700Y0506800D03*
X0749700Y0511800D03*
X0664700Y0482800D03*
X0524700Y0478800D03*
X0509700Y0449800D03*
X0489700Y0451800D03*
X0479700Y0441800D03*
X0474700Y0429300D03*
X0474200Y0418300D03*
X0449700Y0415800D03*
X0460700Y0396800D03*
X0419700Y0436800D03*
X0457700Y0441800D03*
X0457200Y0456800D03*
X0449700Y0466800D03*
X0446700Y0471800D03*
X0528700Y0521800D03*
X0548200Y0606800D03*
X0447700Y0631800D03*
X0392700Y0666800D03*
X0354700Y0711800D03*
X0359050Y0741800D03*
X0354700Y0751800D03*
X0386200Y0761800D03*
X0389700Y0754800D03*
X0392200Y0769411D03*
X0384700Y0776800D03*
X0414700Y0786800D03*
X0429200Y0818800D03*
X0454700Y0832189D03*
X0490200Y0819189D03*
X0476111Y0791800D03*
X0454700Y0781800D03*
X0538200Y0789300D03*
X0553200Y0789300D03*
X0553200Y0799300D03*
X0349700Y0826800D03*
X0194700Y0816800D03*
X0194700Y0771800D03*
X0194700Y0741800D03*
X0194700Y0701800D03*
X0194700Y0671800D03*
X0194700Y0641800D03*
X0194700Y0601800D03*
X0194700Y0574411D03*
X0200700Y0556800D03*
X0164700Y0521800D03*
X0121200Y0556300D03*
X0114700Y0574411D03*
X0114700Y0601800D03*
X0114700Y0641800D03*
X0114700Y0671800D03*
X0114700Y0701800D03*
X0114700Y0741800D03*
X0114700Y0771800D03*
X0065200Y0709300D03*
X0065200Y0699300D03*
X0052700Y0704300D03*
X0052700Y0714300D03*
X0042700Y0746800D03*
X0044700Y0786800D03*
X0075911Y0649300D03*
X0059700Y0639300D03*
X0059700Y0629300D03*
X0057200Y0619300D03*
X0057200Y0609300D03*
X0062700Y0604300D03*
X0037200Y0609300D03*
X0037200Y0614300D03*
X0029200Y0599300D03*
X0037200Y0624300D03*
X0037200Y0634300D03*
X0037200Y0644300D03*
X0059700Y0526800D03*
X0059700Y0521800D03*
X0135700Y0454300D03*
X0133511Y0445989D03*
X0147700Y0444300D03*
X0169200Y0454300D03*
X0184700Y0454300D03*
X0189700Y0449300D03*
X0218200Y0434300D03*
X0219200Y0424300D03*
X0210200Y0424300D03*
X0210200Y0419300D03*
X0220700Y0410611D03*
X0224200Y0413000D03*
X0228100Y0415300D03*
X0232200Y0419300D03*
X0237200Y0429300D03*
X0232200Y0431800D03*
X0234589Y0441800D03*
X0240700Y0439300D03*
X0272511Y0411800D03*
X0271200Y0406800D03*
X0270111Y0401800D03*
X0268911Y0396800D03*
X0267711Y0391800D03*
X0264700Y0381800D03*
X0258311Y0384300D03*
X0261200Y0374300D03*
X0258200Y0369300D03*
X0244700Y0364300D03*
X0242200Y0369300D03*
X0238700Y0376800D03*
X0245200Y0379300D03*
X0239700Y0384300D03*
X0221200Y0379300D03*
X0218200Y0374300D03*
X0213700Y0369300D03*
X0211200Y0374300D03*
X0208200Y0379300D03*
X0195200Y0384300D03*
X0184700Y0384300D03*
X0184700Y0369300D03*
X0189700Y0369300D03*
X0208200Y0364300D03*
X0211200Y0359300D03*
X0213700Y0354300D03*
X0218200Y0359300D03*
X0221200Y0364189D03*
X0221200Y0354300D03*
X0233700Y0349300D03*
X0258200Y0354300D03*
X0261200Y0359300D03*
X0261700Y0349300D03*
X0261700Y0326800D03*
X0274200Y0314300D03*
X0264700Y0309300D03*
X0267200Y0304300D03*
X0261700Y0299300D03*
X0258700Y0304300D03*
X0245200Y0309300D03*
X0245700Y0314300D03*
X0238200Y0314300D03*
X0241200Y0299300D03*
X0245200Y0294300D03*
X0239700Y0291800D03*
X0234700Y0279300D03*
X0221200Y0284300D03*
X0218700Y0289300D03*
X0221200Y0294300D03*
X0218700Y0304300D03*
X0221200Y0309300D03*
X0208200Y0309300D03*
X0208200Y0299300D03*
X0195200Y0294300D03*
X0195200Y0289300D03*
X0187200Y0289300D03*
X0184200Y0294300D03*
X0189700Y0296800D03*
X0187200Y0304300D03*
X0192200Y0304300D03*
X0184200Y0309300D03*
X0195200Y0314300D03*
X0171200Y0314300D03*
X0158200Y0314300D03*
X0158200Y0309300D03*
X0160700Y0304300D03*
X0158200Y0294300D03*
X0160700Y0289300D03*
X0171200Y0284300D03*
X0184200Y0279300D03*
X0171200Y0299300D03*
X0160700Y0324300D03*
X0144700Y0321800D03*
X0139200Y0314300D03*
X0134200Y0304300D03*
X0140200Y0299300D03*
X0144700Y0299300D03*
X0134200Y0289300D03*
X0134200Y0279300D03*
X0141700Y0275300D03*
X0144700Y0284300D03*
X0121200Y0284300D03*
X0121200Y0294300D03*
X0121200Y0309300D03*
X0132700Y0326800D03*
X0129700Y0331800D03*
X0127700Y0338800D03*
X0134700Y0354300D03*
X0134200Y0359300D03*
X0138700Y0364300D03*
X0141700Y0369300D03*
X0134200Y0374300D03*
X0134200Y0379300D03*
X0134700Y0384300D03*
X0145700Y0384300D03*
X0158700Y0379300D03*
X0162200Y0374300D03*
X0159200Y0369300D03*
X0164700Y0364300D03*
X0168700Y0364300D03*
X0171200Y0359300D03*
X0168811Y0354300D03*
X0164700Y0359300D03*
X0159200Y0354300D03*
X0171200Y0374300D03*
X0168700Y0379300D03*
X0183700Y0349300D03*
X0208200Y0284300D03*
X0211200Y0246800D03*
X0213700Y0238800D03*
X0204700Y0216800D03*
X0208200Y0211800D03*
X0210200Y0204300D03*
X0194700Y0201800D03*
X0189700Y0206800D03*
X0171200Y0221800D03*
X0168200Y0224800D03*
X0164700Y0227300D03*
X0137700Y0241800D03*
X0124700Y0241800D03*
X0124700Y0251800D03*
X0074700Y0259189D03*
X0131700Y0153300D03*
X0149700Y0131800D03*
X0163700Y0125800D03*
X0179700Y0126800D03*
X0189700Y0119800D03*
X0189700Y0143800D03*
X0204200Y0184189D03*
X0222700Y0181800D03*
X0225200Y0186800D03*
X0227200Y0172300D03*
X0237889Y0164989D03*
X0241700Y0165800D03*
X0247549Y0170649D03*
X0248200Y0174800D03*
X0277811Y0164189D03*
X0280200Y0181800D03*
X0284700Y0184800D03*
X0287700Y0194300D03*
X0289700Y0199300D03*
X0297200Y0201800D03*
X0304700Y0204300D03*
X0302200Y0214189D03*
X0294700Y0211800D03*
X0287200Y0206800D03*
X0298011Y0191300D03*
X0309700Y0216800D03*
X0307200Y0224300D03*
X0312200Y0226800D03*
X0317200Y0229300D03*
X0314700Y0234300D03*
X0319700Y0236800D03*
X0322200Y0241800D03*
X0324700Y0246800D03*
X0329700Y0246800D03*
X0327200Y0251800D03*
X0334700Y0254300D03*
X0332200Y0258300D03*
X0337200Y0263189D03*
X0343200Y0269800D03*
X0331700Y0273500D03*
X0334200Y0279300D03*
X0334200Y0284411D03*
X0325700Y0279300D03*
X0324700Y0291800D03*
X0334200Y0304300D03*
X0362700Y0279300D03*
X0377311Y0294411D03*
X0384700Y0268800D03*
X0382200Y0265300D03*
X0379700Y0260389D03*
X0387200Y0262567D03*
X0392200Y0263767D03*
X0389700Y0269745D03*
X0397200Y0268980D03*
X0391200Y0255389D03*
X0394700Y0248189D03*
X0389800Y0245389D03*
X0387200Y0235800D03*
X0397200Y0238189D03*
X0399700Y0228189D03*
X0402200Y0216800D03*
X0404700Y0207800D03*
X0399700Y0191800D03*
X0382311Y0186800D03*
X0382200Y0196800D03*
X0382311Y0205389D03*
X0384700Y0225800D03*
X0387700Y0176800D03*
X0384700Y0166800D03*
X0384700Y0156800D03*
X0378811Y0151300D03*
X0369700Y0146300D03*
X0389611Y0146800D03*
X0387200Y0126800D03*
X0354700Y0096800D03*
X0350400Y0096800D03*
X0347230Y0099770D03*
X0344700Y0102300D03*
X0341578Y0105178D03*
X0334700Y0108300D03*
X0344700Y0131800D03*
X0357089Y0092800D03*
X0360400Y0090300D03*
X0364700Y0090300D03*
X0370200Y0090300D03*
X0374700Y0090300D03*
X0379200Y0090300D03*
X0383200Y0090300D03*
X0386811Y0090300D03*
X0390389Y0090300D03*
X0393967Y0090300D03*
X0397545Y0090300D03*
X0401200Y0083300D03*
X0397089Y0077800D03*
X0404700Y0074189D03*
X0408011Y0080300D03*
X0411589Y0077800D03*
X0418011Y0083189D03*
X0414700Y0086300D03*
X0420400Y0091300D03*
X0424700Y0088689D03*
X0427200Y0093689D03*
X0430700Y0096078D03*
X0428700Y0101800D03*
X0438700Y0108800D03*
X0445200Y0101167D03*
X0448200Y0103556D03*
X0451200Y0105945D03*
X0454200Y0111834D03*
X0457200Y0114223D03*
X0462871Y0116612D03*
X0466200Y0119501D03*
X0476700Y0108800D03*
X0476700Y0081511D03*
X0438700Y0081511D03*
X0430311Y0140411D03*
X0429111Y0146800D03*
X0424421Y0153021D03*
X0429111Y0158211D03*
X0424789Y0160800D03*
X0448789Y0142800D03*
X0499700Y0173000D03*
X0502311Y0178532D03*
X0517700Y0167300D03*
X0520900Y0170189D03*
X0517311Y0162722D03*
X0508299Y0160278D03*
X0524700Y0154300D03*
X0539200Y0196800D03*
X0544700Y0196800D03*
X0584700Y0196800D03*
X0592233Y0201800D03*
X0584700Y0206800D03*
X0594700Y0216800D03*
X0584700Y0226800D03*
X0584700Y0186800D03*
X0602889Y0170300D03*
X0600200Y0166800D03*
X0597511Y0162800D03*
X0632811Y0174300D03*
X0635200Y0169300D03*
X0634700Y0151800D03*
X0624011Y0127611D03*
X0626833Y0123091D03*
X0629222Y0119800D03*
X0632265Y0114265D03*
X0614700Y0100800D03*
X0602889Y0084800D03*
X0600200Y0081800D03*
X0614700Y0061800D03*
X0621200Y0058300D03*
X0626700Y0054300D03*
X0648700Y0071800D03*
X0655700Y0081800D03*
X0594700Y0056800D03*
X0588500Y0056800D03*
X0582311Y0054411D03*
X0579700Y0048300D03*
X0584700Y0042322D03*
X0577783Y0039717D03*
X0575223Y0033777D03*
X0562210Y0038356D03*
X0566988Y0046512D03*
X0574700Y0054300D03*
X0592200Y0049300D03*
X0544700Y0091800D03*
X0524700Y0109300D03*
X0518200Y0091300D03*
X0592089Y0106411D03*
X0444700Y0203000D03*
X0524700Y0281800D03*
X0519700Y0323800D03*
X0514700Y0341800D03*
X0689700Y0271800D03*
X0699200Y0269300D03*
X0819700Y0356800D03*
X0804200Y0124800D03*
X0777200Y0069800D03*
X0792700Y0056800D03*
X0797200Y0029800D03*
X0334700Y0075911D03*
X0262700Y0108189D03*
X0261200Y0143689D03*
X0235222Y0209581D03*
X0232200Y0213800D03*
X0237611Y0218449D03*
X0299700Y0221800D03*
X0312200Y0256300D03*
X0309700Y0259300D03*
X0307200Y0262300D03*
X0304700Y0265300D03*
X0302200Y0268300D03*
X0299700Y0271800D03*
X0274200Y0284300D03*
X0274200Y0289300D03*
X0271789Y0279300D03*
X0263200Y0279300D03*
X0258700Y0284300D03*
X0258700Y0289300D03*
X0274200Y0299300D03*
X0289700Y0348800D03*
X0299700Y0361800D03*
X0290578Y0366800D03*
X0290578Y0371800D03*
X0290578Y0376800D03*
X0290578Y0381800D03*
X0290578Y0386800D03*
X0289700Y0431800D03*
X0264700Y0491800D03*
X0349889Y0551800D03*
X0356661Y0591300D03*
X0356661Y0601800D03*
X0132200Y0103800D03*
X0132200Y0090800D03*
D45*
X0602700Y0072300D03*
X0731700Y0266800D03*
X0718700Y0374800D03*
M02*
