G04 EAGLE Gerber RS-274X export*
G75*
%MOMM*%
%FSLAX34Y34*%
%LPD*%
%INSoldermask Bottom*%
%IPPOS*%
%AMOC8*
5,1,8,0,0,1.08239X$1,22.5*%
G01*
%ADD10C,1.703200*%
%ADD11P,1.869504X8X112.500000*%
%ADD12C,2.616200*%
%ADD13C,1.828800*%
%ADD14R,1.203200X1.603200*%
%ADD15R,2.006200X1.803200*%
%ADD16C,1.727200*%
%ADD17C,2.641600*%
%ADD18C,1.524000*%
%ADD19P,1.649562X8X202.500000*%
%ADD20C,1.524000*%
%ADD21R,2.003200X1.803200*%
%ADD22P,1.759533X8X292.500000*%
%ADD23P,1.759533X8X112.500000*%
%ADD24R,1.803200X1.203200*%
%ADD25C,2.153200*%
%ADD26R,2.153200X2.153200*%
%ADD27P,1.869504X8X292.500000*%
%ADD28C,5.283200*%
%ADD29P,1.649562X8X22.500000*%
%ADD30P,1.649562X8X292.500000*%
%ADD31R,1.711200X1.711200*%
%ADD32C,1.711200*%
%ADD33P,1.649562X8X112.500000*%
%ADD34R,2.303200X2.303200*%
%ADD35C,3.352800*%
%ADD36P,3.629037X8X292.500000*%
%ADD37C,2.743200*%
%ADD38C,1.625600*%
%ADD39C,5.537200*%
%ADD40R,1.803400X1.371600*%
%ADD41R,1.828800X0.152400*%
%ADD42C,1.711200*%
%ADD43R,1.371600X1.803400*%
%ADD44C,3.759200*%
%ADD45R,1.727200X1.727200*%
%ADD46C,0.959600*%
%ADD47C,1.259600*%


D10*
X1930400Y2108200D03*
X2032000Y2108200D03*
X1898650Y2108200D03*
X1797050Y2108200D03*
D11*
X939800Y2044700D03*
X939800Y2019300D03*
X939800Y1993900D03*
X939800Y1968500D03*
X939800Y1943100D03*
X939800Y1917700D03*
X939800Y1892300D03*
X939800Y1866900D03*
X939800Y1841500D03*
X939800Y1816100D03*
X939800Y1790700D03*
X939800Y1765300D03*
X939800Y1739900D03*
X939800Y1714500D03*
X939800Y1689100D03*
X939800Y1663700D03*
X939800Y1638300D03*
X939800Y1612900D03*
X939800Y1587500D03*
X939800Y1562100D03*
X939800Y1536700D03*
X939800Y1511300D03*
X939800Y1485900D03*
X939800Y1460500D03*
X939800Y1435100D03*
X939800Y1409700D03*
X939800Y1384300D03*
X939800Y1358900D03*
X939800Y1333500D03*
X939800Y1308100D03*
D12*
X939546Y1212850D03*
D13*
X939800Y2139950D03*
D11*
X838200Y2044700D03*
X838200Y2019300D03*
X838200Y1993900D03*
X838200Y1968500D03*
X838200Y1943100D03*
X838200Y1917700D03*
X838200Y1892300D03*
X838200Y1866900D03*
X838200Y1841500D03*
X838200Y1816100D03*
X838200Y1790700D03*
X838200Y1765300D03*
X838200Y1739900D03*
X838200Y1714500D03*
X838200Y1689100D03*
X838200Y1663700D03*
X838200Y1638300D03*
X838200Y1612900D03*
X838200Y1587500D03*
X838200Y1562100D03*
X838200Y1536700D03*
X838200Y1511300D03*
X838200Y1485900D03*
X838200Y1460500D03*
X838200Y1435100D03*
X838200Y1409700D03*
X838200Y1384300D03*
X838200Y1358900D03*
X838200Y1333500D03*
X838200Y1308100D03*
D12*
X837946Y1212850D03*
D13*
X838200Y2139950D03*
D11*
X736600Y2044700D03*
X736600Y2019300D03*
X736600Y1993900D03*
X736600Y1968500D03*
X736600Y1943100D03*
X736600Y1917700D03*
X736600Y1892300D03*
X736600Y1866900D03*
X736600Y1841500D03*
X736600Y1816100D03*
X736600Y1790700D03*
X736600Y1765300D03*
X736600Y1739900D03*
X736600Y1714500D03*
X736600Y1689100D03*
X736600Y1663700D03*
X736600Y1638300D03*
X736600Y1612900D03*
X736600Y1587500D03*
X736600Y1562100D03*
X736600Y1536700D03*
X736600Y1511300D03*
X736600Y1485900D03*
X736600Y1460500D03*
X736600Y1435100D03*
X736600Y1409700D03*
X736600Y1384300D03*
X736600Y1358900D03*
X736600Y1333500D03*
X736600Y1308100D03*
D12*
X736346Y1212850D03*
D13*
X736600Y2139950D03*
D11*
X635000Y2044700D03*
X635000Y2019300D03*
X635000Y1993900D03*
X635000Y1968500D03*
X635000Y1943100D03*
X635000Y1917700D03*
X635000Y1892300D03*
X635000Y1866900D03*
X635000Y1841500D03*
X635000Y1816100D03*
X635000Y1790700D03*
X635000Y1765300D03*
X635000Y1739900D03*
X635000Y1714500D03*
X635000Y1689100D03*
X635000Y1663700D03*
X635000Y1638300D03*
X635000Y1612900D03*
X635000Y1587500D03*
X635000Y1562100D03*
X635000Y1536700D03*
X635000Y1511300D03*
X635000Y1485900D03*
X635000Y1460500D03*
X635000Y1435100D03*
X635000Y1409700D03*
X635000Y1384300D03*
X635000Y1358900D03*
X635000Y1333500D03*
X635000Y1308100D03*
D12*
X634746Y1212850D03*
D13*
X635000Y2139950D03*
D11*
X533400Y2044700D03*
X533400Y2019300D03*
X533400Y1993900D03*
X533400Y1968500D03*
X533400Y1943100D03*
X533400Y1917700D03*
X533400Y1892300D03*
X533400Y1866900D03*
X533400Y1841500D03*
X533400Y1816100D03*
X533400Y1790700D03*
X533400Y1765300D03*
X533400Y1739900D03*
X533400Y1714500D03*
X533400Y1689100D03*
X533400Y1663700D03*
X533400Y1638300D03*
X533400Y1612900D03*
X533400Y1587500D03*
X533400Y1562100D03*
X533400Y1536700D03*
X533400Y1511300D03*
X533400Y1485900D03*
X533400Y1460500D03*
X533400Y1435100D03*
X533400Y1409700D03*
X533400Y1384300D03*
X533400Y1358900D03*
X533400Y1333500D03*
X533400Y1308100D03*
D12*
X533146Y1212850D03*
D13*
X533400Y2139950D03*
D11*
X431800Y2044700D03*
X431800Y2019300D03*
X431800Y1993900D03*
X431800Y1968500D03*
X431800Y1943100D03*
X431800Y1917700D03*
X431800Y1892300D03*
X431800Y1866900D03*
X431800Y1841500D03*
X431800Y1816100D03*
X431800Y1790700D03*
X431800Y1765300D03*
X431800Y1739900D03*
X431800Y1714500D03*
X431800Y1689100D03*
X431800Y1663700D03*
X431800Y1638300D03*
X431800Y1612900D03*
X431800Y1587500D03*
X431800Y1562100D03*
X431800Y1536700D03*
X431800Y1511300D03*
X431800Y1485900D03*
X431800Y1460500D03*
X431800Y1435100D03*
X431800Y1409700D03*
X431800Y1384300D03*
X431800Y1358900D03*
X431800Y1333500D03*
X431800Y1308100D03*
D12*
X431546Y1212850D03*
D13*
X431800Y2139950D03*
D11*
X330200Y2044700D03*
X330200Y2019300D03*
X330200Y1993900D03*
X330200Y1968500D03*
X330200Y1943100D03*
X330200Y1917700D03*
X330200Y1892300D03*
X330200Y1866900D03*
X330200Y1841500D03*
X330200Y1816100D03*
X330200Y1790700D03*
X330200Y1765300D03*
X330200Y1739900D03*
X330200Y1714500D03*
X330200Y1689100D03*
X330200Y1663700D03*
X330200Y1638300D03*
X330200Y1612900D03*
X330200Y1587500D03*
X330200Y1562100D03*
X330200Y1536700D03*
X330200Y1511300D03*
X330200Y1485900D03*
X330200Y1460500D03*
X330200Y1435100D03*
X330200Y1409700D03*
X330200Y1384300D03*
X330200Y1358900D03*
X330200Y1333500D03*
X330200Y1308100D03*
D12*
X329946Y1212850D03*
D13*
X330200Y2139950D03*
D11*
X228600Y2044700D03*
X228600Y2019300D03*
X228600Y1993900D03*
X228600Y1968500D03*
X228600Y1943100D03*
X228600Y1917700D03*
X228600Y1892300D03*
X228600Y1866900D03*
X228600Y1841500D03*
X228600Y1816100D03*
X228600Y1790700D03*
X228600Y1765300D03*
X228600Y1739900D03*
X228600Y1714500D03*
X228600Y1689100D03*
X228600Y1663700D03*
X228600Y1638300D03*
X228600Y1612900D03*
X228600Y1587500D03*
X228600Y1562100D03*
X228600Y1536700D03*
X228600Y1511300D03*
X228600Y1485900D03*
X228600Y1460500D03*
X228600Y1435100D03*
X228600Y1409700D03*
X228600Y1384300D03*
X228600Y1358900D03*
X228600Y1333500D03*
X228600Y1308100D03*
D12*
X228346Y1212850D03*
D13*
X228600Y2139950D03*
D14*
X269900Y1738200D03*
X288900Y1738200D03*
X279400Y1716200D03*
X473100Y1738200D03*
X492100Y1738200D03*
X482600Y1716200D03*
X269900Y1662000D03*
X288900Y1662000D03*
X279400Y1640000D03*
X473100Y1662000D03*
X492100Y1662000D03*
X482600Y1640000D03*
X269900Y1560400D03*
X288900Y1560400D03*
X279400Y1538400D03*
X473100Y1560400D03*
X492100Y1560400D03*
X482600Y1538400D03*
X269900Y1496900D03*
X288900Y1496900D03*
X279400Y1474900D03*
X473100Y1496900D03*
X492100Y1496900D03*
X482600Y1474900D03*
X269900Y1433400D03*
X288900Y1433400D03*
X279400Y1411400D03*
X473100Y1433400D03*
X492100Y1433400D03*
X482600Y1411400D03*
X269900Y1992200D03*
X288900Y1992200D03*
X279400Y1970200D03*
X473100Y1992200D03*
X492100Y1992200D03*
X482600Y1970200D03*
X269900Y1916000D03*
X288900Y1916000D03*
X279400Y1894000D03*
X473100Y1916000D03*
X492100Y1916000D03*
X482600Y1894000D03*
X269900Y1814400D03*
X288900Y1814400D03*
X279400Y1792400D03*
X473100Y1814400D03*
X492100Y1814400D03*
X482600Y1792400D03*
D11*
X406400Y114300D03*
X431800Y114300D03*
X457200Y114300D03*
X482600Y114300D03*
X508000Y114300D03*
X533400Y114300D03*
X558800Y114300D03*
X584200Y114300D03*
X609600Y114300D03*
X635000Y114300D03*
X660400Y114300D03*
X685800Y114300D03*
X711200Y114300D03*
X736600Y114300D03*
X762000Y114300D03*
X787400Y114300D03*
X406400Y139700D03*
X431800Y139700D03*
X457200Y139700D03*
X482600Y139700D03*
X508000Y139700D03*
X533400Y139700D03*
X558800Y139700D03*
X584200Y139700D03*
X609600Y139700D03*
X635000Y139700D03*
X660400Y139700D03*
X685800Y139700D03*
X711200Y139700D03*
X736600Y139700D03*
X762000Y139700D03*
X787400Y139700D03*
X406400Y165100D03*
X431800Y165100D03*
X457200Y165100D03*
X482600Y165100D03*
X508000Y165100D03*
X533400Y165100D03*
X558800Y165100D03*
X584200Y165100D03*
X609600Y165100D03*
X635000Y165100D03*
X660400Y165100D03*
X685800Y165100D03*
X711200Y165100D03*
X736600Y165100D03*
X762000Y165100D03*
X787400Y165100D03*
X812800Y114300D03*
X838200Y114300D03*
X863600Y114300D03*
X889000Y114300D03*
X914400Y114300D03*
X939800Y114300D03*
X965200Y114300D03*
X990600Y114300D03*
X1016000Y114300D03*
X1041400Y114300D03*
X1066800Y114300D03*
X1092200Y114300D03*
X1117600Y114300D03*
X1143000Y114300D03*
X1168400Y114300D03*
X1193800Y114300D03*
X812800Y139700D03*
X838200Y139700D03*
X863600Y139700D03*
X889000Y139700D03*
X914400Y139700D03*
X939800Y139700D03*
X965200Y139700D03*
X990600Y139700D03*
X1016000Y139700D03*
X1041400Y139700D03*
X1066800Y139700D03*
X1092200Y139700D03*
X1117600Y139700D03*
X1143000Y139700D03*
X1168400Y139700D03*
X1193800Y139700D03*
X812800Y165100D03*
X838200Y165100D03*
X863600Y165100D03*
X889000Y165100D03*
X914400Y165100D03*
X939800Y165100D03*
X965200Y165100D03*
X990600Y165100D03*
X1016000Y165100D03*
X1041400Y165100D03*
X1066800Y165100D03*
X1092200Y165100D03*
X1117600Y165100D03*
X1143000Y165100D03*
X1168400Y165100D03*
X1193800Y165100D03*
X1219200Y114300D03*
X1244600Y114300D03*
X1270000Y114300D03*
X1295400Y114300D03*
X1219200Y139700D03*
X1244600Y139700D03*
X1270000Y139700D03*
X1295400Y139700D03*
X1219200Y165100D03*
X1244600Y165100D03*
X1270000Y165100D03*
X1295400Y165100D03*
X1320800Y114300D03*
X1346200Y114300D03*
X1371600Y114300D03*
X1397000Y114300D03*
X1320800Y139700D03*
X1346200Y139700D03*
X1371600Y139700D03*
X1397000Y139700D03*
X1320800Y165100D03*
X1346200Y165100D03*
X1371600Y165100D03*
X1397000Y165100D03*
D15*
X1122680Y1001780D03*
X1122680Y1030220D03*
D16*
X254000Y1054100D03*
D11*
X228600Y1041400D03*
X254000Y1028700D03*
X228600Y1016000D03*
X254000Y1003300D03*
X228600Y990600D03*
X254000Y977900D03*
X228600Y965200D03*
X254000Y952500D03*
X228600Y939800D03*
X254000Y927100D03*
X228600Y914400D03*
X254000Y901700D03*
X228600Y889000D03*
X254000Y876300D03*
X228600Y863600D03*
X254000Y850900D03*
X228600Y838200D03*
X254000Y825500D03*
X228600Y812800D03*
X254000Y800100D03*
X228600Y787400D03*
X254000Y774700D03*
X228600Y762000D03*
X254000Y749300D03*
X228600Y736600D03*
X254000Y723900D03*
X228600Y711200D03*
X254000Y698500D03*
X228600Y685800D03*
X254000Y673100D03*
X228600Y660400D03*
X254000Y596900D03*
X228600Y584200D03*
X254000Y571500D03*
X228600Y558800D03*
X254000Y546100D03*
X228600Y533400D03*
X254000Y520700D03*
X228600Y508000D03*
X254000Y495300D03*
X228600Y482600D03*
X254000Y469900D03*
X228600Y457200D03*
X254000Y444500D03*
X228600Y431800D03*
X254000Y419100D03*
X228600Y406400D03*
X254000Y393700D03*
X228600Y381000D03*
X254000Y368300D03*
X228600Y355600D03*
X254000Y342900D03*
X228600Y330200D03*
X254000Y317500D03*
X228600Y304800D03*
X254000Y292100D03*
X228600Y279400D03*
X254000Y266700D03*
X228600Y254000D03*
X254000Y241300D03*
X228600Y228600D03*
X254000Y215900D03*
X228600Y203200D03*
D17*
X241300Y120650D03*
D13*
X241300Y1136650D03*
X241300Y628650D03*
D18*
X1085596Y1003300D02*
X1098804Y1003300D01*
X1098804Y1028700D02*
X1085596Y1028700D01*
X1085596Y1155700D02*
X1098804Y1155700D01*
X1098804Y1181100D02*
X1085596Y1181100D01*
X1085596Y1054100D02*
X1098804Y1054100D01*
X1098804Y1079500D02*
X1085596Y1079500D01*
X1085596Y1130300D02*
X1098804Y1130300D01*
X1098804Y1104900D02*
X1085596Y1104900D01*
X1085596Y1206500D02*
X1098804Y1206500D01*
X1098804Y1231900D02*
X1085596Y1231900D01*
X1022604Y1231900D02*
X1009396Y1231900D01*
X1009396Y1206500D02*
X1022604Y1206500D01*
X1022604Y1181100D02*
X1009396Y1181100D01*
X1009396Y1155700D02*
X1022604Y1155700D01*
X1022604Y1130300D02*
X1009396Y1130300D01*
X1009396Y1104900D02*
X1022604Y1104900D01*
X1022604Y1079500D02*
X1009396Y1079500D01*
X1009396Y1054100D02*
X1022604Y1054100D01*
X1022604Y1028700D02*
X1009396Y1028700D01*
X1009396Y1003300D02*
X1022604Y1003300D01*
D19*
X1447800Y317500D03*
X1422400Y317500D03*
X1397000Y317500D03*
X1371600Y317500D03*
X1346200Y317500D03*
X1320800Y317500D03*
X1295400Y317500D03*
X1270000Y317500D03*
X1244600Y317500D03*
X1219200Y317500D03*
X1193800Y317500D03*
X1168400Y317500D03*
X1143000Y317500D03*
X1143000Y342900D03*
X1447800Y596900D03*
X1447800Y571500D03*
X1447800Y546100D03*
X1447800Y520700D03*
X1447800Y495300D03*
X1447800Y469900D03*
X1447800Y444500D03*
X1447800Y419100D03*
X1447800Y393700D03*
X1447800Y342900D03*
X1422400Y342900D03*
X1397000Y342900D03*
X1371600Y342900D03*
X1346200Y342900D03*
X1320800Y342900D03*
X1295400Y342900D03*
X1270000Y342900D03*
X1244600Y342900D03*
X1219200Y342900D03*
X1193800Y342900D03*
X1168400Y342900D03*
X1143000Y393700D03*
X1143000Y419100D03*
X1143000Y444500D03*
X1143000Y469900D03*
X1143000Y495300D03*
X1143000Y520700D03*
X1143000Y546100D03*
X1143000Y571500D03*
X1143000Y596900D03*
X1422400Y596900D03*
X1422400Y571500D03*
X1422400Y546100D03*
X1422400Y520700D03*
X1422400Y495300D03*
X1422400Y469900D03*
X1422400Y444500D03*
X1422400Y419100D03*
X1422400Y393700D03*
X1422400Y622300D03*
X1143000Y622300D03*
X1168400Y622300D03*
X1193800Y622300D03*
X1219200Y622300D03*
X1244600Y622300D03*
X1270000Y622300D03*
X1295400Y622300D03*
X1320800Y622300D03*
X1346200Y622300D03*
X1371600Y622300D03*
X1397000Y622300D03*
X1143000Y368300D03*
X1447800Y368300D03*
X1168400Y368300D03*
X1193800Y368300D03*
X1219200Y368300D03*
X1244600Y368300D03*
X1270000Y368300D03*
X1295400Y368300D03*
X1320800Y368300D03*
X1346200Y368300D03*
X1371600Y368300D03*
X1397000Y368300D03*
X1422400Y368300D03*
X1447800Y622300D03*
X1397000Y596900D03*
X1397000Y571500D03*
X1397000Y546100D03*
X1397000Y520700D03*
X1397000Y495300D03*
X1397000Y469900D03*
X1397000Y444500D03*
X1397000Y419100D03*
X1397000Y393700D03*
X1168400Y596900D03*
X1168400Y571500D03*
X1168400Y546100D03*
X1168400Y520700D03*
X1168400Y495300D03*
X1168400Y469900D03*
X1168400Y444500D03*
X1168400Y419100D03*
X1168400Y393700D03*
X1371600Y596900D03*
X1346200Y596900D03*
X1320800Y596900D03*
X1295400Y596900D03*
X1270000Y596900D03*
X1244600Y596900D03*
X1219200Y596900D03*
X1193800Y596900D03*
X1193800Y571500D03*
X1219200Y571500D03*
X1244600Y571500D03*
X1270000Y571500D03*
X1295400Y571500D03*
X1320800Y571500D03*
X1346200Y571500D03*
X1371600Y571500D03*
X1193800Y469900D03*
X1193800Y546100D03*
X1193800Y520700D03*
X1193800Y495300D03*
X1193800Y444500D03*
X1193800Y419100D03*
X1193800Y393700D03*
X1219200Y393700D03*
X1219200Y546100D03*
X1371600Y546100D03*
X1371600Y393700D03*
X1346200Y393700D03*
X1219200Y444500D03*
X1346200Y546100D03*
X1371600Y444500D03*
D20*
X1397000Y1092200D03*
X1397000Y1244600D03*
X1320800Y1244600D03*
X1320800Y1092200D03*
X673100Y342900D03*
X673100Y317500D03*
D21*
X673100Y367000D03*
X673100Y395000D03*
X673100Y265400D03*
X673100Y293400D03*
D18*
X616204Y279400D02*
X602996Y279400D01*
X602996Y304800D02*
X616204Y304800D01*
X616204Y330200D02*
X602996Y330200D01*
X602996Y355600D02*
X616204Y355600D01*
X540004Y355600D02*
X526796Y355600D01*
X526796Y330200D02*
X540004Y330200D01*
X540004Y304800D02*
X526796Y304800D01*
X526796Y279400D02*
X540004Y279400D01*
X1237996Y1282700D02*
X1251204Y1282700D01*
X1251204Y1308100D02*
X1237996Y1308100D01*
X1237996Y1435100D02*
X1251204Y1435100D01*
X1251204Y1460500D02*
X1237996Y1460500D01*
X1237996Y1333500D02*
X1251204Y1333500D01*
X1251204Y1358900D02*
X1237996Y1358900D01*
X1237996Y1409700D02*
X1251204Y1409700D01*
X1251204Y1384300D02*
X1237996Y1384300D01*
X1237996Y1485900D02*
X1251204Y1485900D01*
X1251204Y1511300D02*
X1237996Y1511300D01*
X1175004Y1511300D02*
X1161796Y1511300D01*
X1161796Y1485900D02*
X1175004Y1485900D01*
X1175004Y1460500D02*
X1161796Y1460500D01*
X1161796Y1435100D02*
X1175004Y1435100D01*
X1175004Y1409700D02*
X1161796Y1409700D01*
X1161796Y1384300D02*
X1175004Y1384300D01*
X1175004Y1358900D02*
X1161796Y1358900D01*
X1161796Y1333500D02*
X1175004Y1333500D01*
X1175004Y1308100D02*
X1161796Y1308100D01*
X1161796Y1282700D02*
X1175004Y1282700D01*
X1098804Y1282700D02*
X1085596Y1282700D01*
X1085596Y1308100D02*
X1098804Y1308100D01*
X1098804Y1435100D02*
X1085596Y1435100D01*
X1085596Y1460500D02*
X1098804Y1460500D01*
X1098804Y1333500D02*
X1085596Y1333500D01*
X1085596Y1358900D02*
X1098804Y1358900D01*
X1098804Y1409700D02*
X1085596Y1409700D01*
X1085596Y1384300D02*
X1098804Y1384300D01*
X1098804Y1485900D02*
X1085596Y1485900D01*
X1085596Y1511300D02*
X1098804Y1511300D01*
X1022604Y1511300D02*
X1009396Y1511300D01*
X1009396Y1485900D02*
X1022604Y1485900D01*
X1022604Y1460500D02*
X1009396Y1460500D01*
X1009396Y1435100D02*
X1022604Y1435100D01*
X1022604Y1409700D02*
X1009396Y1409700D01*
X1009396Y1384300D02*
X1022604Y1384300D01*
X1022604Y1358900D02*
X1009396Y1358900D01*
X1009396Y1333500D02*
X1022604Y1333500D01*
X1022604Y1308100D02*
X1009396Y1308100D01*
X1009396Y1282700D02*
X1022604Y1282700D01*
X1237996Y1562100D02*
X1251204Y1562100D01*
X1251204Y1587500D02*
X1237996Y1587500D01*
X1237996Y1714500D02*
X1251204Y1714500D01*
X1251204Y1739900D02*
X1237996Y1739900D01*
X1237996Y1612900D02*
X1251204Y1612900D01*
X1251204Y1638300D02*
X1237996Y1638300D01*
X1237996Y1689100D02*
X1251204Y1689100D01*
X1251204Y1663700D02*
X1237996Y1663700D01*
X1237996Y1765300D02*
X1251204Y1765300D01*
X1251204Y1790700D02*
X1237996Y1790700D01*
X1175004Y1790700D02*
X1161796Y1790700D01*
X1161796Y1765300D02*
X1175004Y1765300D01*
X1175004Y1739900D02*
X1161796Y1739900D01*
X1161796Y1714500D02*
X1175004Y1714500D01*
X1175004Y1689100D02*
X1161796Y1689100D01*
X1161796Y1663700D02*
X1175004Y1663700D01*
X1175004Y1638300D02*
X1161796Y1638300D01*
X1161796Y1612900D02*
X1175004Y1612900D01*
X1175004Y1587500D02*
X1161796Y1587500D01*
X1161796Y1562100D02*
X1175004Y1562100D01*
X1098804Y1562100D02*
X1085596Y1562100D01*
X1085596Y1587500D02*
X1098804Y1587500D01*
X1098804Y1714500D02*
X1085596Y1714500D01*
X1085596Y1739900D02*
X1098804Y1739900D01*
X1098804Y1612900D02*
X1085596Y1612900D01*
X1085596Y1638300D02*
X1098804Y1638300D01*
X1098804Y1689100D02*
X1085596Y1689100D01*
X1085596Y1663700D02*
X1098804Y1663700D01*
X1098804Y1765300D02*
X1085596Y1765300D01*
X1085596Y1790700D02*
X1098804Y1790700D01*
X1022604Y1790700D02*
X1009396Y1790700D01*
X1009396Y1765300D02*
X1022604Y1765300D01*
X1022604Y1739900D02*
X1009396Y1739900D01*
X1009396Y1714500D02*
X1022604Y1714500D01*
X1022604Y1689100D02*
X1009396Y1689100D01*
X1009396Y1663700D02*
X1022604Y1663700D01*
X1022604Y1638300D02*
X1009396Y1638300D01*
X1009396Y1612900D02*
X1022604Y1612900D01*
X1022604Y1587500D02*
X1009396Y1587500D01*
X1009396Y1562100D02*
X1022604Y1562100D01*
X1034796Y317500D02*
X1048004Y317500D01*
X1048004Y342900D02*
X1034796Y342900D01*
X1034796Y368300D02*
X1048004Y368300D01*
X1048004Y393700D02*
X1034796Y393700D01*
X1034796Y419100D02*
X1048004Y419100D01*
X1048004Y444500D02*
X1034796Y444500D01*
X1034796Y469900D02*
X1048004Y469900D01*
X1048004Y495300D02*
X1034796Y495300D01*
X1034796Y520700D02*
X1048004Y520700D01*
X1048004Y546100D02*
X1034796Y546100D01*
X1034796Y571500D02*
X1048004Y571500D01*
X1048004Y596900D02*
X1034796Y596900D01*
X1034796Y622300D02*
X1048004Y622300D01*
X1048004Y647700D02*
X1034796Y647700D01*
X895604Y647700D02*
X882396Y647700D01*
X882396Y622300D02*
X895604Y622300D01*
X895604Y596900D02*
X882396Y596900D01*
X882396Y571500D02*
X895604Y571500D01*
X895604Y546100D02*
X882396Y546100D01*
X882396Y520700D02*
X895604Y520700D01*
X895604Y495300D02*
X882396Y495300D01*
X882396Y469900D02*
X895604Y469900D01*
X895604Y444500D02*
X882396Y444500D01*
X882396Y419100D02*
X895604Y419100D01*
X895604Y393700D02*
X882396Y393700D01*
X882396Y368300D02*
X895604Y368300D01*
X895604Y342900D02*
X882396Y342900D01*
X882396Y317500D02*
X895604Y317500D01*
X2050796Y603250D02*
X2064004Y603250D01*
X2064004Y628650D02*
X2050796Y628650D01*
X2050796Y755650D02*
X2064004Y755650D01*
X2064004Y781050D02*
X2050796Y781050D01*
X2050796Y654050D02*
X2064004Y654050D01*
X2064004Y679450D02*
X2050796Y679450D01*
X2050796Y730250D02*
X2064004Y730250D01*
X2064004Y704850D02*
X2050796Y704850D01*
X1987804Y781050D02*
X1974596Y781050D01*
X1974596Y755650D02*
X1987804Y755650D01*
X1987804Y730250D02*
X1974596Y730250D01*
X1974596Y704850D02*
X1987804Y704850D01*
X1987804Y679450D02*
X1974596Y679450D01*
X1974596Y654050D02*
X1987804Y654050D01*
X1987804Y628650D02*
X1974596Y628650D01*
X1974596Y603250D02*
X1987804Y603250D01*
X1759204Y1912620D02*
X1745996Y1912620D01*
X1745996Y1938020D02*
X1759204Y1938020D01*
X1759204Y2065020D02*
X1745996Y2065020D01*
X1745996Y2090420D02*
X1759204Y2090420D01*
X1759204Y1963420D02*
X1745996Y1963420D01*
X1745996Y1988820D02*
X1759204Y1988820D01*
X1759204Y2039620D02*
X1745996Y2039620D01*
X1745996Y2014220D02*
X1759204Y2014220D01*
X1683004Y2090420D02*
X1669796Y2090420D01*
X1669796Y2065020D02*
X1683004Y2065020D01*
X1683004Y2039620D02*
X1669796Y2039620D01*
X1669796Y2014220D02*
X1683004Y2014220D01*
X1683004Y1988820D02*
X1669796Y1988820D01*
X1669796Y1963420D02*
X1683004Y1963420D01*
X1683004Y1938020D02*
X1669796Y1938020D01*
X1669796Y1912620D02*
X1683004Y1912620D01*
X1632204Y1911350D02*
X1618996Y1911350D01*
X1618996Y1936750D02*
X1632204Y1936750D01*
X1632204Y2063750D02*
X1618996Y2063750D01*
X1618996Y2089150D02*
X1632204Y2089150D01*
X1632204Y1962150D02*
X1618996Y1962150D01*
X1618996Y1987550D02*
X1632204Y1987550D01*
X1632204Y2038350D02*
X1618996Y2038350D01*
X1618996Y2012950D02*
X1632204Y2012950D01*
X1556004Y2089150D02*
X1542796Y2089150D01*
X1542796Y2063750D02*
X1556004Y2063750D01*
X1556004Y2038350D02*
X1542796Y2038350D01*
X1542796Y2012950D02*
X1556004Y2012950D01*
X1556004Y1987550D02*
X1542796Y1987550D01*
X1542796Y1962150D02*
X1556004Y1962150D01*
X1556004Y1936750D02*
X1542796Y1936750D01*
X1542796Y1911350D02*
X1556004Y1911350D01*
X1974596Y1816100D02*
X1987804Y1816100D01*
X1987804Y1841500D02*
X1974596Y1841500D01*
X1974596Y1968500D02*
X1987804Y1968500D01*
X1987804Y1993900D02*
X1974596Y1993900D01*
X1974596Y1866900D02*
X1987804Y1866900D01*
X1987804Y1892300D02*
X1974596Y1892300D01*
X1974596Y1943100D02*
X1987804Y1943100D01*
X1987804Y1917700D02*
X1974596Y1917700D01*
X1911604Y1993900D02*
X1898396Y1993900D01*
X1898396Y1968500D02*
X1911604Y1968500D01*
X1911604Y1943100D02*
X1898396Y1943100D01*
X1898396Y1917700D02*
X1911604Y1917700D01*
X1911604Y1892300D02*
X1898396Y1892300D01*
X1898396Y1866900D02*
X1911604Y1866900D01*
X1911604Y1841500D02*
X1898396Y1841500D01*
X1898396Y1816100D02*
X1911604Y1816100D01*
X1974596Y1536700D02*
X1987804Y1536700D01*
X1987804Y1562100D02*
X1974596Y1562100D01*
X1974596Y1689100D02*
X1987804Y1689100D01*
X1987804Y1714500D02*
X1974596Y1714500D01*
X1974596Y1587500D02*
X1987804Y1587500D01*
X1987804Y1612900D02*
X1974596Y1612900D01*
X1974596Y1663700D02*
X1987804Y1663700D01*
X1987804Y1638300D02*
X1974596Y1638300D01*
X1911604Y1714500D02*
X1898396Y1714500D01*
X1898396Y1689100D02*
X1911604Y1689100D01*
X1911604Y1663700D02*
X1898396Y1663700D01*
X1898396Y1638300D02*
X1911604Y1638300D01*
X1911604Y1612900D02*
X1898396Y1612900D01*
X1898396Y1587500D02*
X1911604Y1587500D01*
X1911604Y1562100D02*
X1898396Y1562100D01*
X1898396Y1536700D02*
X1911604Y1536700D01*
D22*
X1892300Y850900D03*
X1917700Y850900D03*
X1892300Y825500D03*
X1917700Y825500D03*
X1892300Y800100D03*
X1917700Y800100D03*
X1892300Y774700D03*
X1917700Y774700D03*
X1892300Y749300D03*
X1917700Y749300D03*
X1892300Y723900D03*
X1917700Y723900D03*
X1892300Y698500D03*
X1917700Y698500D03*
X1892300Y673100D03*
X1917700Y673100D03*
X1892300Y647700D03*
X1917700Y647700D03*
X1892300Y622300D03*
X1917700Y622300D03*
D23*
X2057400Y965200D03*
X2032000Y965200D03*
X2057400Y990600D03*
X2032000Y990600D03*
X2057400Y1016000D03*
X2032000Y1016000D03*
X2057400Y1041400D03*
X2032000Y1041400D03*
X2057400Y1066800D03*
X2032000Y1066800D03*
X2057400Y1092200D03*
X2032000Y1092200D03*
X2057400Y1117600D03*
X2032000Y1117600D03*
X2057400Y1143000D03*
X2032000Y1143000D03*
X2057400Y1168400D03*
X2032000Y1168400D03*
X2057400Y1193800D03*
X2032000Y1193800D03*
X2057400Y1219200D03*
X2032000Y1219200D03*
X2057400Y1244600D03*
X2032000Y1244600D03*
X2057400Y1270000D03*
X2032000Y1270000D03*
X2057400Y1295400D03*
X2032000Y1295400D03*
X2032000Y1320800D03*
X2057400Y1320800D03*
X2057400Y1346200D03*
X2032000Y1346200D03*
X2032000Y1371600D03*
X2057400Y1371600D03*
X2057400Y1397000D03*
X2032000Y1397000D03*
X2032000Y1422400D03*
X2057400Y1422400D03*
X2057400Y1447800D03*
X2032000Y1447800D03*
X2057400Y1473200D03*
X2032000Y1473200D03*
X2057400Y1498600D03*
X2032000Y1498600D03*
X2057400Y1524000D03*
X2032000Y1524000D03*
X2057400Y1549400D03*
X2032000Y1549400D03*
X2057400Y1574800D03*
X2032000Y1574800D03*
D15*
X1051560Y1052580D03*
X1051560Y1081020D03*
D24*
X1150620Y1101770D03*
X1150620Y1059770D03*
X1282700Y1122000D03*
X1282700Y1164000D03*
X1282700Y1210900D03*
X1282700Y1252900D03*
X1283970Y1278210D03*
X1283970Y1320210D03*
D21*
X1397000Y1145510D03*
X1397000Y1173510D03*
D15*
X1155700Y1208020D03*
X1155700Y1179580D03*
X1125220Y1284220D03*
X1125220Y1255780D03*
X1962150Y187710D03*
X1962150Y216150D03*
X1739900Y171700D03*
X1739900Y143260D03*
X1701800Y171700D03*
X1701800Y143260D03*
D18*
X1923796Y241300D02*
X1937004Y241300D01*
X1937004Y215900D02*
X1923796Y215900D01*
X1999996Y215900D02*
X2013204Y215900D01*
X2013204Y241300D02*
X1999996Y241300D01*
X1937004Y190500D02*
X1923796Y190500D01*
X1923796Y165100D02*
X1937004Y165100D01*
X1999996Y190500D02*
X2013204Y190500D01*
X2013204Y165100D02*
X1999996Y165100D01*
D21*
X2010410Y312450D03*
X2010410Y284450D03*
X2011680Y90140D03*
X2011680Y118140D03*
X469900Y316200D03*
X469900Y344200D03*
D25*
X440690Y594970D03*
D26*
X440690Y394970D03*
D15*
X419100Y344420D03*
X419100Y315980D03*
D18*
X1110996Y1841500D02*
X1124204Y1841500D01*
X1124204Y1866900D02*
X1110996Y1866900D01*
X1110996Y1892300D02*
X1124204Y1892300D01*
X1124204Y1917700D02*
X1110996Y1917700D01*
X1110996Y1943100D02*
X1124204Y1943100D01*
X1124204Y1968500D02*
X1110996Y1968500D01*
X1110996Y1993900D02*
X1124204Y1993900D01*
X1124204Y2019300D02*
X1110996Y2019300D01*
X1110996Y2044700D02*
X1124204Y2044700D01*
X1124204Y2070100D02*
X1110996Y2070100D01*
X1110996Y2095500D02*
X1124204Y2095500D01*
X1124204Y2120900D02*
X1110996Y2120900D01*
X1022604Y2120900D02*
X1009396Y2120900D01*
X1009396Y2095500D02*
X1022604Y2095500D01*
X1022604Y2070100D02*
X1009396Y2070100D01*
X1009396Y2044700D02*
X1022604Y2044700D01*
X1022604Y2019300D02*
X1009396Y2019300D01*
X1009396Y1993900D02*
X1022604Y1993900D01*
X1022604Y1968500D02*
X1009396Y1968500D01*
X1009396Y1943100D02*
X1022604Y1943100D01*
X1022604Y1917700D02*
X1009396Y1917700D01*
X1009396Y1892300D02*
X1022604Y1892300D01*
X1022604Y1866900D02*
X1009396Y1866900D01*
X1009396Y1841500D02*
X1022604Y1841500D01*
X1263396Y1841500D02*
X1276604Y1841500D01*
X1276604Y1866900D02*
X1263396Y1866900D01*
X1263396Y1892300D02*
X1276604Y1892300D01*
X1276604Y1917700D02*
X1263396Y1917700D01*
X1263396Y1943100D02*
X1276604Y1943100D01*
X1276604Y1968500D02*
X1263396Y1968500D01*
X1263396Y1993900D02*
X1276604Y1993900D01*
X1276604Y2019300D02*
X1263396Y2019300D01*
X1263396Y2044700D02*
X1276604Y2044700D01*
X1276604Y2070100D02*
X1263396Y2070100D01*
X1263396Y2095500D02*
X1276604Y2095500D01*
X1276604Y2120900D02*
X1263396Y2120900D01*
X1175004Y2120900D02*
X1161796Y2120900D01*
X1161796Y2095500D02*
X1175004Y2095500D01*
X1175004Y2070100D02*
X1161796Y2070100D01*
X1161796Y2044700D02*
X1175004Y2044700D01*
X1175004Y2019300D02*
X1161796Y2019300D01*
X1161796Y1993900D02*
X1175004Y1993900D01*
X1175004Y1968500D02*
X1161796Y1968500D01*
X1161796Y1943100D02*
X1175004Y1943100D01*
X1175004Y1917700D02*
X1161796Y1917700D01*
X1161796Y1892300D02*
X1175004Y1892300D01*
X1175004Y1866900D02*
X1161796Y1866900D01*
X1161796Y1841500D02*
X1175004Y1841500D01*
D15*
X1210310Y1449320D03*
X1210310Y1420880D03*
X1197610Y1639820D03*
X1197610Y1611380D03*
X985520Y1638550D03*
X985520Y1610110D03*
X1054100Y1716020D03*
X1054100Y1687580D03*
X1054100Y1792220D03*
X1054100Y1763780D03*
D24*
X1764030Y732200D03*
X1764030Y690200D03*
D27*
X2155190Y1473708D03*
X2155190Y1446022D03*
X2155190Y1418590D03*
X2155190Y1390904D03*
X2155190Y1363218D03*
X2155190Y1335786D03*
X2155190Y1308100D03*
X2155190Y1280414D03*
X2155190Y1252982D03*
X2155190Y1225296D03*
X2155190Y1197610D03*
X2155190Y1170178D03*
X2155190Y1142492D03*
X2180590Y1459992D03*
X2180590Y1432306D03*
X2180590Y1404620D03*
X2180590Y1377188D03*
X2180590Y1349502D03*
X2180590Y1321816D03*
X2180590Y1294384D03*
X2180590Y1266698D03*
X2180590Y1239012D03*
X2180590Y1211580D03*
X2180590Y1183894D03*
X2180590Y1156208D03*
D28*
X2167890Y1543304D03*
X2167890Y1072896D03*
D27*
X2155190Y860298D03*
X2155190Y832612D03*
X2155190Y805180D03*
X2155190Y777494D03*
X2155190Y749808D03*
X2155190Y722376D03*
X2155190Y694690D03*
X2155190Y667004D03*
X2155190Y639572D03*
X2155190Y611886D03*
X2180590Y846582D03*
X2180590Y819150D03*
X2180590Y791210D03*
X2180590Y763778D03*
X2180590Y736092D03*
X2180590Y708660D03*
X2180590Y680974D03*
X2180590Y653288D03*
X2180590Y625602D03*
D28*
X2167890Y929894D03*
X2167890Y543052D03*
D29*
X1854200Y88900D03*
X1981200Y88900D03*
D24*
X2019300Y499700D03*
X2019300Y541700D03*
D21*
X2032000Y458500D03*
X2032000Y430500D03*
D15*
X2019300Y611120D03*
X2019300Y582680D03*
D24*
X1930400Y973500D03*
X1930400Y931500D03*
D30*
X1968500Y1054100D03*
X1968500Y927100D03*
D21*
X1968500Y1004540D03*
X1968500Y1032540D03*
D24*
X1828800Y946830D03*
X1828800Y904830D03*
D21*
X1860550Y934750D03*
X1860550Y906750D03*
D24*
X1930400Y995000D03*
X1930400Y1037000D03*
X1930400Y1058500D03*
X1930400Y1100500D03*
X1930400Y1122000D03*
X1930400Y1164000D03*
D21*
X1968500Y1078200D03*
X1968500Y1106200D03*
D31*
X1968500Y1224350D03*
D32*
X1968500Y1137850D03*
D33*
X1968500Y1257300D03*
X1968500Y1384300D03*
D34*
X1589600Y1269000D03*
X1589600Y1227000D03*
X1589600Y1185000D03*
X1589600Y1143000D03*
X1589600Y1101000D03*
X1589600Y1059000D03*
X1589600Y1017000D03*
X1534600Y1101000D03*
X1534600Y1059000D03*
X1534600Y1017000D03*
X1534600Y1227000D03*
X1534600Y1185000D03*
X1534600Y1143000D03*
X1534600Y1269000D03*
D21*
X1809750Y1728500D03*
X1809750Y1700500D03*
X1800860Y1576100D03*
X1800860Y1548100D03*
D20*
X1419860Y1435100D03*
X1445260Y1435100D03*
D21*
X1435100Y1411000D03*
X1435100Y1383000D03*
X1435100Y1471900D03*
X1435100Y1499900D03*
D24*
X1492250Y1100500D03*
X1492250Y1058500D03*
D15*
X1473200Y1903480D03*
X1473200Y1931920D03*
X1435100Y1903480D03*
X1435100Y1931920D03*
D35*
X1473200Y2006600D03*
D36*
X1473200Y1701800D03*
D21*
X1511300Y1931700D03*
X1511300Y1903700D03*
D15*
X1704340Y2028440D03*
X1704340Y2000000D03*
X1579880Y2033520D03*
X1579880Y2005080D03*
X1714500Y1928880D03*
X1714500Y1957320D03*
X1714500Y2097020D03*
X1714500Y2068580D03*
D21*
X1587500Y2096800D03*
X1587500Y2068800D03*
D37*
X1872730Y2146300D03*
X1822970Y2146300D03*
D15*
X1690370Y1785370D03*
X1690370Y1813810D03*
D22*
X2019300Y2057400D03*
X2044700Y2057400D03*
X2019300Y2032000D03*
X2044700Y2032000D03*
X2019300Y2006600D03*
X2044700Y2006600D03*
D15*
X1587500Y1786640D03*
X1587500Y1815080D03*
X1892300Y2043180D03*
X1892300Y2071620D03*
X1841500Y2043180D03*
X1841500Y2071620D03*
X2123440Y1993650D03*
X2123440Y2022090D03*
X2148840Y1993650D03*
X2148840Y2022090D03*
D21*
X1583690Y1957100D03*
X1583690Y1929100D03*
X1422400Y2084100D03*
X1422400Y2056100D03*
D15*
X1435100Y1827280D03*
X1435100Y1855720D03*
D21*
X1498600Y2084100D03*
X1498600Y2056100D03*
X1511300Y1855500D03*
X1511300Y1827500D03*
D15*
X1473200Y1827280D03*
X1473200Y1855720D03*
X1447800Y2084320D03*
X1447800Y2055880D03*
D38*
X1638300Y1404112D02*
X1638300Y1389888D01*
X1663700Y1389888D02*
X1663700Y1404112D01*
D15*
X1473200Y2055880D03*
X1473200Y2084320D03*
X1502410Y1213100D03*
X1502410Y1184660D03*
X1498600Y1347720D03*
X1498600Y1319280D03*
X1544320Y1319280D03*
X1544320Y1347720D03*
X1521460Y1347720D03*
X1521460Y1319280D03*
D21*
X1567180Y1319500D03*
X1567180Y1347500D03*
X1676400Y1146780D03*
X1676400Y1174780D03*
D35*
X1549400Y812800D03*
D36*
X1549400Y584200D03*
D24*
X2019300Y724580D03*
X2019300Y682580D03*
X2019300Y795700D03*
X2019300Y753700D03*
X2019300Y865550D03*
X2019300Y823550D03*
D21*
X1346200Y2096800D03*
X1346200Y2068800D03*
X1358900Y1958370D03*
X1358900Y1930370D03*
X1233170Y2091660D03*
X1233170Y2119660D03*
X1078230Y2090390D03*
X1078230Y2118390D03*
X1804670Y1952020D03*
X1804670Y1924020D03*
X1803400Y1827560D03*
X1803400Y1799560D03*
X1366520Y1842800D03*
X1366520Y1814800D03*
X1239520Y1810990D03*
X1239520Y1838990D03*
X1809750Y1676430D03*
X1809750Y1648430D03*
X1621790Y1570960D03*
X1621790Y1598960D03*
X1560830Y1616680D03*
X1560830Y1644680D03*
X1346200Y1715800D03*
X1346200Y1687800D03*
X1346200Y1588800D03*
X1346200Y1560800D03*
X1314450Y1468150D03*
X1314450Y1440150D03*
X86360Y1527840D03*
X86360Y1499840D03*
X1803400Y1206470D03*
X1803400Y1234470D03*
X1346200Y1353850D03*
X1346200Y1325850D03*
X1205230Y1256000D03*
X1205230Y1284000D03*
X1051560Y1256000D03*
X1051560Y1284000D03*
X521970Y462250D03*
X521970Y490250D03*
X1333500Y958820D03*
X1333500Y986820D03*
X1308100Y801400D03*
X1308100Y773400D03*
X1233170Y1052800D03*
X1233170Y1080800D03*
X1210310Y1052800D03*
X1210310Y1080800D03*
X819150Y961420D03*
X819150Y933420D03*
X825500Y1066770D03*
X825500Y1094770D03*
X566420Y901730D03*
X566420Y873730D03*
X469900Y910620D03*
X469900Y882620D03*
X312420Y900460D03*
X312420Y872460D03*
X1739900Y702280D03*
X1739900Y730280D03*
X1010920Y739170D03*
X1010920Y711170D03*
X566420Y723930D03*
X566420Y695930D03*
X439420Y723930D03*
X439420Y695930D03*
X312420Y723930D03*
X312420Y695930D03*
X1930400Y473680D03*
X1930400Y501680D03*
X1668780Y468600D03*
X1668780Y496600D03*
X1320800Y255300D03*
X1320800Y227300D03*
X1198880Y255300D03*
X1198880Y227300D03*
X1549400Y189200D03*
X1549400Y217200D03*
X1102360Y255300D03*
X1102360Y227300D03*
X927100Y344200D03*
X927100Y316200D03*
X838200Y242600D03*
X838200Y214600D03*
X342900Y255300D03*
X342900Y227300D03*
D37*
X1956320Y2146300D03*
X2006080Y2146300D03*
D18*
X1987804Y2019300D02*
X1974596Y2019300D01*
X1911604Y2019300D02*
X1898396Y2019300D01*
X1974596Y1790700D02*
X1987804Y1790700D01*
X1911604Y1790700D02*
X1898396Y1790700D01*
X1974596Y1739900D02*
X1987804Y1739900D01*
X1911604Y1739900D02*
X1898396Y1739900D01*
X1974596Y1511300D02*
X1987804Y1511300D01*
X1911604Y1511300D02*
X1898396Y1511300D01*
X1974596Y806450D02*
X1987804Y806450D01*
X2050796Y806450D02*
X2064004Y806450D01*
X2064004Y577850D02*
X2050796Y577850D01*
X1987804Y577850D02*
X1974596Y577850D01*
D39*
X2226310Y57150D03*
X2226310Y2171700D03*
X2108200Y652780D03*
X2108200Y1187450D03*
X2108200Y1479550D03*
X2108200Y1747520D03*
X2082800Y1955800D03*
X2108200Y285750D03*
D40*
X2136140Y2043430D03*
X2136140Y2058670D03*
D41*
X2136140Y2051050D03*
D40*
X2095500Y2028190D03*
X2095500Y2012950D03*
D41*
X2095500Y2020570D03*
D42*
X2236470Y2075260D02*
X2236470Y2090340D01*
X2212470Y2070340D02*
X2212470Y2055260D01*
X2175470Y2075260D02*
X2175470Y2090340D01*
X2157470Y2070340D02*
X2157470Y2055260D01*
X2120470Y2075260D02*
X2120470Y2090340D01*
D38*
X1866900Y57912D02*
X1866900Y43688D01*
X1841500Y43688D02*
X1841500Y57912D01*
D20*
X63500Y317500D03*
D33*
X38100Y292100D03*
X63500Y292100D03*
X38100Y266700D03*
X63500Y241300D03*
X63500Y266700D03*
X88900Y241300D03*
X88900Y266700D03*
X114300Y241300D03*
X114300Y266700D03*
X139700Y241300D03*
X139700Y266700D03*
X165100Y241300D03*
X190500Y266700D03*
X165100Y266700D03*
X190500Y292100D03*
X165100Y292100D03*
X190500Y317500D03*
X165100Y317500D03*
X190500Y342900D03*
X165100Y368300D03*
X165100Y342900D03*
X139700Y368300D03*
X139700Y342900D03*
X114300Y368300D03*
X114300Y342900D03*
X88900Y368300D03*
X88900Y342900D03*
X63500Y368300D03*
X38100Y342900D03*
X63500Y342900D03*
X38100Y317500D03*
D20*
X63500Y749300D03*
D33*
X38100Y723900D03*
X63500Y723900D03*
X38100Y698500D03*
X63500Y673100D03*
X63500Y698500D03*
X88900Y673100D03*
X88900Y698500D03*
X114300Y673100D03*
X114300Y698500D03*
X139700Y673100D03*
X139700Y698500D03*
X165100Y673100D03*
X190500Y698500D03*
X165100Y698500D03*
X190500Y723900D03*
X165100Y723900D03*
X190500Y749300D03*
X165100Y749300D03*
X190500Y774700D03*
X165100Y800100D03*
X165100Y774700D03*
X139700Y800100D03*
X139700Y774700D03*
X114300Y800100D03*
X114300Y774700D03*
X88900Y800100D03*
X88900Y774700D03*
X63500Y800100D03*
X38100Y774700D03*
X63500Y774700D03*
X38100Y749300D03*
D20*
X63500Y520700D03*
D33*
X38100Y495300D03*
X63500Y495300D03*
X38100Y469900D03*
X63500Y444500D03*
X63500Y469900D03*
X88900Y444500D03*
X88900Y469900D03*
X114300Y444500D03*
X114300Y469900D03*
X139700Y444500D03*
X139700Y469900D03*
X165100Y444500D03*
X190500Y469900D03*
X165100Y469900D03*
X190500Y495300D03*
X165100Y495300D03*
X190500Y520700D03*
X165100Y520700D03*
X190500Y546100D03*
X165100Y571500D03*
X165100Y546100D03*
X139700Y571500D03*
X139700Y546100D03*
X114300Y571500D03*
X114300Y546100D03*
X88900Y571500D03*
X88900Y546100D03*
X63500Y571500D03*
X38100Y546100D03*
X63500Y546100D03*
X38100Y520700D03*
D20*
X63500Y952500D03*
D33*
X38100Y927100D03*
X63500Y927100D03*
X38100Y901700D03*
X63500Y876300D03*
X63500Y901700D03*
X88900Y876300D03*
X88900Y901700D03*
X114300Y876300D03*
X114300Y901700D03*
X139700Y876300D03*
X139700Y901700D03*
X165100Y876300D03*
X190500Y901700D03*
X165100Y901700D03*
X190500Y927100D03*
X165100Y927100D03*
X190500Y952500D03*
X165100Y952500D03*
X190500Y977900D03*
X165100Y1003300D03*
X165100Y977900D03*
X139700Y1003300D03*
X139700Y977900D03*
X114300Y1003300D03*
X114300Y977900D03*
X88900Y1003300D03*
X88900Y977900D03*
X63500Y1003300D03*
X38100Y977900D03*
X63500Y977900D03*
X38100Y952500D03*
D43*
X137160Y1041400D03*
X152400Y1041400D03*
X167640Y1041400D03*
X91440Y190500D03*
X76200Y190500D03*
X60960Y190500D03*
D16*
X2181225Y217678D03*
X2181225Y150622D03*
X2156333Y217678D03*
X2156333Y150622D03*
D44*
X2219325Y184150D03*
X2211197Y116586D03*
X2211197Y251714D03*
D16*
X2181225Y408178D03*
X2181225Y341122D03*
X2156333Y408178D03*
X2156333Y341122D03*
D44*
X2219325Y374650D03*
X2211197Y307086D03*
X2211197Y442214D03*
D45*
X2181225Y1917954D03*
D16*
X2181225Y1892046D03*
X2181225Y1938528D03*
X2156333Y1917954D03*
X2181225Y1871472D03*
X2156333Y1938528D03*
X2156333Y1896872D03*
X2156333Y1871472D03*
D44*
X2211197Y1972564D03*
X2219325Y1905000D03*
X2211197Y1837436D03*
D45*
X2181225Y1727454D03*
D16*
X2181225Y1701546D03*
X2181225Y1748028D03*
X2156333Y1727454D03*
X2181225Y1680972D03*
X2156333Y1748028D03*
X2156333Y1706372D03*
X2156333Y1680972D03*
D44*
X2211197Y1782064D03*
X2219325Y1714500D03*
X2211197Y1646936D03*
D46*
X96520Y1892300D03*
X1435100Y1587500D03*
X1519400Y427990D03*
X1505740Y408940D03*
X1504470Y693420D03*
X1520169Y678970D03*
X1462020Y1449320D03*
X1472950Y1457710D03*
X1453670Y1289530D03*
X1205230Y1198880D03*
X1219200Y1198880D03*
X1231900Y1143000D03*
X1206500Y1117600D03*
X1192530Y1057910D03*
X1051560Y1240790D03*
X1078230Y1270000D03*
X1049405Y845435D03*
X1393190Y2152650D03*
X1393190Y2063750D03*
X1299210Y2076450D03*
X1346200Y2114550D03*
X1343660Y1958340D03*
X1299210Y2012950D03*
X1393190Y2025650D03*
X1393190Y2000250D03*
X1393190Y1936750D03*
X1360170Y1898650D03*
X1360170Y1873250D03*
X1393190Y1809750D03*
X1299210Y1885950D03*
X1299210Y1822450D03*
X1299210Y1758950D03*
X1299210Y1695450D03*
X1393190Y1682750D03*
X1360170Y1746250D03*
X1360170Y1771650D03*
X1346200Y1606550D03*
X1346200Y1733550D03*
X1361440Y1644650D03*
X1360170Y1511300D03*
X1435100Y1525270D03*
X1511300Y1511300D03*
X1290320Y1468120D03*
X1346200Y1371600D03*
X1393190Y1397000D03*
X1233170Y2076168D03*
X1078230Y2075180D03*
X1676400Y1106170D03*
X1676400Y1221740D03*
X1511300Y1889760D03*
X1605280Y1687830D03*
X1672590Y1687830D03*
X1583690Y1912620D03*
X1672590Y1612900D03*
X1560830Y1600200D03*
X1621790Y1554480D03*
X1530378Y1666240D03*
X1824990Y1701800D03*
X1825780Y1676400D03*
X1821985Y1549400D03*
X1821985Y1524000D03*
X279400Y1955800D03*
X279400Y1879600D03*
X279400Y1778000D03*
X279400Y1701800D03*
X279400Y1625600D03*
X279400Y1524000D03*
X279400Y1454432D03*
X295910Y1408430D03*
X497840Y1409700D03*
X482600Y1454432D03*
X482600Y1524000D03*
X482600Y1625600D03*
X482600Y1701800D03*
X482600Y1778000D03*
X482600Y1879600D03*
X482600Y1955800D03*
X358140Y971550D03*
X330200Y895350D03*
X416842Y895350D03*
X469900Y933450D03*
X549910Y895350D03*
X483870Y971550D03*
X644172Y971550D03*
X389890Y793750D03*
X483870Y793750D03*
X612140Y793750D03*
X422910Y717550D03*
X549910Y717550D03*
X295910Y717550D03*
X836930Y704850D03*
X838200Y1149350D03*
X825500Y1043940D03*
X927100Y1092200D03*
X726130Y977900D03*
X726130Y965200D03*
X726130Y952500D03*
X726130Y939800D03*
X726130Y927100D03*
X819150Y977900D03*
X957862Y952500D03*
X749300Y914400D03*
X1397000Y1211580D03*
X147320Y1530350D03*
X180876Y1644650D03*
X82550Y1543050D03*
X655320Y270228D03*
X1519400Y210820D03*
X469900Y299720D03*
X323850Y259080D03*
X506730Y463268D03*
X1088390Y787400D03*
X838200Y883920D03*
X723900Y1092200D03*
X1016000Y803910D03*
X1998980Y866140D03*
X1998980Y891540D03*
X2000096Y853286D03*
X1271750Y1562100D03*
X1583690Y1344930D03*
X1803400Y1187224D03*
X1549400Y152400D03*
X1635760Y177800D03*
X1653540Y203200D03*
X1905000Y317500D03*
X1930400Y453390D03*
X1228090Y1252220D03*
X1435100Y1367790D03*
X1668780Y451132D03*
X1752600Y444500D03*
X1752600Y482600D03*
X1651000Y317500D03*
X1676400Y723900D03*
X1736090Y842010D03*
X1790700Y723900D03*
X1739900Y685800D03*
X1727200Y626110D03*
X1656844Y915670D03*
X1485900Y749300D03*
X1320800Y711200D03*
X1308100Y817880D03*
X1320800Y1041400D03*
X1333500Y939800D03*
X1102360Y271780D03*
X1198880Y271780D03*
X927100Y367030D03*
X1320800Y273050D03*
X838200Y270510D03*
X1788160Y2012950D03*
X1874520Y2012950D03*
X1828800Y1987550D03*
X1869440Y1924050D03*
X1821180Y1949450D03*
X1818640Y1822450D03*
X1818640Y1885950D03*
X1835686Y1333500D03*
X651510Y360398D03*
X368300Y330200D03*
X1498600Y1370330D03*
X101600Y1993900D03*
X1430020Y1681480D03*
X1193800Y1085850D03*
X1330960Y2063750D03*
X1330960Y1936750D03*
X1352550Y1794510D03*
X1330960Y1682750D03*
X1330960Y1555750D03*
X1299210Y1435100D03*
X1330960Y1320800D03*
X1239520Y1855470D03*
X1714500Y1913890D03*
X1562100Y1659890D03*
X1638300Y1600200D03*
X1493520Y1489710D03*
X1816100Y1631950D03*
X1816100Y1480820D03*
X1803400Y1250950D03*
X312420Y855980D03*
X454660Y882650D03*
X581660Y882650D03*
X455930Y704850D03*
X584200Y704850D03*
X328930Y704850D03*
X825500Y1117600D03*
X812800Y1117600D03*
X946150Y1137920D03*
X680720Y1117600D03*
X723900Y881380D03*
X812800Y915670D03*
X825500Y915670D03*
X1283970Y1332230D03*
X1397000Y1123950D03*
X62230Y1517650D03*
X939800Y900430D03*
X444500Y317500D03*
X323850Y226060D03*
X521970Y514350D03*
X678406Y704850D03*
X1028700Y711200D03*
X1022068Y857250D03*
X1911350Y908530D03*
X1746250Y748030D03*
X1549400Y251460D03*
X1962150Y172720D03*
X1799590Y190500D03*
X1930400Y518160D03*
X1676400Y520700D03*
X1308100Y749300D03*
X1333500Y1003300D03*
X1459230Y1021080D03*
X1102360Y202466D03*
X1198880Y202466D03*
X1304290Y227330D03*
X838200Y188242D03*
X1821180Y1924050D03*
X1818640Y1797050D03*
X45720Y190500D03*
X322580Y384810D03*
X1037590Y863600D03*
X1384300Y673100D03*
X1371600Y713740D03*
X1371600Y844550D03*
X1502410Y1267460D03*
X1168400Y1244600D03*
X1130300Y1051560D03*
X1213132Y1593568D03*
X1409700Y914400D03*
X1037110Y920750D03*
X1473200Y495300D03*
X1482852Y139700D03*
X1244600Y1004570D03*
X1231900Y1219200D03*
X1587500Y927100D03*
X1594015Y285661D03*
X1460500Y1282700D03*
X1512570Y685800D03*
X1473200Y1447800D03*
X1460500Y1631950D03*
X1512570Y419100D03*
X1040130Y845820D03*
X1512570Y203200D03*
X1122680Y939800D03*
X684530Y717550D03*
X1422400Y673100D03*
X830580Y690118D03*
X855698Y919480D03*
X855698Y1035050D03*
X1440180Y1143000D03*
X1054100Y1104900D03*
X1440180Y1073150D03*
X1985292Y495300D03*
X1638074Y1076678D03*
X1612900Y584200D03*
X1972310Y560070D03*
X1104900Y914400D03*
X1104900Y863600D03*
X1250950Y863600D03*
X1311148Y427708D03*
X1158240Y825500D03*
X1231900Y825500D03*
X1117600Y889000D03*
X1302032Y408742D03*
X1146528Y889000D03*
X1239520Y869950D03*
X1244600Y787400D03*
X1257300Y1206500D03*
X1303020Y420370D03*
X684530Y755650D03*
X660400Y1184910D03*
X836930Y717832D03*
X876780Y1244600D03*
X1123950Y927100D03*
X693702Y412468D03*
X1206500Y857250D03*
X1803400Y381000D03*
X1739900Y1171702D03*
X1701800Y387350D03*
X1705384Y698500D03*
X1803400Y279400D03*
X1718310Y1606550D03*
X1257300Y434848D03*
X1371600Y228600D03*
X1371600Y495300D03*
X1333500Y927100D03*
X1428211Y113569D03*
X684530Y793750D03*
X1447800Y133350D03*
X591594Y550288D03*
X1193800Y952500D03*
X585526Y527763D03*
X1193800Y965200D03*
X577850Y538480D03*
X1193800Y990600D03*
X1447800Y661388D03*
X1449128Y81222D03*
X1498600Y546100D03*
X1498600Y139700D03*
X666750Y768350D03*
X1473200Y520700D03*
X1492250Y120650D03*
X1473200Y469900D03*
X660400Y781050D03*
X1473200Y102926D03*
X1409700Y990600D03*
X1358900Y952500D03*
X594360Y952500D03*
X1455632Y96308D03*
X812800Y736600D03*
X1384300Y831850D03*
X1384300Y749300D03*
X826770Y854710D03*
X842010Y919480D03*
X596900Y736600D03*
X1638300Y516890D03*
X1054100Y1574800D03*
X1380490Y1536700D03*
X1365250Y882650D03*
X1375410Y1123950D03*
X1638300Y547596D03*
X1365250Y774700D03*
X1416075Y92852D03*
X114300Y190500D03*
X1447800Y812800D03*
X1422400Y889000D03*
X960120Y965200D03*
X977900Y901700D03*
X1467132Y133632D03*
X1397000Y908050D03*
X978888Y910788D03*
X977900Y961390D03*
X1426210Y787400D03*
X1460500Y118110D03*
X1263932Y448901D03*
X1169670Y717832D03*
X271780Y977900D03*
X699770Y457200D03*
X668048Y990600D03*
X277848Y985520D03*
X711200Y464820D03*
X671096Y1003300D03*
X283916Y993140D03*
X718820Y488950D03*
X674144Y1016000D03*
X289984Y1000760D03*
X717550Y520700D03*
X676910Y1028700D03*
X296052Y1008380D03*
X723900Y501650D03*
X680240Y1041400D03*
X303530Y1014730D03*
X745010Y481330D03*
X683288Y1054100D03*
X303530Y1028700D03*
X736600Y533400D03*
X685800Y1066800D03*
X742950Y508000D03*
X689384Y1079500D03*
X305196Y1042670D03*
X749300Y558800D03*
X688340Y1104900D03*
X749300Y685800D03*
X755650Y539468D03*
X698500Y1135380D03*
X755650Y676910D03*
X762000Y514350D03*
X698981Y1144751D03*
X762000Y669290D03*
X768350Y565150D03*
X703580Y1153359D03*
X768350Y661670D03*
X774700Y546100D03*
X703552Y1162447D03*
X774700Y654050D03*
X781050Y571500D03*
X716541Y1159771D03*
X781050Y646430D03*
X787400Y590550D03*
X728169Y1162503D03*
X793750Y577850D03*
X737257Y1165551D03*
X800100Y596900D03*
X855671Y262581D03*
X762000Y1106170D03*
X806450Y609600D03*
X863600Y255270D03*
X768350Y1098550D03*
X812800Y622300D03*
X870026Y248844D03*
X774700Y1090930D03*
X819150Y635000D03*
X878078Y241300D03*
X781050Y1083310D03*
X825500Y622300D03*
X889000Y241300D03*
X787400Y1075690D03*
X831850Y651510D03*
X895068Y231140D03*
X793750Y1068070D03*
X838200Y641350D03*
X903478Y224790D03*
X800100Y1059180D03*
X844550Y663928D03*
X914400Y224790D03*
X806450Y1051560D03*
X1790700Y762000D03*
X952500Y656816D03*
X965200Y568960D03*
X928370Y224790D03*
X927100Y1079500D03*
X1809750Y1308100D03*
X1790700Y560070D03*
X1797050Y393700D03*
X1786890Y1007110D03*
X1762582Y1470482D03*
X900049Y1879600D03*
X1790700Y774700D03*
X958850Y669290D03*
X927100Y1066800D03*
X971550Y594360D03*
X939800Y224790D03*
X1803400Y1295400D03*
X1784350Y590550D03*
X1797050Y406400D03*
X1776730Y1005840D03*
X1748131Y1476351D03*
X1778000Y787400D03*
X965200Y1968500D03*
X965200Y678180D03*
X927100Y1054100D03*
X951230Y224790D03*
X1797050Y1320800D03*
X1772920Y596900D03*
X1797050Y419100D03*
X978154Y618716D03*
X1778000Y1016000D03*
X1736855Y1479045D03*
X1765300Y787400D03*
X981710Y644116D03*
X971550Y662348D03*
X927100Y1041400D03*
X969010Y1930400D03*
X961390Y224790D03*
X1790982Y1282700D03*
X1797050Y444500D03*
X1781810Y1028700D03*
X1745900Y1461420D03*
X1765300Y566420D03*
X990600Y625828D03*
X977900Y680580D03*
X927100Y1028700D03*
X970562Y224790D03*
X977900Y1912620D03*
X1784914Y1333500D03*
X1756410Y774418D03*
X1745199Y603250D03*
X1790700Y457200D03*
X1784350Y1041400D03*
X1733268Y1465470D03*
X996950Y600428D03*
X984250Y665396D03*
X927100Y1016000D03*
X984250Y1949732D03*
X979650Y224790D03*
X1778846Y1270000D03*
X1747322Y774418D03*
X1784350Y469900D03*
X1778000Y1066800D03*
X1742356Y1447800D03*
X1736090Y572770D03*
X1003300Y575028D03*
X1003300Y482600D03*
X988738Y224790D03*
X927100Y1003300D03*
X1772778Y1346200D03*
X1738234Y774418D03*
X1778000Y482600D03*
X1724660Y541528D03*
X1771650Y1079500D03*
X1733268Y1447800D03*
X1009650Y546100D03*
X996950Y678638D03*
X997826Y224790D03*
X927100Y990600D03*
X1765300Y1257300D03*
X1729146Y774418D03*
X1729740Y518160D03*
X1717548Y609628D03*
X1765300Y1092200D03*
X1733268Y1435864D03*
X1526540Y1612900D03*
X996668Y193040D03*
X1619250Y304800D03*
X1521460Y1746250D03*
X1611292Y963930D03*
X1524000Y1600200D03*
X914400Y882650D03*
X959132Y517116D03*
X1630468Y1344718D03*
X1512570Y1752600D03*
X1602204Y961932D03*
X1081052Y352072D03*
X1279140Y402534D03*
X1600200Y381000D03*
X1524000Y1587500D03*
X901700Y882650D03*
X958850Y495300D03*
X396240Y768350D03*
X396240Y730250D03*
X396240Y819150D03*
X895350Y806450D03*
X1614747Y1351857D03*
X876780Y1397000D03*
X1513840Y1796768D03*
X1078004Y397284D03*
X139700Y833120D03*
X139700Y1023620D03*
X1524000Y1574800D03*
X889000Y882650D03*
X959132Y469900D03*
X355600Y717550D03*
X355600Y755650D03*
X355600Y812800D03*
X889000Y831850D03*
X1502382Y1803400D03*
X883920Y1047750D03*
X1653032Y1069566D03*
X1067026Y403860D03*
X127000Y1022350D03*
X123952Y825500D03*
X1522730Y1562100D03*
X876300Y882650D03*
X295910Y742950D03*
X295910Y781050D03*
X972820Y444500D03*
X317500Y838200D03*
X876300Y819150D03*
X1645920Y1130300D03*
X1495648Y1952470D03*
X876300Y1054100D03*
X1078004Y368300D03*
X102870Y990600D03*
X1520190Y1549400D03*
X328930Y768350D03*
X328930Y730250D03*
X325120Y825500D03*
X337820Y609600D03*
X1639852Y1121410D03*
X1489132Y1959610D03*
X1601470Y425450D03*
X1066093Y384103D03*
X1517650Y1536700D03*
X406400Y908050D03*
X400050Y946150D03*
X406400Y572770D03*
X1633784Y1112520D03*
X1482090Y1972988D03*
X1595402Y438150D03*
X1513840Y1524000D03*
X392430Y895350D03*
X392430Y933450D03*
X977674Y368300D03*
X1474470Y1966440D03*
X870882Y1019810D03*
X1584960Y977900D03*
X867862Y838200D03*
X1540510Y1727200D03*
X340360Y920750D03*
X328930Y958850D03*
X859790Y680720D03*
X347980Y694690D03*
X863600Y330200D03*
X1545054Y1511300D03*
X1628140Y643890D03*
X1546860Y1738630D03*
X965200Y419100D03*
X328930Y908050D03*
X328930Y946150D03*
X304800Y635000D03*
X1554142Y1511300D03*
X1668780Y666750D03*
X1631950Y309880D03*
X1631950Y279400D03*
X304800Y609600D03*
X965200Y393700D03*
X63500Y640080D03*
X1555674Y1784274D03*
X524510Y946150D03*
X524510Y908050D03*
X971550Y317500D03*
X524510Y622300D03*
X1563230Y1511300D03*
X1675130Y674370D03*
X1644650Y362232D03*
X1644650Y271780D03*
X1562100Y1790700D03*
X530860Y895350D03*
X530860Y933450D03*
X530860Y601980D03*
X1572318Y1511300D03*
X1681790Y680720D03*
X1656080Y368300D03*
X1127986Y358140D03*
X950242Y379730D03*
X416560Y958850D03*
X416560Y920750D03*
X415290Y566420D03*
X1824990Y685800D03*
X1841500Y1905000D03*
X1860550Y368300D03*
X422910Y946150D03*
X422910Y908050D03*
X422910Y558800D03*
X1299210Y1974850D03*
X1257300Y749300D03*
X1320800Y387350D03*
X1276350Y773430D03*
X1172210Y298960D03*
X476250Y768350D03*
X483870Y730250D03*
X508000Y546100D03*
X1162204Y704696D03*
X1323340Y2047240D03*
X1346200Y749300D03*
X28984Y584200D03*
X516890Y755650D03*
X516890Y717550D03*
X1163754Y291622D03*
X516890Y533400D03*
X1155700Y711764D03*
X1333500Y749300D03*
X1299210Y2101850D03*
X455930Y781050D03*
X455930Y742950D03*
X469900Y520700D03*
X1149350Y285554D03*
X1158240Y749300D03*
X1158240Y723900D03*
X1036320Y753110D03*
X463550Y768350D03*
X463550Y730250D03*
X482600Y508000D03*
X1141730Y279486D03*
X1158240Y800100D03*
X19332Y304800D03*
X16284Y508000D03*
X16284Y736600D03*
X19332Y914400D03*
X645160Y730250D03*
X645160Y768350D03*
X1134110Y264528D03*
X618490Y439420D03*
X652780Y755650D03*
X645160Y717550D03*
X1126490Y258460D03*
X47216Y452120D03*
X616835Y428875D03*
X549910Y781050D03*
X549910Y742950D03*
X560070Y469900D03*
X1118870Y252392D03*
X1225550Y850900D03*
X19332Y534670D03*
X19332Y330200D03*
X19332Y762000D03*
X22352Y431800D03*
X25400Y939800D03*
X543560Y768350D03*
X543560Y730250D03*
X1076960Y254000D03*
X553720Y457200D03*
X651510Y908050D03*
X651510Y946150D03*
X1082040Y239466D03*
X1231900Y807664D03*
X601980Y416560D03*
X643890Y895350D03*
X643890Y933450D03*
X1073150Y233398D03*
X592301Y414501D03*
X549910Y920468D03*
X1066800Y220698D03*
X549910Y958850D03*
X1140460Y819150D03*
X542290Y946150D03*
X542290Y908050D03*
X1130300Y793750D03*
X1055878Y227330D03*
X565150Y433070D03*
X1123950Y806450D03*
X1049810Y206728D03*
X1117600Y781050D03*
X1041400Y214630D03*
X1033498Y193040D03*
X1108710Y768350D03*
X1102360Y736600D03*
X1024410Y199390D03*
X1094740Y723900D03*
X1016000Y183868D03*
X1088390Y711200D03*
X1102642Y751840D03*
X1007110Y207010D03*
X1046480Y755650D03*
X1024974Y939800D03*
X1752600Y419100D03*
X1752600Y88900D03*
X1689100Y88900D03*
X1689100Y321028D03*
X1650776Y946150D03*
X1517650Y2081530D03*
X1511300Y2145030D03*
X1605280Y2132330D03*
X1676400Y1012190D03*
X1579880Y133350D03*
X1752600Y457200D03*
X1765300Y95250D03*
X1676400Y88900D03*
X1676400Y321028D03*
X1644708Y954187D03*
X1663700Y321028D03*
X1663700Y88900D03*
X1638640Y963930D03*
X1492250Y977900D03*
X1492334Y508000D03*
X1357630Y495300D03*
X1816100Y1593850D03*
X1816100Y1746250D03*
X1676400Y1128466D03*
X1498600Y1155700D03*
X1830070Y1179830D03*
X1565910Y143510D03*
X1422400Y2039620D03*
D47*
X1813560Y947420D03*
X1846580Y673100D03*
X1518920Y179070D03*
D46*
X1714500Y431800D03*
X1714500Y82832D03*
X1193800Y713740D03*
X469900Y749300D03*
X1752600Y469900D03*
X1778000Y101600D03*
X177800Y653768D03*
X165100Y851126D03*
X153388Y914874D03*
X652780Y882650D03*
X656590Y704850D03*
X1111250Y819150D03*
X652780Y825500D03*
X389890Y742950D03*
X363220Y1060450D03*
X389890Y781050D03*
X363220Y1073150D03*
X406400Y920750D03*
X406400Y1054100D03*
X391160Y958850D03*
X363220Y1123950D03*
X516890Y920750D03*
X521970Y1060450D03*
X516890Y958850D03*
X521970Y1073150D03*
X483870Y742950D03*
X490220Y1111250D03*
X516890Y781050D03*
X521970Y1123950D03*
X363220Y1085850D03*
X344170Y755650D03*
X363220Y1098550D03*
X341630Y793750D03*
X351790Y1096010D03*
X347980Y933450D03*
X330200Y971550D03*
X342702Y1095504D03*
X457200Y933450D03*
X482600Y1085850D03*
X457200Y971550D03*
X476250Y1098550D03*
X422910Y755650D03*
X469900Y1136650D03*
X422910Y793750D03*
X457200Y1149350D03*
X648970Y1060450D03*
X610870Y742950D03*
X648970Y1073150D03*
X610870Y781050D03*
X648970Y1085850D03*
X600710Y755650D03*
X648970Y1098550D03*
X593090Y793750D03*
X648970Y1111250D03*
X609600Y920750D03*
X648970Y1123950D03*
X610870Y958850D03*
X648970Y1136650D03*
X603250Y933450D03*
X617220Y1149350D03*
X596900Y971550D03*
X1150620Y1117600D03*
X1122680Y1193800D03*
X548640Y1038380D03*
X322580Y1073150D03*
X557530Y1044448D03*
X326390Y1098550D03*
X568297Y1174750D03*
X574365Y1189990D03*
X327179Y1128241D03*
X332740Y1149350D03*
X567436Y1050290D03*
X417830Y1073150D03*
X417830Y1098550D03*
X577850Y1092200D03*
X583918Y1117600D03*
X417830Y1123950D03*
X589986Y1143000D03*
X417830Y1149350D03*
X577850Y1060450D03*
X544830Y1073150D03*
X590550Y1085850D03*
X542290Y1098550D03*
X599440Y1111250D03*
X534670Y1123950D03*
X528320Y1149068D03*
X609600Y1136650D03*
X1435100Y1003300D03*
X1427480Y1090930D03*
X1409700Y1003300D03*
X133350Y1568450D03*
X133350Y1543050D03*
X139700Y1320800D03*
X1384018Y1111532D03*
X1403350Y844550D03*
X1419860Y1117600D03*
X1397000Y1003300D03*
X139700Y1333500D03*
X139700Y1619250D03*
X139700Y1593850D03*
X1367508Y1130300D03*
X1384300Y1003300D03*
X1361440Y1168400D03*
X1282700Y1137920D03*
X1320800Y1211580D03*
X1473200Y571500D03*
X1998980Y541020D03*
X1429385Y1156335D03*
X1149350Y1155700D03*
X1130300Y1181100D03*
X1574800Y952500D03*
X1580218Y308080D03*
X1580868Y939800D03*
X1586286Y299720D03*
X1574800Y904466D03*
X1573049Y319559D03*
X815340Y704850D03*
X901700Y2070100D03*
X848360Y1009650D03*
X684530Y730250D03*
X660400Y965200D03*
X1020882Y908050D03*
X1028700Y965200D03*
X999490Y1260574D03*
X1148306Y901700D03*
X1158240Y1003300D03*
X1117600Y511048D03*
X1905000Y482600D03*
X1803062Y908050D03*
X1955800Y355600D03*
X1734820Y889000D03*
X1943100Y868680D03*
X1787370Y1968500D03*
X1854200Y1371600D03*
X1854200Y1308100D03*
X1774670Y871220D03*
X1816100Y252730D03*
X1346200Y876300D03*
X1365250Y1231900D03*
X1841500Y1210310D03*
X1822450Y1974850D03*
X1295400Y863600D03*
X1295400Y1059180D03*
X1219200Y749300D03*
X1287780Y1454150D03*
X1491968Y265712D03*
X1484856Y661388D03*
X1479776Y706120D03*
X1092200Y803712D03*
X1264084Y786412D03*
X1435100Y1562100D03*
X1580896Y1574800D03*
X1422400Y749300D03*
X1625600Y321310D03*
X1620520Y669290D03*
X1409700Y1057966D03*
X1092200Y812800D03*
X1257300Y792480D03*
X1739900Y1397000D03*
X1718310Y843082D03*
X1731010Y1358900D03*
X1718112Y853440D03*
X1731010Y1371600D03*
X1718028Y863600D03*
X1701518Y860016D03*
X1714500Y381000D03*
X1724660Y1141730D03*
X1678940Y869950D03*
X1724660Y1104900D03*
X1686560Y882650D03*
X1708150Y885416D03*
X1714500Y368300D03*
X1731010Y1117600D03*
X1699160Y904340D03*
X1625600Y516890D03*
X1617360Y914400D03*
X1796994Y919480D03*
X1879600Y482600D03*
X1371600Y1003300D03*
X1358336Y1223010D03*
X1358900Y1003300D03*
X1352268Y1242060D03*
X1346200Y1003300D03*
X1346200Y1257300D03*
X153670Y1771650D03*
X82550Y1555750D03*
X82550Y1606550D03*
X121920Y1784350D03*
X153670Y1797050D03*
X82550Y1581150D03*
X82550Y1631950D03*
X121920Y1809750D03*
X1137920Y1517368D03*
X406400Y1320800D03*
X1120775Y1320165D03*
X482600Y2070100D03*
X1812290Y538480D03*
X989612Y946150D03*
X1866900Y1295400D03*
X1854200Y1155700D03*
X1784576Y901700D03*
X1831340Y1847850D03*
X1831340Y1968218D03*
X1790700Y304800D03*
X1752600Y495300D03*
X1879600Y317500D03*
X1873250Y405130D03*
X1828800Y133350D03*
X1879600Y424180D03*
X1835150Y143510D03*
X2006600Y355600D03*
X2006600Y368300D03*
X1930400Y2006600D03*
X1860550Y1257300D03*
X1860550Y1358900D03*
X1854200Y381000D03*
X2006600Y393700D03*
X1968500Y419100D03*
X2004060Y431800D03*
X1892300Y406400D03*
X1841500Y152400D03*
X1917700Y419100D03*
X1866900Y266700D03*
X1905000Y425450D03*
X1854200Y266700D03*
X1587500Y1499870D03*
X1701800Y482600D03*
X1866900Y1003300D03*
X1847850Y530860D03*
X1701800Y262890D03*
X1739900Y190500D03*
X1727200Y262890D03*
X1422400Y2100580D03*
X1473200Y2100580D03*
X1522730Y2068830D03*
X1979930Y1427480D03*
X1854200Y956310D03*
X1991360Y1003300D03*
X1790700Y990600D03*
X1892300Y1016000D03*
X1944370Y1079500D03*
X1828800Y1117600D03*
X1985010Y1078230D03*
X2076450Y641350D03*
X2032000Y406400D03*
X2012950Y71120D03*
X2001520Y139700D03*
X2030730Y312420D03*
X2080260Y692150D03*
X1696720Y196850D03*
X1720850Y158750D03*
X403860Y314960D03*
X469900Y360680D03*
X909320Y704850D03*
X893981Y1497330D03*
X1397000Y1295400D03*
X1397000Y1346200D03*
X1418590Y1316002D03*
X1409700Y1358900D03*
X1426210Y1327150D03*
X1409700Y1384300D03*
X1333500Y1371600D03*
X1358900Y1422400D03*
X1333500Y1384300D03*
X1346200Y1422400D03*
X1299210Y1346200D03*
X1299210Y1301468D03*
X1393190Y1435100D03*
X1394460Y2127250D03*
X1193800Y1562100D03*
X1404620Y1301750D03*
X1403350Y2133600D03*
X1393190Y1460500D03*
X1412240Y1308100D03*
X1422400Y1733550D03*
X1393190Y1473200D03*
X1143000Y1752600D03*
X1130300Y1525270D03*
X1346200Y1498600D03*
X1346200Y1447800D03*
X1393190Y1860550D03*
X1123668Y1474470D03*
X909320Y781050D03*
X893981Y1524000D03*
X1280160Y1480820D03*
X1280160Y1370330D03*
X1299210Y1873250D03*
X1124232Y1511300D03*
X1143000Y1981200D03*
X1143000Y2109188D03*
X1117600Y1524000D03*
X1125220Y1600200D03*
X1041400Y1473200D03*
X1333500Y1498600D03*
X1355090Y2000250D03*
X1544320Y1363980D03*
X909320Y793750D03*
X889000Y1803400D03*
X1008380Y797560D03*
X990600Y1587500D03*
X1393190Y2076450D03*
X1399540Y1695450D03*
X1399540Y1822450D03*
X1393190Y1949450D03*
X1399540Y1752600D03*
X1016000Y523240D03*
X1299210Y1708150D03*
X1299210Y1962150D03*
X1299210Y2089150D03*
X1332230Y1835150D03*
X1054100Y1663700D03*
X946432Y743232D03*
X946432Y812856D03*
X1035050Y819206D03*
X1286990Y1667651D03*
X1301750Y1543050D03*
X1143000Y1790700D03*
X1187450Y1810032D03*
X1215390Y1903222D03*
X1224280Y1910560D03*
X1295400Y2146300D03*
X1289050Y1574800D03*
X1286510Y1587500D03*
X1286510Y1600200D03*
X1219200Y1892300D03*
X1280160Y1612900D03*
X1219200Y1866900D03*
X1273810Y1581150D03*
X1261110Y1816100D03*
X985520Y1689100D03*
X1116330Y1676400D03*
X1125220Y1683032D03*
X836930Y768350D03*
X889000Y1905000D03*
X1219200Y1828800D03*
X1197384Y2006600D03*
X1041400Y1993900D03*
X1764030Y679450D03*
X1824990Y711200D03*
X1662656Y736600D03*
X1676400Y626110D03*
X1739900Y822960D03*
X1846298Y628932D03*
X1943100Y603250D03*
X1854200Y635000D03*
X1930400Y596900D03*
X2019300Y563880D03*
X1844040Y901700D03*
X2070100Y901700D03*
X1879600Y1173480D03*
X1930400Y1151890D03*
X1869440Y1106170D03*
X1870710Y1022350D03*
X1926590Y1183640D03*
X2005330Y1177290D03*
X2006600Y1165860D03*
X1870436Y1042670D03*
X1943100Y1409700D03*
X1992630Y1118870D03*
X1870314Y1073407D03*
X1978660Y1473200D03*
X1989864Y1135380D03*
X1870512Y1063754D03*
X2003072Y1524000D03*
X1870634Y1032586D03*
X1870710Y1052830D03*
X1870710Y1949450D03*
X1892300Y1282700D03*
X1878330Y1981200D03*
X1892300Y1295400D03*
X1943100Y1955800D03*
X1828800Y1460500D03*
X1828800Y1282700D03*
X1847850Y1651000D03*
X1847850Y1276350D03*
X1828800Y1631950D03*
X1835150Y1263650D03*
X1841500Y1251232D03*
X1841500Y1822450D03*
X1879600Y1407160D03*
X1873532Y1838960D03*
X1739900Y1420650D03*
X1739900Y1835150D03*
X1828800Y1593850D03*
X1835686Y1352550D03*
X1892300Y1346200D03*
X1872968Y1714500D03*
X1913890Y1389380D03*
X1872968Y1723588D03*
X1901190Y1413510D03*
X1877060Y1847850D03*
X1943100Y1625600D03*
X1949732Y1651000D03*
X1943100Y1524000D03*
X1930400Y1865630D03*
X1930400Y1877060D03*
X1741170Y1543050D03*
X1788160Y1873250D03*
X1918970Y1760220D03*
X1689100Y1619250D03*
X1549400Y1762760D03*
X1612900Y1659890D03*
X1600200Y1659890D03*
X1587500Y1659890D03*
X1435100Y1549400D03*
X1451610Y1536700D03*
X1435100Y1887220D03*
X1473200Y1887220D03*
X1473200Y1945640D03*
X1435100Y1945640D03*
X1511300Y1945640D03*
X1587500Y2054860D03*
X1714500Y2052320D03*
X1714500Y2120900D03*
X1657350Y1844040D03*
X1689100Y1770380D03*
X1536700Y1844040D03*
X1587500Y1770380D03*
X1605280Y1814830D03*
X1761490Y1880870D03*
X1517650Y2056130D03*
X1511300Y1812290D03*
X1473200Y1812290D03*
X2006600Y1982470D03*
X1670050Y1739900D03*
X1570990Y1741170D03*
X1426210Y2019300D03*
X1457960Y2106930D03*
X1435100Y1871980D03*
X1473200Y1871980D03*
X1511300Y1871980D03*
X1454150Y1882140D03*
X1447800Y2029460D03*
X1649730Y2000250D03*
X1631950Y1879600D03*
X1473200Y2038350D03*
X123190Y1041400D03*
M02*
