%
M48
M72
T01C0.01378
T02C0.02559
T03C0.03200
T04C0.03500
T05C0.03600
T06C0.03937
T07C0.04000
T08C0.04400
T09C0.05118
T10C0.05512
T11C0.05906
T12C0.06400
T13C0.09000
T14C0.09500
T15C0.09600
T16C0.11024
T17C0.13000
%
T01
X22700Y76800
X49700Y76800
X12311Y121800
X12311Y131800
X13500Y171800
X23289Y179800
X11111Y201800
X12311Y212300
X16111Y231800
X29700Y253800
X11111Y291800
X12311Y301800
X53500Y326800
X59700Y329800
X69700Y336889
X65089Y361987
X45200Y391800
X54700Y404300
X59700Y404800
X53200Y411800
X14700Y371800
X12311Y361800
X111700Y386800
X114089Y389800
X116478Y392800
X118867Y395800
X121256Y398800
X124200Y401300
X124200Y406800
X124856Y412300
X131700Y424300
X133200Y434300
X139622Y433101
X143200Y433300
X147700Y434300
X147700Y429300
X147700Y424300
X147700Y419300
X164700Y416800
X169200Y424300
X169200Y434300
X169200Y444300
X169200Y454300
X184700Y454300
X189700Y449300
X197700Y439300
X192200Y434300
X194700Y429300
X210200Y424300
X210200Y419300
X219200Y424300
X218200Y434300
X215200Y444300
X210200Y444300
X212700Y454189
X228439Y464300
X230828Y470300
X236978Y451800
X244700Y449300
X247700Y454300
X260200Y449300
X260200Y444300
X260200Y439300
X260200Y434300
X260200Y429300
X260200Y424300
X260200Y419300
X273711Y416800
X274700Y421800
X276111Y426800
X275700Y436800
X272700Y441800
X279700Y448800
X279889Y452489
X281700Y455878
X281689Y459456
X286803Y458403
X291381Y459478
X294958Y460678
X304700Y437300
X307200Y434300
X309700Y431300
X312200Y428300
X314700Y425300
X317200Y422300
X319700Y418800
X322200Y415800
X329700Y412800
X341589Y409300
X347567Y403300
X338700Y399300
X327200Y386800
X324700Y362300
X329700Y362300
X336200Y363800
X341589Y363800
X334700Y349800
X330200Y338300
X346378Y331800
X349700Y324300
X354700Y329300
X357200Y319300
X362700Y314300
X362700Y309300
X377311Y321822
X401700Y315800
X404700Y318300
X412200Y324322
X414200Y334800
X417851Y334649
X413200Y341800
X407089Y339300
X406622Y359300
X413011Y364300
X408233Y371800
X409700Y381800
X394311Y374300
X389700Y380300
X382700Y381800
X381811Y376800
X390089Y360378
X389700Y356800
X374700Y356300
X364700Y349300
X359700Y349300
X354700Y349300
X349700Y349300
X369700Y391800
X369700Y396800
X369700Y401800
X369700Y406800
X369700Y411800
X369700Y416800
X369700Y421800
X369700Y426800
X369700Y431800
X377200Y449800
X349700Y416800
X352700Y414300
X329700Y441800
X324700Y441800
X334700Y454300
X349889Y491800
X398200Y498089
X418700Y490300
X429200Y501800
X445950Y521550
X464700Y491800
X479200Y473800
X484700Y473800
X489700Y481800
X499700Y476800
X488200Y494800
X516200Y514189
X510200Y526300
X516200Y531800
X508700Y541300
X529700Y541800
X529700Y546800
X534700Y541800
X534700Y561800
X539700Y561800
X553200Y566800
X553200Y576800
X553200Y581800
X540200Y596800
X534700Y591800
X529700Y591800
X534700Y571800
X516200Y566800
X511700Y574300
X512700Y579800
X508700Y584800
X517200Y609300
X528700Y614300
X512200Y621800
X511200Y626800
X511200Y631800
X508700Y636800
X506200Y624300
X505389Y616800
X482311Y629189
X474700Y616800
X452700Y599189
X449700Y602300
X444700Y601800
X447311Y596800
X447089Y582300
X414700Y581800
X419700Y621800
X394700Y626800
X419700Y656800
X444200Y661800
X447700Y664411
X454700Y691800
X454700Y706800
X472200Y714411
X484700Y721800
X492700Y732300
X484700Y736800
X484700Y746800
X483200Y751100
X486700Y753989
X516200Y744300
X516200Y739300
X529200Y724300
X516200Y719300
X501200Y716800
X516200Y694300
X516200Y674300
X516200Y669300
X528700Y664300
X511389Y658356
X534700Y634300
X540700Y649300
X553200Y664300
X555700Y669300
X564700Y684300
X555700Y691800
X540200Y689300
X534700Y684300
X540200Y699300
X537200Y708300
X553200Y714300
X555700Y719300
X553200Y734300
X540200Y739300
X540200Y749300
X553200Y764300
X553200Y769300
X569700Y767800
X584700Y767800
X585200Y775989
X588200Y778567
X590972Y773300
X593538Y770489
X599700Y767800
X599700Y745800
X599700Y738800
X609700Y727800
X599700Y715300
X596189Y711800
X600700Y709189
X584700Y715300
X584700Y738800
X584700Y744800
X577200Y742800
X569700Y744800
X569700Y738800
X533700Y772800
X528700Y764300
X516200Y774300
X516200Y779300
X516200Y794300
X525700Y807800
X528700Y814300
X516200Y819300
X516200Y824300
X516200Y829300
X514700Y846800
X534700Y834300
X553700Y839300
X557200Y841800
X553200Y849300
X564700Y828800
X553200Y819300
X553200Y814300
X564700Y804800
X566200Y796800
X574700Y800800
X584700Y804300
X602200Y811300
X604200Y816300
X602200Y821300
X584700Y828800
X578700Y831300
X599700Y846300
X636700Y841300
X629700Y810800
X654200Y789300
X679700Y809800
X679700Y836800
X708700Y794300
X724700Y784300
X722200Y779300
X725700Y776689
X721700Y769300
X721700Y759300
X729700Y751800
X720700Y744300
X708700Y739300
X698200Y742300
X689700Y724300
X720700Y719300
X729700Y719300
X725700Y729300
X742311Y725800
X743700Y729300
X720700Y709300
X719700Y689300
X723200Y671800
X723511Y661800
X732200Y651800
X724700Y644300
X719700Y644300
X719700Y629300
X724700Y629300
X722017Y611800
X722017Y601800
X719700Y584800
X724700Y576800
X698630Y580730
X692941Y583041
X688501Y584101
X687089Y578756
X692062Y577162
X690667Y571800
X687089Y571800
X687089Y567101
X689700Y561111
X689700Y551800
X686200Y541800
X686200Y536800
X702644Y531800
X707422Y526800
X712200Y521800
X717200Y516800
X714700Y511800
X709811Y506800
X705033Y501800
X699700Y496800
X714700Y494300
X724700Y506800
X727200Y499300
X729700Y494411
X737200Y496800
X732200Y504300
X739700Y511800
X734700Y516800
X727411Y526800
X727411Y534300
X737200Y536800
X734700Y541800
X749700Y531800
X758200Y548800
X753200Y558300
X744700Y555800
X769700Y556800
X784200Y563800
X783700Y581800
X793311Y601800
X769700Y601800
X769700Y641800
X772311Y651800
X742089Y676800
X742089Y680378
X760200Y694800
X764700Y736300
X764700Y740800
X740700Y759300
X741200Y769300
X744200Y781800
X742700Y794300
X764700Y791800
X769700Y771800
X794700Y782300
X708389Y776800
X679700Y755300
X657200Y727800
X647200Y741800
X628200Y754800
X636700Y716300
X629700Y698800
X619700Y706800
X617170Y704270
X614700Y695800
X613700Y686300
X611200Y681800
X603700Y689300
X600200Y691800
X623200Y687300
X636700Y666300
X634700Y655300
X639700Y655300
X629700Y655300
X619700Y655300
X607211Y657800
X605700Y636800
X604700Y631800
X604700Y626800
X604700Y621800
X604200Y616800
X603200Y611800
X602200Y606800
X600700Y601800
X599700Y596800
X592700Y588300
X584601Y575701
X584700Y571800
X580299Y572399
X569700Y602300
X576200Y606800
X569700Y611800
X569700Y616800
X569700Y626800
X579700Y644300
X567700Y663800
X619200Y631800
X627100Y621800
X643200Y613800
X649700Y631800
X663200Y636800
X669700Y639300
X681200Y634300
X690200Y609300
X663200Y666300
X662200Y686800
X669700Y698800
X623723Y596800
X620145Y596800
X616567Y596800
X612989Y596800
X629700Y592300
X612700Y538800
X628200Y531300
X640427Y534027
X646617Y531217
X596200Y500800
X579700Y506800
X577011Y509489
X563200Y519911
X560700Y516800
X557700Y514300
X554700Y511800
X566200Y524300
X554700Y531800
X559700Y536800
X559700Y546800
X553200Y551800
X569700Y540300
X594700Y541300
X534700Y496800
X537089Y490800
X542200Y486800
X539478Y483300
X554700Y478800
X540700Y461800
X543089Y446800
X546200Y444300
X549589Y439411
X554700Y444300
X563700Y441800
X566700Y431300
X571700Y424300
X559700Y418322
X559700Y396800
X559700Y391800
X554700Y396800
X549700Y396800
X544700Y396800
X539700Y396800
X534700Y396800
X529700Y396800
X524700Y411800
X514700Y418800
X494700Y397300
X474700Y391800
X474700Y381800
X474700Y376800
X456789Y356800
X456089Y351800
X447200Y366800
X446700Y371800
X439700Y361800
X444700Y351800
X439700Y341800
X442200Y324300
X447200Y319300
X449700Y314300
X444700Y309300
X441200Y304300
X438811Y297800
X438700Y291800
X435700Y286800
X433200Y281800
X409700Y281800
X412700Y298300
X416700Y299300
X433200Y311800
X434700Y318222
X434700Y321800
X453700Y324300
X460700Y326800
X460700Y316800
X479700Y339300
X487200Y336800
X492700Y344300
X497200Y341800
X489700Y326800
X489700Y319778
X494700Y311800
X499700Y313800
X502371Y311411
X507200Y306300
X499700Y296800
X484700Y296800
X474700Y282800
X465200Y284411
X460700Y286800
X459700Y282022
X462261Y279239
X460700Y296800
X519700Y296800
X529700Y296800
X534700Y296800
X542200Y306800
X549700Y296800
X544700Y282800
X549700Y266800
X564700Y266800
X574700Y262189
X589289Y262189
X600200Y271800
X603192Y269111
X597011Y274800
X587289Y279800
X589700Y296800
X564700Y296800
X566200Y311800
X574700Y321800
X557200Y334300
X549700Y329300
X544700Y334300
X542200Y349300
X534700Y346800
X529700Y366800
X529700Y371800
X539700Y376800
X554700Y359300
X559700Y361800
X564700Y351800
X592200Y386800
X579200Y403800
X569700Y396800
X571700Y451800
X567450Y457050
X594700Y456800
X647922Y439800
X650311Y443300
X652700Y446800
X664700Y446078
X664700Y437300
X655500Y422889
X649611Y425689
X664700Y400300
X649834Y381300
X652223Y377464
X654612Y374300
X657001Y362300
X641456Y361800
X629700Y366800
X627089Y371800
X624700Y376800
X628700Y386800
X635489Y380513
X639067Y381300
X624700Y357889
X665700Y344300
X668700Y349300
X677200Y350389
X673661Y357839
X687700Y351800
X681089Y341800
X681122Y337800
X681200Y333722
X688200Y333300
X689700Y325800
X699700Y311800
X704700Y311800
X709700Y306800
X709700Y301800
X696200Y306689
X692622Y306689
X689044Y306689
X685466Y306689
X692200Y296300
X709700Y286800
X723200Y281800
X723200Y271800
X734700Y251800
X731589Y249411
X707200Y234300
X702700Y236800
X691786Y239300
X680900Y241811
X684700Y248300
X664700Y248300
X661700Y264300
X664200Y267300
X666822Y269800
X676111Y276800
X664700Y286800
X659289Y291800
X642700Y265300
X645700Y255300
X639700Y231800
X649700Y217389
X649700Y205300
X644700Y205300
X664700Y206800
X674700Y191800
X661700Y179411
X679700Y171800
X694700Y166800
X679700Y151800
X679700Y146800
X674700Y154300
X656700Y146800
X652200Y144411
X644700Y128300
X647200Y123800
X642200Y121800
X647200Y111800
X652200Y108800
X654700Y126800
X659700Y128189
X664700Y128189
X669700Y128189
X674700Y105300
X684700Y105300
X672700Y79300
X689700Y76800
X682200Y64300
X669700Y36800
X664700Y36800
X659700Y36800
X679700Y34411
X694700Y36800
X699700Y39300
X704700Y41800
X724700Y54300
X727200Y58300
X729700Y61800
X713200Y76800
X719700Y101300
X714700Y111800
X709700Y121800
X734700Y106800
X739700Y106800
X744700Y126800
X754700Y126800
X774700Y141800
X794700Y141800
X794700Y146800
X794700Y156800
X804700Y161800
X793700Y171800
X779700Y166800
X759700Y166800
X754700Y169300
X749700Y161800
X742200Y161300
X744700Y168800
X734700Y151800
X737200Y146800
X714700Y151800
X712200Y156800
X712200Y161800
X712200Y166800
X712200Y176800
X709700Y181800
X707200Y186800
X704700Y191800
X694700Y191800
X694700Y186800
X694700Y181800
X694700Y176800
X694700Y196800
X685700Y205800
X683700Y215000
X688200Y227300
X699700Y224800
X709700Y222300
X718200Y213800
X732200Y210800
X744700Y191800
X754700Y191800
X764700Y180300
X786311Y196800
X791700Y214800
X799700Y223800
X781200Y222300
X769700Y239300
X764700Y236800
X764700Y205800
X822200Y254300
X823700Y274300
X792139Y337739
X791700Y342800
X791700Y352800
X769700Y343800
X757200Y359489
X730700Y356800
X714567Y359300
X712178Y363800
X707289Y356800
X703389Y344800
X674589Y340389
X709700Y391800
X708200Y398300
X704200Y397800
X704700Y401800
X706200Y406800
X707200Y411800
X704700Y421800
X702200Y426800
X699700Y431800
X683700Y436800
X686200Y441800
X683700Y451300
X689700Y463100
X714700Y469211
X725200Y466300
X729700Y478300
X744700Y463800
X734700Y456800
X724700Y441800
X740700Y437300
X741044Y424401
X741122Y420601
X741200Y416300
X741092Y412300
X741170Y408330
X741200Y404300
X739700Y396800
X749700Y401800
X734700Y378300
X788700Y396800
X786200Y426300
X770200Y426800
X789200Y442300
X788111Y448800
X794700Y460800
X794200Y465300
X763200Y467800
X764700Y455300
X749700Y506800
X749700Y511800
X664700Y482800
X524700Y478800
X509700Y449800
X489700Y451800
X479700Y441800
X474700Y429300
X474200Y418300
X449700Y415800
X460700Y396800
X419700Y436800
X457700Y441800
X457200Y456800
X449700Y466800
X446700Y471800
X528700Y521800
X548200Y606800
X447700Y631800
X392700Y666800
X354700Y711800
X359050Y741800
X354700Y751800
X386200Y761800
X389700Y754800
X392200Y769411
X384700Y776800
X414700Y786800
X429200Y818800
X454700Y832189
X490200Y819189
X476111Y791800
X454700Y781800
X538200Y789300
X553200Y789300
X553200Y799300
X359700Y816800
X194700Y816800
X194700Y771800
X194700Y741800
X194700Y701800
X194700Y671800
X194700Y641800
X194700Y601800
X194700Y574411
X200700Y556800
X164700Y521800
X121200Y556300
X114700Y574411
X114700Y601800
X114700Y641800
X114700Y671800
X114700Y701800
X114700Y741800
X114700Y771800
X65200Y709300
X65200Y699300
X52700Y704300
X52700Y714300
X42700Y746800
X44700Y786800
X75911Y649300
X59700Y639300
X59700Y629300
X57200Y619300
X57200Y609300
X62700Y604300
X37200Y609300
X37200Y614300
X29200Y599300
X37200Y624300
X37200Y634300
X37200Y644300
X59700Y526800
X59700Y521800
X135700Y454300
X133511Y445989
X147700Y444300
X145700Y384300
X134700Y384300
X134200Y379300
X134200Y374300
X141700Y369300
X138700Y364300
X134200Y359300
X134700Y354300
X127700Y338800
X129700Y331800
X132700Y326800
X144700Y321800
X139200Y314300
X134200Y304300
X140200Y299300
X144700Y299300
X158200Y294300
X160700Y289300
X171200Y284300
X184200Y279300
X187200Y289300
X184200Y294300
X189700Y296800
X195200Y294300
X195200Y289300
X208200Y284300
X218700Y289300
X221200Y284300
X221200Y294300
X218700Y304300
X221200Y309300
X208200Y309300
X208200Y299300
X192200Y304300
X187200Y304300
X184200Y309300
X195200Y314300
X171200Y314300
X158200Y314300
X158200Y309300
X160700Y304300
X171200Y299300
X160700Y324300
X183700Y349300
X168811Y354300
X171200Y359300
X168700Y364300
X164700Y364300
X164700Y359300
X159200Y354300
X159200Y369300
X162200Y374300
X158700Y379300
X168700Y379300
X171200Y374300
X184700Y369300
X189700Y369300
X184700Y384300
X195200Y384300
X208200Y379300
X211200Y374300
X213700Y369300
X218200Y374300
X221200Y379300
X221200Y364189
X218200Y359300
X221200Y354300
X213700Y354300
X211200Y359300
X208200Y364300
X233700Y349300
X244700Y364300
X242200Y369300
X238700Y376800
X245200Y379300
X239700Y384300
X258311Y384300
X264700Y381800
X261200Y374300
X258200Y369300
X261200Y359300
X258200Y354300
X261700Y349300
X261700Y326800
X274200Y314300
X264700Y309300
X267200Y304300
X261700Y299300
X258700Y304300
X245200Y309300
X245700Y314300
X238200Y314300
X241200Y299300
X245200Y294300
X239700Y291800
X234700Y279300
X258700Y284300
X258700Y289300
X263200Y279300
X271789Y279300
X274200Y284300
X274200Y289300
X274200Y299300
X299700Y271800
X302200Y268300
X304700Y265300
X307200Y262300
X309700Y259300
X312200Y256300
X324700Y246800
X329700Y246800
X327200Y251800
X334700Y254300
X332200Y258300
X337200Y263189
X343200Y269800
X331700Y273500
X334200Y279300
X334200Y284411
X325700Y279300
X324700Y291800
X334200Y304300
X362700Y279300
X377311Y294411
X384700Y268800
X382200Y265300
X379700Y260389
X387200Y262567
X392200Y263767
X389700Y269745
X397200Y268980
X391200Y255389
X394700Y248189
X389800Y245389
X387200Y235800
X397200Y238189
X399700Y228189
X402200Y216800
X404700Y207800
X399700Y191800
X382311Y186800
X382200Y196800
X382311Y205389
X384700Y225800
X387700Y176800
X384700Y166800
X384700Y156800
X378811Y151300
X369700Y146300
X389611Y146800
X387200Y126800
X354700Y96800
X350400Y96800
X347230Y99770
X344700Y102300
X341578Y105178
X334700Y108300
X344700Y131800
X357089Y92800
X360400Y90300
X364700Y90300
X370200Y90300
X374700Y90300
X379200Y90300
X383200Y90300
X386811Y90300
X390389Y90300
X393967Y90300
X397545Y90300
X401200Y83300
X397089Y77800
X404700Y74189
X408011Y80300
X411589Y77800
X418011Y83189
X414700Y86300
X420400Y91300
X424700Y88689
X427200Y93689
X430700Y96078
X428700Y101800
X438700Y108800
X445200Y101167
X448200Y103556
X451200Y105945
X454200Y111834
X457200Y114223
X462871Y116612
X466200Y119501
X476700Y108800
X476700Y81511
X438700Y81511
X430311Y140411
X429111Y146800
X424421Y153021
X429111Y158211
X424789Y160800
X448789Y142800
X499700Y173000
X502311Y178532
X517700Y167300
X520900Y170189
X517311Y162722
X508299Y160278
X524700Y154300
X539200Y196800
X544700Y196800
X584700Y196800
X592233Y201800
X584700Y206800
X594700Y216800
X584700Y226800
X584700Y186800
X602889Y170300
X600200Y166800
X597511Y162800
X632811Y174300
X635200Y169300
X634700Y151800
X624011Y127611
X626833Y123091
X629222Y119800
X632265Y114265
X614700Y100800
X602889Y84800
X600200Y81800
X614700Y61800
X621200Y58300
X626700Y54300
X648700Y71800
X655700Y81800
X594700Y56800
X588500Y56800
X582311Y54411
X579700Y48300
X584700Y42322
X577783Y39717
X575223Y33777
X562210Y38356
X566988Y46512
X574700Y54300
X592200Y49300
X544700Y91800
X524700Y109300
X518200Y91300
X592089Y106411
X444700Y203000
X524700Y281800
X519700Y323800
X514700Y341800
X689700Y271800
X699200Y269300
X819700Y356800
X804200Y124800
X777200Y69800
X792700Y56800
X797200Y29800
X334700Y75911
X262700Y108189
X261200Y143689
X277811Y164189
X280200Y181800
X284700Y184800
X287700Y194300
X289700Y199300
X297200Y201800
X304700Y204300
X302200Y214189
X294700Y211800
X287200Y206800
X298011Y191300
X309700Y216800
X307200Y224300
X312200Y226800
X317200Y229300
X314700Y234300
X319700Y236800
X322200Y241800
X299700Y221800
X248200Y174800
X247549Y170649
X241700Y165800
X237889Y164989
X227200Y172300
X222700Y181800
X225200Y186800
X210200Y204300
X208200Y211800
X204700Y216800
X194700Y201800
X189700Y206800
X171200Y221800
X168200Y224800
X164700Y227300
X137700Y241800
X124700Y241800
X124700Y251800
X141700Y275300
X134200Y279300
X134200Y289300
X144700Y284300
X121200Y284300
X121200Y294300
X121200Y309300
X74700Y259189
X131700Y153300
X149700Y131800
X163700Y125800
X179700Y126800
X189700Y119800
X189700Y143800
X204200Y184189
X235222Y209581
X232200Y213800
X237611Y218449
X213700Y238800
X211200Y246800
X289700Y348800
X299700Y361800
X290578Y366800
X290578Y371800
X290578Y376800
X290578Y381800
X290578Y386800
X270111Y401800
X271200Y406800
X272511Y411800
X268911Y396800
X267711Y391800
X232200Y419300
X228100Y415300
X224200Y413000
X220700Y410611
X237200Y429300
X232200Y431800
X234589Y441800
X240700Y439300
X264700Y468300
X289700Y431800
X349889Y551800
X356661Y591300
X356661Y601800
X132200Y103800
X132200Y90800
T02
X602700Y72300
X731700Y266800
X718700Y374800
T03
X779700Y366800
X784700Y319300
X784700Y309300
X784700Y299300
X784700Y289300
X784700Y279300
X784700Y269300
X784700Y259300
X784700Y249300
X784700Y239300
X784700Y229300
X814700Y229300
X814700Y239300
X814700Y249300
X814700Y259300
X814700Y269300
X814700Y279300
X814700Y289300
X814700Y299300
X814700Y309300
X814700Y319300
X779700Y416800
X779700Y496800
X779700Y546800
X784700Y596800
X784700Y606800
X784700Y616800
X784700Y626800
X784700Y636800
X784700Y646800
X784700Y656800
X784700Y666800
X784700Y676800
X784700Y686800
X784700Y706800
X784700Y716800
X784700Y726800
X784700Y736800
X784700Y746800
X784700Y756800
X784700Y766800
X784700Y776800
X784700Y786800
X784700Y796800
X754700Y796800
X754700Y786800
X754700Y776800
X754700Y766800
X754700Y756800
X754700Y746800
X754700Y736800
X754700Y726800
X754700Y716800
X754700Y706800
X754700Y686800
X754700Y676800
X754700Y666800
X754700Y656800
X754700Y646800
X754700Y636800
X754700Y626800
X754700Y616800
X754700Y606800
X754700Y596800
X694700Y754800
X694700Y764800
X694700Y774800
X694700Y784800
X694700Y794800
X694700Y804800
X694700Y814800
X694700Y824800
X664700Y824800
X664700Y814800
X664700Y804800
X664700Y794800
X664700Y784800
X664700Y774800
X664700Y764800
X664700Y754800
X644700Y754300
X644700Y764300
X644700Y774300
X644700Y784300
X644700Y794300
X644700Y804300
X644700Y814300
X644700Y824300
X614700Y824300
X614700Y814300
X614700Y804300
X614700Y794300
X614700Y784300
X614700Y774300
X614700Y764300
X614700Y754300
X504700Y756800
X504700Y766800
X504700Y776800
X504700Y786800
X504700Y796800
X504700Y806800
X504700Y816800
X504700Y826800
X504700Y836800
X464700Y836800
X464700Y826800
X464700Y816800
X464700Y806800
X464700Y796800
X464700Y786800
X464700Y776800
X464700Y766800
X464700Y756800
X464700Y746800
X464700Y736800
X464700Y726800
X464700Y706800
X464700Y696800
X464700Y686800
X464700Y676800
X464700Y666800
X464700Y656800
X464700Y646800
X464700Y636800
X464700Y626800
X464700Y616800
X464700Y596800
X464700Y586800
X464700Y576800
X464700Y566800
X464700Y556800
X464700Y546800
X464700Y536800
X464700Y526800
X464700Y516800
X464700Y506800
X434700Y506800
X434700Y516800
X434700Y526800
X434700Y536800
X434700Y546800
X434700Y556800
X434700Y566800
X434700Y576800
X434700Y586800
X434700Y596800
X434700Y616800
X434700Y626800
X434700Y636800
X434700Y646800
X434700Y656800
X434700Y666800
X434700Y676800
X434700Y686800
X434700Y696800
X434700Y706800
X444700Y726800
X444700Y736800
X444700Y746800
X444700Y756800
X444700Y766800
X444700Y776800
X444700Y786800
X444700Y796800
X444700Y806800
X444700Y816800
X444700Y826800
X444700Y836800
X404700Y836800
X404700Y826800
X404700Y816800
X404700Y806800
X404700Y796800
X404700Y786800
X404700Y776800
X404700Y766800
X404700Y756800
X404700Y746800
X404700Y736800
X404700Y726800
X404700Y706800
X404700Y696800
X404700Y686800
X404700Y676800
X404700Y666800
X404700Y656800
X404700Y646800
X404700Y636800
X404700Y626800
X404700Y616800
X404700Y596800
X404700Y586800
X404700Y576800
X404700Y566800
X404700Y556800
X404700Y546800
X404700Y536800
X404700Y526800
X404700Y516800
X404700Y506800
X404700Y486800
X404700Y476800
X404700Y466800
X404700Y456800
X404700Y446800
X404700Y436800
X404700Y426800
X404700Y416800
X404700Y406800
X404700Y396800
X434700Y396800
X434700Y406800
X434700Y416800
X434700Y426800
X434700Y436800
X434700Y446800
X434700Y456800
X434700Y466800
X434700Y476800
X434700Y486800
X494700Y506800
X494700Y516800
X494700Y526800
X494700Y536800
X494700Y546800
X494700Y556800
X494700Y566800
X494700Y576800
X494700Y586800
X494700Y596800
X494700Y616800
X494700Y626800
X494700Y636800
X494700Y646800
X494700Y656800
X494700Y666800
X494700Y676800
X494700Y686800
X494700Y696800
X494700Y706800
X504700Y726800
X504700Y736800
X504700Y746800
X563700Y566800
X573700Y566800
X554700Y491800
X524700Y491800
X524700Y431800
X554700Y431800
X414700Y256800
X414700Y246800
X414700Y236800
X414700Y226800
X414700Y216800
X414700Y206800
X414700Y196800
X414700Y186800
X414700Y176800
X414700Y166800
X414700Y156800
X414700Y146800
X414700Y136800
X414700Y126800
X454700Y126800
X454700Y136800
X454700Y146800
X454700Y156800
X454700Y166800
X464700Y166800
X464700Y156800
X464700Y146800
X464700Y136800
X464700Y126800
X474700Y126800
X474700Y136800
X474700Y146800
X474700Y156800
X474700Y166800
X484700Y156800
X484700Y146800
X484700Y136800
X484700Y126800
X494700Y126800
X494700Y136800
X494700Y146800
X504700Y146800
X504700Y136800
X504700Y126800
X514700Y126800
X514700Y136800
X514700Y146800
X524700Y146800
X524700Y136800
X524700Y126800
X534700Y126800
X534700Y136800
X534700Y146800
X534700Y156800
X544700Y156800
X544700Y146800
X544700Y136800
X544700Y126800
X554700Y126800
X554700Y136800
X554700Y146800
X554700Y156800
X554700Y166800
X564700Y166800
X564700Y156800
X564700Y146800
X564700Y136800
X564700Y126800
X574700Y126800
X574700Y136800
X574700Y146800
X574700Y156800
X574700Y166800
X574700Y176800
X574700Y186800
X574700Y196800
X574700Y206800
X574700Y216800
X574700Y226800
X574700Y236800
X564700Y236800
X564700Y226800
X564700Y216800
X564700Y206800
X564700Y196800
X564700Y186800
X564700Y176800
X554700Y176800
X554700Y186800
X554700Y196800
X554700Y206800
X554700Y216800
X554700Y226800
X554700Y236800
X544700Y236800
X544700Y226800
X544700Y216800
X534700Y216800
X534700Y226800
X534700Y236800
X524700Y236800
X524700Y226800
X514700Y226800
X514700Y236800
X504700Y236800
X504700Y226800
X494700Y226800
X494700Y236800
X484700Y236800
X484700Y226800
X484700Y216800
X474700Y216800
X474700Y206800
X474700Y196800
X474700Y186800
X474700Y176800
X484700Y176800
X464700Y176800
X464700Y186800
X464700Y196800
X464700Y206800
X464700Y216800
X464700Y226800
X464700Y236800
X454700Y236800
X454700Y226800
X454700Y216800
X454700Y206800
X454700Y196800
X454700Y186800
X454700Y176800
X474700Y226800
X474700Y236800
X474700Y246800
X484700Y246800
X494700Y246800
X504700Y246800
X514700Y246800
X524700Y246800
X534700Y246800
X544700Y246800
X554700Y246800
X564700Y246800
X574700Y246800
X544700Y176800
X464700Y246800
X454700Y246800
X354700Y246800
X354700Y256800
X354700Y236800
X354700Y226800
X354700Y216800
X354700Y206800
X354700Y196800
X354700Y186800
X354700Y176800
X354700Y166800
X354700Y156800
X354700Y146800
X354700Y136800
X354700Y126800
X269700Y126800
X269700Y136800
X244700Y131800
X244700Y121800
X244700Y111800
X214700Y111800
X214700Y121800
X214700Y131800
X214700Y141800
X244700Y141800
X79700Y136800
X79700Y126800
X79700Y116800
X79700Y106800
X69700Y106800
X69700Y96800
X59700Y96800
X59700Y106800
X49700Y106800
X49700Y96800
X39700Y96800
X39700Y106800
X29700Y106800
X29700Y96800
X19700Y106800
X19700Y116800
X19700Y126800
X19700Y136800
X29700Y136800
X29700Y126800
X29700Y116800
X39700Y136800
X39700Y146800
X29700Y146800
X49700Y146800
X49700Y136800
X59700Y136800
X59700Y146800
X69700Y146800
X69700Y136800
X69700Y126800
X69700Y116800
X69700Y176800
X69700Y186800
X69700Y196800
X69700Y206800
X69700Y216800
X69700Y226800
X59700Y226800
X59700Y216800
X49700Y216800
X49700Y226800
X39700Y226800
X39700Y216800
X29700Y216800
X29700Y206800
X29700Y196800
X29700Y186800
X29700Y176800
X39700Y176800
X39700Y186800
X49700Y186800
X49700Y176800
X59700Y176800
X59700Y186800
X79700Y186800
X79700Y196800
X79700Y206800
X79700Y216800
X29700Y226800
X19700Y216800
X19700Y206800
X19700Y196800
X19700Y186800
X29700Y266800
X29700Y276800
X29700Y286800
X29700Y296800
X29700Y306800
X19700Y306800
X19700Y296800
X19700Y286800
X19700Y276800
X39700Y276800
X39700Y266800
X49700Y266800
X49700Y276800
X59700Y276800
X59700Y266800
X69700Y266800
X69700Y276800
X69700Y286800
X69700Y296800
X69700Y306800
X59700Y306800
X49700Y306800
X39700Y306800
X39700Y316800
X29700Y316800
X49700Y316800
X59700Y316800
X69700Y316800
X79700Y306800
X79700Y296800
X79700Y286800
X79700Y276800
X69700Y346800
X69700Y356800
X69700Y366800
X69700Y376800
X69700Y386800
X59700Y386800
X49700Y386800
X39700Y386800
X29700Y386800
X29700Y376800
X29700Y366800
X29700Y356800
X29700Y346800
X39700Y346800
X39700Y356800
X49700Y356800
X49700Y346800
X59700Y346800
X59700Y356800
X79700Y356800
X79700Y366800
X79700Y376800
X79700Y386800
X69700Y396800
X59700Y396800
X49700Y396800
X39700Y396800
X29700Y396800
X19700Y386800
X19700Y376800
X19700Y366800
X19700Y356800
X734700Y36800
X764700Y66800
X764700Y76800
X764700Y86800
X764700Y96800
X794700Y96800
X794700Y86800
X794700Y76800
X794700Y66800
X784700Y36800
T04
X853650Y61100
X863450Y61100
X863450Y87500
X853650Y87500
X853650Y136100
X863450Y136100
X863450Y162500
X853650Y162500
X853650Y663600
X863450Y663600
X863450Y671700
X853650Y673600
X853650Y681900
X853650Y690000
X863450Y690000
X863450Y681900
X863450Y738600
X863450Y746700
X853650Y748600
X853650Y756900
X853650Y765000
X863450Y765000
X863450Y756900
X853650Y738600
T05
X809700Y791800
X809700Y801800
X809700Y811800
X799700Y811800
X799700Y801800
X799700Y791800
X804700Y621800
X804700Y611800
X804700Y601800
X804700Y591800
X804700Y581800
X804700Y571800
X814700Y571800
X814700Y581800
X814700Y591800
X814700Y601800
X814700Y611800
X814700Y621800
X814700Y561800
X814700Y551800
X814700Y541800
X814700Y531800
X814700Y521800
X814700Y511800
X814700Y501800
X804700Y501800
X804700Y511800
X804700Y521800
X804700Y531800
X804700Y541800
X804700Y551800
X804700Y561800
X804700Y491800
X804700Y481800
X804700Y471800
X804700Y461800
X804700Y451800
X804700Y441800
X804700Y431800
X814700Y431800
X814700Y441800
X814700Y451800
X814700Y461800
X814700Y471800
X814700Y481800
X814700Y491800
X814700Y421800
X814700Y411800
X814700Y401800
X814700Y391800
X814700Y381800
X804700Y381800
X804700Y391800
X804700Y401800
X804700Y411800
X804700Y421800
X759700Y336800
X759700Y326800
X759700Y316800
X749700Y316800
X749700Y326800
X749700Y336800
X749700Y306800
X749700Y296800
X749700Y286800
X749700Y276800
X749700Y266800
X749700Y256800
X749700Y246800
X759700Y246800
X759700Y256800
X759700Y266800
X759700Y276800
X759700Y286800
X759700Y296800
X759700Y306800
X659700Y551800
X649700Y551800
X729700Y21800
X739700Y21800
T06
X779700Y449772
X779700Y483828
X854098Y813926
X861184Y821800
X875751Y813926
X885200Y821800
X839531Y821800
T07
X853200Y582000
X863200Y576600
X863200Y565700
X863200Y554800
X853200Y549400
X853200Y538500
X853200Y527700
X863200Y533100
X863200Y522200
X863200Y511400
X853200Y516800
X853200Y505900
X853200Y495100
X853200Y484200
X863200Y478800
X863200Y489600
X863200Y500500
X853200Y473300
X853200Y462500
X853200Y451600
X863200Y457000
X863200Y467900
X863200Y544000
X853200Y560300
X853200Y571100
X853200Y340500
X853200Y329600
X853200Y318800
X853200Y307900
X863200Y302500
X863200Y313300
X863200Y324300
X863200Y335100
X853200Y297000
X853200Y286200
X853200Y275300
X853200Y264400
X863200Y259000
X863200Y248100
X853200Y242700
X853200Y253600
X863200Y269900
X863200Y280800
X863200Y291600
X614700Y321800
X614700Y231800
X554700Y66800
X554700Y56800
X554700Y46800
X544700Y46800
X544700Y56800
X544700Y66800
X534700Y66800
X534700Y56800
X534700Y46800
X524700Y46800
X524700Y56800
X524700Y66800
X514700Y66800
X514700Y56800
X514700Y46800
X504700Y46800
X504700Y56800
X504700Y66800
X494700Y66800
X494700Y56800
X494700Y46800
X484700Y46800
X484700Y56800
X484700Y66800
X474700Y66800
X474700Y56800
X474700Y46800
X464700Y46800
X464700Y56800
X464700Y66800
X454700Y66800
X454700Y56800
X454700Y46800
X444700Y46800
X444700Y56800
X444700Y66800
X434700Y66800
X434700Y56800
X434700Y46800
X424700Y46800
X424700Y56800
X424700Y66800
X414700Y66800
X414700Y56800
X414700Y46800
X404700Y46800
X404700Y56800
X404700Y66800
X394700Y66800
X394700Y56800
X394700Y46800
X384700Y46800
X384700Y56800
X384700Y66800
X374700Y66800
X374700Y56800
X374700Y46800
X364700Y46800
X364700Y56800
X364700Y66800
X354700Y66800
X354700Y56800
X354700Y46800
X344700Y46800
X344700Y56800
X344700Y66800
X334700Y66800
X334700Y56800
X334700Y46800
X324700Y46800
X324700Y56800
X324700Y66800
X314700Y66800
X314700Y56800
X314700Y46800
X304700Y46800
X304700Y56800
X304700Y66800
X294700Y66800
X294700Y56800
X294700Y46800
X284700Y46800
X284700Y56800
X284700Y66800
X274700Y66800
X274700Y56800
X274700Y46800
X264700Y46800
X264700Y56800
X264700Y66800
X254700Y66800
X254700Y56800
X254700Y46800
X244700Y46800
X244700Y56800
X244700Y66800
X234700Y66800
X234700Y56800
X234700Y46800
X224700Y46800
X224700Y56800
X224700Y66800
X214700Y66800
X214700Y56800
X214700Y46800
X204700Y46800
X204700Y56800
X204700Y66800
X194700Y66800
X194700Y56800
X194700Y46800
X184700Y46800
X184700Y56800
X184700Y66800
X174700Y66800
X174700Y56800
X174700Y46800
X164700Y46800
X164700Y56800
X164700Y66800
X104700Y86800
X94700Y91800
X94700Y81800
X104700Y96800
X104700Y106800
X104700Y116800
X104700Y126800
X104700Y136800
X104700Y146800
X104700Y156800
X104700Y166800
X94700Y171800
X94700Y161800
X94700Y151800
X94700Y141800
X94700Y131800
X94700Y121800
X94700Y111800
X94700Y101800
X104700Y176800
X104700Y186800
X104700Y196800
X104700Y206800
X104700Y216800
X104700Y226800
X104700Y236800
X94700Y231800
X94700Y221800
X94700Y211800
X94700Y201800
X94700Y191800
X94700Y181800
X94700Y261800
X94700Y271800
X104700Y276800
X104700Y266800
X94700Y281800
X94700Y291800
X94700Y301800
X94700Y311800
X94700Y321800
X94700Y331800
X94700Y341800
X104700Y346800
X104700Y336800
X104700Y326800
X104700Y316800
X104700Y306800
X104700Y296800
X104700Y286800
X94700Y351800
X94700Y361800
X94700Y371800
X94700Y381800
X94700Y391800
X94700Y401800
X94700Y411800
X104700Y416800
X104700Y406800
X104700Y396800
X104700Y386800
X104700Y376800
X104700Y366800
X104700Y356800
X94700Y516800
X94700Y526800
X94700Y536800
X94700Y546800
X94700Y556800
X94700Y566800
X94700Y576800
X94700Y586800
X94700Y596800
X94700Y606800
X94700Y616800
X94700Y626800
X94700Y636800
X94700Y646800
X94700Y656800
X94700Y666800
X94700Y676800
X94700Y686800
X94700Y696800
X94700Y706800
X94700Y716800
X94700Y726800
X94700Y736800
X94700Y746800
X94700Y756800
X94700Y766800
X94700Y776800
X94700Y786800
X94700Y796800
X94700Y806800
X134700Y806800
X134700Y796800
X134700Y786800
X134700Y776800
X134700Y766800
X134700Y756800
X134700Y746800
X134700Y736800
X134700Y726800
X134700Y716800
X134700Y706800
X134700Y696800
X134700Y686800
X134700Y676800
X134700Y666800
X134700Y656800
X134700Y646800
X134700Y636800
X134700Y626800
X134700Y616800
X134700Y606800
X134700Y596800
X134700Y586800
X134700Y576800
X134700Y566800
X134700Y556800
X134700Y546800
X134700Y536800
X134700Y526800
X134700Y516800
X174700Y516800
X174700Y526800
X174700Y536800
X174700Y546800
X174700Y556800
X174700Y566800
X174700Y576800
X174700Y586800
X174700Y596800
X174700Y606800
X174700Y616800
X174700Y626800
X174700Y636800
X174700Y646800
X174700Y656800
X174700Y666800
X174700Y676800
X174700Y686800
X174700Y696800
X174700Y706800
X174700Y716800
X174700Y726800
X174700Y736800
X174700Y746800
X174700Y756800
X174700Y766800
X174700Y776800
X174700Y786800
X174700Y796800
X174700Y806800
X214700Y806800
X214700Y796800
X214700Y786800
X214700Y776800
X214700Y766800
X214700Y756800
X214700Y746800
X214700Y736800
X214700Y726800
X214700Y716800
X214700Y706800
X214700Y696800
X214700Y686800
X214700Y676800
X214700Y666800
X214700Y656800
X214700Y646800
X214700Y636800
X214700Y626800
X214700Y616800
X214700Y606800
X214700Y596800
X214700Y586800
X214700Y576800
X214700Y566800
X214700Y556800
X214700Y546800
X214700Y536800
X214700Y526800
X214700Y516800
X254700Y516800
X254700Y526800
X254700Y536800
X254700Y546800
X254700Y556800
X254700Y566800
X254700Y576800
X254700Y586800
X254700Y596800
X254700Y606800
X254700Y616800
X254700Y626800
X254700Y636800
X254700Y646800
X254700Y656800
X254700Y666800
X254700Y676800
X254700Y686800
X254700Y696800
X254700Y706800
X254700Y716800
X254700Y726800
X254700Y736800
X254700Y746800
X254700Y756800
X254700Y766800
X254700Y776800
X254700Y786800
X254700Y796800
X254700Y806800
X294700Y806800
X294700Y796800
X294700Y786800
X294700Y776800
X294700Y766800
X294700Y756800
X294700Y746800
X294700Y736800
X294700Y726800
X294700Y716800
X294700Y706800
X294700Y696800
X294700Y686800
X294700Y676800
X294700Y666800
X294700Y656800
X294700Y646800
X294700Y636800
X294700Y626800
X294700Y616800
X294700Y606800
X294700Y596800
X294700Y586800
X294700Y576800
X294700Y566800
X294700Y556800
X294700Y546800
X294700Y536800
X294700Y526800
X294700Y516800
X334700Y516800
X334700Y526800
X334700Y536800
X334700Y546800
X334700Y556800
X334700Y566800
X334700Y576800
X334700Y586800
X334700Y596800
X334700Y606800
X334700Y616800
X334700Y626800
X334700Y636800
X334700Y646800
X334700Y656800
X334700Y666800
X334700Y676800
X334700Y686800
X334700Y696800
X334700Y706800
X334700Y716800
X334700Y726800
X334700Y736800
X334700Y746800
X334700Y756800
X334700Y766800
X334700Y776800
X334700Y786800
X334700Y796800
X334700Y806800
X374700Y806800
X374700Y796800
X374700Y786800
X374700Y776800
X374700Y766800
X374700Y756800
X374700Y746800
X374700Y736800
X374700Y726800
X374700Y716800
X374700Y706800
X374700Y696800
X374700Y686800
X374700Y676800
X374700Y666800
X374700Y656800
X374700Y646800
X374700Y636800
X374700Y626800
X374700Y616800
X374700Y606800
X374700Y596800
X374700Y586800
X374700Y576800
X374700Y566800
X374700Y556800
X374700Y546800
X374700Y536800
X374700Y526800
X374700Y516800
T08
X584700Y671800
X584700Y791800
T09
X722405Y846800
X741995Y846800
X774905Y846800
X794495Y846800
X178200Y236040
X178200Y157300
T10
X608873Y402194
X608873Y418729
X608873Y435265
X608873Y451800
X608873Y468335
X608873Y484871
X608873Y501406
X630527Y501406
X630527Y484871
X630527Y468335
X630527Y451800
X630527Y435265
X630527Y418729
X630527Y402194
T11
X712200Y831800
X752200Y831800
X764700Y831800
X804700Y831800
T12
X374700Y844300
X334700Y844300
X294700Y844300
X254700Y844300
X214700Y844300
X174700Y844300
X134700Y844300
X94700Y844300
X99700Y449300
X99700Y249300
T13
X875250Y175900
X878450Y149300
X875250Y122700
X875250Y100900
X878450Y74300
X875250Y47700
X875250Y650200
X878450Y676800
X875250Y703400
X875250Y725200
X878450Y751800
X875250Y778400
T14
X374600Y479300
X334600Y479300
X294600Y479300
X254600Y479300
X214600Y479300
X174600Y479300
X134600Y479300
X94600Y479300
T15
X99700Y49300
T16
X834700Y114300
X881200Y24300
X834700Y258800
X834700Y469300
X834700Y584300
X834700Y689800
X824700Y771800
X881200Y856800
T17
X858200Y609400
X858200Y424200
X858200Y367900
X858200Y215600
M30
