G75*
%MOIN*%
%OFA0B0*%
%FSLAX25Y25*%
%IPPOS*%
%LPD*%
%AMOC8*
5,1,8,0,0,1.08239X$1,22.5*
%
%ADD10C,0.00600*%
%ADD11C,0.00000*%
%ADD12R,0.03937X0.05512*%
%ADD13R,0.07098X0.06299*%
%ADD14R,0.07087X0.06299*%
%ADD15R,0.06299X0.03937*%
%ADD16R,0.06300X0.04600*%
%ADD17R,0.04600X0.06300*%
D10*
X0004700Y0005800D02*
X0010200Y0001300D01*
X0890200Y0001300D01*
X0894700Y0005800D01*
X0894700Y0872800D01*
X0889700Y0877800D01*
X0549700Y0877800D01*
X0549700Y0864300D01*
X0459700Y0864300D01*
X0459700Y0877800D01*
X0379700Y0877800D01*
X0379700Y0864300D01*
X0299700Y0864300D01*
X0299700Y0877800D01*
X0219700Y0877800D01*
X0219700Y0864300D01*
X0129700Y0864300D01*
X0129700Y0877800D01*
X0017200Y0877800D01*
X0004700Y0864300D01*
X0004700Y0454300D01*
X0024700Y0439300D01*
X0051700Y0439300D01*
X0051856Y0439286D01*
X0052012Y0439267D01*
X0052168Y0439245D01*
X0052323Y0439219D01*
X0052477Y0439189D01*
X0052631Y0439155D01*
X0052783Y0439117D01*
X0052935Y0439075D01*
X0053085Y0439030D01*
X0053234Y0438981D01*
X0053382Y0438928D01*
X0053529Y0438871D01*
X0053674Y0438811D01*
X0053817Y0438748D01*
X0053959Y0438680D01*
X0054100Y0438609D01*
X0054238Y0438535D01*
X0054374Y0438457D01*
X0054509Y0438376D01*
X0054641Y0438291D01*
X0054772Y0438203D01*
X0054900Y0438112D01*
X0055025Y0438018D01*
X0055149Y0437921D01*
X0055269Y0437820D01*
X0055388Y0437717D01*
X0055503Y0437610D01*
X0055616Y0437501D01*
X0055726Y0437389D01*
X0055834Y0437274D01*
X0055938Y0437157D01*
X0056039Y0437037D01*
X0056138Y0436914D01*
X0056233Y0436789D01*
X0056325Y0436662D01*
X0056414Y0436532D01*
X0056500Y0436401D01*
X0056582Y0436267D01*
X0056661Y0436131D01*
X0056736Y0435993D01*
X0056808Y0435854D01*
X0056877Y0435712D01*
X0056942Y0435569D01*
X0057003Y0435425D01*
X0057061Y0435278D01*
X0057115Y0435131D01*
X0057165Y0434982D01*
X0057211Y0434832D01*
X0057254Y0434681D01*
X0057293Y0434529D01*
X0057328Y0434375D01*
X0057360Y0434221D01*
X0057387Y0434067D01*
X0057411Y0433911D01*
X0057430Y0433756D01*
X0057446Y0433599D01*
X0057458Y0433443D01*
X0057466Y0433286D01*
X0057470Y0433129D01*
X0057470Y0432971D01*
X0057466Y0432814D01*
X0057458Y0432657D01*
X0057446Y0432501D01*
X0057430Y0432344D01*
X0057411Y0432189D01*
X0057387Y0432033D01*
X0057360Y0431879D01*
X0057328Y0431725D01*
X0057293Y0431571D01*
X0057254Y0431419D01*
X0057211Y0431268D01*
X0057165Y0431118D01*
X0057115Y0430969D01*
X0057061Y0430822D01*
X0057003Y0430675D01*
X0056942Y0430531D01*
X0056877Y0430388D01*
X0056808Y0430246D01*
X0056736Y0430107D01*
X0056661Y0429969D01*
X0056582Y0429833D01*
X0056500Y0429699D01*
X0056414Y0429568D01*
X0056325Y0429438D01*
X0056233Y0429311D01*
X0056138Y0429186D01*
X0056039Y0429063D01*
X0055938Y0428943D01*
X0055834Y0428826D01*
X0055726Y0428711D01*
X0055616Y0428599D01*
X0055503Y0428490D01*
X0055388Y0428383D01*
X0055269Y0428280D01*
X0055149Y0428179D01*
X0055025Y0428082D01*
X0054900Y0427988D01*
X0054772Y0427897D01*
X0054641Y0427809D01*
X0054509Y0427724D01*
X0054374Y0427643D01*
X0054238Y0427565D01*
X0054100Y0427491D01*
X0053959Y0427420D01*
X0053817Y0427352D01*
X0053674Y0427289D01*
X0053529Y0427229D01*
X0053382Y0427172D01*
X0053234Y0427119D01*
X0053085Y0427070D01*
X0052935Y0427025D01*
X0052783Y0426983D01*
X0052631Y0426945D01*
X0052477Y0426911D01*
X0052323Y0426881D01*
X0052168Y0426855D01*
X0052012Y0426833D01*
X0051856Y0426814D01*
X0051700Y0426800D01*
X0024700Y0426800D01*
X0004700Y0411800D01*
X0004700Y0005800D01*
X0829700Y0193800D02*
X0829700Y0218800D01*
X0839700Y0218800D01*
X0839700Y0193800D01*
X0829700Y0193800D01*
X0829700Y0351800D02*
X0829700Y0376800D01*
X0839700Y0376800D01*
X0839700Y0351800D01*
X0829700Y0351800D01*
X0829700Y0629300D02*
X0829700Y0654800D01*
X0839700Y0654800D01*
X0839700Y0629300D01*
X0829700Y0629300D01*
D11*
X0801747Y0831800D02*
X0801749Y0831908D01*
X0801755Y0832017D01*
X0801765Y0832125D01*
X0801779Y0832232D01*
X0801797Y0832339D01*
X0801818Y0832446D01*
X0801844Y0832551D01*
X0801874Y0832656D01*
X0801907Y0832759D01*
X0801944Y0832861D01*
X0801985Y0832961D01*
X0802029Y0833060D01*
X0802078Y0833158D01*
X0802129Y0833253D01*
X0802184Y0833346D01*
X0802243Y0833438D01*
X0802305Y0833527D01*
X0802370Y0833614D01*
X0802438Y0833698D01*
X0802509Y0833780D01*
X0802583Y0833859D01*
X0802660Y0833935D01*
X0802740Y0834009D01*
X0802823Y0834079D01*
X0802908Y0834147D01*
X0802995Y0834211D01*
X0803085Y0834272D01*
X0803177Y0834330D01*
X0803271Y0834384D01*
X0803367Y0834435D01*
X0803464Y0834482D01*
X0803564Y0834526D01*
X0803665Y0834566D01*
X0803767Y0834602D01*
X0803870Y0834634D01*
X0803975Y0834663D01*
X0804081Y0834687D01*
X0804187Y0834708D01*
X0804294Y0834725D01*
X0804402Y0834738D01*
X0804510Y0834747D01*
X0804619Y0834752D01*
X0804727Y0834753D01*
X0804836Y0834750D01*
X0804944Y0834743D01*
X0805052Y0834732D01*
X0805159Y0834717D01*
X0805266Y0834698D01*
X0805372Y0834675D01*
X0805477Y0834649D01*
X0805582Y0834618D01*
X0805684Y0834584D01*
X0805786Y0834546D01*
X0805886Y0834504D01*
X0805985Y0834459D01*
X0806082Y0834410D01*
X0806176Y0834357D01*
X0806269Y0834301D01*
X0806360Y0834242D01*
X0806449Y0834179D01*
X0806535Y0834114D01*
X0806619Y0834045D01*
X0806700Y0833973D01*
X0806778Y0833898D01*
X0806854Y0833820D01*
X0806927Y0833739D01*
X0806997Y0833656D01*
X0807063Y0833571D01*
X0807127Y0833483D01*
X0807187Y0833392D01*
X0807244Y0833300D01*
X0807297Y0833205D01*
X0807347Y0833109D01*
X0807393Y0833011D01*
X0807436Y0832911D01*
X0807475Y0832810D01*
X0807510Y0832707D01*
X0807542Y0832604D01*
X0807569Y0832499D01*
X0807593Y0832393D01*
X0807613Y0832286D01*
X0807629Y0832179D01*
X0807641Y0832071D01*
X0807649Y0831963D01*
X0807653Y0831854D01*
X0807653Y0831746D01*
X0807649Y0831637D01*
X0807641Y0831529D01*
X0807629Y0831421D01*
X0807613Y0831314D01*
X0807593Y0831207D01*
X0807569Y0831101D01*
X0807542Y0830996D01*
X0807510Y0830893D01*
X0807475Y0830790D01*
X0807436Y0830689D01*
X0807393Y0830589D01*
X0807347Y0830491D01*
X0807297Y0830395D01*
X0807244Y0830300D01*
X0807187Y0830208D01*
X0807127Y0830117D01*
X0807063Y0830029D01*
X0806997Y0829944D01*
X0806927Y0829861D01*
X0806854Y0829780D01*
X0806778Y0829702D01*
X0806700Y0829627D01*
X0806619Y0829555D01*
X0806535Y0829486D01*
X0806449Y0829421D01*
X0806360Y0829358D01*
X0806269Y0829299D01*
X0806177Y0829243D01*
X0806082Y0829190D01*
X0805985Y0829141D01*
X0805886Y0829096D01*
X0805786Y0829054D01*
X0805684Y0829016D01*
X0805582Y0828982D01*
X0805477Y0828951D01*
X0805372Y0828925D01*
X0805266Y0828902D01*
X0805159Y0828883D01*
X0805052Y0828868D01*
X0804944Y0828857D01*
X0804836Y0828850D01*
X0804727Y0828847D01*
X0804619Y0828848D01*
X0804510Y0828853D01*
X0804402Y0828862D01*
X0804294Y0828875D01*
X0804187Y0828892D01*
X0804081Y0828913D01*
X0803975Y0828937D01*
X0803870Y0828966D01*
X0803767Y0828998D01*
X0803665Y0829034D01*
X0803564Y0829074D01*
X0803464Y0829118D01*
X0803367Y0829165D01*
X0803271Y0829216D01*
X0803177Y0829270D01*
X0803085Y0829328D01*
X0802995Y0829389D01*
X0802908Y0829453D01*
X0802823Y0829521D01*
X0802740Y0829591D01*
X0802660Y0829665D01*
X0802583Y0829741D01*
X0802509Y0829820D01*
X0802438Y0829902D01*
X0802370Y0829986D01*
X0802305Y0830073D01*
X0802243Y0830162D01*
X0802184Y0830254D01*
X0802129Y0830347D01*
X0802078Y0830442D01*
X0802029Y0830540D01*
X0801985Y0830639D01*
X0801944Y0830739D01*
X0801907Y0830841D01*
X0801874Y0830944D01*
X0801844Y0831049D01*
X0801818Y0831154D01*
X0801797Y0831261D01*
X0801779Y0831368D01*
X0801765Y0831475D01*
X0801755Y0831583D01*
X0801749Y0831692D01*
X0801747Y0831800D01*
X0761747Y0831800D02*
X0761749Y0831908D01*
X0761755Y0832017D01*
X0761765Y0832125D01*
X0761779Y0832232D01*
X0761797Y0832339D01*
X0761818Y0832446D01*
X0761844Y0832551D01*
X0761874Y0832656D01*
X0761907Y0832759D01*
X0761944Y0832861D01*
X0761985Y0832961D01*
X0762029Y0833060D01*
X0762078Y0833158D01*
X0762129Y0833253D01*
X0762184Y0833346D01*
X0762243Y0833438D01*
X0762305Y0833527D01*
X0762370Y0833614D01*
X0762438Y0833698D01*
X0762509Y0833780D01*
X0762583Y0833859D01*
X0762660Y0833935D01*
X0762740Y0834009D01*
X0762823Y0834079D01*
X0762908Y0834147D01*
X0762995Y0834211D01*
X0763085Y0834272D01*
X0763177Y0834330D01*
X0763271Y0834384D01*
X0763367Y0834435D01*
X0763464Y0834482D01*
X0763564Y0834526D01*
X0763665Y0834566D01*
X0763767Y0834602D01*
X0763870Y0834634D01*
X0763975Y0834663D01*
X0764081Y0834687D01*
X0764187Y0834708D01*
X0764294Y0834725D01*
X0764402Y0834738D01*
X0764510Y0834747D01*
X0764619Y0834752D01*
X0764727Y0834753D01*
X0764836Y0834750D01*
X0764944Y0834743D01*
X0765052Y0834732D01*
X0765159Y0834717D01*
X0765266Y0834698D01*
X0765372Y0834675D01*
X0765477Y0834649D01*
X0765582Y0834618D01*
X0765684Y0834584D01*
X0765786Y0834546D01*
X0765886Y0834504D01*
X0765985Y0834459D01*
X0766082Y0834410D01*
X0766176Y0834357D01*
X0766269Y0834301D01*
X0766360Y0834242D01*
X0766449Y0834179D01*
X0766535Y0834114D01*
X0766619Y0834045D01*
X0766700Y0833973D01*
X0766778Y0833898D01*
X0766854Y0833820D01*
X0766927Y0833739D01*
X0766997Y0833656D01*
X0767063Y0833571D01*
X0767127Y0833483D01*
X0767187Y0833392D01*
X0767244Y0833300D01*
X0767297Y0833205D01*
X0767347Y0833109D01*
X0767393Y0833011D01*
X0767436Y0832911D01*
X0767475Y0832810D01*
X0767510Y0832707D01*
X0767542Y0832604D01*
X0767569Y0832499D01*
X0767593Y0832393D01*
X0767613Y0832286D01*
X0767629Y0832179D01*
X0767641Y0832071D01*
X0767649Y0831963D01*
X0767653Y0831854D01*
X0767653Y0831746D01*
X0767649Y0831637D01*
X0767641Y0831529D01*
X0767629Y0831421D01*
X0767613Y0831314D01*
X0767593Y0831207D01*
X0767569Y0831101D01*
X0767542Y0830996D01*
X0767510Y0830893D01*
X0767475Y0830790D01*
X0767436Y0830689D01*
X0767393Y0830589D01*
X0767347Y0830491D01*
X0767297Y0830395D01*
X0767244Y0830300D01*
X0767187Y0830208D01*
X0767127Y0830117D01*
X0767063Y0830029D01*
X0766997Y0829944D01*
X0766927Y0829861D01*
X0766854Y0829780D01*
X0766778Y0829702D01*
X0766700Y0829627D01*
X0766619Y0829555D01*
X0766535Y0829486D01*
X0766449Y0829421D01*
X0766360Y0829358D01*
X0766269Y0829299D01*
X0766177Y0829243D01*
X0766082Y0829190D01*
X0765985Y0829141D01*
X0765886Y0829096D01*
X0765786Y0829054D01*
X0765684Y0829016D01*
X0765582Y0828982D01*
X0765477Y0828951D01*
X0765372Y0828925D01*
X0765266Y0828902D01*
X0765159Y0828883D01*
X0765052Y0828868D01*
X0764944Y0828857D01*
X0764836Y0828850D01*
X0764727Y0828847D01*
X0764619Y0828848D01*
X0764510Y0828853D01*
X0764402Y0828862D01*
X0764294Y0828875D01*
X0764187Y0828892D01*
X0764081Y0828913D01*
X0763975Y0828937D01*
X0763870Y0828966D01*
X0763767Y0828998D01*
X0763665Y0829034D01*
X0763564Y0829074D01*
X0763464Y0829118D01*
X0763367Y0829165D01*
X0763271Y0829216D01*
X0763177Y0829270D01*
X0763085Y0829328D01*
X0762995Y0829389D01*
X0762908Y0829453D01*
X0762823Y0829521D01*
X0762740Y0829591D01*
X0762660Y0829665D01*
X0762583Y0829741D01*
X0762509Y0829820D01*
X0762438Y0829902D01*
X0762370Y0829986D01*
X0762305Y0830073D01*
X0762243Y0830162D01*
X0762184Y0830254D01*
X0762129Y0830347D01*
X0762078Y0830442D01*
X0762029Y0830540D01*
X0761985Y0830639D01*
X0761944Y0830739D01*
X0761907Y0830841D01*
X0761874Y0830944D01*
X0761844Y0831049D01*
X0761818Y0831154D01*
X0761797Y0831261D01*
X0761779Y0831368D01*
X0761765Y0831475D01*
X0761755Y0831583D01*
X0761749Y0831692D01*
X0761747Y0831800D01*
X0749247Y0831800D02*
X0749249Y0831908D01*
X0749255Y0832017D01*
X0749265Y0832125D01*
X0749279Y0832232D01*
X0749297Y0832339D01*
X0749318Y0832446D01*
X0749344Y0832551D01*
X0749374Y0832656D01*
X0749407Y0832759D01*
X0749444Y0832861D01*
X0749485Y0832961D01*
X0749529Y0833060D01*
X0749578Y0833158D01*
X0749629Y0833253D01*
X0749684Y0833346D01*
X0749743Y0833438D01*
X0749805Y0833527D01*
X0749870Y0833614D01*
X0749938Y0833698D01*
X0750009Y0833780D01*
X0750083Y0833859D01*
X0750160Y0833935D01*
X0750240Y0834009D01*
X0750323Y0834079D01*
X0750408Y0834147D01*
X0750495Y0834211D01*
X0750585Y0834272D01*
X0750677Y0834330D01*
X0750771Y0834384D01*
X0750867Y0834435D01*
X0750964Y0834482D01*
X0751064Y0834526D01*
X0751165Y0834566D01*
X0751267Y0834602D01*
X0751370Y0834634D01*
X0751475Y0834663D01*
X0751581Y0834687D01*
X0751687Y0834708D01*
X0751794Y0834725D01*
X0751902Y0834738D01*
X0752010Y0834747D01*
X0752119Y0834752D01*
X0752227Y0834753D01*
X0752336Y0834750D01*
X0752444Y0834743D01*
X0752552Y0834732D01*
X0752659Y0834717D01*
X0752766Y0834698D01*
X0752872Y0834675D01*
X0752977Y0834649D01*
X0753082Y0834618D01*
X0753184Y0834584D01*
X0753286Y0834546D01*
X0753386Y0834504D01*
X0753485Y0834459D01*
X0753582Y0834410D01*
X0753676Y0834357D01*
X0753769Y0834301D01*
X0753860Y0834242D01*
X0753949Y0834179D01*
X0754035Y0834114D01*
X0754119Y0834045D01*
X0754200Y0833973D01*
X0754278Y0833898D01*
X0754354Y0833820D01*
X0754427Y0833739D01*
X0754497Y0833656D01*
X0754563Y0833571D01*
X0754627Y0833483D01*
X0754687Y0833392D01*
X0754744Y0833300D01*
X0754797Y0833205D01*
X0754847Y0833109D01*
X0754893Y0833011D01*
X0754936Y0832911D01*
X0754975Y0832810D01*
X0755010Y0832707D01*
X0755042Y0832604D01*
X0755069Y0832499D01*
X0755093Y0832393D01*
X0755113Y0832286D01*
X0755129Y0832179D01*
X0755141Y0832071D01*
X0755149Y0831963D01*
X0755153Y0831854D01*
X0755153Y0831746D01*
X0755149Y0831637D01*
X0755141Y0831529D01*
X0755129Y0831421D01*
X0755113Y0831314D01*
X0755093Y0831207D01*
X0755069Y0831101D01*
X0755042Y0830996D01*
X0755010Y0830893D01*
X0754975Y0830790D01*
X0754936Y0830689D01*
X0754893Y0830589D01*
X0754847Y0830491D01*
X0754797Y0830395D01*
X0754744Y0830300D01*
X0754687Y0830208D01*
X0754627Y0830117D01*
X0754563Y0830029D01*
X0754497Y0829944D01*
X0754427Y0829861D01*
X0754354Y0829780D01*
X0754278Y0829702D01*
X0754200Y0829627D01*
X0754119Y0829555D01*
X0754035Y0829486D01*
X0753949Y0829421D01*
X0753860Y0829358D01*
X0753769Y0829299D01*
X0753677Y0829243D01*
X0753582Y0829190D01*
X0753485Y0829141D01*
X0753386Y0829096D01*
X0753286Y0829054D01*
X0753184Y0829016D01*
X0753082Y0828982D01*
X0752977Y0828951D01*
X0752872Y0828925D01*
X0752766Y0828902D01*
X0752659Y0828883D01*
X0752552Y0828868D01*
X0752444Y0828857D01*
X0752336Y0828850D01*
X0752227Y0828847D01*
X0752119Y0828848D01*
X0752010Y0828853D01*
X0751902Y0828862D01*
X0751794Y0828875D01*
X0751687Y0828892D01*
X0751581Y0828913D01*
X0751475Y0828937D01*
X0751370Y0828966D01*
X0751267Y0828998D01*
X0751165Y0829034D01*
X0751064Y0829074D01*
X0750964Y0829118D01*
X0750867Y0829165D01*
X0750771Y0829216D01*
X0750677Y0829270D01*
X0750585Y0829328D01*
X0750495Y0829389D01*
X0750408Y0829453D01*
X0750323Y0829521D01*
X0750240Y0829591D01*
X0750160Y0829665D01*
X0750083Y0829741D01*
X0750009Y0829820D01*
X0749938Y0829902D01*
X0749870Y0829986D01*
X0749805Y0830073D01*
X0749743Y0830162D01*
X0749684Y0830254D01*
X0749629Y0830347D01*
X0749578Y0830442D01*
X0749529Y0830540D01*
X0749485Y0830639D01*
X0749444Y0830739D01*
X0749407Y0830841D01*
X0749374Y0830944D01*
X0749344Y0831049D01*
X0749318Y0831154D01*
X0749297Y0831261D01*
X0749279Y0831368D01*
X0749265Y0831475D01*
X0749255Y0831583D01*
X0749249Y0831692D01*
X0749247Y0831800D01*
X0709247Y0831800D02*
X0709249Y0831908D01*
X0709255Y0832017D01*
X0709265Y0832125D01*
X0709279Y0832232D01*
X0709297Y0832339D01*
X0709318Y0832446D01*
X0709344Y0832551D01*
X0709374Y0832656D01*
X0709407Y0832759D01*
X0709444Y0832861D01*
X0709485Y0832961D01*
X0709529Y0833060D01*
X0709578Y0833158D01*
X0709629Y0833253D01*
X0709684Y0833346D01*
X0709743Y0833438D01*
X0709805Y0833527D01*
X0709870Y0833614D01*
X0709938Y0833698D01*
X0710009Y0833780D01*
X0710083Y0833859D01*
X0710160Y0833935D01*
X0710240Y0834009D01*
X0710323Y0834079D01*
X0710408Y0834147D01*
X0710495Y0834211D01*
X0710585Y0834272D01*
X0710677Y0834330D01*
X0710771Y0834384D01*
X0710867Y0834435D01*
X0710964Y0834482D01*
X0711064Y0834526D01*
X0711165Y0834566D01*
X0711267Y0834602D01*
X0711370Y0834634D01*
X0711475Y0834663D01*
X0711581Y0834687D01*
X0711687Y0834708D01*
X0711794Y0834725D01*
X0711902Y0834738D01*
X0712010Y0834747D01*
X0712119Y0834752D01*
X0712227Y0834753D01*
X0712336Y0834750D01*
X0712444Y0834743D01*
X0712552Y0834732D01*
X0712659Y0834717D01*
X0712766Y0834698D01*
X0712872Y0834675D01*
X0712977Y0834649D01*
X0713082Y0834618D01*
X0713184Y0834584D01*
X0713286Y0834546D01*
X0713386Y0834504D01*
X0713485Y0834459D01*
X0713582Y0834410D01*
X0713676Y0834357D01*
X0713769Y0834301D01*
X0713860Y0834242D01*
X0713949Y0834179D01*
X0714035Y0834114D01*
X0714119Y0834045D01*
X0714200Y0833973D01*
X0714278Y0833898D01*
X0714354Y0833820D01*
X0714427Y0833739D01*
X0714497Y0833656D01*
X0714563Y0833571D01*
X0714627Y0833483D01*
X0714687Y0833392D01*
X0714744Y0833300D01*
X0714797Y0833205D01*
X0714847Y0833109D01*
X0714893Y0833011D01*
X0714936Y0832911D01*
X0714975Y0832810D01*
X0715010Y0832707D01*
X0715042Y0832604D01*
X0715069Y0832499D01*
X0715093Y0832393D01*
X0715113Y0832286D01*
X0715129Y0832179D01*
X0715141Y0832071D01*
X0715149Y0831963D01*
X0715153Y0831854D01*
X0715153Y0831746D01*
X0715149Y0831637D01*
X0715141Y0831529D01*
X0715129Y0831421D01*
X0715113Y0831314D01*
X0715093Y0831207D01*
X0715069Y0831101D01*
X0715042Y0830996D01*
X0715010Y0830893D01*
X0714975Y0830790D01*
X0714936Y0830689D01*
X0714893Y0830589D01*
X0714847Y0830491D01*
X0714797Y0830395D01*
X0714744Y0830300D01*
X0714687Y0830208D01*
X0714627Y0830117D01*
X0714563Y0830029D01*
X0714497Y0829944D01*
X0714427Y0829861D01*
X0714354Y0829780D01*
X0714278Y0829702D01*
X0714200Y0829627D01*
X0714119Y0829555D01*
X0714035Y0829486D01*
X0713949Y0829421D01*
X0713860Y0829358D01*
X0713769Y0829299D01*
X0713677Y0829243D01*
X0713582Y0829190D01*
X0713485Y0829141D01*
X0713386Y0829096D01*
X0713286Y0829054D01*
X0713184Y0829016D01*
X0713082Y0828982D01*
X0712977Y0828951D01*
X0712872Y0828925D01*
X0712766Y0828902D01*
X0712659Y0828883D01*
X0712552Y0828868D01*
X0712444Y0828857D01*
X0712336Y0828850D01*
X0712227Y0828847D01*
X0712119Y0828848D01*
X0712010Y0828853D01*
X0711902Y0828862D01*
X0711794Y0828875D01*
X0711687Y0828892D01*
X0711581Y0828913D01*
X0711475Y0828937D01*
X0711370Y0828966D01*
X0711267Y0828998D01*
X0711165Y0829034D01*
X0711064Y0829074D01*
X0710964Y0829118D01*
X0710867Y0829165D01*
X0710771Y0829216D01*
X0710677Y0829270D01*
X0710585Y0829328D01*
X0710495Y0829389D01*
X0710408Y0829453D01*
X0710323Y0829521D01*
X0710240Y0829591D01*
X0710160Y0829665D01*
X0710083Y0829741D01*
X0710009Y0829820D01*
X0709938Y0829902D01*
X0709870Y0829986D01*
X0709805Y0830073D01*
X0709743Y0830162D01*
X0709684Y0830254D01*
X0709629Y0830347D01*
X0709578Y0830442D01*
X0709529Y0830540D01*
X0709485Y0830639D01*
X0709444Y0830739D01*
X0709407Y0830841D01*
X0709374Y0830944D01*
X0709344Y0831049D01*
X0709318Y0831154D01*
X0709297Y0831261D01*
X0709279Y0831368D01*
X0709265Y0831475D01*
X0709255Y0831583D01*
X0709249Y0831692D01*
X0709247Y0831800D01*
X0371550Y0839300D02*
X0371552Y0839412D01*
X0371558Y0839523D01*
X0371568Y0839635D01*
X0371582Y0839746D01*
X0371599Y0839856D01*
X0371621Y0839966D01*
X0371647Y0840075D01*
X0371676Y0840183D01*
X0371709Y0840289D01*
X0371746Y0840395D01*
X0371787Y0840499D01*
X0371832Y0840602D01*
X0371880Y0840703D01*
X0371931Y0840802D01*
X0371986Y0840899D01*
X0372045Y0840994D01*
X0372106Y0841088D01*
X0372171Y0841179D01*
X0372240Y0841267D01*
X0372311Y0841353D01*
X0372385Y0841437D01*
X0372463Y0841517D01*
X0372543Y0841595D01*
X0372626Y0841671D01*
X0372711Y0841743D01*
X0372799Y0841812D01*
X0372889Y0841878D01*
X0372982Y0841940D01*
X0373077Y0842000D01*
X0373174Y0842056D01*
X0373272Y0842108D01*
X0373373Y0842157D01*
X0373475Y0842202D01*
X0373579Y0842244D01*
X0373684Y0842282D01*
X0373791Y0842316D01*
X0373898Y0842346D01*
X0374007Y0842373D01*
X0374116Y0842395D01*
X0374227Y0842414D01*
X0374337Y0842429D01*
X0374449Y0842440D01*
X0374560Y0842447D01*
X0374672Y0842450D01*
X0374784Y0842449D01*
X0374896Y0842444D01*
X0375007Y0842435D01*
X0375118Y0842422D01*
X0375229Y0842405D01*
X0375339Y0842385D01*
X0375448Y0842360D01*
X0375556Y0842332D01*
X0375663Y0842299D01*
X0375769Y0842263D01*
X0375873Y0842223D01*
X0375976Y0842180D01*
X0376078Y0842133D01*
X0376177Y0842082D01*
X0376275Y0842028D01*
X0376371Y0841970D01*
X0376465Y0841909D01*
X0376556Y0841845D01*
X0376645Y0841778D01*
X0376732Y0841707D01*
X0376816Y0841633D01*
X0376898Y0841557D01*
X0376976Y0841477D01*
X0377052Y0841395D01*
X0377125Y0841310D01*
X0377195Y0841223D01*
X0377261Y0841133D01*
X0377325Y0841041D01*
X0377385Y0840947D01*
X0377442Y0840851D01*
X0377495Y0840752D01*
X0377545Y0840652D01*
X0377591Y0840551D01*
X0377634Y0840447D01*
X0377673Y0840342D01*
X0377708Y0840236D01*
X0377739Y0840129D01*
X0377767Y0840020D01*
X0377790Y0839911D01*
X0377810Y0839801D01*
X0377826Y0839690D01*
X0377838Y0839579D01*
X0377846Y0839468D01*
X0377850Y0839356D01*
X0377850Y0839244D01*
X0377846Y0839132D01*
X0377838Y0839021D01*
X0377826Y0838910D01*
X0377810Y0838799D01*
X0377790Y0838689D01*
X0377767Y0838580D01*
X0377739Y0838471D01*
X0377708Y0838364D01*
X0377673Y0838258D01*
X0377634Y0838153D01*
X0377591Y0838049D01*
X0377545Y0837948D01*
X0377495Y0837848D01*
X0377442Y0837749D01*
X0377385Y0837653D01*
X0377325Y0837559D01*
X0377261Y0837467D01*
X0377195Y0837377D01*
X0377125Y0837290D01*
X0377052Y0837205D01*
X0376976Y0837123D01*
X0376898Y0837043D01*
X0376816Y0836967D01*
X0376732Y0836893D01*
X0376645Y0836822D01*
X0376556Y0836755D01*
X0376465Y0836691D01*
X0376371Y0836630D01*
X0376275Y0836572D01*
X0376177Y0836518D01*
X0376078Y0836467D01*
X0375976Y0836420D01*
X0375873Y0836377D01*
X0375769Y0836337D01*
X0375663Y0836301D01*
X0375556Y0836268D01*
X0375448Y0836240D01*
X0375339Y0836215D01*
X0375229Y0836195D01*
X0375118Y0836178D01*
X0375007Y0836165D01*
X0374896Y0836156D01*
X0374784Y0836151D01*
X0374672Y0836150D01*
X0374560Y0836153D01*
X0374449Y0836160D01*
X0374337Y0836171D01*
X0374227Y0836186D01*
X0374116Y0836205D01*
X0374007Y0836227D01*
X0373898Y0836254D01*
X0373791Y0836284D01*
X0373684Y0836318D01*
X0373579Y0836356D01*
X0373475Y0836398D01*
X0373373Y0836443D01*
X0373272Y0836492D01*
X0373174Y0836544D01*
X0373077Y0836600D01*
X0372982Y0836660D01*
X0372889Y0836722D01*
X0372799Y0836788D01*
X0372711Y0836857D01*
X0372626Y0836929D01*
X0372543Y0837005D01*
X0372463Y0837083D01*
X0372385Y0837163D01*
X0372311Y0837247D01*
X0372240Y0837333D01*
X0372171Y0837421D01*
X0372106Y0837512D01*
X0372045Y0837606D01*
X0371986Y0837701D01*
X0371931Y0837798D01*
X0371880Y0837897D01*
X0371832Y0837998D01*
X0371787Y0838101D01*
X0371746Y0838205D01*
X0371709Y0838311D01*
X0371676Y0838417D01*
X0371647Y0838525D01*
X0371621Y0838634D01*
X0371599Y0838744D01*
X0371582Y0838854D01*
X0371568Y0838965D01*
X0371558Y0839077D01*
X0371552Y0839188D01*
X0371550Y0839300D01*
X0331550Y0839300D02*
X0331552Y0839412D01*
X0331558Y0839523D01*
X0331568Y0839635D01*
X0331582Y0839746D01*
X0331599Y0839856D01*
X0331621Y0839966D01*
X0331647Y0840075D01*
X0331676Y0840183D01*
X0331709Y0840289D01*
X0331746Y0840395D01*
X0331787Y0840499D01*
X0331832Y0840602D01*
X0331880Y0840703D01*
X0331931Y0840802D01*
X0331986Y0840899D01*
X0332045Y0840994D01*
X0332106Y0841088D01*
X0332171Y0841179D01*
X0332240Y0841267D01*
X0332311Y0841353D01*
X0332385Y0841437D01*
X0332463Y0841517D01*
X0332543Y0841595D01*
X0332626Y0841671D01*
X0332711Y0841743D01*
X0332799Y0841812D01*
X0332889Y0841878D01*
X0332982Y0841940D01*
X0333077Y0842000D01*
X0333174Y0842056D01*
X0333272Y0842108D01*
X0333373Y0842157D01*
X0333475Y0842202D01*
X0333579Y0842244D01*
X0333684Y0842282D01*
X0333791Y0842316D01*
X0333898Y0842346D01*
X0334007Y0842373D01*
X0334116Y0842395D01*
X0334227Y0842414D01*
X0334337Y0842429D01*
X0334449Y0842440D01*
X0334560Y0842447D01*
X0334672Y0842450D01*
X0334784Y0842449D01*
X0334896Y0842444D01*
X0335007Y0842435D01*
X0335118Y0842422D01*
X0335229Y0842405D01*
X0335339Y0842385D01*
X0335448Y0842360D01*
X0335556Y0842332D01*
X0335663Y0842299D01*
X0335769Y0842263D01*
X0335873Y0842223D01*
X0335976Y0842180D01*
X0336078Y0842133D01*
X0336177Y0842082D01*
X0336275Y0842028D01*
X0336371Y0841970D01*
X0336465Y0841909D01*
X0336556Y0841845D01*
X0336645Y0841778D01*
X0336732Y0841707D01*
X0336816Y0841633D01*
X0336898Y0841557D01*
X0336976Y0841477D01*
X0337052Y0841395D01*
X0337125Y0841310D01*
X0337195Y0841223D01*
X0337261Y0841133D01*
X0337325Y0841041D01*
X0337385Y0840947D01*
X0337442Y0840851D01*
X0337495Y0840752D01*
X0337545Y0840652D01*
X0337591Y0840551D01*
X0337634Y0840447D01*
X0337673Y0840342D01*
X0337708Y0840236D01*
X0337739Y0840129D01*
X0337767Y0840020D01*
X0337790Y0839911D01*
X0337810Y0839801D01*
X0337826Y0839690D01*
X0337838Y0839579D01*
X0337846Y0839468D01*
X0337850Y0839356D01*
X0337850Y0839244D01*
X0337846Y0839132D01*
X0337838Y0839021D01*
X0337826Y0838910D01*
X0337810Y0838799D01*
X0337790Y0838689D01*
X0337767Y0838580D01*
X0337739Y0838471D01*
X0337708Y0838364D01*
X0337673Y0838258D01*
X0337634Y0838153D01*
X0337591Y0838049D01*
X0337545Y0837948D01*
X0337495Y0837848D01*
X0337442Y0837749D01*
X0337385Y0837653D01*
X0337325Y0837559D01*
X0337261Y0837467D01*
X0337195Y0837377D01*
X0337125Y0837290D01*
X0337052Y0837205D01*
X0336976Y0837123D01*
X0336898Y0837043D01*
X0336816Y0836967D01*
X0336732Y0836893D01*
X0336645Y0836822D01*
X0336556Y0836755D01*
X0336465Y0836691D01*
X0336371Y0836630D01*
X0336275Y0836572D01*
X0336177Y0836518D01*
X0336078Y0836467D01*
X0335976Y0836420D01*
X0335873Y0836377D01*
X0335769Y0836337D01*
X0335663Y0836301D01*
X0335556Y0836268D01*
X0335448Y0836240D01*
X0335339Y0836215D01*
X0335229Y0836195D01*
X0335118Y0836178D01*
X0335007Y0836165D01*
X0334896Y0836156D01*
X0334784Y0836151D01*
X0334672Y0836150D01*
X0334560Y0836153D01*
X0334449Y0836160D01*
X0334337Y0836171D01*
X0334227Y0836186D01*
X0334116Y0836205D01*
X0334007Y0836227D01*
X0333898Y0836254D01*
X0333791Y0836284D01*
X0333684Y0836318D01*
X0333579Y0836356D01*
X0333475Y0836398D01*
X0333373Y0836443D01*
X0333272Y0836492D01*
X0333174Y0836544D01*
X0333077Y0836600D01*
X0332982Y0836660D01*
X0332889Y0836722D01*
X0332799Y0836788D01*
X0332711Y0836857D01*
X0332626Y0836929D01*
X0332543Y0837005D01*
X0332463Y0837083D01*
X0332385Y0837163D01*
X0332311Y0837247D01*
X0332240Y0837333D01*
X0332171Y0837421D01*
X0332106Y0837512D01*
X0332045Y0837606D01*
X0331986Y0837701D01*
X0331931Y0837798D01*
X0331880Y0837897D01*
X0331832Y0837998D01*
X0331787Y0838101D01*
X0331746Y0838205D01*
X0331709Y0838311D01*
X0331676Y0838417D01*
X0331647Y0838525D01*
X0331621Y0838634D01*
X0331599Y0838744D01*
X0331582Y0838854D01*
X0331568Y0838965D01*
X0331558Y0839077D01*
X0331552Y0839188D01*
X0331550Y0839300D01*
X0291550Y0839300D02*
X0291552Y0839412D01*
X0291558Y0839523D01*
X0291568Y0839635D01*
X0291582Y0839746D01*
X0291599Y0839856D01*
X0291621Y0839966D01*
X0291647Y0840075D01*
X0291676Y0840183D01*
X0291709Y0840289D01*
X0291746Y0840395D01*
X0291787Y0840499D01*
X0291832Y0840602D01*
X0291880Y0840703D01*
X0291931Y0840802D01*
X0291986Y0840899D01*
X0292045Y0840994D01*
X0292106Y0841088D01*
X0292171Y0841179D01*
X0292240Y0841267D01*
X0292311Y0841353D01*
X0292385Y0841437D01*
X0292463Y0841517D01*
X0292543Y0841595D01*
X0292626Y0841671D01*
X0292711Y0841743D01*
X0292799Y0841812D01*
X0292889Y0841878D01*
X0292982Y0841940D01*
X0293077Y0842000D01*
X0293174Y0842056D01*
X0293272Y0842108D01*
X0293373Y0842157D01*
X0293475Y0842202D01*
X0293579Y0842244D01*
X0293684Y0842282D01*
X0293791Y0842316D01*
X0293898Y0842346D01*
X0294007Y0842373D01*
X0294116Y0842395D01*
X0294227Y0842414D01*
X0294337Y0842429D01*
X0294449Y0842440D01*
X0294560Y0842447D01*
X0294672Y0842450D01*
X0294784Y0842449D01*
X0294896Y0842444D01*
X0295007Y0842435D01*
X0295118Y0842422D01*
X0295229Y0842405D01*
X0295339Y0842385D01*
X0295448Y0842360D01*
X0295556Y0842332D01*
X0295663Y0842299D01*
X0295769Y0842263D01*
X0295873Y0842223D01*
X0295976Y0842180D01*
X0296078Y0842133D01*
X0296177Y0842082D01*
X0296275Y0842028D01*
X0296371Y0841970D01*
X0296465Y0841909D01*
X0296556Y0841845D01*
X0296645Y0841778D01*
X0296732Y0841707D01*
X0296816Y0841633D01*
X0296898Y0841557D01*
X0296976Y0841477D01*
X0297052Y0841395D01*
X0297125Y0841310D01*
X0297195Y0841223D01*
X0297261Y0841133D01*
X0297325Y0841041D01*
X0297385Y0840947D01*
X0297442Y0840851D01*
X0297495Y0840752D01*
X0297545Y0840652D01*
X0297591Y0840551D01*
X0297634Y0840447D01*
X0297673Y0840342D01*
X0297708Y0840236D01*
X0297739Y0840129D01*
X0297767Y0840020D01*
X0297790Y0839911D01*
X0297810Y0839801D01*
X0297826Y0839690D01*
X0297838Y0839579D01*
X0297846Y0839468D01*
X0297850Y0839356D01*
X0297850Y0839244D01*
X0297846Y0839132D01*
X0297838Y0839021D01*
X0297826Y0838910D01*
X0297810Y0838799D01*
X0297790Y0838689D01*
X0297767Y0838580D01*
X0297739Y0838471D01*
X0297708Y0838364D01*
X0297673Y0838258D01*
X0297634Y0838153D01*
X0297591Y0838049D01*
X0297545Y0837948D01*
X0297495Y0837848D01*
X0297442Y0837749D01*
X0297385Y0837653D01*
X0297325Y0837559D01*
X0297261Y0837467D01*
X0297195Y0837377D01*
X0297125Y0837290D01*
X0297052Y0837205D01*
X0296976Y0837123D01*
X0296898Y0837043D01*
X0296816Y0836967D01*
X0296732Y0836893D01*
X0296645Y0836822D01*
X0296556Y0836755D01*
X0296465Y0836691D01*
X0296371Y0836630D01*
X0296275Y0836572D01*
X0296177Y0836518D01*
X0296078Y0836467D01*
X0295976Y0836420D01*
X0295873Y0836377D01*
X0295769Y0836337D01*
X0295663Y0836301D01*
X0295556Y0836268D01*
X0295448Y0836240D01*
X0295339Y0836215D01*
X0295229Y0836195D01*
X0295118Y0836178D01*
X0295007Y0836165D01*
X0294896Y0836156D01*
X0294784Y0836151D01*
X0294672Y0836150D01*
X0294560Y0836153D01*
X0294449Y0836160D01*
X0294337Y0836171D01*
X0294227Y0836186D01*
X0294116Y0836205D01*
X0294007Y0836227D01*
X0293898Y0836254D01*
X0293791Y0836284D01*
X0293684Y0836318D01*
X0293579Y0836356D01*
X0293475Y0836398D01*
X0293373Y0836443D01*
X0293272Y0836492D01*
X0293174Y0836544D01*
X0293077Y0836600D01*
X0292982Y0836660D01*
X0292889Y0836722D01*
X0292799Y0836788D01*
X0292711Y0836857D01*
X0292626Y0836929D01*
X0292543Y0837005D01*
X0292463Y0837083D01*
X0292385Y0837163D01*
X0292311Y0837247D01*
X0292240Y0837333D01*
X0292171Y0837421D01*
X0292106Y0837512D01*
X0292045Y0837606D01*
X0291986Y0837701D01*
X0291931Y0837798D01*
X0291880Y0837897D01*
X0291832Y0837998D01*
X0291787Y0838101D01*
X0291746Y0838205D01*
X0291709Y0838311D01*
X0291676Y0838417D01*
X0291647Y0838525D01*
X0291621Y0838634D01*
X0291599Y0838744D01*
X0291582Y0838854D01*
X0291568Y0838965D01*
X0291558Y0839077D01*
X0291552Y0839188D01*
X0291550Y0839300D01*
X0251550Y0839300D02*
X0251552Y0839412D01*
X0251558Y0839523D01*
X0251568Y0839635D01*
X0251582Y0839746D01*
X0251599Y0839856D01*
X0251621Y0839966D01*
X0251647Y0840075D01*
X0251676Y0840183D01*
X0251709Y0840289D01*
X0251746Y0840395D01*
X0251787Y0840499D01*
X0251832Y0840602D01*
X0251880Y0840703D01*
X0251931Y0840802D01*
X0251986Y0840899D01*
X0252045Y0840994D01*
X0252106Y0841088D01*
X0252171Y0841179D01*
X0252240Y0841267D01*
X0252311Y0841353D01*
X0252385Y0841437D01*
X0252463Y0841517D01*
X0252543Y0841595D01*
X0252626Y0841671D01*
X0252711Y0841743D01*
X0252799Y0841812D01*
X0252889Y0841878D01*
X0252982Y0841940D01*
X0253077Y0842000D01*
X0253174Y0842056D01*
X0253272Y0842108D01*
X0253373Y0842157D01*
X0253475Y0842202D01*
X0253579Y0842244D01*
X0253684Y0842282D01*
X0253791Y0842316D01*
X0253898Y0842346D01*
X0254007Y0842373D01*
X0254116Y0842395D01*
X0254227Y0842414D01*
X0254337Y0842429D01*
X0254449Y0842440D01*
X0254560Y0842447D01*
X0254672Y0842450D01*
X0254784Y0842449D01*
X0254896Y0842444D01*
X0255007Y0842435D01*
X0255118Y0842422D01*
X0255229Y0842405D01*
X0255339Y0842385D01*
X0255448Y0842360D01*
X0255556Y0842332D01*
X0255663Y0842299D01*
X0255769Y0842263D01*
X0255873Y0842223D01*
X0255976Y0842180D01*
X0256078Y0842133D01*
X0256177Y0842082D01*
X0256275Y0842028D01*
X0256371Y0841970D01*
X0256465Y0841909D01*
X0256556Y0841845D01*
X0256645Y0841778D01*
X0256732Y0841707D01*
X0256816Y0841633D01*
X0256898Y0841557D01*
X0256976Y0841477D01*
X0257052Y0841395D01*
X0257125Y0841310D01*
X0257195Y0841223D01*
X0257261Y0841133D01*
X0257325Y0841041D01*
X0257385Y0840947D01*
X0257442Y0840851D01*
X0257495Y0840752D01*
X0257545Y0840652D01*
X0257591Y0840551D01*
X0257634Y0840447D01*
X0257673Y0840342D01*
X0257708Y0840236D01*
X0257739Y0840129D01*
X0257767Y0840020D01*
X0257790Y0839911D01*
X0257810Y0839801D01*
X0257826Y0839690D01*
X0257838Y0839579D01*
X0257846Y0839468D01*
X0257850Y0839356D01*
X0257850Y0839244D01*
X0257846Y0839132D01*
X0257838Y0839021D01*
X0257826Y0838910D01*
X0257810Y0838799D01*
X0257790Y0838689D01*
X0257767Y0838580D01*
X0257739Y0838471D01*
X0257708Y0838364D01*
X0257673Y0838258D01*
X0257634Y0838153D01*
X0257591Y0838049D01*
X0257545Y0837948D01*
X0257495Y0837848D01*
X0257442Y0837749D01*
X0257385Y0837653D01*
X0257325Y0837559D01*
X0257261Y0837467D01*
X0257195Y0837377D01*
X0257125Y0837290D01*
X0257052Y0837205D01*
X0256976Y0837123D01*
X0256898Y0837043D01*
X0256816Y0836967D01*
X0256732Y0836893D01*
X0256645Y0836822D01*
X0256556Y0836755D01*
X0256465Y0836691D01*
X0256371Y0836630D01*
X0256275Y0836572D01*
X0256177Y0836518D01*
X0256078Y0836467D01*
X0255976Y0836420D01*
X0255873Y0836377D01*
X0255769Y0836337D01*
X0255663Y0836301D01*
X0255556Y0836268D01*
X0255448Y0836240D01*
X0255339Y0836215D01*
X0255229Y0836195D01*
X0255118Y0836178D01*
X0255007Y0836165D01*
X0254896Y0836156D01*
X0254784Y0836151D01*
X0254672Y0836150D01*
X0254560Y0836153D01*
X0254449Y0836160D01*
X0254337Y0836171D01*
X0254227Y0836186D01*
X0254116Y0836205D01*
X0254007Y0836227D01*
X0253898Y0836254D01*
X0253791Y0836284D01*
X0253684Y0836318D01*
X0253579Y0836356D01*
X0253475Y0836398D01*
X0253373Y0836443D01*
X0253272Y0836492D01*
X0253174Y0836544D01*
X0253077Y0836600D01*
X0252982Y0836660D01*
X0252889Y0836722D01*
X0252799Y0836788D01*
X0252711Y0836857D01*
X0252626Y0836929D01*
X0252543Y0837005D01*
X0252463Y0837083D01*
X0252385Y0837163D01*
X0252311Y0837247D01*
X0252240Y0837333D01*
X0252171Y0837421D01*
X0252106Y0837512D01*
X0252045Y0837606D01*
X0251986Y0837701D01*
X0251931Y0837798D01*
X0251880Y0837897D01*
X0251832Y0837998D01*
X0251787Y0838101D01*
X0251746Y0838205D01*
X0251709Y0838311D01*
X0251676Y0838417D01*
X0251647Y0838525D01*
X0251621Y0838634D01*
X0251599Y0838744D01*
X0251582Y0838854D01*
X0251568Y0838965D01*
X0251558Y0839077D01*
X0251552Y0839188D01*
X0251550Y0839300D01*
X0211550Y0839300D02*
X0211552Y0839412D01*
X0211558Y0839523D01*
X0211568Y0839635D01*
X0211582Y0839746D01*
X0211599Y0839856D01*
X0211621Y0839966D01*
X0211647Y0840075D01*
X0211676Y0840183D01*
X0211709Y0840289D01*
X0211746Y0840395D01*
X0211787Y0840499D01*
X0211832Y0840602D01*
X0211880Y0840703D01*
X0211931Y0840802D01*
X0211986Y0840899D01*
X0212045Y0840994D01*
X0212106Y0841088D01*
X0212171Y0841179D01*
X0212240Y0841267D01*
X0212311Y0841353D01*
X0212385Y0841437D01*
X0212463Y0841517D01*
X0212543Y0841595D01*
X0212626Y0841671D01*
X0212711Y0841743D01*
X0212799Y0841812D01*
X0212889Y0841878D01*
X0212982Y0841940D01*
X0213077Y0842000D01*
X0213174Y0842056D01*
X0213272Y0842108D01*
X0213373Y0842157D01*
X0213475Y0842202D01*
X0213579Y0842244D01*
X0213684Y0842282D01*
X0213791Y0842316D01*
X0213898Y0842346D01*
X0214007Y0842373D01*
X0214116Y0842395D01*
X0214227Y0842414D01*
X0214337Y0842429D01*
X0214449Y0842440D01*
X0214560Y0842447D01*
X0214672Y0842450D01*
X0214784Y0842449D01*
X0214896Y0842444D01*
X0215007Y0842435D01*
X0215118Y0842422D01*
X0215229Y0842405D01*
X0215339Y0842385D01*
X0215448Y0842360D01*
X0215556Y0842332D01*
X0215663Y0842299D01*
X0215769Y0842263D01*
X0215873Y0842223D01*
X0215976Y0842180D01*
X0216078Y0842133D01*
X0216177Y0842082D01*
X0216275Y0842028D01*
X0216371Y0841970D01*
X0216465Y0841909D01*
X0216556Y0841845D01*
X0216645Y0841778D01*
X0216732Y0841707D01*
X0216816Y0841633D01*
X0216898Y0841557D01*
X0216976Y0841477D01*
X0217052Y0841395D01*
X0217125Y0841310D01*
X0217195Y0841223D01*
X0217261Y0841133D01*
X0217325Y0841041D01*
X0217385Y0840947D01*
X0217442Y0840851D01*
X0217495Y0840752D01*
X0217545Y0840652D01*
X0217591Y0840551D01*
X0217634Y0840447D01*
X0217673Y0840342D01*
X0217708Y0840236D01*
X0217739Y0840129D01*
X0217767Y0840020D01*
X0217790Y0839911D01*
X0217810Y0839801D01*
X0217826Y0839690D01*
X0217838Y0839579D01*
X0217846Y0839468D01*
X0217850Y0839356D01*
X0217850Y0839244D01*
X0217846Y0839132D01*
X0217838Y0839021D01*
X0217826Y0838910D01*
X0217810Y0838799D01*
X0217790Y0838689D01*
X0217767Y0838580D01*
X0217739Y0838471D01*
X0217708Y0838364D01*
X0217673Y0838258D01*
X0217634Y0838153D01*
X0217591Y0838049D01*
X0217545Y0837948D01*
X0217495Y0837848D01*
X0217442Y0837749D01*
X0217385Y0837653D01*
X0217325Y0837559D01*
X0217261Y0837467D01*
X0217195Y0837377D01*
X0217125Y0837290D01*
X0217052Y0837205D01*
X0216976Y0837123D01*
X0216898Y0837043D01*
X0216816Y0836967D01*
X0216732Y0836893D01*
X0216645Y0836822D01*
X0216556Y0836755D01*
X0216465Y0836691D01*
X0216371Y0836630D01*
X0216275Y0836572D01*
X0216177Y0836518D01*
X0216078Y0836467D01*
X0215976Y0836420D01*
X0215873Y0836377D01*
X0215769Y0836337D01*
X0215663Y0836301D01*
X0215556Y0836268D01*
X0215448Y0836240D01*
X0215339Y0836215D01*
X0215229Y0836195D01*
X0215118Y0836178D01*
X0215007Y0836165D01*
X0214896Y0836156D01*
X0214784Y0836151D01*
X0214672Y0836150D01*
X0214560Y0836153D01*
X0214449Y0836160D01*
X0214337Y0836171D01*
X0214227Y0836186D01*
X0214116Y0836205D01*
X0214007Y0836227D01*
X0213898Y0836254D01*
X0213791Y0836284D01*
X0213684Y0836318D01*
X0213579Y0836356D01*
X0213475Y0836398D01*
X0213373Y0836443D01*
X0213272Y0836492D01*
X0213174Y0836544D01*
X0213077Y0836600D01*
X0212982Y0836660D01*
X0212889Y0836722D01*
X0212799Y0836788D01*
X0212711Y0836857D01*
X0212626Y0836929D01*
X0212543Y0837005D01*
X0212463Y0837083D01*
X0212385Y0837163D01*
X0212311Y0837247D01*
X0212240Y0837333D01*
X0212171Y0837421D01*
X0212106Y0837512D01*
X0212045Y0837606D01*
X0211986Y0837701D01*
X0211931Y0837798D01*
X0211880Y0837897D01*
X0211832Y0837998D01*
X0211787Y0838101D01*
X0211746Y0838205D01*
X0211709Y0838311D01*
X0211676Y0838417D01*
X0211647Y0838525D01*
X0211621Y0838634D01*
X0211599Y0838744D01*
X0211582Y0838854D01*
X0211568Y0838965D01*
X0211558Y0839077D01*
X0211552Y0839188D01*
X0211550Y0839300D01*
X0171550Y0839300D02*
X0171552Y0839412D01*
X0171558Y0839523D01*
X0171568Y0839635D01*
X0171582Y0839746D01*
X0171599Y0839856D01*
X0171621Y0839966D01*
X0171647Y0840075D01*
X0171676Y0840183D01*
X0171709Y0840289D01*
X0171746Y0840395D01*
X0171787Y0840499D01*
X0171832Y0840602D01*
X0171880Y0840703D01*
X0171931Y0840802D01*
X0171986Y0840899D01*
X0172045Y0840994D01*
X0172106Y0841088D01*
X0172171Y0841179D01*
X0172240Y0841267D01*
X0172311Y0841353D01*
X0172385Y0841437D01*
X0172463Y0841517D01*
X0172543Y0841595D01*
X0172626Y0841671D01*
X0172711Y0841743D01*
X0172799Y0841812D01*
X0172889Y0841878D01*
X0172982Y0841940D01*
X0173077Y0842000D01*
X0173174Y0842056D01*
X0173272Y0842108D01*
X0173373Y0842157D01*
X0173475Y0842202D01*
X0173579Y0842244D01*
X0173684Y0842282D01*
X0173791Y0842316D01*
X0173898Y0842346D01*
X0174007Y0842373D01*
X0174116Y0842395D01*
X0174227Y0842414D01*
X0174337Y0842429D01*
X0174449Y0842440D01*
X0174560Y0842447D01*
X0174672Y0842450D01*
X0174784Y0842449D01*
X0174896Y0842444D01*
X0175007Y0842435D01*
X0175118Y0842422D01*
X0175229Y0842405D01*
X0175339Y0842385D01*
X0175448Y0842360D01*
X0175556Y0842332D01*
X0175663Y0842299D01*
X0175769Y0842263D01*
X0175873Y0842223D01*
X0175976Y0842180D01*
X0176078Y0842133D01*
X0176177Y0842082D01*
X0176275Y0842028D01*
X0176371Y0841970D01*
X0176465Y0841909D01*
X0176556Y0841845D01*
X0176645Y0841778D01*
X0176732Y0841707D01*
X0176816Y0841633D01*
X0176898Y0841557D01*
X0176976Y0841477D01*
X0177052Y0841395D01*
X0177125Y0841310D01*
X0177195Y0841223D01*
X0177261Y0841133D01*
X0177325Y0841041D01*
X0177385Y0840947D01*
X0177442Y0840851D01*
X0177495Y0840752D01*
X0177545Y0840652D01*
X0177591Y0840551D01*
X0177634Y0840447D01*
X0177673Y0840342D01*
X0177708Y0840236D01*
X0177739Y0840129D01*
X0177767Y0840020D01*
X0177790Y0839911D01*
X0177810Y0839801D01*
X0177826Y0839690D01*
X0177838Y0839579D01*
X0177846Y0839468D01*
X0177850Y0839356D01*
X0177850Y0839244D01*
X0177846Y0839132D01*
X0177838Y0839021D01*
X0177826Y0838910D01*
X0177810Y0838799D01*
X0177790Y0838689D01*
X0177767Y0838580D01*
X0177739Y0838471D01*
X0177708Y0838364D01*
X0177673Y0838258D01*
X0177634Y0838153D01*
X0177591Y0838049D01*
X0177545Y0837948D01*
X0177495Y0837848D01*
X0177442Y0837749D01*
X0177385Y0837653D01*
X0177325Y0837559D01*
X0177261Y0837467D01*
X0177195Y0837377D01*
X0177125Y0837290D01*
X0177052Y0837205D01*
X0176976Y0837123D01*
X0176898Y0837043D01*
X0176816Y0836967D01*
X0176732Y0836893D01*
X0176645Y0836822D01*
X0176556Y0836755D01*
X0176465Y0836691D01*
X0176371Y0836630D01*
X0176275Y0836572D01*
X0176177Y0836518D01*
X0176078Y0836467D01*
X0175976Y0836420D01*
X0175873Y0836377D01*
X0175769Y0836337D01*
X0175663Y0836301D01*
X0175556Y0836268D01*
X0175448Y0836240D01*
X0175339Y0836215D01*
X0175229Y0836195D01*
X0175118Y0836178D01*
X0175007Y0836165D01*
X0174896Y0836156D01*
X0174784Y0836151D01*
X0174672Y0836150D01*
X0174560Y0836153D01*
X0174449Y0836160D01*
X0174337Y0836171D01*
X0174227Y0836186D01*
X0174116Y0836205D01*
X0174007Y0836227D01*
X0173898Y0836254D01*
X0173791Y0836284D01*
X0173684Y0836318D01*
X0173579Y0836356D01*
X0173475Y0836398D01*
X0173373Y0836443D01*
X0173272Y0836492D01*
X0173174Y0836544D01*
X0173077Y0836600D01*
X0172982Y0836660D01*
X0172889Y0836722D01*
X0172799Y0836788D01*
X0172711Y0836857D01*
X0172626Y0836929D01*
X0172543Y0837005D01*
X0172463Y0837083D01*
X0172385Y0837163D01*
X0172311Y0837247D01*
X0172240Y0837333D01*
X0172171Y0837421D01*
X0172106Y0837512D01*
X0172045Y0837606D01*
X0171986Y0837701D01*
X0171931Y0837798D01*
X0171880Y0837897D01*
X0171832Y0837998D01*
X0171787Y0838101D01*
X0171746Y0838205D01*
X0171709Y0838311D01*
X0171676Y0838417D01*
X0171647Y0838525D01*
X0171621Y0838634D01*
X0171599Y0838744D01*
X0171582Y0838854D01*
X0171568Y0838965D01*
X0171558Y0839077D01*
X0171552Y0839188D01*
X0171550Y0839300D01*
X0131550Y0839300D02*
X0131552Y0839412D01*
X0131558Y0839523D01*
X0131568Y0839635D01*
X0131582Y0839746D01*
X0131599Y0839856D01*
X0131621Y0839966D01*
X0131647Y0840075D01*
X0131676Y0840183D01*
X0131709Y0840289D01*
X0131746Y0840395D01*
X0131787Y0840499D01*
X0131832Y0840602D01*
X0131880Y0840703D01*
X0131931Y0840802D01*
X0131986Y0840899D01*
X0132045Y0840994D01*
X0132106Y0841088D01*
X0132171Y0841179D01*
X0132240Y0841267D01*
X0132311Y0841353D01*
X0132385Y0841437D01*
X0132463Y0841517D01*
X0132543Y0841595D01*
X0132626Y0841671D01*
X0132711Y0841743D01*
X0132799Y0841812D01*
X0132889Y0841878D01*
X0132982Y0841940D01*
X0133077Y0842000D01*
X0133174Y0842056D01*
X0133272Y0842108D01*
X0133373Y0842157D01*
X0133475Y0842202D01*
X0133579Y0842244D01*
X0133684Y0842282D01*
X0133791Y0842316D01*
X0133898Y0842346D01*
X0134007Y0842373D01*
X0134116Y0842395D01*
X0134227Y0842414D01*
X0134337Y0842429D01*
X0134449Y0842440D01*
X0134560Y0842447D01*
X0134672Y0842450D01*
X0134784Y0842449D01*
X0134896Y0842444D01*
X0135007Y0842435D01*
X0135118Y0842422D01*
X0135229Y0842405D01*
X0135339Y0842385D01*
X0135448Y0842360D01*
X0135556Y0842332D01*
X0135663Y0842299D01*
X0135769Y0842263D01*
X0135873Y0842223D01*
X0135976Y0842180D01*
X0136078Y0842133D01*
X0136177Y0842082D01*
X0136275Y0842028D01*
X0136371Y0841970D01*
X0136465Y0841909D01*
X0136556Y0841845D01*
X0136645Y0841778D01*
X0136732Y0841707D01*
X0136816Y0841633D01*
X0136898Y0841557D01*
X0136976Y0841477D01*
X0137052Y0841395D01*
X0137125Y0841310D01*
X0137195Y0841223D01*
X0137261Y0841133D01*
X0137325Y0841041D01*
X0137385Y0840947D01*
X0137442Y0840851D01*
X0137495Y0840752D01*
X0137545Y0840652D01*
X0137591Y0840551D01*
X0137634Y0840447D01*
X0137673Y0840342D01*
X0137708Y0840236D01*
X0137739Y0840129D01*
X0137767Y0840020D01*
X0137790Y0839911D01*
X0137810Y0839801D01*
X0137826Y0839690D01*
X0137838Y0839579D01*
X0137846Y0839468D01*
X0137850Y0839356D01*
X0137850Y0839244D01*
X0137846Y0839132D01*
X0137838Y0839021D01*
X0137826Y0838910D01*
X0137810Y0838799D01*
X0137790Y0838689D01*
X0137767Y0838580D01*
X0137739Y0838471D01*
X0137708Y0838364D01*
X0137673Y0838258D01*
X0137634Y0838153D01*
X0137591Y0838049D01*
X0137545Y0837948D01*
X0137495Y0837848D01*
X0137442Y0837749D01*
X0137385Y0837653D01*
X0137325Y0837559D01*
X0137261Y0837467D01*
X0137195Y0837377D01*
X0137125Y0837290D01*
X0137052Y0837205D01*
X0136976Y0837123D01*
X0136898Y0837043D01*
X0136816Y0836967D01*
X0136732Y0836893D01*
X0136645Y0836822D01*
X0136556Y0836755D01*
X0136465Y0836691D01*
X0136371Y0836630D01*
X0136275Y0836572D01*
X0136177Y0836518D01*
X0136078Y0836467D01*
X0135976Y0836420D01*
X0135873Y0836377D01*
X0135769Y0836337D01*
X0135663Y0836301D01*
X0135556Y0836268D01*
X0135448Y0836240D01*
X0135339Y0836215D01*
X0135229Y0836195D01*
X0135118Y0836178D01*
X0135007Y0836165D01*
X0134896Y0836156D01*
X0134784Y0836151D01*
X0134672Y0836150D01*
X0134560Y0836153D01*
X0134449Y0836160D01*
X0134337Y0836171D01*
X0134227Y0836186D01*
X0134116Y0836205D01*
X0134007Y0836227D01*
X0133898Y0836254D01*
X0133791Y0836284D01*
X0133684Y0836318D01*
X0133579Y0836356D01*
X0133475Y0836398D01*
X0133373Y0836443D01*
X0133272Y0836492D01*
X0133174Y0836544D01*
X0133077Y0836600D01*
X0132982Y0836660D01*
X0132889Y0836722D01*
X0132799Y0836788D01*
X0132711Y0836857D01*
X0132626Y0836929D01*
X0132543Y0837005D01*
X0132463Y0837083D01*
X0132385Y0837163D01*
X0132311Y0837247D01*
X0132240Y0837333D01*
X0132171Y0837421D01*
X0132106Y0837512D01*
X0132045Y0837606D01*
X0131986Y0837701D01*
X0131931Y0837798D01*
X0131880Y0837897D01*
X0131832Y0837998D01*
X0131787Y0838101D01*
X0131746Y0838205D01*
X0131709Y0838311D01*
X0131676Y0838417D01*
X0131647Y0838525D01*
X0131621Y0838634D01*
X0131599Y0838744D01*
X0131582Y0838854D01*
X0131568Y0838965D01*
X0131558Y0839077D01*
X0131552Y0839188D01*
X0131550Y0839300D01*
X0091550Y0839300D02*
X0091552Y0839412D01*
X0091558Y0839523D01*
X0091568Y0839635D01*
X0091582Y0839746D01*
X0091599Y0839856D01*
X0091621Y0839966D01*
X0091647Y0840075D01*
X0091676Y0840183D01*
X0091709Y0840289D01*
X0091746Y0840395D01*
X0091787Y0840499D01*
X0091832Y0840602D01*
X0091880Y0840703D01*
X0091931Y0840802D01*
X0091986Y0840899D01*
X0092045Y0840994D01*
X0092106Y0841088D01*
X0092171Y0841179D01*
X0092240Y0841267D01*
X0092311Y0841353D01*
X0092385Y0841437D01*
X0092463Y0841517D01*
X0092543Y0841595D01*
X0092626Y0841671D01*
X0092711Y0841743D01*
X0092799Y0841812D01*
X0092889Y0841878D01*
X0092982Y0841940D01*
X0093077Y0842000D01*
X0093174Y0842056D01*
X0093272Y0842108D01*
X0093373Y0842157D01*
X0093475Y0842202D01*
X0093579Y0842244D01*
X0093684Y0842282D01*
X0093791Y0842316D01*
X0093898Y0842346D01*
X0094007Y0842373D01*
X0094116Y0842395D01*
X0094227Y0842414D01*
X0094337Y0842429D01*
X0094449Y0842440D01*
X0094560Y0842447D01*
X0094672Y0842450D01*
X0094784Y0842449D01*
X0094896Y0842444D01*
X0095007Y0842435D01*
X0095118Y0842422D01*
X0095229Y0842405D01*
X0095339Y0842385D01*
X0095448Y0842360D01*
X0095556Y0842332D01*
X0095663Y0842299D01*
X0095769Y0842263D01*
X0095873Y0842223D01*
X0095976Y0842180D01*
X0096078Y0842133D01*
X0096177Y0842082D01*
X0096275Y0842028D01*
X0096371Y0841970D01*
X0096465Y0841909D01*
X0096556Y0841845D01*
X0096645Y0841778D01*
X0096732Y0841707D01*
X0096816Y0841633D01*
X0096898Y0841557D01*
X0096976Y0841477D01*
X0097052Y0841395D01*
X0097125Y0841310D01*
X0097195Y0841223D01*
X0097261Y0841133D01*
X0097325Y0841041D01*
X0097385Y0840947D01*
X0097442Y0840851D01*
X0097495Y0840752D01*
X0097545Y0840652D01*
X0097591Y0840551D01*
X0097634Y0840447D01*
X0097673Y0840342D01*
X0097708Y0840236D01*
X0097739Y0840129D01*
X0097767Y0840020D01*
X0097790Y0839911D01*
X0097810Y0839801D01*
X0097826Y0839690D01*
X0097838Y0839579D01*
X0097846Y0839468D01*
X0097850Y0839356D01*
X0097850Y0839244D01*
X0097846Y0839132D01*
X0097838Y0839021D01*
X0097826Y0838910D01*
X0097810Y0838799D01*
X0097790Y0838689D01*
X0097767Y0838580D01*
X0097739Y0838471D01*
X0097708Y0838364D01*
X0097673Y0838258D01*
X0097634Y0838153D01*
X0097591Y0838049D01*
X0097545Y0837948D01*
X0097495Y0837848D01*
X0097442Y0837749D01*
X0097385Y0837653D01*
X0097325Y0837559D01*
X0097261Y0837467D01*
X0097195Y0837377D01*
X0097125Y0837290D01*
X0097052Y0837205D01*
X0096976Y0837123D01*
X0096898Y0837043D01*
X0096816Y0836967D01*
X0096732Y0836893D01*
X0096645Y0836822D01*
X0096556Y0836755D01*
X0096465Y0836691D01*
X0096371Y0836630D01*
X0096275Y0836572D01*
X0096177Y0836518D01*
X0096078Y0836467D01*
X0095976Y0836420D01*
X0095873Y0836377D01*
X0095769Y0836337D01*
X0095663Y0836301D01*
X0095556Y0836268D01*
X0095448Y0836240D01*
X0095339Y0836215D01*
X0095229Y0836195D01*
X0095118Y0836178D01*
X0095007Y0836165D01*
X0094896Y0836156D01*
X0094784Y0836151D01*
X0094672Y0836150D01*
X0094560Y0836153D01*
X0094449Y0836160D01*
X0094337Y0836171D01*
X0094227Y0836186D01*
X0094116Y0836205D01*
X0094007Y0836227D01*
X0093898Y0836254D01*
X0093791Y0836284D01*
X0093684Y0836318D01*
X0093579Y0836356D01*
X0093475Y0836398D01*
X0093373Y0836443D01*
X0093272Y0836492D01*
X0093174Y0836544D01*
X0093077Y0836600D01*
X0092982Y0836660D01*
X0092889Y0836722D01*
X0092799Y0836788D01*
X0092711Y0836857D01*
X0092626Y0836929D01*
X0092543Y0837005D01*
X0092463Y0837083D01*
X0092385Y0837163D01*
X0092311Y0837247D01*
X0092240Y0837333D01*
X0092171Y0837421D01*
X0092106Y0837512D01*
X0092045Y0837606D01*
X0091986Y0837701D01*
X0091931Y0837798D01*
X0091880Y0837897D01*
X0091832Y0837998D01*
X0091787Y0838101D01*
X0091746Y0838205D01*
X0091709Y0838311D01*
X0091676Y0838417D01*
X0091647Y0838525D01*
X0091621Y0838634D01*
X0091599Y0838744D01*
X0091582Y0838854D01*
X0091568Y0838965D01*
X0091558Y0839077D01*
X0091552Y0839188D01*
X0091550Y0839300D01*
X0089850Y0474200D02*
X0089852Y0474338D01*
X0089858Y0474475D01*
X0089868Y0474612D01*
X0089882Y0474749D01*
X0089900Y0474885D01*
X0089922Y0475021D01*
X0089947Y0475156D01*
X0089977Y0475290D01*
X0090010Y0475424D01*
X0090048Y0475556D01*
X0090089Y0475687D01*
X0090134Y0475817D01*
X0090183Y0475946D01*
X0090235Y0476073D01*
X0090291Y0476199D01*
X0090351Y0476323D01*
X0090414Y0476445D01*
X0090481Y0476565D01*
X0090551Y0476683D01*
X0090624Y0476800D01*
X0090701Y0476914D01*
X0090782Y0477025D01*
X0090865Y0477135D01*
X0090951Y0477242D01*
X0091041Y0477346D01*
X0091134Y0477448D01*
X0091229Y0477547D01*
X0091327Y0477643D01*
X0091428Y0477736D01*
X0091532Y0477826D01*
X0091638Y0477914D01*
X0091747Y0477998D01*
X0091858Y0478079D01*
X0091972Y0478157D01*
X0092087Y0478231D01*
X0092205Y0478302D01*
X0092325Y0478370D01*
X0092447Y0478434D01*
X0092570Y0478494D01*
X0092695Y0478551D01*
X0092822Y0478605D01*
X0092950Y0478654D01*
X0093080Y0478700D01*
X0093211Y0478742D01*
X0093343Y0478781D01*
X0093476Y0478815D01*
X0093610Y0478846D01*
X0093745Y0478872D01*
X0093881Y0478895D01*
X0094017Y0478914D01*
X0094154Y0478929D01*
X0094291Y0478940D01*
X0094428Y0478947D01*
X0094566Y0478950D01*
X0094703Y0478949D01*
X0094841Y0478944D01*
X0094978Y0478935D01*
X0095115Y0478922D01*
X0095251Y0478905D01*
X0095387Y0478884D01*
X0095522Y0478860D01*
X0095657Y0478831D01*
X0095791Y0478798D01*
X0095923Y0478762D01*
X0096055Y0478722D01*
X0096185Y0478678D01*
X0096314Y0478630D01*
X0096442Y0478578D01*
X0096568Y0478523D01*
X0096692Y0478465D01*
X0096814Y0478402D01*
X0096935Y0478336D01*
X0097054Y0478267D01*
X0097171Y0478194D01*
X0097285Y0478118D01*
X0097398Y0478039D01*
X0097508Y0477956D01*
X0097615Y0477870D01*
X0097720Y0477782D01*
X0097822Y0477690D01*
X0097922Y0477595D01*
X0098019Y0477497D01*
X0098113Y0477397D01*
X0098204Y0477294D01*
X0098292Y0477188D01*
X0098377Y0477080D01*
X0098459Y0476970D01*
X0098538Y0476857D01*
X0098613Y0476742D01*
X0098685Y0476624D01*
X0098753Y0476505D01*
X0098818Y0476384D01*
X0098880Y0476261D01*
X0098937Y0476136D01*
X0098992Y0476010D01*
X0099042Y0475882D01*
X0099089Y0475753D01*
X0099132Y0475622D01*
X0099171Y0475490D01*
X0099207Y0475357D01*
X0099238Y0475223D01*
X0099266Y0475089D01*
X0099290Y0474953D01*
X0099310Y0474817D01*
X0099326Y0474681D01*
X0099338Y0474544D01*
X0099346Y0474406D01*
X0099350Y0474269D01*
X0099350Y0474131D01*
X0099346Y0473994D01*
X0099338Y0473856D01*
X0099326Y0473719D01*
X0099310Y0473583D01*
X0099290Y0473447D01*
X0099266Y0473311D01*
X0099238Y0473177D01*
X0099207Y0473043D01*
X0099171Y0472910D01*
X0099132Y0472778D01*
X0099089Y0472647D01*
X0099042Y0472518D01*
X0098992Y0472390D01*
X0098937Y0472264D01*
X0098880Y0472139D01*
X0098818Y0472016D01*
X0098753Y0471895D01*
X0098685Y0471776D01*
X0098613Y0471658D01*
X0098538Y0471543D01*
X0098459Y0471430D01*
X0098377Y0471320D01*
X0098292Y0471212D01*
X0098204Y0471106D01*
X0098113Y0471003D01*
X0098019Y0470903D01*
X0097922Y0470805D01*
X0097822Y0470710D01*
X0097720Y0470618D01*
X0097615Y0470530D01*
X0097508Y0470444D01*
X0097398Y0470361D01*
X0097285Y0470282D01*
X0097171Y0470206D01*
X0097054Y0470133D01*
X0096935Y0470064D01*
X0096814Y0469998D01*
X0096692Y0469935D01*
X0096568Y0469877D01*
X0096442Y0469822D01*
X0096314Y0469770D01*
X0096185Y0469722D01*
X0096055Y0469678D01*
X0095923Y0469638D01*
X0095791Y0469602D01*
X0095657Y0469569D01*
X0095522Y0469540D01*
X0095387Y0469516D01*
X0095251Y0469495D01*
X0095115Y0469478D01*
X0094978Y0469465D01*
X0094841Y0469456D01*
X0094703Y0469451D01*
X0094566Y0469450D01*
X0094428Y0469453D01*
X0094291Y0469460D01*
X0094154Y0469471D01*
X0094017Y0469486D01*
X0093881Y0469505D01*
X0093745Y0469528D01*
X0093610Y0469554D01*
X0093476Y0469585D01*
X0093343Y0469619D01*
X0093211Y0469658D01*
X0093080Y0469700D01*
X0092950Y0469746D01*
X0092822Y0469795D01*
X0092695Y0469849D01*
X0092570Y0469906D01*
X0092447Y0469966D01*
X0092325Y0470030D01*
X0092205Y0470098D01*
X0092087Y0470169D01*
X0091972Y0470243D01*
X0091858Y0470321D01*
X0091747Y0470402D01*
X0091638Y0470486D01*
X0091532Y0470574D01*
X0091428Y0470664D01*
X0091327Y0470757D01*
X0091229Y0470853D01*
X0091134Y0470952D01*
X0091041Y0471054D01*
X0090951Y0471158D01*
X0090865Y0471265D01*
X0090782Y0471375D01*
X0090701Y0471486D01*
X0090624Y0471600D01*
X0090551Y0471717D01*
X0090481Y0471835D01*
X0090414Y0471955D01*
X0090351Y0472077D01*
X0090291Y0472201D01*
X0090235Y0472327D01*
X0090183Y0472454D01*
X0090134Y0472583D01*
X0090089Y0472713D01*
X0090048Y0472844D01*
X0090010Y0472976D01*
X0089977Y0473110D01*
X0089947Y0473244D01*
X0089922Y0473379D01*
X0089900Y0473515D01*
X0089882Y0473651D01*
X0089868Y0473788D01*
X0089858Y0473925D01*
X0089852Y0474062D01*
X0089850Y0474200D01*
X0096500Y0449300D02*
X0096502Y0449413D01*
X0096508Y0449526D01*
X0096518Y0449638D01*
X0096532Y0449750D01*
X0096550Y0449862D01*
X0096572Y0449973D01*
X0096597Y0450083D01*
X0096627Y0450192D01*
X0096660Y0450300D01*
X0096697Y0450406D01*
X0096738Y0450512D01*
X0096783Y0450615D01*
X0096831Y0450717D01*
X0096883Y0450818D01*
X0096938Y0450916D01*
X0096997Y0451013D01*
X0097059Y0451107D01*
X0097124Y0451199D01*
X0097193Y0451289D01*
X0097265Y0451376D01*
X0097340Y0451461D01*
X0097417Y0451543D01*
X0097498Y0451622D01*
X0097581Y0451698D01*
X0097667Y0451771D01*
X0097756Y0451842D01*
X0097847Y0451909D01*
X0097940Y0451972D01*
X0098035Y0452033D01*
X0098133Y0452090D01*
X0098232Y0452143D01*
X0098333Y0452194D01*
X0098436Y0452240D01*
X0098541Y0452283D01*
X0098647Y0452322D01*
X0098754Y0452357D01*
X0098863Y0452389D01*
X0098972Y0452416D01*
X0099083Y0452440D01*
X0099194Y0452460D01*
X0099306Y0452476D01*
X0099418Y0452488D01*
X0099531Y0452496D01*
X0099644Y0452500D01*
X0099756Y0452500D01*
X0099869Y0452496D01*
X0099982Y0452488D01*
X0100094Y0452476D01*
X0100206Y0452460D01*
X0100317Y0452440D01*
X0100428Y0452416D01*
X0100537Y0452389D01*
X0100646Y0452357D01*
X0100753Y0452322D01*
X0100859Y0452283D01*
X0100964Y0452240D01*
X0101067Y0452194D01*
X0101168Y0452143D01*
X0101267Y0452090D01*
X0101365Y0452033D01*
X0101460Y0451972D01*
X0101553Y0451909D01*
X0101644Y0451842D01*
X0101733Y0451771D01*
X0101819Y0451698D01*
X0101902Y0451622D01*
X0101983Y0451543D01*
X0102060Y0451461D01*
X0102135Y0451376D01*
X0102207Y0451289D01*
X0102276Y0451199D01*
X0102341Y0451107D01*
X0102403Y0451013D01*
X0102462Y0450916D01*
X0102517Y0450818D01*
X0102569Y0450717D01*
X0102617Y0450615D01*
X0102662Y0450512D01*
X0102703Y0450406D01*
X0102740Y0450300D01*
X0102773Y0450192D01*
X0102803Y0450083D01*
X0102828Y0449973D01*
X0102850Y0449862D01*
X0102868Y0449750D01*
X0102882Y0449638D01*
X0102892Y0449526D01*
X0102898Y0449413D01*
X0102900Y0449300D01*
X0102898Y0449187D01*
X0102892Y0449074D01*
X0102882Y0448962D01*
X0102868Y0448850D01*
X0102850Y0448738D01*
X0102828Y0448627D01*
X0102803Y0448517D01*
X0102773Y0448408D01*
X0102740Y0448300D01*
X0102703Y0448194D01*
X0102662Y0448088D01*
X0102617Y0447985D01*
X0102569Y0447883D01*
X0102517Y0447782D01*
X0102462Y0447684D01*
X0102403Y0447587D01*
X0102341Y0447493D01*
X0102276Y0447401D01*
X0102207Y0447311D01*
X0102135Y0447224D01*
X0102060Y0447139D01*
X0101983Y0447057D01*
X0101902Y0446978D01*
X0101819Y0446902D01*
X0101733Y0446829D01*
X0101644Y0446758D01*
X0101553Y0446691D01*
X0101460Y0446628D01*
X0101365Y0446567D01*
X0101267Y0446510D01*
X0101168Y0446457D01*
X0101067Y0446406D01*
X0100964Y0446360D01*
X0100859Y0446317D01*
X0100753Y0446278D01*
X0100646Y0446243D01*
X0100537Y0446211D01*
X0100428Y0446184D01*
X0100317Y0446160D01*
X0100206Y0446140D01*
X0100094Y0446124D01*
X0099982Y0446112D01*
X0099869Y0446104D01*
X0099756Y0446100D01*
X0099644Y0446100D01*
X0099531Y0446104D01*
X0099418Y0446112D01*
X0099306Y0446124D01*
X0099194Y0446140D01*
X0099083Y0446160D01*
X0098972Y0446184D01*
X0098863Y0446211D01*
X0098754Y0446243D01*
X0098647Y0446278D01*
X0098541Y0446317D01*
X0098436Y0446360D01*
X0098333Y0446406D01*
X0098232Y0446457D01*
X0098133Y0446510D01*
X0098035Y0446567D01*
X0097940Y0446628D01*
X0097847Y0446691D01*
X0097756Y0446758D01*
X0097667Y0446829D01*
X0097581Y0446902D01*
X0097498Y0446978D01*
X0097417Y0447057D01*
X0097340Y0447139D01*
X0097265Y0447224D01*
X0097193Y0447311D01*
X0097124Y0447401D01*
X0097059Y0447493D01*
X0096997Y0447587D01*
X0096938Y0447684D01*
X0096883Y0447782D01*
X0096831Y0447883D01*
X0096783Y0447985D01*
X0096738Y0448088D01*
X0096697Y0448194D01*
X0096660Y0448300D01*
X0096627Y0448408D01*
X0096597Y0448517D01*
X0096572Y0448627D01*
X0096550Y0448738D01*
X0096532Y0448850D01*
X0096518Y0448962D01*
X0096508Y0449074D01*
X0096502Y0449187D01*
X0096500Y0449300D01*
X0129850Y0474200D02*
X0129852Y0474338D01*
X0129858Y0474475D01*
X0129868Y0474612D01*
X0129882Y0474749D01*
X0129900Y0474885D01*
X0129922Y0475021D01*
X0129947Y0475156D01*
X0129977Y0475290D01*
X0130010Y0475424D01*
X0130048Y0475556D01*
X0130089Y0475687D01*
X0130134Y0475817D01*
X0130183Y0475946D01*
X0130235Y0476073D01*
X0130291Y0476199D01*
X0130351Y0476323D01*
X0130414Y0476445D01*
X0130481Y0476565D01*
X0130551Y0476683D01*
X0130624Y0476800D01*
X0130701Y0476914D01*
X0130782Y0477025D01*
X0130865Y0477135D01*
X0130951Y0477242D01*
X0131041Y0477346D01*
X0131134Y0477448D01*
X0131229Y0477547D01*
X0131327Y0477643D01*
X0131428Y0477736D01*
X0131532Y0477826D01*
X0131638Y0477914D01*
X0131747Y0477998D01*
X0131858Y0478079D01*
X0131972Y0478157D01*
X0132087Y0478231D01*
X0132205Y0478302D01*
X0132325Y0478370D01*
X0132447Y0478434D01*
X0132570Y0478494D01*
X0132695Y0478551D01*
X0132822Y0478605D01*
X0132950Y0478654D01*
X0133080Y0478700D01*
X0133211Y0478742D01*
X0133343Y0478781D01*
X0133476Y0478815D01*
X0133610Y0478846D01*
X0133745Y0478872D01*
X0133881Y0478895D01*
X0134017Y0478914D01*
X0134154Y0478929D01*
X0134291Y0478940D01*
X0134428Y0478947D01*
X0134566Y0478950D01*
X0134703Y0478949D01*
X0134841Y0478944D01*
X0134978Y0478935D01*
X0135115Y0478922D01*
X0135251Y0478905D01*
X0135387Y0478884D01*
X0135522Y0478860D01*
X0135657Y0478831D01*
X0135791Y0478798D01*
X0135923Y0478762D01*
X0136055Y0478722D01*
X0136185Y0478678D01*
X0136314Y0478630D01*
X0136442Y0478578D01*
X0136568Y0478523D01*
X0136692Y0478465D01*
X0136814Y0478402D01*
X0136935Y0478336D01*
X0137054Y0478267D01*
X0137171Y0478194D01*
X0137285Y0478118D01*
X0137398Y0478039D01*
X0137508Y0477956D01*
X0137615Y0477870D01*
X0137720Y0477782D01*
X0137822Y0477690D01*
X0137922Y0477595D01*
X0138019Y0477497D01*
X0138113Y0477397D01*
X0138204Y0477294D01*
X0138292Y0477188D01*
X0138377Y0477080D01*
X0138459Y0476970D01*
X0138538Y0476857D01*
X0138613Y0476742D01*
X0138685Y0476624D01*
X0138753Y0476505D01*
X0138818Y0476384D01*
X0138880Y0476261D01*
X0138937Y0476136D01*
X0138992Y0476010D01*
X0139042Y0475882D01*
X0139089Y0475753D01*
X0139132Y0475622D01*
X0139171Y0475490D01*
X0139207Y0475357D01*
X0139238Y0475223D01*
X0139266Y0475089D01*
X0139290Y0474953D01*
X0139310Y0474817D01*
X0139326Y0474681D01*
X0139338Y0474544D01*
X0139346Y0474406D01*
X0139350Y0474269D01*
X0139350Y0474131D01*
X0139346Y0473994D01*
X0139338Y0473856D01*
X0139326Y0473719D01*
X0139310Y0473583D01*
X0139290Y0473447D01*
X0139266Y0473311D01*
X0139238Y0473177D01*
X0139207Y0473043D01*
X0139171Y0472910D01*
X0139132Y0472778D01*
X0139089Y0472647D01*
X0139042Y0472518D01*
X0138992Y0472390D01*
X0138937Y0472264D01*
X0138880Y0472139D01*
X0138818Y0472016D01*
X0138753Y0471895D01*
X0138685Y0471776D01*
X0138613Y0471658D01*
X0138538Y0471543D01*
X0138459Y0471430D01*
X0138377Y0471320D01*
X0138292Y0471212D01*
X0138204Y0471106D01*
X0138113Y0471003D01*
X0138019Y0470903D01*
X0137922Y0470805D01*
X0137822Y0470710D01*
X0137720Y0470618D01*
X0137615Y0470530D01*
X0137508Y0470444D01*
X0137398Y0470361D01*
X0137285Y0470282D01*
X0137171Y0470206D01*
X0137054Y0470133D01*
X0136935Y0470064D01*
X0136814Y0469998D01*
X0136692Y0469935D01*
X0136568Y0469877D01*
X0136442Y0469822D01*
X0136314Y0469770D01*
X0136185Y0469722D01*
X0136055Y0469678D01*
X0135923Y0469638D01*
X0135791Y0469602D01*
X0135657Y0469569D01*
X0135522Y0469540D01*
X0135387Y0469516D01*
X0135251Y0469495D01*
X0135115Y0469478D01*
X0134978Y0469465D01*
X0134841Y0469456D01*
X0134703Y0469451D01*
X0134566Y0469450D01*
X0134428Y0469453D01*
X0134291Y0469460D01*
X0134154Y0469471D01*
X0134017Y0469486D01*
X0133881Y0469505D01*
X0133745Y0469528D01*
X0133610Y0469554D01*
X0133476Y0469585D01*
X0133343Y0469619D01*
X0133211Y0469658D01*
X0133080Y0469700D01*
X0132950Y0469746D01*
X0132822Y0469795D01*
X0132695Y0469849D01*
X0132570Y0469906D01*
X0132447Y0469966D01*
X0132325Y0470030D01*
X0132205Y0470098D01*
X0132087Y0470169D01*
X0131972Y0470243D01*
X0131858Y0470321D01*
X0131747Y0470402D01*
X0131638Y0470486D01*
X0131532Y0470574D01*
X0131428Y0470664D01*
X0131327Y0470757D01*
X0131229Y0470853D01*
X0131134Y0470952D01*
X0131041Y0471054D01*
X0130951Y0471158D01*
X0130865Y0471265D01*
X0130782Y0471375D01*
X0130701Y0471486D01*
X0130624Y0471600D01*
X0130551Y0471717D01*
X0130481Y0471835D01*
X0130414Y0471955D01*
X0130351Y0472077D01*
X0130291Y0472201D01*
X0130235Y0472327D01*
X0130183Y0472454D01*
X0130134Y0472583D01*
X0130089Y0472713D01*
X0130048Y0472844D01*
X0130010Y0472976D01*
X0129977Y0473110D01*
X0129947Y0473244D01*
X0129922Y0473379D01*
X0129900Y0473515D01*
X0129882Y0473651D01*
X0129868Y0473788D01*
X0129858Y0473925D01*
X0129852Y0474062D01*
X0129850Y0474200D01*
X0169850Y0474200D02*
X0169852Y0474338D01*
X0169858Y0474475D01*
X0169868Y0474612D01*
X0169882Y0474749D01*
X0169900Y0474885D01*
X0169922Y0475021D01*
X0169947Y0475156D01*
X0169977Y0475290D01*
X0170010Y0475424D01*
X0170048Y0475556D01*
X0170089Y0475687D01*
X0170134Y0475817D01*
X0170183Y0475946D01*
X0170235Y0476073D01*
X0170291Y0476199D01*
X0170351Y0476323D01*
X0170414Y0476445D01*
X0170481Y0476565D01*
X0170551Y0476683D01*
X0170624Y0476800D01*
X0170701Y0476914D01*
X0170782Y0477025D01*
X0170865Y0477135D01*
X0170951Y0477242D01*
X0171041Y0477346D01*
X0171134Y0477448D01*
X0171229Y0477547D01*
X0171327Y0477643D01*
X0171428Y0477736D01*
X0171532Y0477826D01*
X0171638Y0477914D01*
X0171747Y0477998D01*
X0171858Y0478079D01*
X0171972Y0478157D01*
X0172087Y0478231D01*
X0172205Y0478302D01*
X0172325Y0478370D01*
X0172447Y0478434D01*
X0172570Y0478494D01*
X0172695Y0478551D01*
X0172822Y0478605D01*
X0172950Y0478654D01*
X0173080Y0478700D01*
X0173211Y0478742D01*
X0173343Y0478781D01*
X0173476Y0478815D01*
X0173610Y0478846D01*
X0173745Y0478872D01*
X0173881Y0478895D01*
X0174017Y0478914D01*
X0174154Y0478929D01*
X0174291Y0478940D01*
X0174428Y0478947D01*
X0174566Y0478950D01*
X0174703Y0478949D01*
X0174841Y0478944D01*
X0174978Y0478935D01*
X0175115Y0478922D01*
X0175251Y0478905D01*
X0175387Y0478884D01*
X0175522Y0478860D01*
X0175657Y0478831D01*
X0175791Y0478798D01*
X0175923Y0478762D01*
X0176055Y0478722D01*
X0176185Y0478678D01*
X0176314Y0478630D01*
X0176442Y0478578D01*
X0176568Y0478523D01*
X0176692Y0478465D01*
X0176814Y0478402D01*
X0176935Y0478336D01*
X0177054Y0478267D01*
X0177171Y0478194D01*
X0177285Y0478118D01*
X0177398Y0478039D01*
X0177508Y0477956D01*
X0177615Y0477870D01*
X0177720Y0477782D01*
X0177822Y0477690D01*
X0177922Y0477595D01*
X0178019Y0477497D01*
X0178113Y0477397D01*
X0178204Y0477294D01*
X0178292Y0477188D01*
X0178377Y0477080D01*
X0178459Y0476970D01*
X0178538Y0476857D01*
X0178613Y0476742D01*
X0178685Y0476624D01*
X0178753Y0476505D01*
X0178818Y0476384D01*
X0178880Y0476261D01*
X0178937Y0476136D01*
X0178992Y0476010D01*
X0179042Y0475882D01*
X0179089Y0475753D01*
X0179132Y0475622D01*
X0179171Y0475490D01*
X0179207Y0475357D01*
X0179238Y0475223D01*
X0179266Y0475089D01*
X0179290Y0474953D01*
X0179310Y0474817D01*
X0179326Y0474681D01*
X0179338Y0474544D01*
X0179346Y0474406D01*
X0179350Y0474269D01*
X0179350Y0474131D01*
X0179346Y0473994D01*
X0179338Y0473856D01*
X0179326Y0473719D01*
X0179310Y0473583D01*
X0179290Y0473447D01*
X0179266Y0473311D01*
X0179238Y0473177D01*
X0179207Y0473043D01*
X0179171Y0472910D01*
X0179132Y0472778D01*
X0179089Y0472647D01*
X0179042Y0472518D01*
X0178992Y0472390D01*
X0178937Y0472264D01*
X0178880Y0472139D01*
X0178818Y0472016D01*
X0178753Y0471895D01*
X0178685Y0471776D01*
X0178613Y0471658D01*
X0178538Y0471543D01*
X0178459Y0471430D01*
X0178377Y0471320D01*
X0178292Y0471212D01*
X0178204Y0471106D01*
X0178113Y0471003D01*
X0178019Y0470903D01*
X0177922Y0470805D01*
X0177822Y0470710D01*
X0177720Y0470618D01*
X0177615Y0470530D01*
X0177508Y0470444D01*
X0177398Y0470361D01*
X0177285Y0470282D01*
X0177171Y0470206D01*
X0177054Y0470133D01*
X0176935Y0470064D01*
X0176814Y0469998D01*
X0176692Y0469935D01*
X0176568Y0469877D01*
X0176442Y0469822D01*
X0176314Y0469770D01*
X0176185Y0469722D01*
X0176055Y0469678D01*
X0175923Y0469638D01*
X0175791Y0469602D01*
X0175657Y0469569D01*
X0175522Y0469540D01*
X0175387Y0469516D01*
X0175251Y0469495D01*
X0175115Y0469478D01*
X0174978Y0469465D01*
X0174841Y0469456D01*
X0174703Y0469451D01*
X0174566Y0469450D01*
X0174428Y0469453D01*
X0174291Y0469460D01*
X0174154Y0469471D01*
X0174017Y0469486D01*
X0173881Y0469505D01*
X0173745Y0469528D01*
X0173610Y0469554D01*
X0173476Y0469585D01*
X0173343Y0469619D01*
X0173211Y0469658D01*
X0173080Y0469700D01*
X0172950Y0469746D01*
X0172822Y0469795D01*
X0172695Y0469849D01*
X0172570Y0469906D01*
X0172447Y0469966D01*
X0172325Y0470030D01*
X0172205Y0470098D01*
X0172087Y0470169D01*
X0171972Y0470243D01*
X0171858Y0470321D01*
X0171747Y0470402D01*
X0171638Y0470486D01*
X0171532Y0470574D01*
X0171428Y0470664D01*
X0171327Y0470757D01*
X0171229Y0470853D01*
X0171134Y0470952D01*
X0171041Y0471054D01*
X0170951Y0471158D01*
X0170865Y0471265D01*
X0170782Y0471375D01*
X0170701Y0471486D01*
X0170624Y0471600D01*
X0170551Y0471717D01*
X0170481Y0471835D01*
X0170414Y0471955D01*
X0170351Y0472077D01*
X0170291Y0472201D01*
X0170235Y0472327D01*
X0170183Y0472454D01*
X0170134Y0472583D01*
X0170089Y0472713D01*
X0170048Y0472844D01*
X0170010Y0472976D01*
X0169977Y0473110D01*
X0169947Y0473244D01*
X0169922Y0473379D01*
X0169900Y0473515D01*
X0169882Y0473651D01*
X0169868Y0473788D01*
X0169858Y0473925D01*
X0169852Y0474062D01*
X0169850Y0474200D01*
X0209850Y0474200D02*
X0209852Y0474338D01*
X0209858Y0474475D01*
X0209868Y0474612D01*
X0209882Y0474749D01*
X0209900Y0474885D01*
X0209922Y0475021D01*
X0209947Y0475156D01*
X0209977Y0475290D01*
X0210010Y0475424D01*
X0210048Y0475556D01*
X0210089Y0475687D01*
X0210134Y0475817D01*
X0210183Y0475946D01*
X0210235Y0476073D01*
X0210291Y0476199D01*
X0210351Y0476323D01*
X0210414Y0476445D01*
X0210481Y0476565D01*
X0210551Y0476683D01*
X0210624Y0476800D01*
X0210701Y0476914D01*
X0210782Y0477025D01*
X0210865Y0477135D01*
X0210951Y0477242D01*
X0211041Y0477346D01*
X0211134Y0477448D01*
X0211229Y0477547D01*
X0211327Y0477643D01*
X0211428Y0477736D01*
X0211532Y0477826D01*
X0211638Y0477914D01*
X0211747Y0477998D01*
X0211858Y0478079D01*
X0211972Y0478157D01*
X0212087Y0478231D01*
X0212205Y0478302D01*
X0212325Y0478370D01*
X0212447Y0478434D01*
X0212570Y0478494D01*
X0212695Y0478551D01*
X0212822Y0478605D01*
X0212950Y0478654D01*
X0213080Y0478700D01*
X0213211Y0478742D01*
X0213343Y0478781D01*
X0213476Y0478815D01*
X0213610Y0478846D01*
X0213745Y0478872D01*
X0213881Y0478895D01*
X0214017Y0478914D01*
X0214154Y0478929D01*
X0214291Y0478940D01*
X0214428Y0478947D01*
X0214566Y0478950D01*
X0214703Y0478949D01*
X0214841Y0478944D01*
X0214978Y0478935D01*
X0215115Y0478922D01*
X0215251Y0478905D01*
X0215387Y0478884D01*
X0215522Y0478860D01*
X0215657Y0478831D01*
X0215791Y0478798D01*
X0215923Y0478762D01*
X0216055Y0478722D01*
X0216185Y0478678D01*
X0216314Y0478630D01*
X0216442Y0478578D01*
X0216568Y0478523D01*
X0216692Y0478465D01*
X0216814Y0478402D01*
X0216935Y0478336D01*
X0217054Y0478267D01*
X0217171Y0478194D01*
X0217285Y0478118D01*
X0217398Y0478039D01*
X0217508Y0477956D01*
X0217615Y0477870D01*
X0217720Y0477782D01*
X0217822Y0477690D01*
X0217922Y0477595D01*
X0218019Y0477497D01*
X0218113Y0477397D01*
X0218204Y0477294D01*
X0218292Y0477188D01*
X0218377Y0477080D01*
X0218459Y0476970D01*
X0218538Y0476857D01*
X0218613Y0476742D01*
X0218685Y0476624D01*
X0218753Y0476505D01*
X0218818Y0476384D01*
X0218880Y0476261D01*
X0218937Y0476136D01*
X0218992Y0476010D01*
X0219042Y0475882D01*
X0219089Y0475753D01*
X0219132Y0475622D01*
X0219171Y0475490D01*
X0219207Y0475357D01*
X0219238Y0475223D01*
X0219266Y0475089D01*
X0219290Y0474953D01*
X0219310Y0474817D01*
X0219326Y0474681D01*
X0219338Y0474544D01*
X0219346Y0474406D01*
X0219350Y0474269D01*
X0219350Y0474131D01*
X0219346Y0473994D01*
X0219338Y0473856D01*
X0219326Y0473719D01*
X0219310Y0473583D01*
X0219290Y0473447D01*
X0219266Y0473311D01*
X0219238Y0473177D01*
X0219207Y0473043D01*
X0219171Y0472910D01*
X0219132Y0472778D01*
X0219089Y0472647D01*
X0219042Y0472518D01*
X0218992Y0472390D01*
X0218937Y0472264D01*
X0218880Y0472139D01*
X0218818Y0472016D01*
X0218753Y0471895D01*
X0218685Y0471776D01*
X0218613Y0471658D01*
X0218538Y0471543D01*
X0218459Y0471430D01*
X0218377Y0471320D01*
X0218292Y0471212D01*
X0218204Y0471106D01*
X0218113Y0471003D01*
X0218019Y0470903D01*
X0217922Y0470805D01*
X0217822Y0470710D01*
X0217720Y0470618D01*
X0217615Y0470530D01*
X0217508Y0470444D01*
X0217398Y0470361D01*
X0217285Y0470282D01*
X0217171Y0470206D01*
X0217054Y0470133D01*
X0216935Y0470064D01*
X0216814Y0469998D01*
X0216692Y0469935D01*
X0216568Y0469877D01*
X0216442Y0469822D01*
X0216314Y0469770D01*
X0216185Y0469722D01*
X0216055Y0469678D01*
X0215923Y0469638D01*
X0215791Y0469602D01*
X0215657Y0469569D01*
X0215522Y0469540D01*
X0215387Y0469516D01*
X0215251Y0469495D01*
X0215115Y0469478D01*
X0214978Y0469465D01*
X0214841Y0469456D01*
X0214703Y0469451D01*
X0214566Y0469450D01*
X0214428Y0469453D01*
X0214291Y0469460D01*
X0214154Y0469471D01*
X0214017Y0469486D01*
X0213881Y0469505D01*
X0213745Y0469528D01*
X0213610Y0469554D01*
X0213476Y0469585D01*
X0213343Y0469619D01*
X0213211Y0469658D01*
X0213080Y0469700D01*
X0212950Y0469746D01*
X0212822Y0469795D01*
X0212695Y0469849D01*
X0212570Y0469906D01*
X0212447Y0469966D01*
X0212325Y0470030D01*
X0212205Y0470098D01*
X0212087Y0470169D01*
X0211972Y0470243D01*
X0211858Y0470321D01*
X0211747Y0470402D01*
X0211638Y0470486D01*
X0211532Y0470574D01*
X0211428Y0470664D01*
X0211327Y0470757D01*
X0211229Y0470853D01*
X0211134Y0470952D01*
X0211041Y0471054D01*
X0210951Y0471158D01*
X0210865Y0471265D01*
X0210782Y0471375D01*
X0210701Y0471486D01*
X0210624Y0471600D01*
X0210551Y0471717D01*
X0210481Y0471835D01*
X0210414Y0471955D01*
X0210351Y0472077D01*
X0210291Y0472201D01*
X0210235Y0472327D01*
X0210183Y0472454D01*
X0210134Y0472583D01*
X0210089Y0472713D01*
X0210048Y0472844D01*
X0210010Y0472976D01*
X0209977Y0473110D01*
X0209947Y0473244D01*
X0209922Y0473379D01*
X0209900Y0473515D01*
X0209882Y0473651D01*
X0209868Y0473788D01*
X0209858Y0473925D01*
X0209852Y0474062D01*
X0209850Y0474200D01*
X0249850Y0474200D02*
X0249852Y0474338D01*
X0249858Y0474475D01*
X0249868Y0474612D01*
X0249882Y0474749D01*
X0249900Y0474885D01*
X0249922Y0475021D01*
X0249947Y0475156D01*
X0249977Y0475290D01*
X0250010Y0475424D01*
X0250048Y0475556D01*
X0250089Y0475687D01*
X0250134Y0475817D01*
X0250183Y0475946D01*
X0250235Y0476073D01*
X0250291Y0476199D01*
X0250351Y0476323D01*
X0250414Y0476445D01*
X0250481Y0476565D01*
X0250551Y0476683D01*
X0250624Y0476800D01*
X0250701Y0476914D01*
X0250782Y0477025D01*
X0250865Y0477135D01*
X0250951Y0477242D01*
X0251041Y0477346D01*
X0251134Y0477448D01*
X0251229Y0477547D01*
X0251327Y0477643D01*
X0251428Y0477736D01*
X0251532Y0477826D01*
X0251638Y0477914D01*
X0251747Y0477998D01*
X0251858Y0478079D01*
X0251972Y0478157D01*
X0252087Y0478231D01*
X0252205Y0478302D01*
X0252325Y0478370D01*
X0252447Y0478434D01*
X0252570Y0478494D01*
X0252695Y0478551D01*
X0252822Y0478605D01*
X0252950Y0478654D01*
X0253080Y0478700D01*
X0253211Y0478742D01*
X0253343Y0478781D01*
X0253476Y0478815D01*
X0253610Y0478846D01*
X0253745Y0478872D01*
X0253881Y0478895D01*
X0254017Y0478914D01*
X0254154Y0478929D01*
X0254291Y0478940D01*
X0254428Y0478947D01*
X0254566Y0478950D01*
X0254703Y0478949D01*
X0254841Y0478944D01*
X0254978Y0478935D01*
X0255115Y0478922D01*
X0255251Y0478905D01*
X0255387Y0478884D01*
X0255522Y0478860D01*
X0255657Y0478831D01*
X0255791Y0478798D01*
X0255923Y0478762D01*
X0256055Y0478722D01*
X0256185Y0478678D01*
X0256314Y0478630D01*
X0256442Y0478578D01*
X0256568Y0478523D01*
X0256692Y0478465D01*
X0256814Y0478402D01*
X0256935Y0478336D01*
X0257054Y0478267D01*
X0257171Y0478194D01*
X0257285Y0478118D01*
X0257398Y0478039D01*
X0257508Y0477956D01*
X0257615Y0477870D01*
X0257720Y0477782D01*
X0257822Y0477690D01*
X0257922Y0477595D01*
X0258019Y0477497D01*
X0258113Y0477397D01*
X0258204Y0477294D01*
X0258292Y0477188D01*
X0258377Y0477080D01*
X0258459Y0476970D01*
X0258538Y0476857D01*
X0258613Y0476742D01*
X0258685Y0476624D01*
X0258753Y0476505D01*
X0258818Y0476384D01*
X0258880Y0476261D01*
X0258937Y0476136D01*
X0258992Y0476010D01*
X0259042Y0475882D01*
X0259089Y0475753D01*
X0259132Y0475622D01*
X0259171Y0475490D01*
X0259207Y0475357D01*
X0259238Y0475223D01*
X0259266Y0475089D01*
X0259290Y0474953D01*
X0259310Y0474817D01*
X0259326Y0474681D01*
X0259338Y0474544D01*
X0259346Y0474406D01*
X0259350Y0474269D01*
X0259350Y0474131D01*
X0259346Y0473994D01*
X0259338Y0473856D01*
X0259326Y0473719D01*
X0259310Y0473583D01*
X0259290Y0473447D01*
X0259266Y0473311D01*
X0259238Y0473177D01*
X0259207Y0473043D01*
X0259171Y0472910D01*
X0259132Y0472778D01*
X0259089Y0472647D01*
X0259042Y0472518D01*
X0258992Y0472390D01*
X0258937Y0472264D01*
X0258880Y0472139D01*
X0258818Y0472016D01*
X0258753Y0471895D01*
X0258685Y0471776D01*
X0258613Y0471658D01*
X0258538Y0471543D01*
X0258459Y0471430D01*
X0258377Y0471320D01*
X0258292Y0471212D01*
X0258204Y0471106D01*
X0258113Y0471003D01*
X0258019Y0470903D01*
X0257922Y0470805D01*
X0257822Y0470710D01*
X0257720Y0470618D01*
X0257615Y0470530D01*
X0257508Y0470444D01*
X0257398Y0470361D01*
X0257285Y0470282D01*
X0257171Y0470206D01*
X0257054Y0470133D01*
X0256935Y0470064D01*
X0256814Y0469998D01*
X0256692Y0469935D01*
X0256568Y0469877D01*
X0256442Y0469822D01*
X0256314Y0469770D01*
X0256185Y0469722D01*
X0256055Y0469678D01*
X0255923Y0469638D01*
X0255791Y0469602D01*
X0255657Y0469569D01*
X0255522Y0469540D01*
X0255387Y0469516D01*
X0255251Y0469495D01*
X0255115Y0469478D01*
X0254978Y0469465D01*
X0254841Y0469456D01*
X0254703Y0469451D01*
X0254566Y0469450D01*
X0254428Y0469453D01*
X0254291Y0469460D01*
X0254154Y0469471D01*
X0254017Y0469486D01*
X0253881Y0469505D01*
X0253745Y0469528D01*
X0253610Y0469554D01*
X0253476Y0469585D01*
X0253343Y0469619D01*
X0253211Y0469658D01*
X0253080Y0469700D01*
X0252950Y0469746D01*
X0252822Y0469795D01*
X0252695Y0469849D01*
X0252570Y0469906D01*
X0252447Y0469966D01*
X0252325Y0470030D01*
X0252205Y0470098D01*
X0252087Y0470169D01*
X0251972Y0470243D01*
X0251858Y0470321D01*
X0251747Y0470402D01*
X0251638Y0470486D01*
X0251532Y0470574D01*
X0251428Y0470664D01*
X0251327Y0470757D01*
X0251229Y0470853D01*
X0251134Y0470952D01*
X0251041Y0471054D01*
X0250951Y0471158D01*
X0250865Y0471265D01*
X0250782Y0471375D01*
X0250701Y0471486D01*
X0250624Y0471600D01*
X0250551Y0471717D01*
X0250481Y0471835D01*
X0250414Y0471955D01*
X0250351Y0472077D01*
X0250291Y0472201D01*
X0250235Y0472327D01*
X0250183Y0472454D01*
X0250134Y0472583D01*
X0250089Y0472713D01*
X0250048Y0472844D01*
X0250010Y0472976D01*
X0249977Y0473110D01*
X0249947Y0473244D01*
X0249922Y0473379D01*
X0249900Y0473515D01*
X0249882Y0473651D01*
X0249868Y0473788D01*
X0249858Y0473925D01*
X0249852Y0474062D01*
X0249850Y0474200D01*
X0289850Y0474200D02*
X0289852Y0474338D01*
X0289858Y0474475D01*
X0289868Y0474612D01*
X0289882Y0474749D01*
X0289900Y0474885D01*
X0289922Y0475021D01*
X0289947Y0475156D01*
X0289977Y0475290D01*
X0290010Y0475424D01*
X0290048Y0475556D01*
X0290089Y0475687D01*
X0290134Y0475817D01*
X0290183Y0475946D01*
X0290235Y0476073D01*
X0290291Y0476199D01*
X0290351Y0476323D01*
X0290414Y0476445D01*
X0290481Y0476565D01*
X0290551Y0476683D01*
X0290624Y0476800D01*
X0290701Y0476914D01*
X0290782Y0477025D01*
X0290865Y0477135D01*
X0290951Y0477242D01*
X0291041Y0477346D01*
X0291134Y0477448D01*
X0291229Y0477547D01*
X0291327Y0477643D01*
X0291428Y0477736D01*
X0291532Y0477826D01*
X0291638Y0477914D01*
X0291747Y0477998D01*
X0291858Y0478079D01*
X0291972Y0478157D01*
X0292087Y0478231D01*
X0292205Y0478302D01*
X0292325Y0478370D01*
X0292447Y0478434D01*
X0292570Y0478494D01*
X0292695Y0478551D01*
X0292822Y0478605D01*
X0292950Y0478654D01*
X0293080Y0478700D01*
X0293211Y0478742D01*
X0293343Y0478781D01*
X0293476Y0478815D01*
X0293610Y0478846D01*
X0293745Y0478872D01*
X0293881Y0478895D01*
X0294017Y0478914D01*
X0294154Y0478929D01*
X0294291Y0478940D01*
X0294428Y0478947D01*
X0294566Y0478950D01*
X0294703Y0478949D01*
X0294841Y0478944D01*
X0294978Y0478935D01*
X0295115Y0478922D01*
X0295251Y0478905D01*
X0295387Y0478884D01*
X0295522Y0478860D01*
X0295657Y0478831D01*
X0295791Y0478798D01*
X0295923Y0478762D01*
X0296055Y0478722D01*
X0296185Y0478678D01*
X0296314Y0478630D01*
X0296442Y0478578D01*
X0296568Y0478523D01*
X0296692Y0478465D01*
X0296814Y0478402D01*
X0296935Y0478336D01*
X0297054Y0478267D01*
X0297171Y0478194D01*
X0297285Y0478118D01*
X0297398Y0478039D01*
X0297508Y0477956D01*
X0297615Y0477870D01*
X0297720Y0477782D01*
X0297822Y0477690D01*
X0297922Y0477595D01*
X0298019Y0477497D01*
X0298113Y0477397D01*
X0298204Y0477294D01*
X0298292Y0477188D01*
X0298377Y0477080D01*
X0298459Y0476970D01*
X0298538Y0476857D01*
X0298613Y0476742D01*
X0298685Y0476624D01*
X0298753Y0476505D01*
X0298818Y0476384D01*
X0298880Y0476261D01*
X0298937Y0476136D01*
X0298992Y0476010D01*
X0299042Y0475882D01*
X0299089Y0475753D01*
X0299132Y0475622D01*
X0299171Y0475490D01*
X0299207Y0475357D01*
X0299238Y0475223D01*
X0299266Y0475089D01*
X0299290Y0474953D01*
X0299310Y0474817D01*
X0299326Y0474681D01*
X0299338Y0474544D01*
X0299346Y0474406D01*
X0299350Y0474269D01*
X0299350Y0474131D01*
X0299346Y0473994D01*
X0299338Y0473856D01*
X0299326Y0473719D01*
X0299310Y0473583D01*
X0299290Y0473447D01*
X0299266Y0473311D01*
X0299238Y0473177D01*
X0299207Y0473043D01*
X0299171Y0472910D01*
X0299132Y0472778D01*
X0299089Y0472647D01*
X0299042Y0472518D01*
X0298992Y0472390D01*
X0298937Y0472264D01*
X0298880Y0472139D01*
X0298818Y0472016D01*
X0298753Y0471895D01*
X0298685Y0471776D01*
X0298613Y0471658D01*
X0298538Y0471543D01*
X0298459Y0471430D01*
X0298377Y0471320D01*
X0298292Y0471212D01*
X0298204Y0471106D01*
X0298113Y0471003D01*
X0298019Y0470903D01*
X0297922Y0470805D01*
X0297822Y0470710D01*
X0297720Y0470618D01*
X0297615Y0470530D01*
X0297508Y0470444D01*
X0297398Y0470361D01*
X0297285Y0470282D01*
X0297171Y0470206D01*
X0297054Y0470133D01*
X0296935Y0470064D01*
X0296814Y0469998D01*
X0296692Y0469935D01*
X0296568Y0469877D01*
X0296442Y0469822D01*
X0296314Y0469770D01*
X0296185Y0469722D01*
X0296055Y0469678D01*
X0295923Y0469638D01*
X0295791Y0469602D01*
X0295657Y0469569D01*
X0295522Y0469540D01*
X0295387Y0469516D01*
X0295251Y0469495D01*
X0295115Y0469478D01*
X0294978Y0469465D01*
X0294841Y0469456D01*
X0294703Y0469451D01*
X0294566Y0469450D01*
X0294428Y0469453D01*
X0294291Y0469460D01*
X0294154Y0469471D01*
X0294017Y0469486D01*
X0293881Y0469505D01*
X0293745Y0469528D01*
X0293610Y0469554D01*
X0293476Y0469585D01*
X0293343Y0469619D01*
X0293211Y0469658D01*
X0293080Y0469700D01*
X0292950Y0469746D01*
X0292822Y0469795D01*
X0292695Y0469849D01*
X0292570Y0469906D01*
X0292447Y0469966D01*
X0292325Y0470030D01*
X0292205Y0470098D01*
X0292087Y0470169D01*
X0291972Y0470243D01*
X0291858Y0470321D01*
X0291747Y0470402D01*
X0291638Y0470486D01*
X0291532Y0470574D01*
X0291428Y0470664D01*
X0291327Y0470757D01*
X0291229Y0470853D01*
X0291134Y0470952D01*
X0291041Y0471054D01*
X0290951Y0471158D01*
X0290865Y0471265D01*
X0290782Y0471375D01*
X0290701Y0471486D01*
X0290624Y0471600D01*
X0290551Y0471717D01*
X0290481Y0471835D01*
X0290414Y0471955D01*
X0290351Y0472077D01*
X0290291Y0472201D01*
X0290235Y0472327D01*
X0290183Y0472454D01*
X0290134Y0472583D01*
X0290089Y0472713D01*
X0290048Y0472844D01*
X0290010Y0472976D01*
X0289977Y0473110D01*
X0289947Y0473244D01*
X0289922Y0473379D01*
X0289900Y0473515D01*
X0289882Y0473651D01*
X0289868Y0473788D01*
X0289858Y0473925D01*
X0289852Y0474062D01*
X0289850Y0474200D01*
X0329850Y0474200D02*
X0329852Y0474338D01*
X0329858Y0474475D01*
X0329868Y0474612D01*
X0329882Y0474749D01*
X0329900Y0474885D01*
X0329922Y0475021D01*
X0329947Y0475156D01*
X0329977Y0475290D01*
X0330010Y0475424D01*
X0330048Y0475556D01*
X0330089Y0475687D01*
X0330134Y0475817D01*
X0330183Y0475946D01*
X0330235Y0476073D01*
X0330291Y0476199D01*
X0330351Y0476323D01*
X0330414Y0476445D01*
X0330481Y0476565D01*
X0330551Y0476683D01*
X0330624Y0476800D01*
X0330701Y0476914D01*
X0330782Y0477025D01*
X0330865Y0477135D01*
X0330951Y0477242D01*
X0331041Y0477346D01*
X0331134Y0477448D01*
X0331229Y0477547D01*
X0331327Y0477643D01*
X0331428Y0477736D01*
X0331532Y0477826D01*
X0331638Y0477914D01*
X0331747Y0477998D01*
X0331858Y0478079D01*
X0331972Y0478157D01*
X0332087Y0478231D01*
X0332205Y0478302D01*
X0332325Y0478370D01*
X0332447Y0478434D01*
X0332570Y0478494D01*
X0332695Y0478551D01*
X0332822Y0478605D01*
X0332950Y0478654D01*
X0333080Y0478700D01*
X0333211Y0478742D01*
X0333343Y0478781D01*
X0333476Y0478815D01*
X0333610Y0478846D01*
X0333745Y0478872D01*
X0333881Y0478895D01*
X0334017Y0478914D01*
X0334154Y0478929D01*
X0334291Y0478940D01*
X0334428Y0478947D01*
X0334566Y0478950D01*
X0334703Y0478949D01*
X0334841Y0478944D01*
X0334978Y0478935D01*
X0335115Y0478922D01*
X0335251Y0478905D01*
X0335387Y0478884D01*
X0335522Y0478860D01*
X0335657Y0478831D01*
X0335791Y0478798D01*
X0335923Y0478762D01*
X0336055Y0478722D01*
X0336185Y0478678D01*
X0336314Y0478630D01*
X0336442Y0478578D01*
X0336568Y0478523D01*
X0336692Y0478465D01*
X0336814Y0478402D01*
X0336935Y0478336D01*
X0337054Y0478267D01*
X0337171Y0478194D01*
X0337285Y0478118D01*
X0337398Y0478039D01*
X0337508Y0477956D01*
X0337615Y0477870D01*
X0337720Y0477782D01*
X0337822Y0477690D01*
X0337922Y0477595D01*
X0338019Y0477497D01*
X0338113Y0477397D01*
X0338204Y0477294D01*
X0338292Y0477188D01*
X0338377Y0477080D01*
X0338459Y0476970D01*
X0338538Y0476857D01*
X0338613Y0476742D01*
X0338685Y0476624D01*
X0338753Y0476505D01*
X0338818Y0476384D01*
X0338880Y0476261D01*
X0338937Y0476136D01*
X0338992Y0476010D01*
X0339042Y0475882D01*
X0339089Y0475753D01*
X0339132Y0475622D01*
X0339171Y0475490D01*
X0339207Y0475357D01*
X0339238Y0475223D01*
X0339266Y0475089D01*
X0339290Y0474953D01*
X0339310Y0474817D01*
X0339326Y0474681D01*
X0339338Y0474544D01*
X0339346Y0474406D01*
X0339350Y0474269D01*
X0339350Y0474131D01*
X0339346Y0473994D01*
X0339338Y0473856D01*
X0339326Y0473719D01*
X0339310Y0473583D01*
X0339290Y0473447D01*
X0339266Y0473311D01*
X0339238Y0473177D01*
X0339207Y0473043D01*
X0339171Y0472910D01*
X0339132Y0472778D01*
X0339089Y0472647D01*
X0339042Y0472518D01*
X0338992Y0472390D01*
X0338937Y0472264D01*
X0338880Y0472139D01*
X0338818Y0472016D01*
X0338753Y0471895D01*
X0338685Y0471776D01*
X0338613Y0471658D01*
X0338538Y0471543D01*
X0338459Y0471430D01*
X0338377Y0471320D01*
X0338292Y0471212D01*
X0338204Y0471106D01*
X0338113Y0471003D01*
X0338019Y0470903D01*
X0337922Y0470805D01*
X0337822Y0470710D01*
X0337720Y0470618D01*
X0337615Y0470530D01*
X0337508Y0470444D01*
X0337398Y0470361D01*
X0337285Y0470282D01*
X0337171Y0470206D01*
X0337054Y0470133D01*
X0336935Y0470064D01*
X0336814Y0469998D01*
X0336692Y0469935D01*
X0336568Y0469877D01*
X0336442Y0469822D01*
X0336314Y0469770D01*
X0336185Y0469722D01*
X0336055Y0469678D01*
X0335923Y0469638D01*
X0335791Y0469602D01*
X0335657Y0469569D01*
X0335522Y0469540D01*
X0335387Y0469516D01*
X0335251Y0469495D01*
X0335115Y0469478D01*
X0334978Y0469465D01*
X0334841Y0469456D01*
X0334703Y0469451D01*
X0334566Y0469450D01*
X0334428Y0469453D01*
X0334291Y0469460D01*
X0334154Y0469471D01*
X0334017Y0469486D01*
X0333881Y0469505D01*
X0333745Y0469528D01*
X0333610Y0469554D01*
X0333476Y0469585D01*
X0333343Y0469619D01*
X0333211Y0469658D01*
X0333080Y0469700D01*
X0332950Y0469746D01*
X0332822Y0469795D01*
X0332695Y0469849D01*
X0332570Y0469906D01*
X0332447Y0469966D01*
X0332325Y0470030D01*
X0332205Y0470098D01*
X0332087Y0470169D01*
X0331972Y0470243D01*
X0331858Y0470321D01*
X0331747Y0470402D01*
X0331638Y0470486D01*
X0331532Y0470574D01*
X0331428Y0470664D01*
X0331327Y0470757D01*
X0331229Y0470853D01*
X0331134Y0470952D01*
X0331041Y0471054D01*
X0330951Y0471158D01*
X0330865Y0471265D01*
X0330782Y0471375D01*
X0330701Y0471486D01*
X0330624Y0471600D01*
X0330551Y0471717D01*
X0330481Y0471835D01*
X0330414Y0471955D01*
X0330351Y0472077D01*
X0330291Y0472201D01*
X0330235Y0472327D01*
X0330183Y0472454D01*
X0330134Y0472583D01*
X0330089Y0472713D01*
X0330048Y0472844D01*
X0330010Y0472976D01*
X0329977Y0473110D01*
X0329947Y0473244D01*
X0329922Y0473379D01*
X0329900Y0473515D01*
X0329882Y0473651D01*
X0329868Y0473788D01*
X0329858Y0473925D01*
X0329852Y0474062D01*
X0329850Y0474200D01*
X0369850Y0474200D02*
X0369852Y0474338D01*
X0369858Y0474475D01*
X0369868Y0474612D01*
X0369882Y0474749D01*
X0369900Y0474885D01*
X0369922Y0475021D01*
X0369947Y0475156D01*
X0369977Y0475290D01*
X0370010Y0475424D01*
X0370048Y0475556D01*
X0370089Y0475687D01*
X0370134Y0475817D01*
X0370183Y0475946D01*
X0370235Y0476073D01*
X0370291Y0476199D01*
X0370351Y0476323D01*
X0370414Y0476445D01*
X0370481Y0476565D01*
X0370551Y0476683D01*
X0370624Y0476800D01*
X0370701Y0476914D01*
X0370782Y0477025D01*
X0370865Y0477135D01*
X0370951Y0477242D01*
X0371041Y0477346D01*
X0371134Y0477448D01*
X0371229Y0477547D01*
X0371327Y0477643D01*
X0371428Y0477736D01*
X0371532Y0477826D01*
X0371638Y0477914D01*
X0371747Y0477998D01*
X0371858Y0478079D01*
X0371972Y0478157D01*
X0372087Y0478231D01*
X0372205Y0478302D01*
X0372325Y0478370D01*
X0372447Y0478434D01*
X0372570Y0478494D01*
X0372695Y0478551D01*
X0372822Y0478605D01*
X0372950Y0478654D01*
X0373080Y0478700D01*
X0373211Y0478742D01*
X0373343Y0478781D01*
X0373476Y0478815D01*
X0373610Y0478846D01*
X0373745Y0478872D01*
X0373881Y0478895D01*
X0374017Y0478914D01*
X0374154Y0478929D01*
X0374291Y0478940D01*
X0374428Y0478947D01*
X0374566Y0478950D01*
X0374703Y0478949D01*
X0374841Y0478944D01*
X0374978Y0478935D01*
X0375115Y0478922D01*
X0375251Y0478905D01*
X0375387Y0478884D01*
X0375522Y0478860D01*
X0375657Y0478831D01*
X0375791Y0478798D01*
X0375923Y0478762D01*
X0376055Y0478722D01*
X0376185Y0478678D01*
X0376314Y0478630D01*
X0376442Y0478578D01*
X0376568Y0478523D01*
X0376692Y0478465D01*
X0376814Y0478402D01*
X0376935Y0478336D01*
X0377054Y0478267D01*
X0377171Y0478194D01*
X0377285Y0478118D01*
X0377398Y0478039D01*
X0377508Y0477956D01*
X0377615Y0477870D01*
X0377720Y0477782D01*
X0377822Y0477690D01*
X0377922Y0477595D01*
X0378019Y0477497D01*
X0378113Y0477397D01*
X0378204Y0477294D01*
X0378292Y0477188D01*
X0378377Y0477080D01*
X0378459Y0476970D01*
X0378538Y0476857D01*
X0378613Y0476742D01*
X0378685Y0476624D01*
X0378753Y0476505D01*
X0378818Y0476384D01*
X0378880Y0476261D01*
X0378937Y0476136D01*
X0378992Y0476010D01*
X0379042Y0475882D01*
X0379089Y0475753D01*
X0379132Y0475622D01*
X0379171Y0475490D01*
X0379207Y0475357D01*
X0379238Y0475223D01*
X0379266Y0475089D01*
X0379290Y0474953D01*
X0379310Y0474817D01*
X0379326Y0474681D01*
X0379338Y0474544D01*
X0379346Y0474406D01*
X0379350Y0474269D01*
X0379350Y0474131D01*
X0379346Y0473994D01*
X0379338Y0473856D01*
X0379326Y0473719D01*
X0379310Y0473583D01*
X0379290Y0473447D01*
X0379266Y0473311D01*
X0379238Y0473177D01*
X0379207Y0473043D01*
X0379171Y0472910D01*
X0379132Y0472778D01*
X0379089Y0472647D01*
X0379042Y0472518D01*
X0378992Y0472390D01*
X0378937Y0472264D01*
X0378880Y0472139D01*
X0378818Y0472016D01*
X0378753Y0471895D01*
X0378685Y0471776D01*
X0378613Y0471658D01*
X0378538Y0471543D01*
X0378459Y0471430D01*
X0378377Y0471320D01*
X0378292Y0471212D01*
X0378204Y0471106D01*
X0378113Y0471003D01*
X0378019Y0470903D01*
X0377922Y0470805D01*
X0377822Y0470710D01*
X0377720Y0470618D01*
X0377615Y0470530D01*
X0377508Y0470444D01*
X0377398Y0470361D01*
X0377285Y0470282D01*
X0377171Y0470206D01*
X0377054Y0470133D01*
X0376935Y0470064D01*
X0376814Y0469998D01*
X0376692Y0469935D01*
X0376568Y0469877D01*
X0376442Y0469822D01*
X0376314Y0469770D01*
X0376185Y0469722D01*
X0376055Y0469678D01*
X0375923Y0469638D01*
X0375791Y0469602D01*
X0375657Y0469569D01*
X0375522Y0469540D01*
X0375387Y0469516D01*
X0375251Y0469495D01*
X0375115Y0469478D01*
X0374978Y0469465D01*
X0374841Y0469456D01*
X0374703Y0469451D01*
X0374566Y0469450D01*
X0374428Y0469453D01*
X0374291Y0469460D01*
X0374154Y0469471D01*
X0374017Y0469486D01*
X0373881Y0469505D01*
X0373745Y0469528D01*
X0373610Y0469554D01*
X0373476Y0469585D01*
X0373343Y0469619D01*
X0373211Y0469658D01*
X0373080Y0469700D01*
X0372950Y0469746D01*
X0372822Y0469795D01*
X0372695Y0469849D01*
X0372570Y0469906D01*
X0372447Y0469966D01*
X0372325Y0470030D01*
X0372205Y0470098D01*
X0372087Y0470169D01*
X0371972Y0470243D01*
X0371858Y0470321D01*
X0371747Y0470402D01*
X0371638Y0470486D01*
X0371532Y0470574D01*
X0371428Y0470664D01*
X0371327Y0470757D01*
X0371229Y0470853D01*
X0371134Y0470952D01*
X0371041Y0471054D01*
X0370951Y0471158D01*
X0370865Y0471265D01*
X0370782Y0471375D01*
X0370701Y0471486D01*
X0370624Y0471600D01*
X0370551Y0471717D01*
X0370481Y0471835D01*
X0370414Y0471955D01*
X0370351Y0472077D01*
X0370291Y0472201D01*
X0370235Y0472327D01*
X0370183Y0472454D01*
X0370134Y0472583D01*
X0370089Y0472713D01*
X0370048Y0472844D01*
X0370010Y0472976D01*
X0369977Y0473110D01*
X0369947Y0473244D01*
X0369922Y0473379D01*
X0369900Y0473515D01*
X0369882Y0473651D01*
X0369868Y0473788D01*
X0369858Y0473925D01*
X0369852Y0474062D01*
X0369850Y0474200D01*
X0096500Y0249300D02*
X0096502Y0249413D01*
X0096508Y0249526D01*
X0096518Y0249638D01*
X0096532Y0249750D01*
X0096550Y0249862D01*
X0096572Y0249973D01*
X0096597Y0250083D01*
X0096627Y0250192D01*
X0096660Y0250300D01*
X0096697Y0250406D01*
X0096738Y0250512D01*
X0096783Y0250615D01*
X0096831Y0250717D01*
X0096883Y0250818D01*
X0096938Y0250916D01*
X0096997Y0251013D01*
X0097059Y0251107D01*
X0097124Y0251199D01*
X0097193Y0251289D01*
X0097265Y0251376D01*
X0097340Y0251461D01*
X0097417Y0251543D01*
X0097498Y0251622D01*
X0097581Y0251698D01*
X0097667Y0251771D01*
X0097756Y0251842D01*
X0097847Y0251909D01*
X0097940Y0251972D01*
X0098035Y0252033D01*
X0098133Y0252090D01*
X0098232Y0252143D01*
X0098333Y0252194D01*
X0098436Y0252240D01*
X0098541Y0252283D01*
X0098647Y0252322D01*
X0098754Y0252357D01*
X0098863Y0252389D01*
X0098972Y0252416D01*
X0099083Y0252440D01*
X0099194Y0252460D01*
X0099306Y0252476D01*
X0099418Y0252488D01*
X0099531Y0252496D01*
X0099644Y0252500D01*
X0099756Y0252500D01*
X0099869Y0252496D01*
X0099982Y0252488D01*
X0100094Y0252476D01*
X0100206Y0252460D01*
X0100317Y0252440D01*
X0100428Y0252416D01*
X0100537Y0252389D01*
X0100646Y0252357D01*
X0100753Y0252322D01*
X0100859Y0252283D01*
X0100964Y0252240D01*
X0101067Y0252194D01*
X0101168Y0252143D01*
X0101267Y0252090D01*
X0101365Y0252033D01*
X0101460Y0251972D01*
X0101553Y0251909D01*
X0101644Y0251842D01*
X0101733Y0251771D01*
X0101819Y0251698D01*
X0101902Y0251622D01*
X0101983Y0251543D01*
X0102060Y0251461D01*
X0102135Y0251376D01*
X0102207Y0251289D01*
X0102276Y0251199D01*
X0102341Y0251107D01*
X0102403Y0251013D01*
X0102462Y0250916D01*
X0102517Y0250818D01*
X0102569Y0250717D01*
X0102617Y0250615D01*
X0102662Y0250512D01*
X0102703Y0250406D01*
X0102740Y0250300D01*
X0102773Y0250192D01*
X0102803Y0250083D01*
X0102828Y0249973D01*
X0102850Y0249862D01*
X0102868Y0249750D01*
X0102882Y0249638D01*
X0102892Y0249526D01*
X0102898Y0249413D01*
X0102900Y0249300D01*
X0102898Y0249187D01*
X0102892Y0249074D01*
X0102882Y0248962D01*
X0102868Y0248850D01*
X0102850Y0248738D01*
X0102828Y0248627D01*
X0102803Y0248517D01*
X0102773Y0248408D01*
X0102740Y0248300D01*
X0102703Y0248194D01*
X0102662Y0248088D01*
X0102617Y0247985D01*
X0102569Y0247883D01*
X0102517Y0247782D01*
X0102462Y0247684D01*
X0102403Y0247587D01*
X0102341Y0247493D01*
X0102276Y0247401D01*
X0102207Y0247311D01*
X0102135Y0247224D01*
X0102060Y0247139D01*
X0101983Y0247057D01*
X0101902Y0246978D01*
X0101819Y0246902D01*
X0101733Y0246829D01*
X0101644Y0246758D01*
X0101553Y0246691D01*
X0101460Y0246628D01*
X0101365Y0246567D01*
X0101267Y0246510D01*
X0101168Y0246457D01*
X0101067Y0246406D01*
X0100964Y0246360D01*
X0100859Y0246317D01*
X0100753Y0246278D01*
X0100646Y0246243D01*
X0100537Y0246211D01*
X0100428Y0246184D01*
X0100317Y0246160D01*
X0100206Y0246140D01*
X0100094Y0246124D01*
X0099982Y0246112D01*
X0099869Y0246104D01*
X0099756Y0246100D01*
X0099644Y0246100D01*
X0099531Y0246104D01*
X0099418Y0246112D01*
X0099306Y0246124D01*
X0099194Y0246140D01*
X0099083Y0246160D01*
X0098972Y0246184D01*
X0098863Y0246211D01*
X0098754Y0246243D01*
X0098647Y0246278D01*
X0098541Y0246317D01*
X0098436Y0246360D01*
X0098333Y0246406D01*
X0098232Y0246457D01*
X0098133Y0246510D01*
X0098035Y0246567D01*
X0097940Y0246628D01*
X0097847Y0246691D01*
X0097756Y0246758D01*
X0097667Y0246829D01*
X0097581Y0246902D01*
X0097498Y0246978D01*
X0097417Y0247057D01*
X0097340Y0247139D01*
X0097265Y0247224D01*
X0097193Y0247311D01*
X0097124Y0247401D01*
X0097059Y0247493D01*
X0096997Y0247587D01*
X0096938Y0247684D01*
X0096883Y0247782D01*
X0096831Y0247883D01*
X0096783Y0247985D01*
X0096738Y0248088D01*
X0096697Y0248194D01*
X0096660Y0248300D01*
X0096627Y0248408D01*
X0096597Y0248517D01*
X0096572Y0248627D01*
X0096550Y0248738D01*
X0096532Y0248850D01*
X0096518Y0248962D01*
X0096508Y0249074D01*
X0096502Y0249187D01*
X0096500Y0249300D01*
X0094900Y0049300D02*
X0094902Y0049438D01*
X0094908Y0049577D01*
X0094918Y0049715D01*
X0094932Y0049852D01*
X0094950Y0049989D01*
X0094972Y0050126D01*
X0094997Y0050262D01*
X0095027Y0050397D01*
X0095061Y0050531D01*
X0095098Y0050664D01*
X0095139Y0050796D01*
X0095184Y0050927D01*
X0095233Y0051057D01*
X0095285Y0051185D01*
X0095342Y0051311D01*
X0095401Y0051436D01*
X0095465Y0051559D01*
X0095532Y0051680D01*
X0095602Y0051799D01*
X0095676Y0051916D01*
X0095753Y0052031D01*
X0095833Y0052144D01*
X0095917Y0052254D01*
X0096003Y0052362D01*
X0096093Y0052467D01*
X0096186Y0052570D01*
X0096282Y0052670D01*
X0096380Y0052767D01*
X0096481Y0052861D01*
X0096585Y0052952D01*
X0096692Y0053040D01*
X0096801Y0053126D01*
X0096912Y0053208D01*
X0097026Y0053286D01*
X0097142Y0053362D01*
X0097260Y0053434D01*
X0097380Y0053502D01*
X0097502Y0053567D01*
X0097626Y0053629D01*
X0097752Y0053687D01*
X0097879Y0053741D01*
X0098008Y0053792D01*
X0098138Y0053839D01*
X0098269Y0053882D01*
X0098402Y0053921D01*
X0098536Y0053957D01*
X0098670Y0053988D01*
X0098806Y0054016D01*
X0098942Y0054040D01*
X0099079Y0054060D01*
X0099217Y0054076D01*
X0099354Y0054088D01*
X0099493Y0054096D01*
X0099631Y0054100D01*
X0099769Y0054100D01*
X0099907Y0054096D01*
X0100046Y0054088D01*
X0100183Y0054076D01*
X0100321Y0054060D01*
X0100458Y0054040D01*
X0100594Y0054016D01*
X0100730Y0053988D01*
X0100864Y0053957D01*
X0100998Y0053921D01*
X0101131Y0053882D01*
X0101262Y0053839D01*
X0101392Y0053792D01*
X0101521Y0053741D01*
X0101648Y0053687D01*
X0101774Y0053629D01*
X0101898Y0053567D01*
X0102020Y0053502D01*
X0102140Y0053434D01*
X0102258Y0053362D01*
X0102374Y0053286D01*
X0102488Y0053208D01*
X0102599Y0053126D01*
X0102708Y0053040D01*
X0102815Y0052952D01*
X0102919Y0052861D01*
X0103020Y0052767D01*
X0103118Y0052670D01*
X0103214Y0052570D01*
X0103307Y0052467D01*
X0103397Y0052362D01*
X0103483Y0052254D01*
X0103567Y0052144D01*
X0103647Y0052031D01*
X0103724Y0051916D01*
X0103798Y0051799D01*
X0103868Y0051680D01*
X0103935Y0051559D01*
X0103999Y0051436D01*
X0104058Y0051311D01*
X0104115Y0051185D01*
X0104167Y0051057D01*
X0104216Y0050927D01*
X0104261Y0050796D01*
X0104302Y0050664D01*
X0104339Y0050531D01*
X0104373Y0050397D01*
X0104403Y0050262D01*
X0104428Y0050126D01*
X0104450Y0049989D01*
X0104468Y0049852D01*
X0104482Y0049715D01*
X0104492Y0049577D01*
X0104498Y0049438D01*
X0104500Y0049300D01*
X0104498Y0049162D01*
X0104492Y0049023D01*
X0104482Y0048885D01*
X0104468Y0048748D01*
X0104450Y0048611D01*
X0104428Y0048474D01*
X0104403Y0048338D01*
X0104373Y0048203D01*
X0104339Y0048069D01*
X0104302Y0047936D01*
X0104261Y0047804D01*
X0104216Y0047673D01*
X0104167Y0047543D01*
X0104115Y0047415D01*
X0104058Y0047289D01*
X0103999Y0047164D01*
X0103935Y0047041D01*
X0103868Y0046920D01*
X0103798Y0046801D01*
X0103724Y0046684D01*
X0103647Y0046569D01*
X0103567Y0046456D01*
X0103483Y0046346D01*
X0103397Y0046238D01*
X0103307Y0046133D01*
X0103214Y0046030D01*
X0103118Y0045930D01*
X0103020Y0045833D01*
X0102919Y0045739D01*
X0102815Y0045648D01*
X0102708Y0045560D01*
X0102599Y0045474D01*
X0102488Y0045392D01*
X0102374Y0045314D01*
X0102258Y0045238D01*
X0102140Y0045166D01*
X0102020Y0045098D01*
X0101898Y0045033D01*
X0101774Y0044971D01*
X0101648Y0044913D01*
X0101521Y0044859D01*
X0101392Y0044808D01*
X0101262Y0044761D01*
X0101131Y0044718D01*
X0100998Y0044679D01*
X0100864Y0044643D01*
X0100730Y0044612D01*
X0100594Y0044584D01*
X0100458Y0044560D01*
X0100321Y0044540D01*
X0100183Y0044524D01*
X0100046Y0044512D01*
X0099907Y0044504D01*
X0099769Y0044500D01*
X0099631Y0044500D01*
X0099493Y0044504D01*
X0099354Y0044512D01*
X0099217Y0044524D01*
X0099079Y0044540D01*
X0098942Y0044560D01*
X0098806Y0044584D01*
X0098670Y0044612D01*
X0098536Y0044643D01*
X0098402Y0044679D01*
X0098269Y0044718D01*
X0098138Y0044761D01*
X0098008Y0044808D01*
X0097879Y0044859D01*
X0097752Y0044913D01*
X0097626Y0044971D01*
X0097502Y0045033D01*
X0097380Y0045098D01*
X0097260Y0045166D01*
X0097142Y0045238D01*
X0097026Y0045314D01*
X0096912Y0045392D01*
X0096801Y0045474D01*
X0096692Y0045560D01*
X0096585Y0045648D01*
X0096481Y0045739D01*
X0096380Y0045833D01*
X0096282Y0045930D01*
X0096186Y0046030D01*
X0096093Y0046133D01*
X0096003Y0046238D01*
X0095917Y0046346D01*
X0095833Y0046456D01*
X0095753Y0046569D01*
X0095676Y0046684D01*
X0095602Y0046801D01*
X0095532Y0046920D01*
X0095465Y0047041D01*
X0095401Y0047164D01*
X0095342Y0047289D01*
X0095285Y0047415D01*
X0095233Y0047543D01*
X0095184Y0047673D01*
X0095139Y0047804D01*
X0095098Y0047936D01*
X0095061Y0048069D01*
X0095027Y0048203D01*
X0094997Y0048338D01*
X0094972Y0048474D01*
X0094950Y0048611D01*
X0094932Y0048748D01*
X0094918Y0048885D01*
X0094908Y0049023D01*
X0094902Y0049162D01*
X0094900Y0049300D01*
D12*
X0114700Y0557469D03*
X0110960Y0566131D03*
X0118440Y0566131D03*
X0114700Y0582469D03*
X0110960Y0591131D03*
X0118440Y0591131D03*
X0114700Y0607469D03*
X0110960Y0616131D03*
X0118440Y0616131D03*
X0114700Y0647469D03*
X0110960Y0656131D03*
X0118440Y0656131D03*
X0114700Y0677469D03*
X0110960Y0686131D03*
X0118440Y0686131D03*
X0114700Y0707469D03*
X0110960Y0716131D03*
X0118440Y0716131D03*
X0114700Y0747469D03*
X0110960Y0756131D03*
X0118440Y0756131D03*
X0114700Y0777469D03*
X0110960Y0786131D03*
X0118440Y0786131D03*
X0190960Y0786131D03*
X0198440Y0786131D03*
X0194700Y0777469D03*
X0190960Y0756131D03*
X0198440Y0756131D03*
X0194700Y0747469D03*
X0190960Y0716131D03*
X0198440Y0716131D03*
X0194700Y0707469D03*
X0190960Y0686131D03*
X0198440Y0686131D03*
X0194700Y0677469D03*
X0190960Y0656131D03*
X0198440Y0656131D03*
X0194700Y0647469D03*
X0190960Y0616131D03*
X0198440Y0616131D03*
X0194700Y0607469D03*
X0190960Y0591131D03*
X0198440Y0591131D03*
X0194700Y0582469D03*
X0190960Y0566131D03*
X0198440Y0566131D03*
X0194700Y0557469D03*
D13*
X0392700Y0635702D03*
X0392700Y0646898D03*
X0419700Y0666202D03*
X0419700Y0677398D03*
X0419700Y0696202D03*
X0419700Y0707398D03*
X0476200Y0647398D03*
X0476200Y0636202D03*
X0481200Y0572398D03*
X0481200Y0561202D03*
X0447700Y0507398D03*
X0447700Y0496202D03*
X0459700Y0477398D03*
X0459700Y0466202D03*
X0418700Y0427398D03*
X0418700Y0416202D03*
X0446700Y0407398D03*
X0446700Y0396202D03*
X0594700Y0521202D03*
X0603700Y0521202D03*
X0612700Y0521202D03*
X0612700Y0532398D03*
X0603700Y0532398D03*
X0594700Y0532398D03*
X0596200Y0479398D03*
X0596200Y0468202D03*
X0799700Y0242398D03*
X0799700Y0231202D03*
X0777200Y0086898D03*
X0777200Y0075702D03*
X0689700Y0069398D03*
X0689700Y0058202D03*
X0674700Y0058202D03*
X0674700Y0069398D03*
X0169700Y0126202D03*
X0169700Y0137398D03*
X0629700Y0705202D03*
X0629700Y0716398D03*
X0670200Y0715898D03*
X0670200Y0704702D03*
X0679700Y0761202D03*
X0679700Y0772398D03*
X0675700Y0789202D03*
X0675700Y0800398D03*
X0679700Y0816202D03*
X0679700Y0827398D03*
X0729700Y0817398D03*
X0729700Y0806202D03*
X0749700Y0806202D03*
X0749700Y0817398D03*
X0840700Y0797898D03*
X0850700Y0797898D03*
X0850700Y0786702D03*
X0840700Y0786702D03*
X0626700Y0791202D03*
X0626700Y0802398D03*
X0584700Y0811202D03*
X0574700Y0811202D03*
X0574700Y0822398D03*
X0584700Y0822398D03*
X0584700Y0762398D03*
X0584700Y0751202D03*
X0569700Y0751202D03*
X0569700Y0762398D03*
X0569700Y0732398D03*
X0569700Y0721202D03*
X0584700Y0721202D03*
X0584700Y0732398D03*
D14*
X0599700Y0732312D03*
X0599700Y0721288D03*
X0599700Y0751288D03*
X0599700Y0762312D03*
X0628200Y0761288D03*
X0628200Y0772312D03*
X0629700Y0816288D03*
X0629700Y0827312D03*
X0594700Y0822312D03*
X0594700Y0811288D03*
X0564700Y0811288D03*
X0564700Y0822312D03*
X0534700Y0827312D03*
X0534700Y0816288D03*
X0539700Y0772812D03*
X0539700Y0761788D03*
X0542700Y0727312D03*
X0542700Y0716288D03*
X0534700Y0677312D03*
X0534700Y0666288D03*
X0534700Y0627312D03*
X0534700Y0616288D03*
X0569700Y0592312D03*
X0569700Y0581288D03*
X0569700Y0557312D03*
X0569700Y0546288D03*
X0534700Y0534812D03*
X0534700Y0523788D03*
X0522200Y0568788D03*
X0522200Y0579812D03*
X0479200Y0507312D03*
X0479200Y0496288D03*
X0418700Y0496288D03*
X0418700Y0507312D03*
X0481200Y0427312D03*
X0490200Y0427312D03*
X0490200Y0416288D03*
X0481200Y0416288D03*
X0529700Y0390312D03*
X0529700Y0379288D03*
X0519700Y0317312D03*
X0519700Y0306288D03*
X0402700Y0292812D03*
X0402700Y0281788D03*
X0327200Y0369288D03*
X0327200Y0380312D03*
X0329700Y0421788D03*
X0329700Y0432812D03*
X0227700Y0356812D03*
X0227700Y0345788D03*
X0189700Y0349288D03*
X0189700Y0360312D03*
X0127700Y0356312D03*
X0127700Y0345288D03*
X0127700Y0286812D03*
X0127700Y0275788D03*
X0177700Y0275788D03*
X0177700Y0286812D03*
X0227700Y0286812D03*
X0227700Y0275788D03*
X0210200Y0194812D03*
X0210200Y0183788D03*
X0189700Y0137312D03*
X0189700Y0126288D03*
X0139700Y0102312D03*
X0139700Y0091288D03*
X0269700Y0106288D03*
X0269700Y0117312D03*
X0269700Y0146288D03*
X0269700Y0157312D03*
X0334700Y0097312D03*
X0334700Y0086288D03*
X0369700Y0126288D03*
X0369700Y0137312D03*
X0438700Y0102312D03*
X0438700Y0091288D03*
X0476700Y0091288D03*
X0476700Y0102312D03*
X0524700Y0102312D03*
X0524700Y0091288D03*
X0614700Y0087312D03*
X0614700Y0076288D03*
X0661700Y0186288D03*
X0661700Y0197312D03*
X0689700Y0278288D03*
X0689700Y0289312D03*
X0737200Y0358788D03*
X0737200Y0369812D03*
X0779700Y0397288D03*
X0779700Y0408312D03*
X0779700Y0426288D03*
X0779700Y0437312D03*
X0714700Y0476788D03*
X0714700Y0487812D03*
X0664700Y0464312D03*
X0664700Y0453288D03*
X0621700Y0521288D03*
X0621700Y0532312D03*
X0554700Y0463812D03*
X0554700Y0452788D03*
X0713700Y0611288D03*
X0713700Y0622312D03*
X0717200Y0650788D03*
X0717200Y0661812D03*
X0717200Y0671288D03*
X0717200Y0682312D03*
X0714700Y0710288D03*
X0714700Y0721312D03*
X0715200Y0759288D03*
X0715200Y0770312D03*
X0619200Y0649312D03*
X0619200Y0638288D03*
X0643200Y0631312D03*
X0643200Y0620288D03*
X0492700Y0714788D03*
X0492700Y0725812D03*
X0490200Y0825288D03*
X0490200Y0836312D03*
X0429200Y0835812D03*
X0429200Y0824788D03*
X0038700Y0603312D03*
X0038700Y0592288D03*
X0764700Y0199312D03*
X0764700Y0188288D03*
X0804700Y0182312D03*
X0804700Y0171288D03*
X0796200Y0124812D03*
X0796200Y0113788D03*
X0796700Y0048312D03*
X0796700Y0037288D03*
D15*
X0799700Y0198532D03*
X0799700Y0215068D03*
X0799700Y0270532D03*
X0799700Y0287068D03*
X0799700Y0298532D03*
X0799700Y0315068D03*
X0799700Y0326032D03*
X0799700Y0342568D03*
X0764700Y0368532D03*
X0764700Y0385068D03*
X0764700Y0393532D03*
X0764700Y0410068D03*
X0764700Y0418532D03*
X0764700Y0435068D03*
X0764700Y0443532D03*
X0764700Y0460068D03*
X0724700Y0374568D03*
X0724700Y0358032D03*
X0699200Y0290068D03*
X0699200Y0273532D03*
X0592200Y0418532D03*
X0592200Y0435068D03*
X0509700Y0443532D03*
X0509700Y0460068D03*
X0509700Y0478532D03*
X0509700Y0495068D03*
X0510200Y0505032D03*
X0510200Y0521568D03*
X0457700Y0435568D03*
X0457700Y0419032D03*
D16*
X0829700Y0794300D03*
X0829700Y0800300D03*
X0845700Y0806300D03*
X0845700Y0812300D03*
D17*
X0070700Y0411800D03*
X0064700Y0411800D03*
X0058700Y0411800D03*
X0040700Y0076800D03*
X0034700Y0076800D03*
X0028700Y0076800D03*
M02*
